<svg width="264" height="64" viewBox="0 0 264 64" fill="none" xmlns="http://www.w3.org/2000/svg">
<path d="M232 48C232 39.1634 239.163 32 248 32V32C256.837 32 264 39.1634 264 48V48C264 56.8366 256.837 64 248 64V64C239.163 64 232 56.8366 232 48V48Z" fill="#1C1C1E"/>
<path d="M243 48C243 48.8284 242.328 49.5 241.5 49.5C240.672 49.5 240 48.8284 240 48C240 47.1716 240.672 46.5 241.5 46.5C242.328 46.5 243 47.1716 243 48Z" fill="white"/>
<path d="M249.5 48C249.5 48.8284 248.828 49.5 248 49.5C247.172 49.5 246.5 48.8284 246.5 48C246.5 47.1716 247.172 46.5 248 46.5C248.828 46.5 249.5 47.1716 249.5 48Z" fill="white"/>
<path d="M254.5 49.5C255.328 49.5 256 48.8284 256 48C256 47.1716 255.328 46.5 254.5 46.5C253.672 46.5 253 47.1716 253 48C253 48.8284 253.672 49.5 254.5 49.5Z" fill="white"/>
<path d="M1.044 12H6.084V10.908H2.316V3.42H1.044V12ZM12.4462 12C12.3382 11.424 12.2902 10.68 12.2902 9.66V8.436C12.2902 5.964 11.1382 5.532 9.78216 5.532C8.28216 5.532 7.20216 6.324 7.14216 7.668H8.33016C8.40216 6.924 8.84616 6.492 9.75816 6.492C10.5862 6.492 11.1142 6.852 11.1142 8.124C10.7062 8.16 10.2382 8.208 9.81816 8.268C8.13816 8.496 6.84216 8.94 6.84216 10.296C6.84216 11.472 7.80216 12.12 9.12216 12.12C10.1302 12.12 10.7662 11.82 11.2462 11.136C11.2702 11.592 11.2702 11.748 11.3062 12H12.4462ZM11.1382 9C11.1262 9.072 11.1262 9.18 11.1262 9.336C11.1262 10.56 10.5262 11.244 9.39816 11.244C8.63016 11.244 8.15016 10.872 8.15016 10.284C8.15016 9.408 9.08616 9.204 11.1382 9ZM13.4858 10.08C13.7378 11.484 14.6498 12.144 16.1738 12.144C17.6258 12.144 18.6578 11.364 18.6578 10.152C18.6578 9.084 17.9978 8.712 16.7378 8.352L16.0658 8.16C15.3098 7.944 14.9258 7.776 14.9258 7.272C14.9258 6.804 15.3098 6.492 16.0658 6.492C16.7978 6.492 17.2178 6.804 17.3978 7.368H18.5498C18.4058 6.144 17.4818 5.532 16.1018 5.532C14.6978 5.532 13.6898 6.252 13.6898 7.38C13.6898 8.484 14.4698 8.928 15.5138 9.192L15.9578 9.312C16.8458 9.54 17.4458 9.684 17.4458 10.272C17.4458 10.836 16.9298 11.16 16.2098 11.16C15.3338 11.16 14.8898 10.752 14.6858 10.08H13.4858ZM21.513 3.996H20.289V5.7H19.341V6.636H20.289V10.488C20.289 11.748 20.997 12.12 22.113 12.12C22.269 12.12 22.401 12.096 22.581 12.072V11.172C22.509 11.184 22.365 11.196 22.281 11.196C21.813 11.196 21.513 11.016 21.513 10.416V6.636H22.689V5.7H21.513V3.996ZM28.2195 12H29.5395C30.3435 9.9 31.1595 7.812 31.9635 5.7H30.6555L29.7315 8.436C29.4315 9.348 29.2395 9.816 28.9515 10.692H28.9275C28.6515 9.792 28.5195 9.42 28.2315 8.568L27.2475 5.7H25.8675C26.6355 7.728 27.4635 9.96 28.2195 12ZM32.9854 5.7V12H34.1974V5.7H32.9854ZM32.9614 4.788H34.2214V3.42H32.9614V4.788ZM41.7102 9.168V8.772C41.7102 7.08 40.7622 5.52 38.7102 5.52C36.8142 5.52 35.5542 6.912 35.5542 8.88C35.5542 10.848 36.7662 12.156 38.7102 12.156C40.2222 12.156 41.2182 11.34 41.5782 10.2H40.3662C40.0422 10.74 39.6222 11.148 38.7582 11.148C37.5342 11.148 36.8262 10.272 36.7782 9.168H41.7102ZM36.8262 8.208C36.9462 7.152 37.7022 6.504 38.6862 6.504C39.7182 6.504 40.3422 7.212 40.4502 8.208H36.8262ZM42.24 5.7C42.912 7.752 43.548 9.96 44.232 12H45.612C45.852 11.064 46.368 9.396 46.848 7.344H46.884C47.136 8.52 47.724 10.872 48.036 12H49.476C50.136 9.9 50.808 7.812 51.48 5.7H50.232C49.428 8.508 49.284 8.964 49.164 9.42L48.804 10.764H48.78C48.528 9.828 48.336 8.928 48.144 8.136L47.532 5.7H46.236L45.372 9.144C45.228 9.696 45.096 10.164 44.964 10.764H44.928C44.772 10.14 44.664 9.72 44.532 9.252L43.536 5.7H42.24ZM58.1751 9.168V8.772C58.1751 7.08 57.2271 5.52 55.1751 5.52C53.2791 5.52 52.0191 6.912 52.0191 8.88C52.0191 10.848 53.2311 12.156 55.1751 12.156C56.6871 12.156 57.6831 11.34 58.0431 10.2H56.8311C56.5071 10.74 56.0871 11.148 55.2231 11.148C53.9991 11.148 53.2911 10.272 53.2431 9.168H58.1751ZM53.2911 8.208C53.4111 7.152 54.1671 6.504 55.1511 6.504C56.1831 6.504 56.8071 7.212 56.9151 8.208H53.2911ZM65.2658 12V3.42H64.0538V5.268C64.0538 5.7 64.0538 6.072 64.0658 6.516C63.7058 6 63.0218 5.508 62.0378 5.508C60.2258 5.508 59.0738 6.924 59.0738 8.832C59.0738 10.8 60.2738 12.144 62.0018 12.144C63.0818 12.144 63.7778 11.664 64.1378 11.112V12H65.2658ZM62.2538 6.528C63.4178 6.528 64.1138 7.5 64.1138 8.844C64.1138 10.224 63.4298 11.148 62.2418 11.148C61.0658 11.148 60.3818 10.236 60.3818 8.844C60.3818 7.5 61.0778 6.528 62.2538 6.528ZM70.0401 12H71.1801V11.112C71.5401 11.664 72.2361 12.144 73.3161 12.144C75.0441 12.144 76.2441 10.8 76.2441 8.832C76.2441 6.924 75.0921 5.508 73.3041 5.508C72.3081 5.508 71.6121 5.988 71.2521 6.504C71.2641 6.06 71.2641 5.7 71.2641 5.268V3.42H70.0401V12ZM73.0641 6.528C74.2401 6.528 74.9361 7.5 74.9361 8.844C74.9361 10.236 74.2521 11.148 73.0761 11.148C71.8881 11.148 71.1921 10.224 71.1921 8.844C71.1921 7.5 71.9001 6.528 73.0641 6.528ZM82.8352 5.7H81.5152L80.3152 9.096C80.0992 9.708 79.9912 10.056 79.7872 10.644H79.7632C79.6072 10.14 79.4632 9.732 79.2592 9.132L78.0952 5.7H76.7032L79.1152 12C78.8512 12.684 78.5032 13.464 78.2032 14.16H79.4632C80.5192 11.4 81.7312 8.496 82.8352 5.7ZM85.534 12H86.83L87.838 9.408H91.594L92.626 12H93.958L90.538 3.42H89.014C87.862 6.288 86.686 9.144 85.534 12ZM89.722 4.572H89.746C89.854 4.896 90.058 5.388 90.25 5.904C90.91 7.62 90.91 7.656 91.186 8.364H88.246C88.75 7.08 89.218 5.82 89.722 4.572ZM96.0132 5.7H94.8132C94.8252 6.024 94.8252 6.324 94.8252 6.648V12H96.0372V8.364C96.0372 7.38 96.6012 6.552 97.5972 6.552C98.5812 6.552 99.0012 7.344 99.0012 8.58V12H100.225V8.124C100.225 6.504 99.4572 5.52 98.0172 5.52C96.9492 5.52 96.3492 6.012 96.0132 6.552V5.7ZM101.903 5.7V12.528C101.903 13.308 101.579 13.428 101.015 13.428C100.859 13.428 100.751 13.416 100.739 13.404V14.316C100.895 14.34 101.087 14.364 101.327 14.364C102.383 14.364 103.127 14.136 103.127 12.492V5.7H101.903ZM101.879 4.788H103.151V3.42H101.879V4.788ZM110.64 9.168V8.772C110.64 7.08 109.692 5.52 107.64 5.52C105.744 5.52 104.484 6.912 104.484 8.88C104.484 10.848 105.696 12.156 107.64 12.156C109.152 12.156 110.148 11.34 110.508 10.2H109.296C108.972 10.74 108.552 11.148 107.688 11.148C106.464 11.148 105.756 10.272 105.708 9.168H110.64ZM105.756 8.208C105.876 7.152 106.632 6.504 107.616 6.504C108.648 6.504 109.272 7.212 109.38 8.208H105.756ZM115.126 12H116.374V7.632C117.526 9.096 118.738 10.512 119.866 12H121.462C120.262 10.476 118.918 8.88 117.718 7.344L121.354 3.42H119.806L116.374 7.32V3.42H115.126V12ZM127.656 9.168V8.772C127.656 7.08 126.708 5.52 124.656 5.52C122.76 5.52 121.5 6.912 121.5 8.88C121.5 10.848 122.712 12.156 124.656 12.156C126.168 12.156 127.164 11.34 127.524 10.2H126.312C125.988 10.74 125.568 11.148 124.704 11.148C123.48 11.148 122.772 10.272 122.724 9.168H127.656ZM122.772 8.208C122.892 7.152 123.648 6.504 124.632 6.504C125.664 6.504 126.288 7.212 126.396 8.208H122.772ZM128.95 5.7V12H130.162V5.7H128.95ZM128.926 4.788H130.186V3.42H128.926V4.788ZM131.483 12H136.547V11.04H134.063C133.619 11.04 133.163 11.052 132.851 11.064V11.052L133.907 9.78L136.439 6.672V5.7H131.579V6.66H133.811C134.279 6.66 134.771 6.66 135.071 6.648C134.963 6.828 134.723 7.08 134.447 7.428L131.483 11.076V12ZM143.546 9.168V8.772C143.546 7.08 142.598 5.52 140.546 5.52C138.65 5.52 137.39 6.912 137.39 8.88C137.39 10.848 138.602 12.156 140.546 12.156C142.058 12.156 143.054 11.34 143.414 10.2H142.202C141.878 10.74 141.458 11.148 140.594 11.148C139.37 11.148 138.662 10.272 138.614 9.168H143.546ZM138.662 8.208C138.782 7.152 139.538 6.504 140.522 6.504C141.554 6.504 142.178 7.212 142.286 8.208H138.662ZM144.829 5.7C144.841 6.084 144.841 6.432 144.841 6.828V12H146.053V8.736C146.053 7.476 146.269 6.636 147.409 6.636C147.541 6.636 147.721 6.648 147.829 6.672V5.568C147.745 5.556 147.673 5.544 147.517 5.544C146.809 5.544 146.197 5.916 145.993 6.504V5.7H144.829ZM151.577 8.664H153.701V10.896H154.745V8.664H156.881V7.62H154.745V5.4H153.701V7.62H151.577V8.664ZM160.184 12C160.952 9.852 162.104 7.224 163.148 5.052L163.436 4.452V3.42H158.06V4.548H161.492C161.732 4.548 161.936 4.548 162.176 4.536C161.636 5.556 161.072 6.756 160.604 7.8C159.968 9.216 159.344 10.56 158.792 12H160.184Z" fill="white" fill-opacity="0.3"/>
<path d="M82.9453 13.2H163.616V13.8H82.9453V13.2Z" fill="white" fill-opacity="0.3"/>
<rect y="32" width="105" height="31.9497" rx="15.9749" fill="#1C1C1E"/>
<path d="M30.2221 53.3081C30.2221 46.9262 25.0485 41.7526 18.6665 41.7526V43.5304C24.0666 43.5304 28.4443 47.908 28.4443 53.3081H30.2221Z" fill="#FAFBFC"/>
<path d="M27.5554 53.3081C27.5554 48.399 23.5757 44.4193 18.6665 44.4193V46.197C22.5939 46.197 25.7776 49.3808 25.7776 53.3081H27.5554Z" fill="#FAFBFC"/>
<path d="M24.8887 53.3081C24.8887 49.8717 22.1029 47.0859 18.6665 47.0859V48.8637C21.1211 48.8637 23.1109 50.8536 23.1109 53.3081H24.8887Z" fill="#FAFBFC"/>
<path d="M22.2221 53.3081C22.2221 51.3445 20.6302 49.7526 18.6665 49.7526V53.3081H22.2221Z" fill="#FAFBFC"/>
<path d="M45.044 51.9749H46.316V48.1349H50.012V47.0309H46.316V44.4989H50.3V43.3949H45.044V51.9749ZM54.3283 45.5069C52.3603 45.5069 51.1363 46.8869 51.1363 48.8429C51.1363 50.7629 52.2883 52.1309 54.3043 52.1309C56.3203 52.1309 57.5083 50.7629 57.5083 48.8429C57.5083 46.8869 56.2843 45.5069 54.3283 45.5069ZM54.2923 46.5149C55.4803 46.5149 56.1763 47.4869 56.1763 48.8309C56.1763 50.2229 55.4923 51.1229 54.2923 51.1229C53.1043 51.1229 52.4202 50.2229 52.4202 48.8309C52.4202 47.4869 53.1163 46.5149 54.2923 46.5149ZM58.9162 51.9749H60.1282V43.3949H58.9162V51.9749ZM61.9748 51.9749H63.1868V43.3949H61.9748V51.9749ZM67.7814 45.5069C65.8134 45.5069 64.5894 46.8869 64.5894 48.8429C64.5894 50.7629 65.7414 52.1309 67.7574 52.1309C69.7734 52.1309 70.9614 50.7629 70.9614 48.8429C70.9614 46.8869 69.7374 45.5069 67.7814 45.5069ZM67.7454 46.5149C68.9334 46.5149 69.6294 47.4869 69.6294 48.8309C69.6294 50.2229 68.9454 51.1229 67.7454 51.1229C66.5574 51.1229 65.8734 50.2229 65.8734 48.8309C65.8734 47.4869 66.5694 46.5149 67.7454 46.5149ZM71.5213 45.6749C72.1933 47.7269 72.8293 49.9349 73.5133 51.9749H74.8933C75.1333 51.0389 75.6493 49.3709 76.1293 47.3189H76.1653C76.4173 48.4949 77.0053 50.8469 77.3173 51.9749H78.7573C79.4173 49.8749 80.0893 47.7869 80.7613 45.6749H79.5133C78.7093 48.4829 78.5653 48.9389 78.4453 49.3949L78.0853 50.7389H78.0612C77.8093 49.8029 77.6172 48.9029 77.4253 48.1109L76.8133 45.6749H75.5173L74.6533 49.1189C74.5093 49.6709 74.3773 50.1389 74.2453 50.7389H74.2093C74.0533 50.1149 73.9453 49.6949 73.8133 49.2269L72.8173 45.6749H71.5213Z" fill="#FAFBFC"/>
<path d="M113 48C113 39.1634 120.163 32 129 32H208C216.837 32 224 39.1634 224 48V48C224 56.8366 216.837 64 208 64H129C120.163 64 113 56.8366 113 48V48Z" fill="#1C1C1E"/>
<path fill-rule="evenodd" clip-rule="evenodd" d="M137.167 48.7545V52.6122L134.833 54.1989V48.7389L129.778 43.3333H142.222L137.167 48.7545Z" fill="#FAFBFC"/>
<path d="M161.6 45.628C161.384 44.224 160.508 43.252 158.828 43.252C156.644 43.252 155.612 45.016 155.612 48.064C155.612 50.788 156.644 52.168 158.72 52.168C160.484 52.168 161.696 51.028 161.696 49.252C161.696 47.572 160.616 46.468 159.008 46.468C157.736 46.468 157.124 47.14 156.86 47.548C156.872 47.2 156.896 46.864 156.956 46.552C157.16 45.22 157.772 44.272 158.816 44.272C159.848 44.272 160.148 45.028 160.256 45.628H161.6ZM158.648 47.464C159.728 47.464 160.34 48.244 160.34 49.336C160.34 50.404 159.728 51.172 158.66 51.172C157.58 51.172 156.956 50.428 156.956 49.312C156.956 48.208 157.592 47.464 158.648 47.464ZM166.357 52H167.629V48.16H171.325V47.056H167.629V44.524H171.613V43.42H166.357V52ZM173.021 45.7V52H174.233V45.7H173.021ZM172.997 44.788H174.257V43.42H172.997V44.788ZM176.033 52H177.245V43.42H176.033V52ZM180.556 43.996H179.332V45.7H178.384V46.636H179.332V50.488C179.332 51.748 180.04 52.12 181.156 52.12C181.312 52.12 181.444 52.096 181.624 52.072V51.172C181.552 51.184 181.408 51.196 181.324 51.196C180.856 51.196 180.556 51.016 180.556 50.416V46.636H181.732V45.7H180.556V43.996ZM188.613 49.168V48.772C188.613 47.08 187.665 45.52 185.613 45.52C183.717 45.52 182.457 46.912 182.457 48.88C182.457 50.848 183.669 52.156 185.613 52.156C187.125 52.156 188.121 51.34 188.481 50.2H187.269C186.945 50.74 186.525 51.148 185.661 51.148C184.437 51.148 183.729 50.272 183.681 49.168H188.613ZM183.729 48.208C183.849 47.152 184.605 46.504 185.589 46.504C186.621 46.504 187.245 47.212 187.353 48.208H183.729ZM189.895 45.7C189.907 46.084 189.907 46.432 189.907 46.828V52H191.119V48.736C191.119 47.476 191.335 46.636 192.475 46.636C192.607 46.636 192.787 46.648 192.895 46.672V45.568C192.811 45.556 192.739 45.544 192.583 45.544C191.875 45.544 191.263 45.916 191.059 46.504V45.7H189.895ZM193.494 50.08C193.746 51.484 194.658 52.144 196.182 52.144C197.634 52.144 198.666 51.364 198.666 50.152C198.666 49.084 198.006 48.712 196.746 48.352L196.074 48.16C195.318 47.944 194.934 47.776 194.934 47.272C194.934 46.804 195.318 46.492 196.074 46.492C196.806 46.492 197.226 46.804 197.406 47.368H198.558C198.414 46.144 197.49 45.532 196.11 45.532C194.706 45.532 193.698 46.252 193.698 47.38C193.698 48.484 194.478 48.928 195.522 49.192L195.966 49.312C196.854 49.54 197.454 49.684 197.454 50.272C197.454 50.836 196.938 51.16 196.218 51.16C195.342 51.16 194.898 50.752 194.694 50.08H193.494Z" fill="#FAFBFC"/>
</svg>
