<svg width="1111" height="44" viewBox="0 0 1111 44" fill="none" xmlns="http://www.w3.org/2000/svg">
<path d="M9.67383 22.9993V26.9593L6.67383 29.0593V22.9693L2.17383 17.0293H14.2538L9.67383 23.0093V22.9993Z" fill="#777E8B"/>
<rect x="24" y="8" width="189" height="28" rx="14" fill="#EAEDF2"/>
<path d="M37.288 26H38.478V15.99H37.288V26ZM40.8378 26H41.9998V21.59C41.9998 20.4 42.6858 19.392 43.9178 19.392C45.1778 19.392 45.7238 20.302 45.7238 21.772V26H46.8858V21.408C46.8858 19.546 46.0458 18.454 44.3658 18.454C43.1058 18.454 42.3498 19.084 41.9718 19.7V18.65H40.8238C40.8378 18.986 40.8378 19.42 40.8378 19.756V26ZM50.7398 26H52.0838L54.8838 18.65H53.6938L52.3918 22.36C52.0418 23.396 51.8178 23.886 51.4958 24.908H51.4678C51.1318 23.844 50.9778 23.494 50.6558 22.528L49.3118 18.65H48.0098C48.9058 21.002 49.8578 23.62 50.7398 26ZM59.1789 25.244C57.5689 25.244 56.6729 24.068 56.6729 22.318C56.6729 20.624 57.5829 19.392 59.1789 19.392C60.7609 19.392 61.6709 20.624 61.6709 22.318C61.6709 24.068 60.7749 25.244 59.1789 25.244ZM59.1789 26.182C61.5309 26.182 62.9309 24.586 62.9309 22.332C62.9309 20.092 61.4889 18.454 59.2069 18.454C56.9109 18.454 55.4829 20.092 55.4829 22.332C55.4829 24.586 56.8269 26.182 59.1789 26.182ZM65.7752 17.404V15.99H64.5852V17.404H65.7752ZM64.6132 18.65V26H65.7472V18.65H64.6132ZM73.3961 23.676C73.0181 24.558 72.3741 25.244 71.1141 25.244C69.4901 25.244 68.6221 24.082 68.6221 22.318C68.6221 20.624 69.5461 19.392 71.1141 19.392C72.4161 19.392 73.0741 20.176 73.3961 21.044H74.5441C74.1521 19.602 73.0881 18.454 71.1141 18.454C68.9441 18.454 67.4321 19.98 67.4321 22.304C67.4321 24.67 68.8601 26.182 71.1001 26.182C72.9761 26.182 74.1101 25.076 74.5301 23.676H73.3961ZM82.8305 22.514C82.8305 22.472 82.8445 22.402 82.8445 22.262C82.8445 20.302 81.7805 18.454 79.3585 18.454C77.1325 18.454 75.6625 20.036 75.6625 22.346C75.6625 24.572 77.0345 26.182 79.3445 26.182C81.0245 26.182 82.2145 25.202 82.6765 23.914H81.5005C81.1505 24.614 80.4785 25.244 79.3725 25.244C77.8745 25.244 76.9085 24.25 76.8245 22.514H82.8305ZM76.8805 21.646C77.0625 20.288 77.9305 19.364 79.3305 19.364C80.7725 19.364 81.4865 20.316 81.6265 21.646H76.8805ZM83.8494 23.774C84.1574 25.468 85.2914 26.168 86.9014 26.168C88.5674 26.168 89.7574 25.342 89.7574 23.9C89.7574 22.738 88.9314 22.248 87.6714 21.884L86.7474 21.618C85.8094 21.352 85.2774 21.086 85.2774 20.428C85.2774 19.826 85.8094 19.364 86.8174 19.364C87.7834 19.364 88.3154 19.854 88.5254 20.582H89.6174C89.3934 19.098 88.3294 18.454 86.8454 18.454C85.2494 18.454 84.1154 19.266 84.1154 20.582C84.1154 21.842 85.0254 22.276 86.2014 22.598L87.0694 22.836C88.0214 23.102 88.6234 23.312 88.6234 24.04C88.6234 24.768 87.9374 25.258 86.9294 25.258C85.8234 25.258 85.2494 24.712 84.9834 23.774H83.8494ZM96.0704 18.65H94.9644C94.9784 18.986 94.9784 19.42 94.9784 19.756V26H96.1404V21.982C96.1404 20.512 96.5464 19.56 97.6804 19.56C97.8344 19.56 98.0444 19.574 98.1564 19.602V18.496C98.0864 18.482 98.0024 18.482 97.9324 18.482C97.0924 18.482 96.3224 19.07 96.0704 19.84V18.65ZM99.1437 20.876H100.25C100.348 19.938 100.88 19.364 102.056 19.364C103.302 19.364 103.848 19.994 103.848 21.562C103.26 21.604 102.518 21.702 101.916 21.8C100.124 22.08 98.8077 22.598 98.8077 24.026C98.8077 25.37 99.8857 26.14 101.384 26.14C102.714 26.14 103.456 25.608 103.918 24.866C103.918 25.356 103.96 25.692 104.016 26H105.08C104.982 25.664 104.94 25.16 104.94 24.544V22.738C104.94 22.402 104.954 21.926 104.954 21.632C104.954 19.35 104.016 18.454 102.112 18.454C100.334 18.454 99.1437 19.504 99.1437 20.876ZM103.862 22.738C103.862 24.432 103.078 25.328 101.664 25.328C100.67 25.328 100.026 24.838 100.026 24.012C100.026 22.962 101.16 22.766 103.26 22.458L103.876 22.374C103.862 22.444 103.862 22.528 103.862 22.738ZM108.172 17.404V15.99H106.982V17.404H108.172ZM107.01 18.65V26H108.144V18.65H107.01ZM109.717 23.774C110.025 25.468 111.159 26.168 112.769 26.168C114.435 26.168 115.625 25.342 115.625 23.9C115.625 22.738 114.799 22.248 113.539 21.884L112.615 21.618C111.677 21.352 111.145 21.086 111.145 20.428C111.145 19.826 111.677 19.364 112.685 19.364C113.651 19.364 114.183 19.854 114.393 20.582H115.485C115.261 19.098 114.197 18.454 112.713 18.454C111.117 18.454 109.983 19.266 109.983 20.582C109.983 21.842 110.893 22.276 112.069 22.598L112.937 22.836C113.889 23.102 114.491 23.312 114.491 24.04C114.491 24.768 113.805 25.258 112.797 25.258C111.691 25.258 111.117 24.712 110.851 23.774H109.717ZM123.969 22.514C123.969 22.472 123.983 22.402 123.983 22.262C123.983 20.302 122.919 18.454 120.497 18.454C118.271 18.454 116.801 20.036 116.801 22.346C116.801 24.572 118.173 26.182 120.483 26.182C122.163 26.182 123.353 25.202 123.815 23.914H122.639C122.289 24.614 121.617 25.244 120.511 25.244C119.013 25.244 118.047 24.25 117.963 22.514H123.969ZM118.019 21.646C118.201 20.288 119.069 19.364 120.469 19.364C121.911 19.364 122.625 20.316 122.765 21.646H118.019ZM132.184 15.99H131.022V18.16C131.022 18.636 131.022 19.28 131.036 19.784C130.616 19.098 129.818 18.454 128.46 18.454C126.528 18.454 125.1 20.05 125.1 22.318C125.1 24.768 126.542 26.182 128.544 26.182C129.818 26.182 130.672 25.538 131.106 24.88V26H132.184V15.99ZM128.712 25.244C127.2 25.244 126.36 24.096 126.36 22.318C126.36 20.61 127.214 19.406 128.712 19.406C130.238 19.406 131.05 20.61 131.05 22.318C131.05 24.096 130.238 25.244 128.712 25.244ZM137.376 21.814C137.376 24.544 138.776 27.246 140.946 28.198V26.588C139.714 25.37 139.056 23.844 139.056 21.8C139.056 19.728 139.714 18.202 140.946 16.984V15.374C138.776 16.326 137.376 19.028 137.376 21.814ZM141.584 23.676C141.864 25.398 142.942 26.224 144.762 26.224C146.47 26.224 147.688 25.258 147.688 23.802C147.688 22.542 146.946 22.038 145.434 21.632L144.622 21.422C143.88 21.226 143.488 21.058 143.488 20.582C143.488 20.134 143.866 19.77 144.622 19.77C145.35 19.77 145.84 20.106 146.05 20.708H147.562C147.436 19.252 146.246 18.412 144.664 18.412C143.026 18.412 141.836 19.336 141.836 20.68C141.836 22.024 142.788 22.528 143.978 22.85L144.79 23.074C145.546 23.284 146.092 23.424 146.092 23.942C146.092 24.502 145.518 24.852 144.79 24.852C143.95 24.852 143.39 24.404 143.194 23.676H141.584ZM156.045 22.752C156.045 22.724 156.059 22.542 156.059 22.29C156.045 20.148 154.813 18.398 152.461 18.398C150.221 18.398 148.709 20.064 148.709 22.304C148.709 24.6 150.193 26.224 152.489 26.224C154.267 26.224 155.485 25.244 155.933 23.9H154.211C153.903 24.46 153.357 24.81 152.531 24.81C151.341 24.81 150.529 23.942 150.417 22.738L156.045 22.752ZM150.473 21.52C150.613 20.358 151.383 19.728 152.447 19.728C153.539 19.728 154.239 20.512 154.351 21.52H150.473ZM157.526 26H159.234V15.99H157.526V26ZM168.104 22.752C168.104 22.724 168.118 22.542 168.118 22.29C168.104 20.148 166.872 18.398 164.52 18.398C162.28 18.398 160.768 20.064 160.768 22.304C160.768 24.6 162.252 26.224 164.548 26.224C166.326 26.224 167.544 25.244 167.992 23.9H166.27C165.962 24.46 165.416 24.81 164.59 24.81C163.4 24.81 162.588 23.942 162.476 22.738L168.104 22.752ZM162.532 21.52C162.672 20.358 163.442 19.728 164.506 19.728C165.598 19.728 166.298 20.512 166.41 21.52H162.532ZM174.611 23.648C174.331 24.348 173.743 24.81 172.903 24.81C171.601 24.81 170.831 23.802 170.831 22.29C170.831 20.862 171.601 19.826 172.833 19.826C173.715 19.826 174.233 20.316 174.527 21.086H176.305C175.954 19.518 174.765 18.398 172.861 18.398C170.579 18.398 169.081 20.078 169.081 22.318C169.081 24.572 170.509 26.224 172.833 26.224C174.723 26.224 175.885 25.118 176.291 23.648H174.611ZM179.776 16.662H178.068V18.65H176.962V19.924H178.068V24.236C178.068 25.692 178.964 26.14 180.35 26.14C180.658 26.14 180.868 26.112 181.008 26.084V24.824C180.938 24.838 180.812 24.852 180.658 24.852C180.098 24.852 179.776 24.628 179.776 23.942V19.924H181.148V18.65H179.776V16.662ZM185.626 21.814C185.626 19.028 184.226 16.326 182.056 15.374V16.984C183.288 18.202 183.946 19.728 183.946 21.8C183.946 23.844 183.288 25.37 182.056 26.588V28.198C184.226 27.246 185.626 24.544 185.626 21.814Z" fill="#1C2330"/>
<path d="M200.362 19.2285L201.771 20.6475L197.047 25.3365L192.337 20.6465L193.748 19.2295L197.049 22.5165L200.362 19.2285Z" fill="#777E8B"/>
<rect x="965" y="8" width="146" height="28" rx="14" fill="#EAEDF2"/>
<path d="M976.972 26H978.148L979.394 22.85H984.098L985.358 26H986.618L982.586 15.99H981.046L976.972 26ZM981.76 16.914H981.788C982.264 18.244 982.81 19.518 983.3 20.806L983.72 21.884H979.758L980.15 20.932C980.57 19.854 981.228 18.286 981.76 16.914ZM987.806 19.518V24.306C987.806 25.72 988.604 26.14 989.822 26.14C989.948 26.14 990.088 26.126 990.214 26.112V25.244C990.102 25.258 990.06 25.258 989.99 25.258C989.304 25.258 988.954 24.95 988.954 24.208V19.518H990.354V18.65H988.954V16.662H987.806V18.65H986.672V19.518H987.806ZM992.044 19.518V24.306C992.044 25.72 992.842 26.14 994.06 26.14C994.186 26.14 994.326 26.126 994.452 26.112V25.244C994.34 25.258 994.298 25.258 994.228 25.258C993.542 25.258 993.192 24.95 993.192 24.208V19.518H994.592V18.65H993.192V16.662H992.044V18.65H990.91V19.518H992.044ZM997.08 18.65H995.974C995.988 18.986 995.988 19.42 995.988 19.756V26H997.15V21.982C997.15 20.512 997.556 19.56 998.69 19.56C998.844 19.56 999.054 19.574 999.166 19.602V18.496C999.096 18.482 999.012 18.482 998.942 18.482C998.102 18.482 997.332 19.07 997.08 19.84V18.65ZM1001.63 17.404V15.99H1000.44V17.404H1001.63ZM1000.47 18.65V26H1001.61V18.65H1000.47ZM1003.77 26H1004.85V24.88C1005.28 25.538 1006.13 26.182 1007.41 26.182C1009.41 26.182 1010.85 24.642 1010.85 22.276C1010.85 20.008 1009.51 18.454 1007.49 18.454C1006.18 18.454 1005.34 19.112 1004.92 19.784C1004.93 19.28 1004.93 18.608 1004.93 18.132V15.99H1003.77V26ZM1007.24 25.244C1005.71 25.244 1004.9 24.096 1004.9 22.318C1004.9 20.61 1005.71 19.392 1007.24 19.392C1008.74 19.392 1009.59 20.61 1009.59 22.318C1009.59 24.096 1008.75 25.244 1007.24 25.244ZM1018.38 18.65H1017.22V23.074C1017.22 24.236 1016.59 25.258 1015.39 25.258C1014.14 25.258 1013.61 24.334 1013.61 22.892V18.65H1012.45V23.242C1012.45 25.104 1013.25 26.196 1014.94 26.196C1016.21 26.196 1016.9 25.58 1017.25 24.992V26H1018.4C1018.38 25.622 1018.38 25.258 1018.38 24.88V18.65ZM1020.84 19.518V24.306C1020.84 25.72 1021.63 26.14 1022.85 26.14C1022.98 26.14 1023.12 26.126 1023.24 26.112V25.244C1023.13 25.258 1023.09 25.258 1023.02 25.258C1022.33 25.258 1021.98 24.95 1021.98 24.208V19.518H1023.38V18.65H1021.98V16.662H1020.84V18.65H1019.7V19.518H1020.84ZM1031.4 22.514C1031.4 22.472 1031.42 22.402 1031.42 22.262C1031.42 20.302 1030.35 18.454 1027.93 18.454C1025.71 18.454 1024.24 20.036 1024.24 22.346C1024.24 24.572 1025.61 26.182 1027.92 26.182C1029.6 26.182 1030.79 25.202 1031.25 23.914H1030.07C1029.72 24.614 1029.05 25.244 1027.95 25.244C1026.45 25.244 1025.48 24.25 1025.4 22.514H1031.4ZM1025.45 21.646C1025.64 20.288 1026.5 19.364 1027.9 19.364C1029.35 19.364 1030.06 20.316 1030.2 21.646H1025.45ZM1036.05 21.814C1036.05 24.544 1037.45 27.246 1039.62 28.198V26.588C1038.39 25.37 1037.73 23.844 1037.73 21.8C1037.73 19.728 1038.39 18.202 1039.62 16.984V15.374C1037.45 16.326 1036.05 19.028 1036.05 21.814ZM1040.26 23.676C1040.54 25.398 1041.61 26.224 1043.43 26.224C1045.14 26.224 1046.36 25.258 1046.36 23.802C1046.36 22.542 1045.62 22.038 1044.11 21.632L1043.29 21.422C1042.55 21.226 1042.16 21.058 1042.16 20.582C1042.16 20.134 1042.54 19.77 1043.29 19.77C1044.02 19.77 1044.51 20.106 1044.72 20.708H1046.23C1046.11 19.252 1044.92 18.412 1043.34 18.412C1041.7 18.412 1040.51 19.336 1040.51 20.68C1040.51 22.024 1041.46 22.528 1042.65 22.85L1043.46 23.074C1044.22 23.284 1044.76 23.424 1044.76 23.942C1044.76 24.502 1044.19 24.852 1043.46 24.852C1042.62 24.852 1042.06 24.404 1041.87 23.676H1040.26ZM1054.72 22.752C1054.72 22.724 1054.73 22.542 1054.73 22.29C1054.72 20.148 1053.49 18.398 1051.13 18.398C1048.89 18.398 1047.38 20.064 1047.38 22.304C1047.38 24.6 1048.87 26.224 1051.16 26.224C1052.94 26.224 1054.16 25.244 1054.61 23.9H1052.88C1052.58 24.46 1052.03 24.81 1051.2 24.81C1050.01 24.81 1049.2 23.942 1049.09 22.738L1054.72 22.752ZM1049.15 21.52C1049.29 20.358 1050.06 19.728 1051.12 19.728C1052.21 19.728 1052.91 20.512 1053.02 21.52H1049.15ZM1056.2 26H1057.91V15.99H1056.2V26ZM1066.78 22.752C1066.78 22.724 1066.79 22.542 1066.79 22.29C1066.78 20.148 1065.54 18.398 1063.19 18.398C1060.95 18.398 1059.44 20.064 1059.44 22.304C1059.44 24.6 1060.92 26.224 1063.22 26.224C1065 26.224 1066.22 25.244 1066.66 23.9H1064.94C1064.63 24.46 1064.09 24.81 1063.26 24.81C1062.07 24.81 1061.26 23.942 1061.15 22.738L1066.78 22.752ZM1061.2 21.52C1061.34 20.358 1062.11 19.728 1063.18 19.728C1064.27 19.728 1064.97 20.512 1065.08 21.52H1061.2ZM1073.28 23.648C1073 24.348 1072.41 24.81 1071.57 24.81C1070.27 24.81 1069.5 23.802 1069.5 22.29C1069.5 20.862 1070.27 19.826 1071.5 19.826C1072.39 19.826 1072.9 20.316 1073.2 21.086H1074.98C1074.63 19.518 1073.44 18.398 1071.53 18.398C1069.25 18.398 1067.75 20.078 1067.75 22.318C1067.75 24.572 1069.18 26.224 1071.5 26.224C1073.39 26.224 1074.56 25.118 1074.96 23.648H1073.28ZM1078.45 16.662H1076.74V18.65H1075.63V19.924H1076.74V24.236C1076.74 25.692 1077.64 26.14 1079.02 26.14C1079.33 26.14 1079.54 26.112 1079.68 26.084V24.824C1079.61 24.838 1079.48 24.852 1079.33 24.852C1078.77 24.852 1078.45 24.628 1078.45 23.942V19.924H1079.82V18.65H1078.45V16.662ZM1084.3 21.814C1084.3 19.028 1082.9 16.326 1080.73 15.374V16.984C1081.96 18.202 1082.62 19.728 1082.62 21.8C1082.62 23.844 1081.96 25.37 1080.73 26.588V28.198C1082.9 27.246 1084.3 24.544 1084.3 21.814Z" fill="#1C2330"/>
<path d="M1098.36 19.2285L1099.77 20.6475L1095.05 25.3365L1090.34 20.6465L1091.75 19.2295L1095.05 22.5165L1098.36 19.2285Z" fill="#777E8B"/>
<rect x="221" y="8" width="242" height="28" rx="14" fill="#EAEDF2"/>
<path d="M234.288 26H235.478V20.386C235.478 19 235.464 17.67 235.45 16.858H235.464C235.66 17.53 235.856 18.342 236.178 19.406L238.166 26H239.678L241.4 20.82C241.932 19.238 242.478 17.362 242.632 16.858H242.646C242.646 17.67 242.604 19.868 242.604 20.932V26H243.794V15.99H241.848L239.93 21.87C239.706 22.542 239.3 24.012 239.02 24.852H239.006C238.74 24.012 238.39 22.668 238.166 21.968L236.346 15.99H234.288V26ZM247.326 17.404V15.99H246.136V17.404H247.326ZM246.164 18.65V26H247.298V18.65H246.164ZM248.577 26H249.851L251.867 22.99L253.869 26H255.241C254.471 24.936 253.267 23.214 252.525 22.136C253.239 21.142 254.331 19.644 255.031 18.65H253.771C253.211 19.504 252.539 20.484 251.923 21.394C251.307 20.484 250.313 19.056 250.061 18.65H248.703L251.265 22.262C250.439 23.438 248.941 25.496 248.577 26ZM256.473 18.65V28.52H257.635V26.84C257.635 26 257.621 25.356 257.607 24.964C258.055 25.594 258.895 26.182 260.113 26.182C262.115 26.182 263.557 24.642 263.557 22.276C263.557 20.008 262.213 18.454 260.197 18.454C258.881 18.454 258.027 19.126 257.607 19.798V18.664L256.473 18.65ZM259.945 25.244C258.419 25.244 257.607 24.096 257.607 22.318C257.607 20.61 258.419 19.392 259.945 19.392C261.443 19.392 262.297 20.61 262.297 22.318C262.297 24.096 261.457 25.244 259.945 25.244ZM265.04 20.876H266.146C266.244 19.938 266.776 19.364 267.952 19.364C269.198 19.364 269.744 19.994 269.744 21.562C269.156 21.604 268.414 21.702 267.812 21.8C266.02 22.08 264.704 22.598 264.704 24.026C264.704 25.37 265.782 26.14 267.28 26.14C268.61 26.14 269.352 25.608 269.814 24.866C269.814 25.356 269.856 25.692 269.912 26H270.976C270.878 25.664 270.836 25.16 270.836 24.544V22.738C270.836 22.402 270.85 21.926 270.85 21.632C270.85 19.35 269.912 18.454 268.008 18.454C266.23 18.454 265.04 19.504 265.04 20.876ZM269.758 22.738C269.758 24.432 268.974 25.328 267.56 25.328C266.566 25.328 265.922 24.838 265.922 24.012C265.922 22.962 267.056 22.766 269.156 22.458L269.772 22.374C269.758 22.444 269.758 22.528 269.758 22.738ZM272.906 26H274.068V21.59C274.068 20.4 274.754 19.392 275.986 19.392C277.246 19.392 277.792 20.302 277.792 21.772V26H278.954V21.408C278.954 19.546 278.114 18.454 276.434 18.454C275.174 18.454 274.418 19.084 274.04 19.7V18.65H272.892C272.906 18.986 272.906 19.42 272.906 19.756V26ZM287.719 22.514C287.719 22.472 287.733 22.402 287.733 22.262C287.733 20.302 286.669 18.454 284.247 18.454C282.021 18.454 280.551 20.036 280.551 22.346C280.551 24.572 281.923 26.182 284.233 26.182C285.913 26.182 287.103 25.202 287.565 23.914H286.389C286.039 24.614 285.367 25.244 284.261 25.244C282.763 25.244 281.797 24.25 281.713 22.514H287.719ZM281.769 21.646C281.951 20.288 282.819 19.364 284.219 19.364C285.661 19.364 286.375 20.316 286.515 21.646H281.769ZM289.382 26H290.544V15.99H289.382V26ZM304.222 23.102C303.704 24.208 302.78 25.188 300.918 25.188C298.552 25.188 297.18 23.438 297.18 20.988C297.18 18.524 298.552 16.802 300.904 16.802C302.794 16.802 303.774 17.74 304.25 19H305.468C304.824 16.942 303.228 15.794 300.918 15.794C297.95 15.794 295.892 17.936 295.892 21.002C295.892 24.096 297.922 26.196 300.848 26.196C303.144 26.196 304.754 24.992 305.454 23.102H304.222ZM307.073 26H308.235V15.99H307.073V26ZM316.301 18.65H315.139V23.074C315.139 24.236 314.509 25.258 313.305 25.258C312.059 25.258 311.527 24.334 311.527 22.892V18.65H310.365V23.242C310.365 25.104 311.163 26.196 312.857 26.196C314.131 26.196 314.817 25.58 315.167 24.992V26H316.315C316.301 25.622 316.301 25.258 316.301 24.88V18.65ZM317.873 23.774C318.181 25.468 319.315 26.168 320.925 26.168C322.591 26.168 323.781 25.342 323.781 23.9C323.781 22.738 322.955 22.248 321.695 21.884L320.771 21.618C319.833 21.352 319.301 21.086 319.301 20.428C319.301 19.826 319.833 19.364 320.841 19.364C321.807 19.364 322.339 19.854 322.549 20.582H323.641C323.417 19.098 322.353 18.454 320.869 18.454C319.273 18.454 318.139 19.266 318.139 20.582C318.139 21.842 319.049 22.276 320.225 22.598L321.093 22.836C322.045 23.102 322.647 23.312 322.647 24.04C322.647 24.768 321.961 25.258 320.953 25.258C319.847 25.258 319.273 24.712 319.007 23.774H317.873ZM325.727 19.518V24.306C325.727 25.72 326.525 26.14 327.743 26.14C327.869 26.14 328.009 26.126 328.135 26.112V25.244C328.023 25.258 327.981 25.258 327.911 25.258C327.225 25.258 326.875 24.95 326.875 24.208V19.518H328.275V18.65H326.875V16.662H325.727V18.65H324.593V19.518H325.727ZM336.295 22.514C336.295 22.472 336.309 22.402 336.309 22.262C336.309 20.302 335.245 18.454 332.823 18.454C330.597 18.454 329.127 20.036 329.127 22.346C329.127 24.572 330.499 26.182 332.809 26.182C334.489 26.182 335.679 25.202 336.141 23.914H334.965C334.615 24.614 333.943 25.244 332.837 25.244C331.339 25.244 330.373 24.25 330.289 22.514H336.295ZM330.345 21.646C330.527 20.288 331.395 19.364 332.795 19.364C334.237 19.364 334.951 20.316 335.091 21.646H330.345ZM338.994 18.65H337.888C337.902 18.986 337.902 19.42 337.902 19.756V26H339.064V21.982C339.064 20.512 339.47 19.56 340.604 19.56C340.758 19.56 340.968 19.574 341.08 19.602V18.496C341.01 18.482 340.926 18.482 340.856 18.482C340.016 18.482 339.246 19.07 338.994 19.84V18.65ZM353.579 26V15.99H352.417V21.772C352.417 22.738 352.459 24.124 352.459 24.698H352.431L351.059 22.164L347.657 15.99H345.851V26H347.041V21.072C347.041 20.19 347.027 17.824 347.027 17.278H347.055C347.209 17.656 347.951 18.958 348.525 20.008L351.857 26H353.579ZM355.657 20.876H356.763C356.861 19.938 357.393 19.364 358.569 19.364C359.815 19.364 360.361 19.994 360.361 21.562C359.773 21.604 359.031 21.702 358.429 21.8C356.637 22.08 355.321 22.598 355.321 24.026C355.321 25.37 356.399 26.14 357.897 26.14C359.227 26.14 359.969 25.608 360.431 24.866C360.431 25.356 360.473 25.692 360.529 26H361.593C361.495 25.664 361.453 25.16 361.453 24.544V22.738C361.453 22.402 361.467 21.926 361.467 21.632C361.467 19.35 360.529 18.454 358.625 18.454C356.847 18.454 355.657 19.504 355.657 20.876ZM360.375 22.738C360.375 24.432 359.591 25.328 358.177 25.328C357.183 25.328 356.539 24.838 356.539 24.012C356.539 22.962 357.673 22.766 359.773 22.458L360.389 22.374C360.375 22.444 360.375 22.528 360.375 22.738ZM363.523 26H364.685V21.59C364.685 20.4 365.329 19.392 366.561 19.392C367.821 19.392 368.325 20.302 368.325 21.772V26H369.487V21.506C369.487 20.358 370.159 19.392 371.363 19.392C372.623 19.392 373.127 20.302 373.127 21.772V26H374.289V21.408C374.289 19.546 373.491 18.454 371.811 18.454C370.243 18.454 369.543 19.294 369.207 19.812C368.843 18.944 368.115 18.454 367.009 18.454C365.777 18.454 365.035 19.084 364.657 19.7V18.65H363.509C363.523 18.986 363.523 19.42 363.523 19.756V26ZM383.067 22.514C383.067 22.472 383.081 22.402 383.081 22.262C383.081 20.302 382.017 18.454 379.595 18.454C377.369 18.454 375.899 20.036 375.899 22.346C375.899 24.572 377.271 26.182 379.581 26.182C381.261 26.182 382.451 25.202 382.913 23.914H381.737C381.387 24.614 380.715 25.244 379.609 25.244C378.111 25.244 377.145 24.25 377.061 22.514H383.067ZM377.117 21.646C377.299 20.288 378.167 19.364 379.567 19.364C381.009 19.364 381.723 20.316 381.863 21.646H377.117ZM387.71 21.814C387.71 24.544 389.11 27.246 391.28 28.198V26.588C390.048 25.37 389.39 23.844 389.39 21.8C389.39 19.728 390.048 18.202 391.28 16.984V15.374C389.11 16.326 387.71 19.028 387.71 21.814ZM391.918 23.676C392.198 25.398 393.276 26.224 395.096 26.224C396.804 26.224 398.022 25.258 398.022 23.802C398.022 22.542 397.28 22.038 395.768 21.632L394.956 21.422C394.214 21.226 393.822 21.058 393.822 20.582C393.822 20.134 394.2 19.77 394.956 19.77C395.684 19.77 396.174 20.106 396.384 20.708H397.896C397.77 19.252 396.58 18.412 394.998 18.412C393.36 18.412 392.17 19.336 392.17 20.68C392.17 22.024 393.122 22.528 394.312 22.85L395.124 23.074C395.88 23.284 396.426 23.424 396.426 23.942C396.426 24.502 395.852 24.852 395.124 24.852C394.284 24.852 393.724 24.404 393.528 23.676H391.918ZM406.379 22.752C406.379 22.724 406.393 22.542 406.393 22.29C406.379 20.148 405.147 18.398 402.795 18.398C400.555 18.398 399.043 20.064 399.043 22.304C399.043 24.6 400.527 26.224 402.823 26.224C404.601 26.224 405.819 25.244 406.267 23.9H404.545C404.237 24.46 403.691 24.81 402.865 24.81C401.675 24.81 400.863 23.942 400.751 22.738L406.379 22.752ZM400.807 21.52C400.947 20.358 401.717 19.728 402.781 19.728C403.873 19.728 404.573 20.512 404.685 21.52H400.807ZM407.86 26H409.568V15.99H407.86V26ZM418.438 22.752C418.438 22.724 418.452 22.542 418.452 22.29C418.438 20.148 417.206 18.398 414.854 18.398C412.614 18.398 411.102 20.064 411.102 22.304C411.102 24.6 412.586 26.224 414.882 26.224C416.66 26.224 417.878 25.244 418.326 23.9H416.604C416.296 24.46 415.75 24.81 414.924 24.81C413.734 24.81 412.922 23.942 412.81 22.738L418.438 22.752ZM412.866 21.52C413.006 20.358 413.776 19.728 414.84 19.728C415.932 19.728 416.632 20.512 416.744 21.52H412.866ZM424.944 23.648C424.664 24.348 424.076 24.81 423.236 24.81C421.934 24.81 421.164 23.802 421.164 22.29C421.164 20.862 421.934 19.826 423.166 19.826C424.048 19.826 424.566 20.316 424.86 21.086H426.638C426.288 19.518 425.098 18.398 423.194 18.398C420.912 18.398 419.414 20.078 419.414 22.318C419.414 24.572 420.842 26.224 423.166 26.224C425.056 26.224 426.218 25.118 426.624 23.648H424.944ZM430.11 16.662H428.402V18.65H427.296V19.924H428.402V24.236C428.402 25.692 429.298 26.14 430.684 26.14C430.992 26.14 431.202 26.112 431.342 26.084V24.824C431.272 24.838 431.146 24.852 430.992 24.852C430.432 24.852 430.11 24.628 430.11 23.942V19.924H431.482V18.65H430.11V16.662ZM435.96 21.814C435.96 19.028 434.56 16.326 432.39 15.374V16.984C433.622 18.202 434.28 19.728 434.28 21.8C434.28 23.844 433.622 25.37 432.39 26.588V28.198C434.56 27.246 435.96 24.544 435.96 21.814Z" fill="#1C2330"/>
<path d="M450.362 19.2285L451.771 20.6475L447.047 25.3365L442.337 20.6465L443.748 19.2295L447.049 22.5165L450.362 19.2285Z" fill="#777E8B"/>
<rect x="471" y="8" width="242" height="28" rx="14" fill="#EAEDF2"/>
<path d="M484.288 26H485.478V20.386C485.478 19 485.464 17.67 485.45 16.858H485.464C485.66 17.53 485.856 18.342 486.178 19.406L488.166 26H489.678L491.4 20.82C491.932 19.238 492.478 17.362 492.632 16.858H492.646C492.646 17.67 492.604 19.868 492.604 20.932V26H493.794V15.99H491.848L489.93 21.87C489.706 22.542 489.3 24.012 489.02 24.852H489.006C488.74 24.012 488.39 22.668 488.166 21.968L486.346 15.99H484.288V26ZM497.326 17.404V15.99H496.136V17.404H497.326ZM496.164 18.65V26H497.298V18.65H496.164ZM498.577 26H499.851L501.867 22.99L503.869 26H505.241C504.471 24.936 503.267 23.214 502.525 22.136C503.239 21.142 504.331 19.644 505.031 18.65H503.771C503.211 19.504 502.539 20.484 501.923 21.394C501.307 20.484 500.313 19.056 500.061 18.65H498.703L501.265 22.262C500.439 23.438 498.941 25.496 498.577 26ZM506.473 18.65V28.52H507.635V26.84C507.635 26 507.621 25.356 507.607 24.964C508.055 25.594 508.895 26.182 510.113 26.182C512.115 26.182 513.557 24.642 513.557 22.276C513.557 20.008 512.213 18.454 510.197 18.454C508.881 18.454 508.027 19.126 507.607 19.798V18.664L506.473 18.65ZM509.945 25.244C508.419 25.244 507.607 24.096 507.607 22.318C507.607 20.61 508.419 19.392 509.945 19.392C511.443 19.392 512.297 20.61 512.297 22.318C512.297 24.096 511.457 25.244 509.945 25.244ZM515.04 20.876H516.146C516.244 19.938 516.776 19.364 517.952 19.364C519.198 19.364 519.744 19.994 519.744 21.562C519.156 21.604 518.414 21.702 517.812 21.8C516.02 22.08 514.704 22.598 514.704 24.026C514.704 25.37 515.782 26.14 517.28 26.14C518.61 26.14 519.352 25.608 519.814 24.866C519.814 25.356 519.856 25.692 519.912 26H520.976C520.878 25.664 520.836 25.16 520.836 24.544V22.738C520.836 22.402 520.85 21.926 520.85 21.632C520.85 19.35 519.912 18.454 518.008 18.454C516.23 18.454 515.04 19.504 515.04 20.876ZM519.758 22.738C519.758 24.432 518.974 25.328 517.56 25.328C516.566 25.328 515.922 24.838 515.922 24.012C515.922 22.962 517.056 22.766 519.156 22.458L519.772 22.374C519.758 22.444 519.758 22.528 519.758 22.738ZM522.906 26H524.068V21.59C524.068 20.4 524.754 19.392 525.986 19.392C527.246 19.392 527.792 20.302 527.792 21.772V26H528.954V21.408C528.954 19.546 528.114 18.454 526.434 18.454C525.174 18.454 524.418 19.084 524.04 19.7V18.65H522.892C522.906 18.986 522.906 19.42 522.906 19.756V26ZM537.719 22.514C537.719 22.472 537.733 22.402 537.733 22.262C537.733 20.302 536.669 18.454 534.247 18.454C532.021 18.454 530.551 20.036 530.551 22.346C530.551 24.572 531.923 26.182 534.233 26.182C535.913 26.182 537.103 25.202 537.565 23.914H536.389C536.039 24.614 535.367 25.244 534.261 25.244C532.763 25.244 531.797 24.25 531.713 22.514H537.719ZM531.769 21.646C531.951 20.288 532.819 19.364 534.219 19.364C535.661 19.364 536.375 20.316 536.515 21.646H531.769ZM539.382 26H540.544V15.99H539.382V26ZM554.222 23.102C553.704 24.208 552.78 25.188 550.918 25.188C548.552 25.188 547.18 23.438 547.18 20.988C547.18 18.524 548.552 16.802 550.904 16.802C552.794 16.802 553.774 17.74 554.25 19H555.468C554.824 16.942 553.228 15.794 550.918 15.794C547.95 15.794 545.892 17.936 545.892 21.002C545.892 24.096 547.922 26.196 550.848 26.196C553.144 26.196 554.754 24.992 555.454 23.102H554.222ZM557.073 26H558.235V15.99H557.073V26ZM566.301 18.65H565.139V23.074C565.139 24.236 564.509 25.258 563.305 25.258C562.059 25.258 561.527 24.334 561.527 22.892V18.65H560.365V23.242C560.365 25.104 561.163 26.196 562.857 26.196C564.131 26.196 564.817 25.58 565.167 24.992V26H566.315C566.301 25.622 566.301 25.258 566.301 24.88V18.65ZM567.873 23.774C568.181 25.468 569.315 26.168 570.925 26.168C572.591 26.168 573.781 25.342 573.781 23.9C573.781 22.738 572.955 22.248 571.695 21.884L570.771 21.618C569.833 21.352 569.301 21.086 569.301 20.428C569.301 19.826 569.833 19.364 570.841 19.364C571.807 19.364 572.339 19.854 572.549 20.582H573.641C573.417 19.098 572.353 18.454 570.869 18.454C569.273 18.454 568.139 19.266 568.139 20.582C568.139 21.842 569.049 22.276 570.225 22.598L571.093 22.836C572.045 23.102 572.647 23.312 572.647 24.04C572.647 24.768 571.961 25.258 570.953 25.258C569.847 25.258 569.273 24.712 569.007 23.774H567.873ZM575.727 19.518V24.306C575.727 25.72 576.525 26.14 577.743 26.14C577.869 26.14 578.009 26.126 578.135 26.112V25.244C578.023 25.258 577.981 25.258 577.911 25.258C577.225 25.258 576.875 24.95 576.875 24.208V19.518H578.275V18.65H576.875V16.662H575.727V18.65H574.593V19.518H575.727ZM586.295 22.514C586.295 22.472 586.309 22.402 586.309 22.262C586.309 20.302 585.245 18.454 582.823 18.454C580.597 18.454 579.127 20.036 579.127 22.346C579.127 24.572 580.499 26.182 582.809 26.182C584.489 26.182 585.679 25.202 586.141 23.914H584.965C584.615 24.614 583.943 25.244 582.837 25.244C581.339 25.244 580.373 24.25 580.289 22.514H586.295ZM580.345 21.646C580.527 20.288 581.395 19.364 582.795 19.364C584.237 19.364 584.951 20.316 585.091 21.646H580.345ZM588.994 18.65H587.888C587.902 18.986 587.902 19.42 587.902 19.756V26H589.064V21.982C589.064 20.512 589.47 19.56 590.604 19.56C590.758 19.56 590.968 19.574 591.08 19.602V18.496C591.01 18.482 590.926 18.482 590.856 18.482C590.016 18.482 589.246 19.07 588.994 19.84V18.65ZM603.579 26V15.99H602.417V21.772C602.417 22.738 602.459 24.124 602.459 24.698H602.431L601.059 22.164L597.657 15.99H595.851V26H597.041V21.072C597.041 20.19 597.027 17.824 597.027 17.278H597.055C597.209 17.656 597.951 18.958 598.525 20.008L601.857 26H603.579ZM605.657 20.876H606.763C606.861 19.938 607.393 19.364 608.569 19.364C609.815 19.364 610.361 19.994 610.361 21.562C609.773 21.604 609.031 21.702 608.429 21.8C606.637 22.08 605.321 22.598 605.321 24.026C605.321 25.37 606.399 26.14 607.897 26.14C609.227 26.14 609.969 25.608 610.431 24.866C610.431 25.356 610.473 25.692 610.529 26H611.593C611.495 25.664 611.453 25.16 611.453 24.544V22.738C611.453 22.402 611.467 21.926 611.467 21.632C611.467 19.35 610.529 18.454 608.625 18.454C606.847 18.454 605.657 19.504 605.657 20.876ZM610.375 22.738C610.375 24.432 609.591 25.328 608.177 25.328C607.183 25.328 606.539 24.838 606.539 24.012C606.539 22.962 607.673 22.766 609.773 22.458L610.389 22.374C610.375 22.444 610.375 22.528 610.375 22.738ZM613.523 26H614.685V21.59C614.685 20.4 615.329 19.392 616.561 19.392C617.821 19.392 618.325 20.302 618.325 21.772V26H619.487V21.506C619.487 20.358 620.159 19.392 621.363 19.392C622.623 19.392 623.127 20.302 623.127 21.772V26H624.289V21.408C624.289 19.546 623.491 18.454 621.811 18.454C620.243 18.454 619.543 19.294 619.207 19.812C618.843 18.944 618.115 18.454 617.009 18.454C615.777 18.454 615.035 19.084 614.657 19.7V18.65H613.509C613.523 18.986 613.523 19.42 613.523 19.756V26ZM633.067 22.514C633.067 22.472 633.081 22.402 633.081 22.262C633.081 20.302 632.017 18.454 629.595 18.454C627.369 18.454 625.899 20.036 625.899 22.346C625.899 24.572 627.271 26.182 629.581 26.182C631.261 26.182 632.451 25.202 632.913 23.914H631.737C631.387 24.614 630.715 25.244 629.609 25.244C628.111 25.244 627.145 24.25 627.061 22.514H633.067ZM627.117 21.646C627.299 20.288 628.167 19.364 629.567 19.364C631.009 19.364 631.723 20.316 631.863 21.646H627.117ZM637.71 21.814C637.71 24.544 639.11 27.246 641.28 28.198V26.588C640.048 25.37 639.39 23.844 639.39 21.8C639.39 19.728 640.048 18.202 641.28 16.984V15.374C639.11 16.326 637.71 19.028 637.71 21.814ZM641.918 23.676C642.198 25.398 643.276 26.224 645.096 26.224C646.804 26.224 648.022 25.258 648.022 23.802C648.022 22.542 647.28 22.038 645.768 21.632L644.956 21.422C644.214 21.226 643.822 21.058 643.822 20.582C643.822 20.134 644.2 19.77 644.956 19.77C645.684 19.77 646.174 20.106 646.384 20.708H647.896C647.77 19.252 646.58 18.412 644.998 18.412C643.36 18.412 642.17 19.336 642.17 20.68C642.17 22.024 643.122 22.528 644.312 22.85L645.124 23.074C645.88 23.284 646.426 23.424 646.426 23.942C646.426 24.502 645.852 24.852 645.124 24.852C644.284 24.852 643.724 24.404 643.528 23.676H641.918ZM656.379 22.752C656.379 22.724 656.393 22.542 656.393 22.29C656.379 20.148 655.147 18.398 652.795 18.398C650.555 18.398 649.043 20.064 649.043 22.304C649.043 24.6 650.527 26.224 652.823 26.224C654.601 26.224 655.819 25.244 656.267 23.9H654.545C654.237 24.46 653.691 24.81 652.865 24.81C651.675 24.81 650.863 23.942 650.751 22.738L656.379 22.752ZM650.807 21.52C650.947 20.358 651.717 19.728 652.781 19.728C653.873 19.728 654.573 20.512 654.685 21.52H650.807ZM657.86 26H659.568V15.99H657.86V26ZM668.438 22.752C668.438 22.724 668.452 22.542 668.452 22.29C668.438 20.148 667.206 18.398 664.854 18.398C662.614 18.398 661.102 20.064 661.102 22.304C661.102 24.6 662.586 26.224 664.882 26.224C666.66 26.224 667.878 25.244 668.326 23.9H666.604C666.296 24.46 665.75 24.81 664.924 24.81C663.734 24.81 662.922 23.942 662.81 22.738L668.438 22.752ZM662.866 21.52C663.006 20.358 663.776 19.728 664.84 19.728C665.932 19.728 666.632 20.512 666.744 21.52H662.866ZM674.944 23.648C674.664 24.348 674.076 24.81 673.236 24.81C671.934 24.81 671.164 23.802 671.164 22.29C671.164 20.862 671.934 19.826 673.166 19.826C674.048 19.826 674.566 20.316 674.86 21.086H676.638C676.288 19.518 675.098 18.398 673.194 18.398C670.912 18.398 669.414 20.078 669.414 22.318C669.414 24.572 670.842 26.224 673.166 26.224C675.056 26.224 676.218 25.118 676.624 23.648H674.944ZM680.11 16.662H678.402V18.65H677.296V19.924H678.402V24.236C678.402 25.692 679.298 26.14 680.684 26.14C680.992 26.14 681.202 26.112 681.342 26.084V24.824C681.272 24.838 681.146 24.852 680.992 24.852C680.432 24.852 680.11 24.628 680.11 23.942V19.924H681.482V18.65H680.11V16.662ZM685.96 21.814C685.96 19.028 684.56 16.326 682.39 15.374V16.984C683.622 18.202 684.28 19.728 684.28 21.8C684.28 23.844 683.622 25.37 682.39 26.588V28.198C684.56 27.246 685.96 24.544 685.96 21.814Z" fill="#1C2330"/>
<path d="M700.362 19.2285L701.771 20.6475L697.047 25.3365L692.337 20.6465L693.748 19.2295L697.049 22.5165L700.362 19.2285Z" fill="#777E8B"/>
<rect x="721" y="8" width="236" height="28" rx="14" fill="#EAEDF2"/>
<path d="M737.816 26.196C739.034 26.196 740.224 25.72 740.812 24.908C741.316 24.194 741.456 23.354 741.456 22.206V15.99H740.266V22.108C740.266 22.976 740.224 23.578 739.944 24.11C739.594 24.81 738.796 25.23 737.816 25.23C736.85 25.23 736.066 24.81 735.702 24.11C735.422 23.578 735.38 22.976 735.38 22.108V15.99H734.19V22.206C734.19 23.354 734.33 24.194 734.834 24.908C735.422 25.72 736.57 26.196 737.816 26.196ZM743.047 23.774C743.355 25.468 744.489 26.168 746.099 26.168C747.765 26.168 748.955 25.342 748.955 23.9C748.955 22.738 748.129 22.248 746.869 21.884L745.945 21.618C745.007 21.352 744.475 21.086 744.475 20.428C744.475 19.826 745.007 19.364 746.015 19.364C746.981 19.364 747.513 19.854 747.723 20.582H748.815C748.591 19.098 747.527 18.454 746.043 18.454C744.447 18.454 743.313 19.266 743.313 20.582C743.313 21.842 744.223 22.276 745.399 22.598L746.267 22.836C747.219 23.102 747.821 23.312 747.821 24.04C747.821 24.768 747.135 25.258 746.127 25.258C745.021 25.258 744.447 24.712 744.181 23.774H743.047ZM757.299 22.514C757.299 22.472 757.313 22.402 757.313 22.262C757.313 20.302 756.249 18.454 753.827 18.454C751.601 18.454 750.131 20.036 750.131 22.346C750.131 24.572 751.503 26.182 753.813 26.182C755.493 26.182 756.683 25.202 757.145 23.914H755.969C755.619 24.614 754.947 25.244 753.841 25.244C752.343 25.244 751.377 24.25 751.293 22.514H757.299ZM751.349 21.646C751.531 20.288 752.399 19.364 753.799 19.364C755.241 19.364 755.955 20.316 756.095 21.646H751.349ZM759.998 18.65H758.892C758.906 18.986 758.906 19.42 758.906 19.756V26H760.068V21.982C760.068 20.512 760.474 19.56 761.608 19.56C761.762 19.56 761.972 19.574 762.084 19.602V18.496C762.014 18.482 761.93 18.482 761.86 18.482C761.02 18.482 760.25 19.07 759.998 19.84V18.65ZM768.362 26H769.552V17.026H772.352V15.99H765.562V17.026H768.362V26ZM773.808 15.99V26H774.97V21.59C774.97 20.4 775.656 19.392 776.888 19.392C778.148 19.392 778.694 20.302 778.694 21.772V26H779.856V21.408C779.856 19.546 779.016 18.454 777.336 18.454C776.076 18.454 775.32 19.084 774.942 19.7C774.942 19.7 774.97 19 774.97 18.342V15.99H773.808ZM785.15 25.244C783.54 25.244 782.644 24.068 782.644 22.318C782.644 20.624 783.554 19.392 785.15 19.392C786.732 19.392 787.642 20.624 787.642 22.318C787.642 24.068 786.746 25.244 785.15 25.244ZM785.15 26.182C787.502 26.182 788.902 24.586 788.902 22.332C788.902 20.092 787.46 18.454 785.178 18.454C782.882 18.454 781.454 20.092 781.454 22.332C781.454 24.586 782.798 26.182 785.15 26.182ZM796.436 18.65H795.274V23.074C795.274 24.236 794.644 25.258 793.44 25.258C792.194 25.258 791.662 24.334 791.662 22.892V18.65H790.5V23.242C790.5 25.104 791.298 26.196 792.992 26.196C794.266 26.196 794.952 25.58 795.302 24.992V26H796.45C796.436 25.622 796.436 25.258 796.436 24.88V18.65ZM801.704 27.708C800.346 27.708 799.8 26.91 799.562 26.238H798.372C798.708 27.47 799.842 28.646 801.606 28.646C804.098 28.646 805.204 26.994 805.204 24.544V18.65H804.056C804.056 19.098 804.07 19.714 804.07 19.714C803.622 19.042 802.838 18.454 801.522 18.454C799.576 18.454 798.134 19.896 798.134 22.08C798.134 24.152 799.436 25.664 801.508 25.664C802.824 25.664 803.664 24.978 804.07 24.25V24.726C804.07 26.546 803.328 27.708 801.704 27.708ZM801.732 24.726C800.234 24.726 799.394 23.578 799.394 22.066C799.394 20.498 800.262 19.406 801.732 19.406C803.174 19.406 804.07 20.47 804.07 22.024C804.07 23.732 803.034 24.726 801.732 24.726ZM807.346 15.99V26H808.508V21.59C808.508 20.4 809.194 19.392 810.426 19.392C811.686 19.392 812.232 20.302 812.232 21.772V26H813.394V21.408C813.394 19.546 812.554 18.454 810.874 18.454C809.614 18.454 808.858 19.084 808.48 19.7C808.48 19.7 808.508 19 808.508 18.342V15.99H807.346ZM815.761 19.518V24.306C815.761 25.72 816.559 26.14 817.777 26.14C817.903 26.14 818.043 26.126 818.169 26.112V25.244C818.057 25.258 818.015 25.258 817.945 25.258C817.259 25.258 816.909 24.95 816.909 24.208V19.518H818.309V18.65H816.909V16.662H815.761V18.65H814.627V19.518H815.761ZM819.131 23.158C819.341 25.118 820.755 26.196 822.855 26.196C824.997 26.196 826.453 25.104 826.453 23.256C826.453 21.604 825.193 20.96 823.555 20.442L822.869 20.204C821.539 19.756 820.727 19.35 820.727 18.286C820.727 17.32 821.511 16.732 822.813 16.732C824.101 16.732 824.871 17.334 825.095 18.58H826.257C826.075 16.788 824.885 15.794 822.855 15.794C820.755 15.794 819.495 16.844 819.495 18.412C819.495 19.938 820.545 20.68 822.281 21.226L822.883 21.422C824.129 21.814 825.207 22.22 825.207 23.41C825.207 24.53 824.325 25.244 822.883 25.244C821.385 25.244 820.517 24.474 820.321 23.158H819.131ZM828.141 18.65V28.52H829.303V26.84C829.303 26 829.289 25.356 829.275 24.964C829.723 25.594 830.562 26.182 831.781 26.182C833.783 26.182 835.225 24.642 835.225 22.276C835.225 20.008 833.881 18.454 831.865 18.454C830.549 18.454 829.695 19.126 829.275 19.798V18.664L828.141 18.65ZM831.613 25.244C830.087 25.244 829.275 24.096 829.275 22.318C829.275 20.61 830.087 19.392 831.613 19.392C833.111 19.392 833.965 20.61 833.965 22.318C833.965 24.096 833.125 25.244 831.613 25.244ZM840.124 25.244C838.514 25.244 837.618 24.068 837.618 22.318C837.618 20.624 838.528 19.392 840.124 19.392C841.706 19.392 842.616 20.624 842.616 22.318C842.616 24.068 841.72 25.244 840.124 25.244ZM840.124 26.182C842.476 26.182 843.876 24.586 843.876 22.332C843.876 20.092 842.434 18.454 840.152 18.454C837.856 18.454 836.428 20.092 836.428 22.332C836.428 24.586 837.772 26.182 840.124 26.182ZM845.77 19.518V24.306C845.77 25.72 846.568 26.14 847.786 26.14C847.912 26.14 848.052 26.126 848.178 26.112V25.244C848.066 25.258 848.024 25.258 847.954 25.258C847.268 25.258 846.918 24.95 846.918 24.208V19.518H848.318V18.65H846.918V16.662H845.77V18.65H844.636V19.518H845.77ZM853.493 26H856.251C858.029 26 859.037 25.608 859.877 24.95C861.011 24.054 861.571 22.64 861.571 21.016C861.571 18.818 860.661 17.292 859.023 16.536C858.253 16.186 857.427 15.99 856.041 15.99H853.493V26ZM854.683 17.012C855.145 16.998 855.621 16.998 856.097 16.998C858.743 16.998 860.255 18.384 860.255 21.002C860.255 23.942 858.701 24.978 855.943 24.978H854.683V17.012ZM870.01 22.514C870.01 22.472 870.024 22.402 870.024 22.262C870.024 20.302 868.96 18.454 866.538 18.454C864.312 18.454 862.842 20.036 862.842 22.346C862.842 24.572 864.214 26.182 866.524 26.182C868.204 26.182 869.394 25.202 869.856 23.914H868.68C868.33 24.614 867.658 25.244 866.552 25.244C865.054 25.244 864.088 24.25 864.004 22.514H870.01ZM864.06 21.646C864.242 20.288 865.11 19.364 866.51 19.364C867.952 19.364 868.666 20.316 868.806 21.646H864.06ZM873.33 26H874.674L877.474 18.65H876.284L874.982 22.36C874.632 23.396 874.408 23.886 874.086 24.908H874.058C873.722 23.844 873.568 23.494 873.246 22.528L871.902 18.65H870.6C871.496 21.002 872.448 23.62 873.33 26ZM881.421 21.814C881.421 24.544 882.821 27.246 884.991 28.198V26.588C883.759 25.37 883.101 23.844 883.101 21.8C883.101 19.728 883.759 18.202 884.991 16.984V15.374C882.821 16.326 881.421 19.028 881.421 21.814ZM885.629 23.676C885.909 25.398 886.987 26.224 888.807 26.224C890.515 26.224 891.733 25.258 891.733 23.802C891.733 22.542 890.991 22.038 889.479 21.632L888.667 21.422C887.925 21.226 887.533 21.058 887.533 20.582C887.533 20.134 887.911 19.77 888.667 19.77C889.395 19.77 889.885 20.106 890.095 20.708H891.607C891.481 19.252 890.291 18.412 888.709 18.412C887.071 18.412 885.881 19.336 885.881 20.68C885.881 22.024 886.833 22.528 888.023 22.85L888.835 23.074C889.591 23.284 890.137 23.424 890.137 23.942C890.137 24.502 889.563 24.852 888.835 24.852C887.995 24.852 887.435 24.404 887.239 23.676H885.629ZM900.09 22.752C900.09 22.724 900.104 22.542 900.104 22.29C900.09 20.148 898.858 18.398 896.506 18.398C894.266 18.398 892.754 20.064 892.754 22.304C892.754 24.6 894.238 26.224 896.534 26.224C898.312 26.224 899.53 25.244 899.978 23.9H898.256C897.948 24.46 897.402 24.81 896.576 24.81C895.386 24.81 894.574 23.942 894.462 22.738L900.09 22.752ZM894.518 21.52C894.658 20.358 895.428 19.728 896.492 19.728C897.584 19.728 898.284 20.512 898.396 21.52H894.518ZM901.571 26H903.279V15.99H901.571V26ZM912.149 22.752C912.149 22.724 912.163 22.542 912.163 22.29C912.149 20.148 910.917 18.398 908.565 18.398C906.325 18.398 904.813 20.064 904.813 22.304C904.813 24.6 906.297 26.224 908.593 26.224C910.371 26.224 911.589 25.244 912.037 23.9H910.315C910.007 24.46 909.461 24.81 908.635 24.81C907.445 24.81 906.633 23.942 906.521 22.738L912.149 22.752ZM906.577 21.52C906.717 20.358 907.487 19.728 908.551 19.728C909.643 19.728 910.343 20.512 910.455 21.52H906.577ZM918.655 23.648C918.375 24.348 917.787 24.81 916.947 24.81C915.645 24.81 914.875 23.802 914.875 22.29C914.875 20.862 915.645 19.826 916.877 19.826C917.759 19.826 918.277 20.316 918.571 21.086H920.349C919.999 19.518 918.809 18.398 916.905 18.398C914.623 18.398 913.125 20.078 913.125 22.318C913.125 24.572 914.553 26.224 916.877 26.224C918.767 26.224 919.929 25.118 920.335 23.648H918.655ZM923.821 16.662H922.113V18.65H921.007V19.924H922.113V24.236C922.113 25.692 923.009 26.14 924.395 26.14C924.703 26.14 924.913 26.112 925.053 26.084V24.824C924.983 24.838 924.857 24.852 924.703 24.852C924.143 24.852 923.821 24.628 923.821 23.942V19.924H925.193V18.65H923.821V16.662ZM929.671 21.814C929.671 19.028 928.271 16.326 926.101 15.374V16.984C927.333 18.202 927.991 19.728 927.991 21.8C927.991 23.844 927.333 25.37 926.101 26.588V28.198C928.271 27.246 929.671 24.544 929.671 21.814Z" fill="#1C2330"/>
<path d="M944.362 19.2285L945.771 20.6475L941.047 25.3365L936.337 20.6465L937.748 19.2295L941.049 22.5165L944.362 19.2285Z" fill="#777E8B"/>
</svg>
