<svg width="105" height="32" viewBox="0 0 105 32" fill="none" xmlns="http://www.w3.org/2000/svg">
<rect width="105" height="31.9497" rx="15.9749" fill="#1C1C1E"/>
<path d="M30.2221 21.3081C30.2221 14.9262 25.0485 9.75259 18.6665 9.75259V11.5304C24.0666 11.5304 28.4443 15.908 28.4443 21.3081H30.2221Z" fill="#FAFBFC"/>
<path d="M27.5554 21.3081C27.5554 16.399 23.5757 12.4193 18.6665 12.4193V14.197C22.5939 14.197 25.7776 17.3808 25.7776 21.3081H27.5554Z" fill="#FAFBFC"/>
<path d="M24.8887 21.3081C24.8887 17.8717 22.1029 15.0859 18.6665 15.0859V16.8637C21.1211 16.8637 23.1109 18.8536 23.1109 21.3081H24.8887Z" fill="#FAFBFC"/>
<path d="M22.2221 21.3081C22.2221 19.3445 20.6302 17.7526 18.6665 17.7526V21.3081H22.2221Z" fill="#FAFBFC"/>
<path d="M45.044 19.9749H46.316V16.1349H50.012V15.0309H46.316V12.4989H50.3V11.3949H45.044V19.9749ZM54.3283 13.5069C52.3603 13.5069 51.1363 14.8869 51.1363 16.8429C51.1363 18.7629 52.2883 20.1309 54.3043 20.1309C56.3203 20.1309 57.5083 18.7629 57.5083 16.8429C57.5083 14.8869 56.2843 13.5069 54.3283 13.5069ZM54.2923 14.5149C55.4803 14.5149 56.1763 15.4869 56.1763 16.8309C56.1763 18.2229 55.4923 19.1229 54.2923 19.1229C53.1043 19.1229 52.4202 18.2229 52.4202 16.8309C52.4202 15.4869 53.1163 14.5149 54.2923 14.5149ZM58.9162 19.9749H60.1282V11.3949H58.9162V19.9749ZM61.9748 19.9749H63.1868V11.3949H61.9748V19.9749ZM67.7814 13.5069C65.8134 13.5069 64.5894 14.8869 64.5894 16.8429C64.5894 18.7629 65.7414 20.1309 67.7574 20.1309C69.7734 20.1309 70.9614 18.7629 70.9614 16.8429C70.9614 14.8869 69.7374 13.5069 67.7814 13.5069ZM67.7454 14.5149C68.9334 14.5149 69.6294 15.4869 69.6294 16.8309C69.6294 18.2229 68.9454 19.1229 67.7454 19.1229C66.5574 19.1229 65.8734 18.2229 65.8734 16.8309C65.8734 15.4869 66.5694 14.5149 67.7454 14.5149ZM71.5213 13.6749C72.1933 15.7269 72.8293 17.9349 73.5133 19.9749H74.8933C75.1333 19.0389 75.6493 17.3709 76.1293 15.3189H76.1653C76.4173 16.4949 77.0053 18.8469 77.3173 19.9749H78.7573C79.4173 17.8749 80.0893 15.7869 80.7613 13.6749H79.5133C78.7093 16.4829 78.5653 16.9389 78.4453 17.3949L78.0853 18.7389H78.0612C77.8093 17.8029 77.6172 16.9029 77.4253 16.1109L76.8133 13.6749H75.5173L74.6533 17.1189C74.5093 17.6709 74.3773 18.1389 74.2453 18.7389H74.2093C74.0533 18.1149 73.9453 17.6949 73.8133 17.2269L72.8173 13.6749H71.5213Z" fill="#FAFBFC"/>
</svg>
