<svg width="840" height="243" viewBox="0 0 840 243" fill="none" xmlns="http://www.w3.org/2000/svg">
<mask id="mask0" mask-type="alpha" maskUnits="userSpaceOnUse" x="0" y="0" width="840" height="243">
<rect width="840" height="243" fill="white"/>
</mask>
<g mask="url(#mask0)">
<g clip-path="url(#clip0)">
<g opacity="0.4">
<g opacity="0.8">
<rect width="48" height="98" rx="2" transform="matrix(1 0 0 -1 50.3032 235.458)" fill="#9BE5CB"/>
</g>
</g>
<g opacity="0.4">
<g opacity="0.8">
<rect x="106.234" y="38.0847" width="48" height="177" rx="2" fill="#9BE5CB"/>
</g>
</g>
<g opacity="0.4">
<g opacity="0.8">
<rect x="162.303" y="49.7107" width="48" height="166" rx="2" fill="#9BE5CB"/>
</g>
</g>
<g opacity="0.4">
<g opacity="0.8">
<rect x="218.303" y="68.9512" width="48" height="147" rx="2" fill="#9BE5CB"/>
</g>
</g>
<g opacity="0.4">
<g opacity="0.8">
<rect width="48" height="128" rx="2" transform="matrix(1 0 0 -1 274.303 266.217)" fill="#9BE5CB"/>
</g>
</g>
<g opacity="0.4">
<g opacity="0.8">
<rect x="330.303" y="126.913" width="48" height="179" rx="2" fill="#9BE5CB"/>
</g>
</g>
<g opacity="0.4">
<g opacity="0.8">
<rect x="386.303" y="107.761" width="48" height="108" rx="2" fill="#9BE5CB"/>
</g>
</g>
<g opacity="0.4">
<g opacity="0.8">
<rect x="442.713" y="37" width="48" height="179" rx="2" fill="#9BE5CB"/>
</g>
</g>
<g opacity="0.4">
<g opacity="0.8">
<rect x="498.713" y="38" width="48" height="178" rx="2" fill="#9BE5CB"/>
</g>
</g>
<g opacity="0.4">
<g opacity="0.8">
<rect width="48" height="164" rx="2" transform="matrix(1 0 0 -1 722.303 302.103)" fill="#9BE5CB"/>
</g>
</g>
<g opacity="0.4">
<g opacity="0.8">
<rect x="778.303" y="113.28" width="48" height="103" rx="2" fill="#9BE5CB"/>
</g>
</g>
<g opacity="0.4">
<g opacity="0.8">
<rect x="834.303" y="99.9512" width="48" height="116" rx="2" fill="#9BE5CB"/>
</g>
</g>
<g opacity="0.4">
<g opacity="0.8">
<rect x="554.303" y="113.28" width="48" height="103" rx="2" fill="#9BE5CB"/>
</g>
</g>
<g opacity="0.4">
<g opacity="0.8">
<rect width="48" height="146" rx="2" transform="matrix(1 0 0 -1 610.303 283.647)" fill="#9BE5CB"/>
</g>
</g>
<g opacity="0.4">
<g opacity="0.8">
<rect width="48" height="101" rx="2" transform="matrix(1 0 0 -1 666.303 238.533)" fill="#9BE5CB"/>
</g>
</g>
<g opacity="0.8">
<rect x="50.3032" y="174.103" width="48" height="44" rx="2" fill="#06BF7F"/>
</g>
<g opacity="0.8">
<rect x="106.303" y="138.042" width="48" height="80" rx="2" fill="#06BF7F"/>
</g>
<g opacity="0.8">
<rect x="162.303" y="98.6211" width="48" height="119" rx="2" fill="#06BF7F"/>
</g>
<g opacity="0.8">
<rect x="218.303" y="123.336" width="48" height="95" rx="2" fill="#06BF7F"/>
</g>
<g opacity="0.8">
<rect x="274.303" y="173.062" width="48" height="45" rx="2" fill="#06BF7F"/>
</g>
<g opacity="0.8">
<rect x="330.303" y="177.103" width="48" height="41" rx="2" fill="#06BF7F"/>
</g>
<g opacity="0.8">
<rect x="386.303" y="156.198" width="48" height="62" rx="2" fill="#06BF7F"/>
</g>
<g opacity="0.8">
<rect x="442.303" y="119.975" width="48" height="98" rx="2" fill="#06BF7F"/>
</g>
<g opacity="0.8">
<rect x="498.303" y="82.0527" width="48" height="136" rx="2" fill="#06BF7F"/>
</g>
<g opacity="0.8">
<rect x="722.303" y="179.177" width="48" height="39" rx="2" fill="#06BF7F"/>
</g>
<g opacity="0.8">
<rect x="778.303" y="164.895" width="48" height="53" rx="2" fill="#06BF7F"/>
</g>
<g opacity="0.8">
<rect x="834.303" y="153.468" width="48" height="65" rx="2" fill="#06BF7F"/>
</g>
<g opacity="0.8">
<rect x="554.303" y="143.755" width="48" height="74" rx="2" fill="#06BF7F"/>
</g>
<g opacity="0.8">
<rect x="610.303" y="162.038" width="48" height="56" rx="2" fill="#06BF7F"/>
</g>
<g opacity="0.8">
<rect x="666.303" y="156.896" width="48" height="61" rx="2" fill="#06BF7F"/>
</g>
<rect x="50.3032" y="198.204" width="48" height="20" rx="2" fill="#263238"/>
<rect x="106.303" y="207.204" width="48" height="11" rx="2" fill="#263238"/>
<rect x="162.303" y="176.204" width="48" height="42" rx="2" fill="#263238"/>
<rect x="218.303" y="186.204" width="48" height="32" rx="2" fill="#263238"/>
<rect x="274.303" y="214.204" width="48" height="4" rx="2" fill="#263238"/>
<rect x="330.303" y="195.204" width="48" height="23" rx="2" fill="#263238"/>
<rect x="386.303" y="210.204" width="48" height="8" rx="2" fill="#263238"/>
<rect x="442.303" y="205.204" width="48" height="13" rx="2" fill="#263238"/>
<rect x="498.303" y="162.204" width="48" height="56" rx="2" fill="#263238"/>
<rect x="722.303" y="186.204" width="48" height="32" rx="2" fill="#263238"/>
<rect x="778.303" y="176.204" width="48" height="42" rx="2" fill="#263238"/>
<rect x="834.303" y="162.204" width="48" height="56" rx="2" fill="#263238"/>
<rect x="554.303" y="186.204" width="48" height="32" rx="2" fill="#263238"/>
<rect x="610.303" y="176.204" width="48" height="42" rx="2" fill="#263238"/>
<rect x="666.303" y="191.204" width="48" height="27" rx="2" fill="#263238"/>
</g>
<g clip-path="url(#clip1)">
<path d="M455.414 237.594H456.494L457.334 235.434H460.464L461.324 237.594H462.434L459.584 230.444H458.314C457.354 232.834 456.374 235.214 455.414 237.594ZM458.904 231.404H458.924C459.014 231.674 459.184 232.084 459.344 232.514C459.894 233.944 459.894 233.974 460.124 234.564H457.674C458.094 233.494 458.484 232.444 458.904 231.404ZM464.276 230.444H463.226V234.814C463.226 235.684 463.306 236.214 463.706 236.784C464.126 237.384 464.956 237.714 465.856 237.714C466.756 237.714 467.596 237.374 468.036 236.764C468.406 236.254 468.506 235.644 468.506 234.814V230.444H467.456V234.784C467.456 235.384 467.416 235.804 467.236 236.154C467.006 236.594 466.466 236.864 465.856 236.864C465.246 236.864 464.726 236.594 464.496 236.154C464.306 235.794 464.276 235.384 464.276 234.784V230.444ZM473.021 233.814V234.724H475.631C475.541 235.744 474.861 236.874 473.311 236.874C471.831 236.874 470.881 235.754 470.881 234.024C470.881 232.234 471.861 231.194 473.331 231.194C474.561 231.194 475.161 231.834 475.481 232.584H476.571C476.191 231.284 475.141 230.304 473.341 230.304C471.151 230.304 469.741 231.884 469.741 234.034C469.741 236.294 471.221 237.754 473.221 237.754C474.511 237.754 475.251 237.154 475.621 236.694C475.611 237.074 475.611 237.454 475.611 237.564V237.594H476.571V233.814H473.021Z" fill="#607D8B"/>
<path d="M513.664 235.564C513.754 236.934 514.774 237.734 516.374 237.734C517.924 237.734 519.004 236.874 519.004 235.564C519.004 234.364 518.174 233.914 516.924 233.534L516.424 233.384C515.644 233.154 515.014 232.904 515.014 232.174C515.014 231.574 515.504 231.164 516.334 231.164C517.194 231.164 517.654 231.584 517.774 232.294H518.854C518.724 231.074 517.884 230.294 516.364 230.294C514.884 230.294 513.884 231.094 513.884 232.264C513.884 233.404 514.684 233.904 515.974 234.314L516.444 234.464C517.264 234.724 517.894 234.914 517.894 235.694C517.894 236.414 517.324 236.894 516.384 236.894C515.364 236.894 514.864 236.314 514.734 235.564H513.664ZM520.287 237.594H524.837V236.684H521.347V234.394H524.527V233.484H521.347V231.364H524.767V230.444H520.287V237.594ZM526.157 237.594H527.207V234.784H528.077C528.897 234.784 529.557 234.734 530.097 234.374C530.687 233.984 530.977 233.334 530.977 232.584C530.977 231.774 530.617 231.124 530.007 230.794C529.447 230.494 529.007 230.444 528.087 230.444H526.157V237.594ZM527.207 231.374L528.247 231.364C529.327 231.354 529.867 231.734 529.867 232.594C529.867 233.524 529.197 233.874 528.317 233.874H527.207V231.374Z" fill="#607D8B"/>
<path d="M571.791 230.006C569.651 230.006 568.201 231.516 568.201 233.726C568.201 235.936 569.641 237.436 571.801 237.436C573.971 237.436 575.401 235.936 575.401 233.726C575.401 231.506 573.941 230.006 571.791 230.006ZM571.781 230.896C573.331 230.896 574.251 232.056 574.251 233.716C574.251 235.366 573.321 236.556 571.791 236.556C570.251 236.556 569.331 235.346 569.331 233.716C569.331 232.076 570.241 230.896 571.781 230.896ZM581.978 235.206C581.578 236.056 580.888 236.556 579.838 236.556C578.288 236.556 577.398 235.366 577.398 233.706C577.398 232.036 578.288 230.896 579.828 230.896C580.948 230.896 581.618 231.416 582.008 232.316H583.088C582.638 230.836 581.498 230.006 579.838 230.006C577.718 230.006 576.258 231.516 576.258 233.716C576.258 235.936 577.698 237.436 579.788 237.436C581.468 237.436 582.588 236.576 583.078 235.206H581.978ZM585.586 237.296H586.636V231.066H588.576V230.146H583.646V231.066H585.586V237.296Z" fill="#607D8B"/>
<path d="M623.757 237.296H624.797V234.126C624.797 233.496 624.787 231.946 624.787 231.556H624.797C624.907 231.756 625.347 232.536 625.777 233.276L628.147 237.296H629.507V230.146H628.467V233.916C628.467 234.606 628.487 235.456 628.487 235.866L628.477 235.876L627.587 234.326L625.157 230.146H623.757V237.296ZM634.397 230.006C632.257 230.006 630.807 231.516 630.807 233.726C630.807 235.936 632.247 237.436 634.407 237.436C636.577 237.436 638.007 235.936 638.007 233.726C638.007 231.506 636.547 230.006 634.397 230.006ZM634.387 230.896C635.937 230.896 636.857 232.056 636.857 233.716C636.857 235.366 635.927 236.556 634.397 236.556C632.857 236.556 631.937 235.346 631.937 233.716C631.937 232.076 632.847 230.896 634.387 230.896ZM641.134 237.296H642.404L645.054 230.146H643.944L642.544 234.116C642.294 234.826 642.034 235.516 641.814 236.206H641.794C641.554 235.456 641.354 234.886 641.104 234.176L639.704 230.146H638.534C639.004 231.446 640.404 235.416 641.134 237.296Z" fill="#607D8B"/>
<path d="M680.538 237.296H682.658C685.388 237.296 686.458 235.716 686.458 233.736C686.458 231.426 685.138 230.146 682.488 230.146H680.538V237.296ZM681.598 231.056C681.598 231.056 682.158 231.046 682.508 231.046C684.308 231.046 685.318 231.976 685.318 233.736C685.318 235.706 684.278 236.406 682.408 236.406H681.598V231.056ZM687.774 237.296H692.324V236.386H688.834V234.096H692.014V233.186H688.834V231.066H692.254V230.146H687.774V237.296ZM698.923 235.206C698.523 236.056 697.833 236.556 696.783 236.556C695.233 236.556 694.343 235.366 694.343 233.706C694.343 232.036 695.233 230.896 696.773 230.896C697.893 230.896 698.563 231.416 698.953 232.316H700.033C699.583 230.836 698.443 230.006 696.783 230.006C694.663 230.006 693.203 231.516 693.203 233.716C693.203 235.936 694.643 237.436 696.733 237.436C698.413 237.436 699.533 236.576 700.023 235.206H698.923Z" fill="#607D8B"/>
<path d="M730.415 235.566C730.435 236.796 731.055 237.436 732.315 237.436C733.745 237.436 734.255 236.456 734.255 235.176V230.146H733.205V234.906C733.205 235.846 733.105 236.616 732.275 236.616C731.595 236.616 731.425 236.106 731.415 235.566H730.415ZM735.027 237.296H736.107L736.947 235.136H740.077L740.937 237.296H742.047L739.197 230.146H737.927C736.967 232.536 735.987 234.916 735.027 237.296ZM738.517 231.106H738.537C738.627 231.376 738.797 231.786 738.957 232.216C739.507 233.646 739.507 233.676 739.737 234.266H737.287C737.707 233.196 738.097 232.146 738.517 231.106ZM742.91 237.296H743.95V234.126C743.95 233.496 743.94 231.946 743.94 231.556H743.95C744.06 231.756 744.5 232.536 744.93 233.276L747.3 237.296H748.66V230.146H747.62V233.916C747.62 234.606 747.64 235.456 747.64 235.866L747.63 235.876L746.74 234.326L744.31 230.146H742.91V237.296ZM751.75 230.146H750.71L750.03 232.556H750.9L751.75 230.146ZM757.28 237.296V236.396H753.87C754.11 236.166 754.6 235.786 754.88 235.556L755.44 235.086C756.39 234.286 757.25 233.346 757.25 232.166C757.25 230.916 756.42 230.006 754.91 230.006C753.4 230.006 752.55 230.996 752.53 232.436H753.59C753.62 231.466 754.07 230.946 754.91 230.946C755.67 230.946 756.12 231.436 756.12 232.166C756.12 232.936 755.7 233.556 754.79 234.376L753.13 235.876C752.82 236.156 752.61 236.366 752.61 236.396V237.296H757.28ZM759.792 237.296H760.832V230.146H759.952C759.842 230.946 759.312 231.256 758.082 231.286V232.046H758.972C759.252 232.046 759.512 232.046 759.792 232.036C759.782 232.286 759.792 232.526 759.792 232.766V237.296Z" fill="#607D8B"/>
<path d="M793.891 237.296H794.951V234.096H798.031V233.176H794.951V231.066H798.271V230.146H793.891V237.296ZM799.584 237.296H804.134V236.386H800.644V234.096H803.824V233.186H800.644V231.066H804.064V230.146H799.584V237.296ZM805.453 237.296H807.723C809.093 237.296 810.543 236.926 810.543 235.256C810.543 234.196 809.863 233.716 809.193 233.526C809.723 233.326 810.243 232.866 810.243 231.896C810.243 230.626 809.313 230.146 807.593 230.146H805.453V237.296ZM806.493 234.066H807.763C808.793 234.066 809.453 234.356 809.453 235.236C809.453 236.106 808.783 236.416 807.973 236.416H806.493V234.066ZM806.493 231.036H807.313C808.373 231.036 809.113 231.146 809.113 232.096C809.113 232.916 808.613 233.206 807.653 233.206H806.493V231.036Z" fill="#607D8B"/>
<path d="M57.6782 235.864C57.6982 237.094 58.3182 237.734 59.5782 237.734C61.0082 237.734 61.5182 236.754 61.5182 235.474V230.444H60.4682V235.204C60.4682 236.144 60.3682 236.914 59.5382 236.914C58.8582 236.914 58.6882 236.404 58.6782 235.864H57.6782ZM62.2906 237.594H63.3706L64.2106 235.434H67.3406L68.2006 237.594H69.3106L66.4606 230.444H65.1906C64.2306 232.834 63.2506 235.214 62.2906 237.594ZM65.7806 231.404H65.8006C65.8906 231.674 66.0606 232.084 66.2206 232.514C66.7706 233.944 66.7706 233.974 67.0006 234.564H64.5506C64.9706 233.494 65.3606 232.444 65.7806 231.404ZM70.1732 237.594H71.2132V234.424C71.2132 233.794 71.2032 232.244 71.2032 231.854H71.2132C71.3232 232.054 71.7632 232.834 72.1932 233.574L74.5632 237.594H75.9232V230.444H74.8832V234.214C74.8832 234.904 74.9032 235.754 74.9032 236.164L74.8932 236.174L74.0032 234.624L71.5732 230.444H70.1732V237.594ZM79.0135 230.444H77.9735L77.2935 232.854H78.1635L79.0135 230.444ZM84.5428 237.594V236.694H81.1328C81.3728 236.464 81.8628 236.084 82.1428 235.854L82.7028 235.384C83.6528 234.584 84.5128 233.644 84.5128 232.464C84.5128 231.214 83.6828 230.304 82.1728 230.304C80.6628 230.304 79.8128 231.294 79.7928 232.734H80.8528C80.8828 231.764 81.3328 231.244 82.1728 231.244C82.9328 231.244 83.3828 231.734 83.3828 232.464C83.3828 233.234 82.9628 233.854 82.0528 234.674L80.3928 236.174C80.0828 236.454 79.8728 236.664 79.8728 236.694V237.594H84.5428ZM88.1149 230.304C86.0549 230.304 85.5949 232.114 85.5949 234.034C85.5949 236.154 86.1149 237.744 88.1149 237.744C90.1149 237.744 90.6449 236.154 90.6449 234.034C90.6449 232.114 90.1749 230.304 88.1149 230.304ZM88.1149 231.154C89.2749 231.154 89.5049 232.464 89.5049 234.034C89.5049 235.714 89.2349 236.904 88.1149 236.904C87.0049 236.904 86.7249 235.714 86.7249 234.034C86.7249 232.474 86.9649 231.154 88.1149 231.154Z" fill="#607D8B"/>
<path d="M122.194 237.594H123.254V234.394H126.334V233.474H123.254V231.364H126.574V230.444H122.194V237.594ZM127.887 237.594H132.437V236.684H128.947V234.394H132.127V233.484H128.947V231.364H132.367V230.444H127.887V237.594ZM133.756 237.594H136.026C137.396 237.594 138.846 237.224 138.846 235.554C138.846 234.494 138.166 234.014 137.496 233.824C138.026 233.624 138.546 233.164 138.546 232.194C138.546 230.924 137.616 230.444 135.896 230.444H133.756V237.594ZM134.796 234.364H136.066C137.096 234.364 137.756 234.654 137.756 235.534C137.756 236.404 137.086 236.714 136.276 236.714H134.796V234.364ZM134.796 231.334H135.616C136.676 231.334 137.416 231.444 137.416 232.394C137.416 233.214 136.916 233.504 135.956 233.504H134.796V231.334Z" fill="#607D8B"/>
<path d="M176.148 237.594H177.158V233.804C177.158 232.814 177.148 231.984 177.138 231.404H177.148C177.278 231.884 177.408 232.414 177.638 233.104L179.148 237.594H180.258L181.528 233.824C181.858 232.824 182.188 231.764 182.298 231.404H182.308C182.308 231.984 182.278 233.144 182.278 233.904V237.594H183.298V230.444H181.658L180.398 234.284L179.738 236.314H179.728C179.538 235.714 179.288 234.854 179.118 234.354L177.848 230.444H176.148V237.594ZM184.125 237.594H185.205L186.045 235.434H189.175L190.035 237.594H191.145L188.295 230.444H187.025C186.065 232.834 185.085 235.214 184.125 237.594ZM187.615 231.404H187.635C187.725 231.674 187.895 232.084 188.055 232.514C188.605 233.944 188.605 233.974 188.835 234.564H186.385C186.805 233.494 187.195 232.444 187.615 231.404ZM192.007 237.594H193.057V234.724H194.077C194.587 235.594 195.207 236.654 195.737 237.594H196.997C196.177 236.214 195.677 235.394 195.167 234.564C196.077 234.374 196.897 233.794 196.897 232.534C196.897 231.804 196.597 231.224 196.047 230.854C195.537 230.514 194.877 230.444 194.167 230.444H192.007V237.594ZM193.057 231.374C193.397 231.364 193.757 231.364 194.157 231.364C195.147 231.364 195.757 231.674 195.757 232.574C195.757 233.454 195.147 233.814 194.157 233.814H193.057V231.374Z" fill="#607D8B"/>
<path d="M232.673 237.594H233.753L234.593 235.434H237.723L238.583 237.594H239.693L236.843 230.444H235.573C234.613 232.834 233.633 235.214 232.673 237.594ZM236.163 231.404H236.183C236.273 231.674 236.443 232.084 236.603 232.514C237.153 233.944 237.153 233.974 237.383 234.564H234.933C235.353 233.494 235.743 232.444 236.163 231.404ZM240.556 237.594H241.606V234.784H242.476C243.296 234.784 243.956 234.734 244.496 234.374C245.086 233.984 245.376 233.334 245.376 232.584C245.376 231.774 245.016 231.124 244.406 230.794C243.846 230.494 243.406 230.444 242.486 230.444H240.556V237.594ZM241.606 231.374L242.646 231.364C243.726 231.354 244.266 231.734 244.266 232.594C244.266 233.524 243.596 233.874 242.716 233.874H241.606V231.374ZM246.572 237.594H247.622V234.724H248.642C249.152 235.594 249.772 236.654 250.302 237.594H251.562C250.742 236.214 250.242 235.394 249.732 234.564C250.642 234.374 251.462 233.794 251.462 232.534C251.462 231.804 251.162 231.224 250.612 230.854C250.102 230.514 249.442 230.444 248.732 230.444H246.572V237.594ZM247.622 231.374C247.962 231.364 248.322 231.364 248.722 231.364C249.712 231.364 250.322 231.674 250.322 232.574C250.322 233.454 249.712 233.814 248.722 233.814H247.622V231.374Z" fill="#607D8B"/>
<path d="M288.275 237.594H289.285V233.804C289.285 232.814 289.275 231.984 289.265 231.404H289.275C289.405 231.884 289.535 232.414 289.765 233.104L291.275 237.594H292.385L293.655 233.824C293.985 232.824 294.315 231.764 294.425 231.404H294.435C294.435 231.984 294.405 233.144 294.405 233.904V237.594H295.425V230.444H293.785L292.525 234.284L291.865 236.314H291.855C291.665 235.714 291.415 234.854 291.245 234.354L289.975 230.444H288.275V237.594ZM296.252 237.594H297.332L298.172 235.434H301.302L302.162 237.594H303.272L300.422 230.444H299.152C298.192 232.834 297.212 235.214 296.252 237.594ZM299.742 231.404H299.762C299.852 231.674 300.022 232.084 300.182 232.514C300.732 233.944 300.732 233.974 300.962 234.564H298.512C298.932 233.494 299.322 232.444 299.742 231.404ZM305.704 237.594H306.744V234.824C307.554 233.354 308.374 231.914 309.174 230.444H308.054L306.274 233.824C305.464 232.304 304.974 231.344 304.504 230.444H303.314C304.104 231.914 304.904 233.354 305.704 234.824V237.594Z" fill="#607D8B"/>
<path d="M344.915 235.864C344.935 237.094 345.555 237.734 346.815 237.734C348.245 237.734 348.755 236.754 348.755 235.474V230.444H347.705V235.204C347.705 236.144 347.605 236.914 346.775 236.914C346.095 236.914 345.925 236.404 345.915 235.864H344.915ZM351.417 230.444H350.367V234.814C350.367 235.684 350.447 236.214 350.847 236.784C351.267 237.384 352.097 237.714 352.997 237.714C353.897 237.714 354.737 237.374 355.177 236.764C355.547 236.254 355.647 235.644 355.647 234.814V230.444H354.597V234.784C354.597 235.384 354.557 235.804 354.377 236.154C354.147 236.594 353.607 236.864 352.997 236.864C352.387 236.864 351.867 236.594 351.637 236.154C351.447 235.794 351.417 235.384 351.417 234.784V230.444ZM357.322 237.594H358.362V234.424C358.362 233.794 358.352 232.244 358.352 231.854H358.362C358.472 232.054 358.912 232.834 359.342 233.574L361.712 237.594H363.072V230.444H362.032V234.214C362.032 234.904 362.052 235.754 362.052 236.164L362.042 236.174L361.152 234.624L358.722 230.444H357.322V237.594Z" fill="#607D8B"/>
<path d="M401.989 235.864C402.009 237.094 402.629 237.734 403.889 237.734C405.319 237.734 405.829 236.754 405.829 235.474V230.444H404.779V235.204C404.779 236.144 404.679 236.914 403.849 236.914C403.169 236.914 402.999 236.404 402.989 235.864H401.989ZM408.491 230.444H407.441V234.814C407.441 235.684 407.521 236.214 407.921 236.784C408.341 237.384 409.171 237.714 410.071 237.714C410.971 237.714 411.811 237.374 412.251 236.764C412.621 236.254 412.721 235.644 412.721 234.814V230.444H411.671V234.784C411.671 235.384 411.631 235.804 411.451 236.154C411.221 236.594 410.681 236.864 410.071 236.864C409.461 236.864 408.941 236.594 408.711 236.154C408.521 235.794 408.491 235.384 408.491 234.784V230.444ZM414.396 237.594H418.596V236.684H415.456V230.444H414.396V237.594Z" fill="#607D8B"/>
</g>
<path d="M22.7911 42.3879H23.8311V35.2379H22.9511C22.8411 36.0379 22.3111 36.3479 21.0811 36.3779V37.1379H21.9711C22.2511 37.1379 22.5111 37.1379 22.7911 37.1279C22.7811 37.3779 22.7911 37.6179 22.7911 37.8579V42.3879ZM28.0838 42.3879H29.1038V39.7479L29.9138 40.7779C30.3538 41.3379 30.8738 41.9879 31.2038 42.3879H32.5538C31.7438 41.4379 30.4338 39.8579 30.1438 39.4979L32.3138 37.1379H31.0638C30.7138 37.5379 30.0938 38.2879 29.6438 38.8279L29.1038 39.4679V35.2379H28.0838V42.3879Z" fill="#607D8B"/>
<path d="M15.2592 77.8047L16.2592 77.9647C16.4292 77.6247 16.7992 77.2647 17.4792 77.2647C18.3292 77.2647 18.8292 77.9447 18.8292 78.7747C18.8292 79.6847 18.3292 80.3247 17.4392 80.3247C16.4992 80.3247 16.1792 79.6647 16.0992 79.1147H14.9892C15.1692 80.4747 16.0792 81.2247 17.4692 81.2247C18.9592 81.2247 19.9492 80.1647 19.9492 78.7347C19.9492 77.3347 19.0492 76.3747 17.7092 76.3747C17.0992 76.3747 16.6292 76.5747 16.3092 76.8247L16.5492 74.8447H19.4492V73.9247H15.6892C15.5392 75.2247 15.3992 76.5147 15.2592 77.8047ZM23.3921 73.7847C21.3321 73.7847 20.8721 75.5947 20.8721 77.5147C20.8721 79.6347 21.3921 81.2247 23.3921 81.2247C25.3921 81.2247 25.9221 79.6347 25.9221 77.5147C25.9221 75.5947 25.4521 73.7847 23.3921 73.7847ZM23.3921 74.6347C24.5521 74.6347 24.7821 75.9447 24.7821 77.5147C24.7821 79.1947 24.5121 80.3847 23.3921 80.3847C22.2821 80.3847 22.0021 79.1947 22.0021 77.5147C22.0021 75.9547 22.2421 74.6347 23.3921 74.6347ZM29.5054 73.7847C27.4454 73.7847 26.9854 75.5947 26.9854 77.5147C26.9854 79.6347 27.5054 81.2247 29.5054 81.2247C31.5054 81.2247 32.0354 79.6347 32.0354 77.5147C32.0354 75.5947 31.5654 73.7847 29.5054 73.7847ZM29.5054 74.6347C30.6654 74.6347 30.8954 75.9447 30.8954 77.5147C30.8954 79.1947 30.6254 80.3847 29.5054 80.3847C28.3954 80.3847 28.1154 79.1947 28.1154 77.5147C28.1154 75.9547 28.3554 74.6347 29.5054 74.6347Z" fill="#607D8B"/>
<path d="M20.2203 120.97V120.07H16.8103C17.0503 119.84 17.5403 119.46 17.8203 119.23L18.3803 118.76C19.3303 117.96 20.1903 117.02 20.1903 115.84C20.1903 114.59 19.3603 113.68 17.8503 113.68C16.3403 113.68 15.4903 114.67 15.4703 116.11H16.5303C16.5603 115.14 17.0103 114.62 17.8503 114.62C18.6103 114.62 19.0603 115.11 19.0603 115.84C19.0603 116.61 18.6403 117.23 17.7303 118.05L16.0703 119.55C15.7603 119.83 15.5503 120.04 15.5503 120.07V120.97H20.2203ZM21.3725 117.7L22.3725 117.86C22.5425 117.52 22.9125 117.16 23.5925 117.16C24.4425 117.16 24.9425 117.84 24.9425 118.67C24.9425 119.58 24.4425 120.22 23.5525 120.22C22.6125 120.22 22.2925 119.56 22.2125 119.01H21.1025C21.2825 120.37 22.1925 121.12 23.5825 121.12C25.0725 121.12 26.0625 120.06 26.0625 118.63C26.0625 117.23 25.1625 116.27 23.8225 116.27C23.2125 116.27 22.7425 116.47 22.4225 116.72L22.6625 114.74H25.5625V113.82H21.8025C21.6525 115.12 21.5125 116.41 21.3725 117.7ZM29.5054 113.68C27.4454 113.68 26.9854 115.49 26.9854 117.41C26.9854 119.53 27.5054 121.12 29.5054 121.12C31.5054 121.12 32.0354 119.53 32.0354 117.41C32.0354 115.49 31.5654 113.68 29.5054 113.68ZM29.5054 114.53C30.6654 114.53 30.8954 115.84 30.8954 117.41C30.8954 119.09 30.6254 120.28 29.5054 120.28C28.3954 120.28 28.1154 119.09 28.1154 117.41C28.1154 115.85 28.3554 114.53 29.5054 114.53Z" fill="#607D8B"/>
<path d="M19.0704 159.657H20.1104V152.507H19.2304C19.1204 153.307 18.5904 153.617 17.3604 153.647V154.407H18.2504C18.5304 154.407 18.7904 154.407 19.0704 154.397C19.0604 154.647 19.0704 154.887 19.0704 155.127V159.657ZM26.3336 159.657V158.757H22.9236C23.1636 158.527 23.6536 158.147 23.9336 157.917L24.4936 157.447C25.4436 156.647 26.3036 155.707 26.3036 154.527C26.3036 153.277 25.4736 152.367 23.9636 152.367C22.4536 152.367 21.6036 153.357 21.5836 154.797H22.6436C22.6736 153.827 23.1236 153.307 23.9636 153.307C24.7236 153.307 25.1736 153.797 25.1736 154.527C25.1736 155.297 24.7536 155.917 23.8436 156.737L22.1836 158.237C21.8736 158.517 21.6636 158.727 21.6636 158.757V159.657H26.3336ZM27.4858 156.387L28.4858 156.547C28.6558 156.207 29.0258 155.847 29.7058 155.847C30.5558 155.847 31.0558 156.527 31.0558 157.357C31.0558 158.267 30.5558 158.907 29.6658 158.907C28.7258 158.907 28.4058 158.247 28.3258 157.697H27.2158C27.3958 159.057 28.3058 159.807 29.6958 159.807C31.1858 159.807 32.1758 158.747 32.1758 157.317C32.1758 155.917 31.2758 154.957 29.9358 154.957C29.3258 154.957 28.8558 155.157 28.5358 155.407L28.7758 153.427H31.6758V152.507H27.9158C27.7658 153.807 27.6258 155.097 27.4858 156.387Z" fill="#607D8B"/>
<path d="M23.9944 199.552C24.6344 197.762 25.5944 195.572 26.4644 193.762L26.7044 193.262V192.402H22.2244V193.342H25.0844C25.2844 193.342 25.4544 193.342 25.6544 193.332C25.2044 194.182 24.7344 195.182 24.3444 196.052C23.8144 197.232 23.2944 198.352 22.8344 199.552H23.9944ZM27.4858 196.282L28.4858 196.442C28.6558 196.102 29.0258 195.742 29.7058 195.742C30.5558 195.742 31.0558 196.422 31.0558 197.252C31.0558 198.162 30.5558 198.802 29.6658 198.802C28.7258 198.802 28.4058 198.142 28.3258 197.592H27.2158C27.3958 198.952 28.3058 199.702 29.6958 199.702C31.1858 199.702 32.1758 198.642 32.1758 197.212C32.1758 195.812 31.2758 194.852 29.9358 194.852C29.3258 194.852 28.8558 195.052 28.5358 195.302L28.7758 193.322H31.6758V192.402H27.9158C27.7658 193.702 27.6258 194.992 27.4858 196.282Z" fill="#607D8B"/>
</g>
<defs>
<clipPath id="clip0">
<rect width="789.697" height="182.823" fill="white" transform="translate(50.3032 35.2043)"/>
</clipPath>
<clipPath id="clip1">
<rect width="773" height="17" fill="white" transform="translate(50 227)"/>
</clipPath>
</defs>
</svg>
