<svg width="579" height="527" viewBox="0 0 579 527" fill="none" xmlns="http://www.w3.org/2000/svg">
<path d="M108 151.5L302 263.5M302 263.5V40.5M302 263.5L496 151.5M302 263.5L496 376M302 263.5V485.5M302 263.5L108.5 376.5M302 263.5L414 457.5M302 263.5H525.5M302 263.5H78.5M302 263.5L190 70.5M302 263.5L414 70.5M302 263.5L190 457.5" stroke="#CFD8DC"/>
<path d="M286.259 236.735L302 232.518L317.741 236.735L329.265 248.259L333.482 264L329.265 279.741L317.741 291.265L302 295.482L286.259 291.265L274.735 279.741L270.518 264L274.735 248.259L286.259 236.735Z" stroke="#CFD8DC"/>
<path d="M270.259 209.023L302 200.518L333.741 209.023L356.977 232.259L365.482 264L356.977 295.741L333.741 318.977L302 327.482L270.259 318.977L247.023 295.741L238.518 264L247.023 232.259L270.259 209.023Z" stroke="#CFD8DC"/>
<path d="M254.259 181.31L302 168.518L349.741 181.31L384.69 216.259L397.482 264L384.69 311.741L349.741 346.69L302 359.482L254.259 346.69L219.31 311.741L206.518 264L219.31 216.259L254.259 181.31Z" stroke="#CFD8DC"/>
<path d="M238.259 153.597L302 136.518L365.741 153.597L412.403 200.259L429.482 264L412.403 327.741L365.741 374.403L302 391.482L238.259 374.403L191.597 327.741L174.518 264L191.597 200.259L238.259 153.597Z" stroke="#CFD8DC"/>
<path d="M222.259 125.884L302 104.518L381.741 125.884L440.116 184.259L461.482 264L440.116 343.741L381.741 402.116L302 423.482L222.259 402.116L163.884 343.741L142.518 264L163.884 184.259L222.259 125.884Z" stroke="#CFD8DC"/>
<path d="M206.259 98.1714L302 72.5176L397.741 98.1714L467.829 168.259L493.482 264L467.829 359.741L397.741 429.829L302 455.482L206.259 429.829L136.171 359.741L110.518 264L136.171 168.259L206.259 98.1714Z" stroke="#CFD8DC"/>
<path d="M190.259 70.4586L302 40.5176L413.741 70.4586L495.541 152.259L525.482 264L495.541 375.741L413.741 457.541L302 487.482L190.259 457.541L108.459 375.741L78.5176 264L108.459 152.259L190.259 70.4586Z" stroke="#CFD8DC"/>
<g filter="url(#filter0_d)">
<rect x="290" y="227" width="24" height="16" rx="2" fill="white"/>
</g>
<path d="M299.858 234.475L300.244 230.891H304.062V231.916H301.23L301.035 233.615C301.363 233.426 301.734 233.332 302.148 233.332C302.825 233.332 303.351 233.549 303.725 233.981C304.103 234.414 304.291 234.997 304.291 235.729C304.291 236.452 304.083 237.028 303.666 237.458C303.25 237.884 302.678 238.098 301.953 238.098C301.301 238.098 300.761 237.914 300.331 237.546C299.905 237.175 299.674 236.687 299.638 236.081H300.786C300.831 236.426 300.955 236.691 301.157 236.877C301.358 237.059 301.622 237.15 301.948 237.15C302.312 237.15 302.595 237.02 302.797 236.76C303.002 236.499 303.105 236.145 303.105 235.695C303.105 235.262 302.993 234.921 302.768 234.67C302.543 234.416 302.234 234.289 301.84 234.289C301.625 234.289 301.443 234.318 301.293 234.377C301.144 234.432 300.981 234.543 300.805 234.709L299.858 234.475Z" fill="black"/>
<g filter="url(#filter1_d)">
<rect x="290" y="195" width="24" height="16" rx="2" fill="white"/>
</g>
<path d="M299.762 206H298.58V200.292L296.837 200.888V199.887L299.61 198.866H299.762V206ZM307.166 203.007C307.166 204.029 306.974 204.8 306.59 205.321C306.209 205.839 305.628 206.098 304.847 206.098C304.078 206.098 303.499 205.845 303.108 205.341C302.721 204.833 302.522 204.083 302.513 203.09V201.859C302.513 200.837 302.703 200.071 303.084 199.56C303.468 199.049 304.052 198.793 304.837 198.793C305.615 198.793 306.194 199.042 306.575 199.54C306.959 200.038 307.156 200.784 307.166 201.776V203.007ZM305.979 201.679C305.979 201.011 305.888 200.523 305.706 200.214C305.524 199.901 305.234 199.745 304.837 199.745C304.45 199.745 304.165 199.893 303.982 200.189C303.8 200.482 303.704 200.941 303.694 201.566V203.178C303.694 203.842 303.787 204.337 303.973 204.662C304.158 204.988 304.45 205.15 304.847 205.15C305.228 205.15 305.509 205.001 305.691 204.701C305.874 204.398 305.97 203.926 305.979 203.285V201.679Z" fill="black"/>
<g filter="url(#filter2_d)">
<rect x="290" y="163" width="24" height="16" rx="2" fill="white"/>
</g>
<path d="M299.762 174H298.58V168.292L296.837 168.888V167.887L299.61 166.866H299.762V174ZM302.85 170.475L303.235 166.891H307.054V167.916H304.222L304.026 169.615C304.355 169.426 304.726 169.332 305.14 169.332C305.817 169.332 306.342 169.549 306.717 169.981C307.094 170.414 307.283 170.997 307.283 171.729C307.283 172.452 307.075 173.028 306.658 173.458C306.242 173.884 305.67 174.098 304.944 174.098C304.293 174.098 303.753 173.914 303.323 173.546C302.897 173.175 302.666 172.687 302.63 172.081H303.777C303.823 172.426 303.947 172.691 304.148 172.877C304.35 173.059 304.614 173.15 304.939 173.15C305.304 173.15 305.587 173.02 305.789 172.76C305.994 172.499 306.097 172.145 306.097 171.695C306.097 171.262 305.984 170.921 305.76 170.67C305.535 170.416 305.226 170.289 304.832 170.289C304.617 170.289 304.435 170.318 304.285 170.377C304.135 170.432 303.973 170.543 303.797 170.709L302.85 170.475Z" fill="black"/>
<g filter="url(#filter3_d)">
<rect x="290" y="131" width="24" height="16" rx="2" fill="white"/>
</g>
<path d="M301.329 142H296.549V141.185L298.917 138.602C299.259 138.221 299.501 137.903 299.644 137.649C299.791 137.392 299.864 137.135 299.864 136.878C299.864 136.539 299.768 136.266 299.576 136.058C299.387 135.849 299.132 135.745 298.809 135.745C298.425 135.745 298.127 135.862 297.916 136.097C297.704 136.331 297.598 136.652 297.598 137.059H296.412C296.412 136.626 296.51 136.237 296.705 135.892C296.903 135.543 297.185 135.273 297.55 135.081C297.917 134.889 298.341 134.793 298.819 134.793C299.509 134.793 300.053 134.967 300.45 135.315C300.85 135.66 301.051 136.139 301.051 136.751C301.051 137.106 300.95 137.479 300.748 137.869C300.549 138.257 300.222 138.698 299.766 139.192L298.028 141.053H301.329V142ZM307.166 139.007C307.166 140.029 306.974 140.8 306.59 141.321C306.209 141.839 305.628 142.098 304.847 142.098C304.078 142.098 303.499 141.845 303.108 141.341C302.721 140.833 302.522 140.083 302.513 139.09V137.859C302.513 136.837 302.703 136.071 303.084 135.56C303.468 135.049 304.052 134.793 304.837 134.793C305.615 134.793 306.194 135.042 306.575 135.54C306.959 136.038 307.156 136.784 307.166 137.776V139.007ZM305.979 137.679C305.979 137.011 305.888 136.523 305.706 136.214C305.524 135.901 305.234 135.745 304.837 135.745C304.45 135.745 304.165 135.893 303.982 136.189C303.8 136.482 303.704 136.941 303.694 137.566V139.178C303.694 139.842 303.787 140.337 303.973 140.662C304.158 140.988 304.45 141.15 304.847 141.15C305.228 141.15 305.509 141.001 305.691 140.701C305.874 140.398 305.97 139.926 305.979 139.285V137.679Z" fill="black"/>
<g filter="url(#filter4_d)">
<rect x="290" y="99" width="24" height="16" rx="2" fill="white"/>
</g>
<path d="M301.329 110H296.549V109.185L298.917 106.602C299.259 106.221 299.501 105.903 299.644 105.649C299.791 105.392 299.864 105.135 299.864 104.878C299.864 104.539 299.768 104.266 299.576 104.058C299.387 103.849 299.132 103.745 298.809 103.745C298.425 103.745 298.127 103.862 297.916 104.097C297.704 104.331 297.598 104.652 297.598 105.059H296.412C296.412 104.626 296.51 104.237 296.705 103.892C296.903 103.543 297.185 103.273 297.55 103.081C297.917 102.889 298.341 102.793 298.819 102.793C299.509 102.793 300.053 102.967 300.45 103.315C300.85 103.66 301.051 104.139 301.051 104.751C301.051 105.106 300.95 105.479 300.748 105.869C300.549 106.257 300.222 106.698 299.766 107.192L298.028 109.053H301.329V110ZM302.85 106.475L303.235 102.891H307.054V103.916H304.222L304.026 105.615C304.355 105.426 304.726 105.332 305.14 105.332C305.817 105.332 306.342 105.549 306.717 105.981C307.094 106.414 307.283 106.997 307.283 107.729C307.283 108.452 307.075 109.028 306.658 109.458C306.242 109.884 305.67 110.098 304.944 110.098C304.293 110.098 303.753 109.914 303.323 109.546C302.897 109.175 302.666 108.687 302.63 108.081H303.777C303.823 108.426 303.947 108.691 304.148 108.877C304.35 109.059 304.614 109.15 304.939 109.15C305.304 109.15 305.587 109.02 305.789 108.76C305.994 108.499 306.097 108.145 306.097 107.695C306.097 107.262 305.984 106.921 305.76 106.67C305.535 106.416 305.226 106.289 304.832 106.289C304.617 106.289 304.435 106.318 304.285 106.377C304.135 106.432 303.973 106.543 303.797 106.709L302.85 106.475Z" fill="black"/>
<g filter="url(#filter5_d)">
<rect x="290" y="67" width="24" height="16" rx="2" fill="white"/>
</g>
<path d="M297.921 73.9033H298.643C299.008 73.9001 299.296 73.8057 299.508 73.6201C299.722 73.4346 299.83 73.166 299.83 72.8145C299.83 72.4759 299.74 72.2139 299.561 72.0283C299.386 71.8395 299.115 71.7451 298.751 71.7451C298.432 71.7451 298.17 71.8379 297.965 72.0234C297.76 72.2057 297.657 72.445 297.657 72.7412H296.471C296.471 72.3766 296.567 72.0446 296.759 71.7451C296.954 71.4456 297.224 71.2129 297.569 71.0469C297.917 70.8776 298.306 70.793 298.736 70.793C299.446 70.793 300.002 70.972 300.406 71.3301C300.813 71.6849 301.016 72.1797 301.016 72.8145C301.016 73.1335 300.914 73.4346 300.709 73.7178C300.507 73.9977 300.245 74.2093 299.923 74.3525C300.313 74.486 300.61 74.696 300.811 74.9824C301.016 75.2689 301.119 75.6107 301.119 76.0078C301.119 76.6458 300.899 77.1536 300.46 77.5312C300.024 77.9089 299.449 78.0977 298.736 78.0977C298.053 78.0977 297.493 77.9154 297.056 77.5508C296.62 77.1862 296.402 76.7012 296.402 76.0957H297.589C297.589 76.4082 297.693 76.6621 297.901 76.8574C298.113 77.0527 298.396 77.1504 298.751 77.1504C299.119 77.1504 299.408 77.0527 299.62 76.8574C299.832 76.6621 299.937 76.3789 299.937 76.0078C299.937 75.6335 299.827 75.3454 299.605 75.1436C299.384 74.9417 299.055 74.8408 298.619 74.8408H297.921V73.9033ZM307.166 75.0068C307.166 76.029 306.974 76.8005 306.59 77.3213C306.209 77.8389 305.628 78.0977 304.847 78.0977C304.078 78.0977 303.499 77.8454 303.108 77.3408C302.721 76.833 302.522 76.0827 302.513 75.0898V73.8594C302.513 72.8372 302.703 72.0706 303.084 71.5596C303.468 71.0485 304.052 70.793 304.837 70.793C305.615 70.793 306.194 71.042 306.575 71.54C306.959 72.0381 307.156 72.7835 307.166 73.7764V75.0068ZM305.979 73.6787C305.979 73.0114 305.888 72.5231 305.706 72.2139C305.524 71.9014 305.234 71.7451 304.837 71.7451C304.45 71.7451 304.165 71.8932 303.982 72.1895C303.8 72.4824 303.704 72.9414 303.694 73.5664V75.1777C303.694 75.8418 303.787 76.3366 303.973 76.6621C304.158 76.9876 304.45 77.1504 304.847 77.1504C305.228 77.1504 305.509 77.0007 305.691 76.7012C305.874 76.3984 305.97 75.9264 305.979 75.2852V73.6787Z" fill="black"/>
<g filter="url(#filter6_d)">
<rect x="290" y="35" width="24" height="16" rx="2" fill="white"/>
<rect x="290.5" y="35.5" width="23" height="15" rx="1.5" stroke="#78909C"/>
</g>
<path d="M297.921 41.9033H298.643C299.008 41.9001 299.296 41.8057 299.508 41.6201C299.722 41.4346 299.83 41.166 299.83 40.8145C299.83 40.4759 299.74 40.2139 299.561 40.0283C299.386 39.8395 299.115 39.7451 298.751 39.7451C298.432 39.7451 298.17 39.8379 297.965 40.0234C297.76 40.2057 297.657 40.445 297.657 40.7412H296.471C296.471 40.3766 296.567 40.0446 296.759 39.7451C296.954 39.4456 297.224 39.2129 297.569 39.0469C297.917 38.8776 298.306 38.793 298.736 38.793C299.446 38.793 300.002 38.972 300.406 39.3301C300.813 39.6849 301.016 40.1797 301.016 40.8145C301.016 41.1335 300.914 41.4346 300.709 41.7178C300.507 41.9977 300.245 42.2093 299.923 42.3525C300.313 42.486 300.61 42.696 300.811 42.9824C301.016 43.2689 301.119 43.6107 301.119 44.0078C301.119 44.6458 300.899 45.1536 300.46 45.5312C300.024 45.9089 299.449 46.0977 298.736 46.0977C298.053 46.0977 297.493 45.9154 297.056 45.5508C296.62 45.1862 296.402 44.7012 296.402 44.0957H297.589C297.589 44.4082 297.693 44.6621 297.901 44.8574C298.113 45.0527 298.396 45.1504 298.751 45.1504C299.119 45.1504 299.408 45.0527 299.62 44.8574C299.832 44.6621 299.937 44.3789 299.937 44.0078C299.937 43.6335 299.827 43.3454 299.605 43.1436C299.384 42.9417 299.055 42.8408 298.619 42.8408H297.921V41.9033ZM302.85 42.4746L303.235 38.8906H307.054V39.916H304.222L304.026 41.6152C304.355 41.4264 304.726 41.332 305.14 41.332C305.817 41.332 306.342 41.5485 306.717 41.9814C307.094 42.4144 307.283 42.9971 307.283 43.7295C307.283 44.4521 307.075 45.0283 306.658 45.458C306.242 45.8844 305.67 46.0977 304.944 46.0977C304.293 46.0977 303.753 45.9137 303.323 45.5459C302.897 45.1748 302.666 44.6865 302.63 44.0811H303.777C303.823 44.4261 303.947 44.6914 304.148 44.877C304.35 45.0592 304.614 45.1504 304.939 45.1504C305.304 45.1504 305.587 45.0202 305.789 44.7598C305.994 44.4993 306.097 44.1445 306.097 43.6953C306.097 43.2624 305.984 42.9206 305.76 42.6699C305.535 42.416 305.226 42.2891 304.832 42.2891C304.617 42.2891 304.435 42.3184 304.285 42.377C304.135 42.4323 303.973 42.543 303.797 42.709L302.85 42.4746Z" fill="black"/>
<g filter="url(#filter7_d)">
<rect x="490" y="144" width="12" height="12" rx="3" fill="#607D8B"/>
<rect x="491" y="145" width="10" height="10" rx="2" fill="white"/>
</g>
<g filter="url(#filter8_d)">
<rect x="518" y="258" width="12" height="12" rx="3" fill="#607D8B"/>
<rect x="519" y="259" width="10" height="10" rx="2" fill="white"/>
</g>
<g filter="url(#filter9_d)">
<rect x="74" y="258" width="12" height="12" rx="3" fill="#607D8B"/>
<rect x="75" y="259" width="10" height="10" rx="2" fill="white"/>
</g>
<g filter="url(#filter10_d)">
<rect x="490" y="372" width="12" height="12" rx="3" fill="#607D8B"/>
<rect x="491" y="373" width="10" height="10" rx="2" fill="white"/>
</g>
<g filter="url(#filter11_d)">
<rect x="102" y="372" width="12" height="12" rx="3" fill="#607D8B"/>
<rect x="103" y="373" width="10" height="10" rx="2" fill="white"/>
</g>
<g filter="url(#filter12_d)">
<rect x="102" y="144" width="12" height="12" rx="3" fill="#607D8B"/>
<rect x="103" y="145" width="10" height="10" rx="2" fill="white"/>
</g>
<g filter="url(#filter13_d)">
<rect x="410" y="64" width="12" height="12" rx="3" fill="#607D8B"/>
<rect x="411" y="65" width="10" height="10" rx="2" fill="white"/>
</g>
<g filter="url(#filter14_d)">
<rect x="182" y="64" width="12" height="12" rx="3" fill="#607D8B"/>
<rect x="183" y="65" width="10" height="10" rx="2" fill="white"/>
</g>
<g filter="url(#filter15_d)">
<rect x="410" y="452" width="12" height="12" rx="3" fill="#607D8B"/>
<rect x="411" y="453" width="10" height="10" rx="2" fill="white"/>
</g>
<g filter="url(#filter16_d)">
<rect x="182" y="452" width="12" height="12" rx="3" fill="#607D8B"/>
<rect x="183" y="453" width="10" height="10" rx="2" fill="white"/>
</g>
<g filter="url(#filter17_d)">
<rect x="296" y="479" width="12" height="12" rx="3" fill="#607D8B"/>
<rect x="297" y="480" width="10" height="10" rx="2" fill="white"/>
</g>
<path opacity="0.24" d="M228 263.5L141.5 357L234 381L302 350L402 436L462.5 356L517.5 263.5L467.5 168L399.5 95L302 212L246 165.5L177.5 190.5L228 263.5Z" fill="#90A4AE"/>
<path d="M228 263.5L141.5 357L234 381L302 350L402 436L462.5 356L517.5 263.5L467.5 168L399.5 95L302 212L246 165.5L177.5 190.5L228 263.5Z" stroke="#90A4AE" stroke-width="2"/>
<rect x="297.5" y="207.5" width="9" height="9" rx="4.5" fill="#607D8B" stroke="white"/>
<rect x="172.5" y="185.5" width="9" height="9" rx="4.5" fill="#607D8B" stroke="white"/>
<rect x="223.5" y="258.5" width="9" height="9" rx="4.5" fill="#607D8B" stroke="white"/>
<rect x="241.5" y="161.5" width="9" height="9" rx="4.5" fill="#607D8B" stroke="white"/>
<rect x="395.5" y="90.5" width="9" height="9" rx="4.5" fill="#607D8B" stroke="white"/>
<rect x="137.5" y="352.5" width="9" height="9" rx="4.5" fill="#607D8B" stroke="white"/>
<rect x="229.5" y="376.5" width="9" height="9" rx="4.5" fill="#607D8B" stroke="white"/>
<rect x="297.5" y="345.5" width="9" height="9" rx="4.5" fill="#607D8B" stroke="white"/>
<rect x="397.5" y="431.5" width="9" height="9" rx="4.5" fill="#607D8B" stroke="white"/>
<rect x="457.5" y="351.5" width="9" height="9" rx="4.5" fill="#607D8B" stroke="white"/>
<rect x="512.5" y="259.5" width="9" height="9" rx="4.5" fill="#607D8B" stroke="white"/>
<rect x="462.5" y="163.5" width="9" height="9" rx="4.5" fill="#607D8B" stroke="white"/>
<path opacity="0.24" d="M207 208L303 136L468.5 167.5L363.5 299H303L137 360L207 208Z" fill="#7C4DFF"/>
<path d="M207 208L303 136L468.5 167.5L363.5 299H303L137 360L207 208Z" stroke="#7C4DFF" stroke-width="2"/>
<rect x="0.5" y="-0.5" width="9" height="9" rx="4.5" transform="matrix(-1 0 0 1 308 132)" fill="#7C4DFF" stroke="white"/>
<rect x="0.5" y="-0.5" width="9" height="9" rx="4.5" transform="matrix(-1 0 0 1 473 164)" fill="#7C4DFF" stroke="white"/>
<rect x="0.5" y="-0.5" width="9" height="9" rx="4.5" transform="matrix(-1 0 0 1 368 295)" fill="#7C4DFF" stroke="white"/>
<rect x="0.5" y="-0.5" width="9" height="9" rx="4.5" transform="matrix(-1 0 0 1 308 295)" fill="#7C4DFF" stroke="white"/>
<rect x="0.5" y="-0.5" width="9" height="9" rx="4.5" transform="matrix(-1 0 0 1 142 356)" fill="#7C4DFF" stroke="white"/>
<rect x="0.5" y="-0.5" width="9" height="9" rx="4.5" transform="matrix(-1 0 0 1 212 204)" fill="#7C4DFF" stroke="white"/>
<rect x="0.5" y="-0.5" width="9" height="9" rx="4.5" transform="matrix(-1 0 0 1 256 172)" fill="#7C4DFF" stroke="white"/>
<rect x="0.5" y="-0.5" width="9" height="9" rx="4.5" transform="matrix(-1 0 0 1 374 144)" fill="#7C4DFF" stroke="white"/>
<rect x="0.5" y="-0.5" width="9" height="9" rx="4.5" transform="matrix(-1 0 0 1 397 260)" fill="#7C4DFF" stroke="white"/>
<rect x="0.5" y="-0.5" width="9" height="9" rx="4.5" transform="matrix(-1 0 0 1 281 305)" fill="#7C4DFF" stroke="white"/>
<rect x="0.5" y="-0.5" width="9" height="9" rx="4.5" transform="matrix(-1 0 0 1 327 295)" fill="#7C4DFF" stroke="white"/>
<rect x="0.5" y="-0.5" width="9" height="9" rx="4.5" transform="matrix(-1 0 0 1 187 260)" fill="#7C4DFF" stroke="white"/>
<path d="M293.143 511.625H294.651V519.68C294.651 520.768 294.323 521.62 293.667 522.234C293.016 522.849 292.146 523.156 291.057 523.156C289.927 523.156 289.047 522.867 288.417 522.289C287.787 521.711 287.472 520.901 287.472 519.859H288.972C288.972 520.51 289.149 521.018 289.503 521.383C289.862 521.747 290.38 521.93 291.057 521.93C291.677 521.93 292.177 521.734 292.557 521.344C292.943 520.953 293.138 520.406 293.143 519.703V511.625ZM302.638 522.164C302.076 522.826 301.25 523.156 300.162 523.156C299.261 523.156 298.573 522.896 298.099 522.375C297.63 521.849 297.393 521.073 297.388 520.047V514.547H298.833V520.008C298.833 521.289 299.354 521.93 300.396 521.93C301.5 521.93 302.234 521.518 302.599 520.695V514.547H304.044V523H302.669L302.638 522.164ZM308.258 523H306.812V511H308.258V523ZM313.784 520.883L315.752 514.547H317.299L313.901 524.305C313.375 525.711 312.539 526.414 311.393 526.414L311.12 526.391L310.581 526.289V525.117L310.971 525.148C311.461 525.148 311.841 525.049 312.112 524.852C312.388 524.654 312.614 524.292 312.792 523.766L313.112 522.906L310.096 514.547H311.674L313.784 520.883Z" fill="#607D8B"/>
<path d="M278.53 0.625H280.038V8.67969C280.038 9.76823 279.71 10.6198 279.054 11.2344C278.403 11.849 277.533 12.1562 276.444 12.1562C275.314 12.1562 274.434 11.8672 273.804 11.2891C273.174 10.7109 272.858 9.90104 272.858 8.85938H274.358C274.358 9.51042 274.536 10.0182 274.89 10.3828C275.249 10.7474 275.767 10.9297 276.444 10.9297C277.064 10.9297 277.564 10.7344 277.944 10.3438C278.33 9.95312 278.525 9.40625 278.53 8.70312V0.625ZM288.025 12C287.942 11.8333 287.874 11.5365 287.822 11.1094C287.15 11.8073 286.348 12.1562 285.416 12.1562C284.582 12.1562 283.897 11.9219 283.361 11.4531C282.83 10.9792 282.564 10.3802 282.564 9.65625C282.564 8.77604 282.897 8.09375 283.564 7.60938C284.236 7.11979 285.179 6.875 286.392 6.875H287.798V6.21094C287.798 5.70573 287.647 5.30469 287.345 5.00781C287.043 4.70573 286.598 4.55469 286.009 4.55469C285.494 4.55469 285.061 4.6849 284.712 4.94531C284.364 5.20573 284.189 5.52083 284.189 5.89062H282.736C282.736 5.46875 282.884 5.0625 283.181 4.67188C283.483 4.27604 283.89 3.96354 284.4 3.73438C284.916 3.50521 285.481 3.39062 286.095 3.39062C287.069 3.39062 287.832 3.63542 288.384 4.125C288.936 4.60938 289.223 5.27865 289.244 6.13281V10.0234C289.244 10.7995 289.343 11.4167 289.541 11.875V12H288.025ZM285.627 10.8984C286.08 10.8984 286.509 10.7812 286.916 10.5469C287.322 10.3125 287.616 10.0078 287.798 9.63281V7.89844H286.666C284.895 7.89844 284.009 8.41667 284.009 9.45312C284.009 9.90625 284.16 10.2604 284.462 10.5156C284.765 10.7708 285.153 10.8984 285.627 10.8984ZM293.317 3.54688L293.363 4.60938C294.009 3.79688 294.853 3.39062 295.895 3.39062C297.681 3.39062 298.582 4.39844 298.598 6.41406V12H297.152V6.40625C297.147 5.79688 297.007 5.34635 296.731 5.05469C296.46 4.76302 296.035 4.61719 295.457 4.61719C294.988 4.61719 294.577 4.74219 294.223 4.99219C293.869 5.24219 293.593 5.57031 293.395 5.97656V12H291.949V3.54688H293.317ZM306.436 11.1641C305.874 11.8255 305.048 12.1562 303.96 12.1562C303.059 12.1562 302.371 11.8958 301.897 11.375C301.428 10.849 301.191 10.0729 301.186 9.04688V3.54688H302.632V9.00781C302.632 10.2891 303.152 10.9297 304.194 10.9297C305.298 10.9297 306.033 10.5182 306.397 9.69531V3.54688H307.842V12H306.467L306.436 11.1641ZM315.704 12C315.621 11.8333 315.553 11.5365 315.501 11.1094C314.829 11.8073 314.027 12.1562 313.095 12.1562C312.262 12.1562 311.577 11.9219 311.04 11.4531C310.509 10.9792 310.243 10.3802 310.243 9.65625C310.243 8.77604 310.577 8.09375 311.243 7.60938C311.915 7.11979 312.858 6.875 314.072 6.875H315.478V6.21094C315.478 5.70573 315.327 5.30469 315.025 5.00781C314.723 4.70573 314.277 4.55469 313.689 4.55469C313.173 4.55469 312.741 4.6849 312.392 4.94531C312.043 5.20573 311.868 5.52083 311.868 5.89062H310.415C310.415 5.46875 310.564 5.0625 310.861 4.67188C311.163 4.27604 311.569 3.96354 312.079 3.73438C312.595 3.50521 313.16 3.39062 313.775 3.39062C314.749 3.39062 315.512 3.63542 316.064 4.125C316.616 4.60938 316.902 5.27865 316.923 6.13281V10.0234C316.923 10.7995 317.022 11.4167 317.22 11.875V12H315.704ZM313.306 10.8984C313.759 10.8984 314.189 10.7812 314.595 10.5469C315.001 10.3125 315.296 10.0078 315.478 9.63281V7.89844H314.345C312.574 7.89844 311.689 8.41667 311.689 9.45312C311.689 9.90625 311.84 10.2604 312.142 10.5156C312.444 10.7708 312.832 10.8984 313.306 10.8984ZM323.715 4.84375C323.496 4.80729 323.259 4.78906 323.004 4.78906C322.056 4.78906 321.413 5.19271 321.074 6V12H319.629V3.54688H321.035L321.058 4.52344C321.532 3.76823 322.204 3.39062 323.074 3.39062C323.355 3.39062 323.569 3.42708 323.715 3.5V4.84375ZM328.397 9.88281L330.366 3.54688H331.912L328.514 13.3047C327.988 14.7109 327.152 15.4141 326.006 15.4141L325.733 15.3906L325.194 15.2891V14.1172L325.584 14.1484C326.074 14.1484 326.454 14.0495 326.725 13.8516C327.001 13.6536 327.228 13.2917 327.405 12.7656L327.725 11.9062L324.709 3.54688H326.287L328.397 9.88281Z" fill="#607D8B"/>
<path d="M499.258 111.625L502.977 120.906L506.695 111.625H508.641V123H507.141V118.57L507.281 113.789L503.547 123H502.398L498.672 113.812L498.82 118.57V123H497.32V111.625H499.258ZM516.721 123C516.638 122.833 516.57 122.536 516.518 122.109C515.846 122.807 515.044 123.156 514.112 123.156C513.279 123.156 512.594 122.922 512.057 122.453C511.526 121.979 511.26 121.38 511.26 120.656C511.26 119.776 511.594 119.094 512.26 118.609C512.932 118.12 513.875 117.875 515.088 117.875H516.495V117.211C516.495 116.706 516.344 116.305 516.042 116.008C515.739 115.706 515.294 115.555 514.706 115.555C514.19 115.555 513.758 115.685 513.409 115.945C513.06 116.206 512.885 116.521 512.885 116.891H511.432C511.432 116.469 511.581 116.062 511.877 115.672C512.18 115.276 512.586 114.964 513.096 114.734C513.612 114.505 514.177 114.391 514.792 114.391C515.766 114.391 516.529 114.635 517.081 115.125C517.633 115.609 517.919 116.279 517.94 117.133V121.023C517.94 121.799 518.039 122.417 518.237 122.875V123H516.721ZM514.323 121.898C514.776 121.898 515.206 121.781 515.612 121.547C516.018 121.312 516.312 121.008 516.495 120.633V118.898H515.362C513.591 118.898 512.706 119.417 512.706 120.453C512.706 120.906 512.857 121.26 513.159 121.516C513.461 121.771 513.849 121.898 514.323 121.898ZM524.732 115.844C524.513 115.807 524.276 115.789 524.021 115.789C523.073 115.789 522.429 116.193 522.091 117V123H520.646V114.547H522.052L522.075 115.523C522.549 114.768 523.221 114.391 524.091 114.391C524.372 114.391 524.586 114.427 524.732 114.5V115.844ZM529.742 121.977C530.257 121.977 530.708 121.82 531.093 121.508C531.479 121.195 531.692 120.805 531.734 120.336H533.101C533.075 120.82 532.909 121.281 532.601 121.719C532.294 122.156 531.882 122.505 531.367 122.766C530.856 123.026 530.315 123.156 529.742 123.156C528.591 123.156 527.674 122.773 526.992 122.008C526.315 121.237 525.976 120.185 525.976 118.852V118.609C525.976 117.786 526.127 117.055 526.429 116.414C526.731 115.773 527.164 115.276 527.726 114.922C528.294 114.568 528.963 114.391 529.734 114.391C530.682 114.391 531.468 114.674 532.093 115.242C532.724 115.81 533.06 116.547 533.101 117.453H531.734C531.692 116.906 531.484 116.458 531.109 116.109C530.739 115.755 530.281 115.578 529.734 115.578C529 115.578 528.429 115.844 528.023 116.375C527.622 116.901 527.422 117.664 527.422 118.664V118.938C527.422 119.911 527.622 120.661 528.023 121.188C528.424 121.714 528.997 121.977 529.742 121.977ZM536.612 115.57C537.252 114.784 538.086 114.391 539.112 114.391C540.898 114.391 541.799 115.398 541.815 117.414V123H540.369V117.406C540.364 116.797 540.224 116.346 539.947 116.055C539.677 115.763 539.252 115.617 538.674 115.617C538.205 115.617 537.794 115.742 537.44 115.992C537.086 116.242 536.809 116.57 536.612 116.977V123H535.166V111H536.612V115.57Z" fill="#607D8B"/>
<path d="M41.0894 123H39.5816L33.855 114.234V123H32.3472V111.625H33.855L39.5972 120.43V111.625H41.0894V123ZM43.5841 118.695C43.5841 117.867 43.7455 117.122 44.0684 116.461C44.3966 115.799 44.8497 115.289 45.4278 114.93C46.0111 114.57 46.6752 114.391 47.42 114.391C48.571 114.391 49.5007 114.789 50.2091 115.586C50.9226 116.383 51.2794 117.443 51.2794 118.766V118.867C51.2794 119.69 51.1205 120.43 50.8028 121.086C50.4903 121.737 50.0398 122.245 49.4513 122.609C48.8679 122.974 48.196 123.156 47.4356 123.156C46.2898 123.156 45.3601 122.758 44.6466 121.961C43.9382 121.164 43.5841 120.109 43.5841 118.797V118.695ZM45.0372 118.867C45.0372 119.805 45.2533 120.557 45.6856 121.125C46.1231 121.693 46.7065 121.977 47.4356 121.977C48.17 121.977 48.7533 121.69 49.1856 121.117C49.6179 120.539 49.8341 119.732 49.8341 118.695C49.8341 117.768 49.6127 117.018 49.17 116.445C48.7325 115.867 48.1492 115.578 47.42 115.578C46.7065 115.578 46.1309 115.862 45.6934 116.43C45.2559 116.997 45.0372 117.81 45.0372 118.867ZM56.1959 121.039L58.2897 114.547H59.7663L56.735 123H55.6334L52.5709 114.547H54.0475L56.1959 121.039ZM64.9953 123.156C63.8495 123.156 62.9172 122.781 62.1984 122.031C61.4797 121.276 61.1203 120.268 61.1203 119.008V118.742C61.1203 117.904 61.2792 117.156 61.5969 116.5C61.9198 115.839 62.3677 115.323 62.9406 114.953C63.5188 114.578 64.1438 114.391 64.8156 114.391C65.9146 114.391 66.7688 114.753 67.3781 115.477C67.9875 116.201 68.2922 117.237 68.2922 118.586V119.188H62.5656C62.5865 120.021 62.8286 120.695 63.2922 121.211C63.7609 121.721 64.3547 121.977 65.0734 121.977C65.5839 121.977 66.0161 121.872 66.3703 121.664C66.7245 121.456 67.0344 121.18 67.3 120.836L68.1828 121.523C67.4745 122.612 66.412 123.156 64.9953 123.156ZM64.8156 115.578C64.2323 115.578 63.7427 115.792 63.3469 116.219C62.951 116.641 62.7063 117.234 62.6125 118H66.8469V117.891C66.8052 117.156 66.6073 116.589 66.2531 116.188C65.899 115.781 65.4198 115.578 64.8156 115.578ZM71.7713 114.547L71.8103 115.484C72.4301 114.755 73.266 114.391 74.3181 114.391C75.5004 114.391 76.3051 114.844 76.7322 115.75C77.0134 115.344 77.378 115.016 77.8259 114.766C78.2791 114.516 78.8129 114.391 79.4275 114.391C81.2817 114.391 82.2244 115.372 82.2556 117.336V123H80.8103V117.422C80.8103 116.818 80.6723 116.367 80.3963 116.07C80.1202 115.768 79.6567 115.617 79.0056 115.617C78.4692 115.617 78.0239 115.779 77.6697 116.102C77.3155 116.419 77.1098 116.849 77.0525 117.391V123H75.5994V117.461C75.5994 116.232 74.9978 115.617 73.7947 115.617C72.8468 115.617 72.1983 116.021 71.8494 116.828V123H70.4041V114.547H71.7713ZM92.0394 118.867C92.0394 120.159 91.7425 121.198 91.1488 121.984C90.555 122.766 89.7581 123.156 88.7581 123.156C87.6904 123.156 86.8649 122.779 86.2816 122.023L86.2113 123H84.8831V111H86.3284V115.477C86.9118 114.753 87.7165 114.391 88.7425 114.391C89.7685 114.391 90.5732 114.779 91.1566 115.555C91.7451 116.331 92.0394 117.393 92.0394 118.742V118.867ZM90.5941 118.703C90.5941 117.719 90.404 116.958 90.0238 116.422C89.6435 115.885 89.0967 115.617 88.3831 115.617C87.43 115.617 86.7451 116.06 86.3284 116.945V120.602C86.7711 121.487 87.4613 121.93 88.3988 121.93C89.0915 121.93 89.6305 121.661 90.0159 121.125C90.4014 120.589 90.5941 119.781 90.5941 118.703ZM97.8153 123.156C96.6695 123.156 95.7372 122.781 95.0184 122.031C94.2997 121.276 93.9403 120.268 93.9403 119.008V118.742C93.9403 117.904 94.0992 117.156 94.4169 116.5C94.7398 115.839 95.1877 115.323 95.7606 114.953C96.3388 114.578 96.9638 114.391 97.6356 114.391C98.7346 114.391 99.5888 114.753 100.198 115.477C100.808 116.201 101.112 117.237 101.112 118.586V119.188H95.3856C95.4065 120.021 95.6486 120.695 96.1122 121.211C96.5809 121.721 97.1747 121.977 97.8934 121.977C98.4039 121.977 98.8361 121.872 99.1903 121.664C99.5445 121.456 99.8544 121.18 100.12 120.836L101.003 121.523C100.294 122.612 99.232 123.156 97.8153 123.156ZM97.6356 115.578C97.0523 115.578 96.5627 115.792 96.1669 116.219C95.771 116.641 95.5263 117.234 95.4325 118H99.6669V117.891C99.6252 117.156 99.4273 116.589 99.0731 116.188C98.719 115.781 98.2398 115.578 97.6356 115.578ZM107.318 115.844C107.099 115.807 106.862 115.789 106.607 115.789C105.659 115.789 105.016 116.193 104.677 117V123H103.232V114.547H104.638L104.662 115.523C105.136 114.768 105.807 114.391 106.677 114.391C106.958 114.391 107.172 114.427 107.318 114.5V115.844Z" fill="#607D8B"/>
<path d="M552.602 266.031H547.836L546.766 269H545.219L549.562 257.625H550.875L555.227 269H553.688L552.602 266.031ZM548.289 264.797H552.156L550.219 259.477L548.289 264.797ZM564.112 264.867C564.112 266.154 563.818 267.19 563.229 267.977C562.641 268.763 561.844 269.156 560.838 269.156C559.812 269.156 559.005 268.831 558.417 268.18V272.25H556.971V260.547H558.292L558.362 261.484C558.95 260.755 559.768 260.391 560.815 260.391C561.831 260.391 562.633 260.773 563.221 261.539C563.815 262.305 564.112 263.37 564.112 264.734V264.867ZM562.667 264.703C562.667 263.75 562.463 262.997 562.057 262.445C561.651 261.893 561.094 261.617 560.385 261.617C559.51 261.617 558.854 262.005 558.417 262.781V266.82C558.849 267.591 559.51 267.977 560.401 267.977C561.094 267.977 561.643 267.703 562.049 267.156C562.461 266.604 562.667 265.786 562.667 264.703ZM570.482 261.844C570.263 261.807 570.026 261.789 569.771 261.789C568.823 261.789 568.179 262.193 567.841 263V269H566.396V260.547H567.802L567.825 261.523C568.299 260.768 568.971 260.391 569.841 260.391C570.122 260.391 570.336 260.427 570.482 260.5V261.844ZM573.828 269H572.382V260.547H573.828V269ZM572.265 258.305C572.265 258.07 572.336 257.872 572.476 257.711C572.622 257.549 572.836 257.469 573.117 257.469C573.398 257.469 573.612 257.549 573.757 257.711C573.903 257.872 573.976 258.07 573.976 258.305C573.976 258.539 573.903 258.734 573.757 258.891C573.612 259.047 573.398 259.125 573.117 259.125C572.836 259.125 572.622 259.047 572.476 258.891C572.336 258.734 572.265 258.539 572.265 258.305ZM578.158 269H576.713V257H578.158V269Z" fill="#607D8B"/>
<path d="M9.52156 263.68C9.52156 264.794 9.33406 265.768 8.95906 266.602C8.58406 267.43 8.05281 268.062 7.36531 268.5C6.67781 268.938 5.87573 269.156 4.95906 269.156C4.06323 269.156 3.26896 268.938 2.57625 268.5C1.88354 268.057 1.34448 267.43 0.959061 266.617C0.578852 265.799 0.38354 264.854 0.373123 263.781V262.961C0.373123 261.867 0.563227 260.901 0.943436 260.062C1.32364 259.224 1.8601 258.583 2.55281 258.141C3.25073 257.693 4.0476 257.469 4.94344 257.469C5.85489 257.469 6.65698 257.69 7.34969 258.133C8.0476 258.57 8.58406 259.208 8.95906 260.047C9.33406 260.88 9.52156 261.852 9.52156 262.961V263.68ZM8.02937 262.945C8.02937 261.596 7.75854 260.562 7.21687 259.844C6.67521 259.12 5.91739 258.758 4.94344 258.758C3.99552 258.758 3.24812 259.12 2.70125 259.844C2.15958 260.562 1.88094 261.562 1.86531 262.844V263.68C1.86531 264.987 2.13875 266.016 2.68562 266.766C3.23771 267.51 3.99552 267.883 4.95906 267.883C5.92781 267.883 6.67781 267.531 7.20906 266.828C7.74031 266.12 8.01375 265.107 8.02937 263.789V262.945ZM15.3756 267.977C15.8912 267.977 16.3418 267.82 16.7272 267.508C17.1126 267.195 17.3261 266.805 17.3678 266.336H18.735C18.709 266.82 18.5423 267.281 18.235 267.719C17.9277 268.156 17.5162 268.505 17.0006 268.766C16.4902 269.026 15.9485 269.156 15.3756 269.156C14.2246 269.156 13.3079 268.773 12.6256 268.008C11.9485 267.237 11.61 266.185 11.61 264.852V264.609C11.61 263.786 11.761 263.055 12.0631 262.414C12.3652 261.773 12.7975 261.276 13.36 260.922C13.9277 260.568 14.597 260.391 15.3678 260.391C16.3157 260.391 17.1022 260.674 17.7272 261.242C18.3574 261.81 18.6933 262.547 18.735 263.453H17.3678C17.3261 262.906 17.1178 262.458 16.7428 262.109C16.373 261.755 15.9147 261.578 15.3678 261.578C14.6334 261.578 14.0631 261.844 13.6569 262.375C13.2558 262.901 13.0553 263.664 13.0553 264.664V264.938C13.0553 265.911 13.2558 266.661 13.6569 267.188C14.0579 267.714 14.6308 267.977 15.3756 267.977ZM22.7609 258.5V260.547H24.3391V261.664H22.7609V266.906C22.7609 267.245 22.8312 267.5 22.9719 267.672C23.1125 267.839 23.3521 267.922 23.6906 267.922C23.8573 267.922 24.0865 267.891 24.3781 267.828V269C23.9979 269.104 23.6281 269.156 23.2687 269.156C22.6229 269.156 22.1359 268.961 21.8078 268.57C21.4797 268.18 21.3156 267.625 21.3156 266.906V261.664H19.7766V260.547H21.3156V258.5H22.7609ZM25.9353 264.695C25.9353 263.867 26.0968 263.122 26.4197 262.461C26.7478 261.799 27.2009 261.289 27.7791 260.93C28.3624 260.57 29.0265 260.391 29.7712 260.391C30.9223 260.391 31.852 260.789 32.5603 261.586C33.2739 262.383 33.6306 263.443 33.6306 264.766V264.867C33.6306 265.69 33.4718 266.43 33.1541 267.086C32.8416 267.737 32.391 268.245 31.8025 268.609C31.2192 268.974 30.5473 269.156 29.7869 269.156C28.641 269.156 27.7114 268.758 26.9978 267.961C26.2895 267.164 25.9353 266.109 25.9353 264.797V264.695ZM27.3884 264.867C27.3884 265.805 27.6046 266.557 28.0369 267.125C28.4744 267.693 29.0577 267.977 29.7869 267.977C30.5212 267.977 31.1046 267.69 31.5369 267.117C31.9692 266.539 32.1853 265.732 32.1853 264.695C32.1853 263.768 31.964 263.018 31.5212 262.445C31.0837 261.867 30.5004 261.578 29.7712 261.578C29.0577 261.578 28.4822 261.862 28.0447 262.43C27.6072 262.997 27.3884 263.81 27.3884 264.867ZM43.0394 264.867C43.0394 266.159 42.7425 267.198 42.1487 267.984C41.555 268.766 40.7581 269.156 39.7581 269.156C38.6904 269.156 37.8649 268.779 37.2816 268.023L37.2112 269H35.8831V257H37.3284V261.477C37.9118 260.753 38.7165 260.391 39.7425 260.391C40.7685 260.391 41.5732 260.779 42.1566 261.555C42.7451 262.331 43.0394 263.393 43.0394 264.742V264.867ZM41.5941 264.703C41.5941 263.719 41.404 262.958 41.0237 262.422C40.6435 261.885 40.0967 261.617 39.3831 261.617C38.43 261.617 37.7451 262.06 37.3284 262.945V266.602C37.7711 267.487 38.4612 267.93 39.3987 267.93C40.0915 267.93 40.6305 267.661 41.0159 267.125C41.4014 266.589 41.5941 265.781 41.5941 264.703ZM48.8153 269.156C47.6695 269.156 46.7372 268.781 46.0184 268.031C45.2997 267.276 44.9403 266.268 44.9403 265.008V264.742C44.9403 263.904 45.0992 263.156 45.4169 262.5C45.7398 261.839 46.1877 261.323 46.7606 260.953C47.3387 260.578 47.9637 260.391 48.6356 260.391C49.7346 260.391 50.5887 260.753 51.1981 261.477C51.8075 262.201 52.1122 263.237 52.1122 264.586V265.188H46.3856C46.4065 266.021 46.6486 266.695 47.1122 267.211C47.5809 267.721 48.1747 267.977 48.8934 267.977C49.4039 267.977 49.8361 267.872 50.1903 267.664C50.5445 267.456 50.8544 267.18 51.12 266.836L52.0028 267.523C51.2945 268.612 50.232 269.156 48.8153 269.156ZM48.6356 261.578C48.0523 261.578 47.5627 261.792 47.1669 262.219C46.771 262.641 46.5262 263.234 46.4325 264H50.6669V263.891C50.6252 263.156 50.4273 262.589 50.0731 262.188C49.719 261.781 49.2398 261.578 48.6356 261.578ZM58.3178 261.844C58.0991 261.807 57.8621 261.789 57.6069 261.789C56.659 261.789 56.0157 262.193 55.6772 263V269H54.2319V260.547H55.6381L55.6616 261.523C56.1355 260.768 56.8074 260.391 57.6772 260.391C57.9584 260.391 58.172 260.427 58.3178 260.5V261.844Z" fill="#607D8B"/>
<path d="M31.1025 410.93C29.816 410.56 28.8785 410.107 28.29 409.57C27.7067 409.029 27.415 408.362 27.415 407.57C27.415 406.674 27.7718 405.935 28.4853 405.352C29.2041 404.763 30.1364 404.469 31.2822 404.469C32.0634 404.469 32.7588 404.62 33.3681 404.922C33.9827 405.224 34.4567 405.641 34.79 406.172C35.1285 406.703 35.2978 407.284 35.2978 407.914H33.79C33.79 407.227 33.5713 406.688 33.1338 406.297C32.6963 405.901 32.0791 405.703 31.2822 405.703C30.5426 405.703 29.9645 405.867 29.5478 406.195C29.1364 406.518 28.9306 406.969 28.9306 407.547C28.9306 408.01 29.1259 408.404 29.5166 408.727C29.9124 409.044 30.5817 409.336 31.5244 409.602C32.4723 409.867 33.2119 410.161 33.7431 410.484C34.2796 410.802 34.6754 411.174 34.9306 411.602C35.191 412.029 35.3213 412.531 35.3213 413.109C35.3213 414.031 34.9619 414.771 34.2431 415.328C33.5244 415.88 32.5634 416.156 31.3603 416.156C30.5791 416.156 29.8499 416.008 29.1728 415.711C28.4957 415.409 27.9723 414.997 27.6025 414.477C27.2379 413.956 27.0556 413.365 27.0556 412.703H28.5634C28.5634 413.391 28.816 413.935 29.3213 414.336C29.8317 414.732 30.5114 414.93 31.3603 414.93C32.152 414.93 32.7588 414.768 33.1806 414.445C33.6025 414.122 33.8134 413.682 33.8134 413.125C33.8134 412.568 33.6181 412.138 33.2275 411.836C32.8369 411.529 32.1285 411.227 31.1025 410.93ZM40.9722 416.156C39.8264 416.156 38.8941 415.781 38.1753 415.031C37.4566 414.276 37.0972 413.268 37.0972 412.008V411.742C37.0972 410.904 37.256 410.156 37.5738 409.5C37.8967 408.839 38.3446 408.323 38.9175 407.953C39.4956 407.578 40.1206 407.391 40.7925 407.391C41.8915 407.391 42.7456 407.753 43.355 408.477C43.9644 409.201 44.2691 410.237 44.2691 411.586V412.188H38.5425C38.5633 413.021 38.8055 413.695 39.2691 414.211C39.7378 414.721 40.3316 414.977 41.0503 414.977C41.5607 414.977 41.993 414.872 42.3472 414.664C42.7014 414.456 43.0113 414.18 43.2769 413.836L44.1597 414.523C43.4514 415.612 42.3889 416.156 40.9722 416.156ZM40.7925 408.578C40.2092 408.578 39.7196 408.792 39.3238 409.219C38.9279 409.641 38.6831 410.234 38.5894 411H42.8238V410.891C42.7821 410.156 42.5842 409.589 42.23 409.188C41.8758 408.781 41.3967 408.578 40.7925 408.578ZM53.5294 411.867C53.5294 413.154 53.2351 414.19 52.6466 414.977C52.058 415.763 51.2611 416.156 50.2559 416.156C49.2299 416.156 48.4226 415.831 47.8341 415.18V419.25H46.3888V407.547H47.7091L47.7794 408.484C48.3679 407.755 49.1856 407.391 50.2325 407.391C51.2481 407.391 52.0502 407.773 52.6388 408.539C53.2325 409.305 53.5294 410.37 53.5294 411.734V411.867ZM52.0841 411.703C52.0841 410.75 51.8809 409.997 51.4747 409.445C51.0684 408.893 50.5111 408.617 49.8028 408.617C48.9278 408.617 48.2716 409.005 47.8341 409.781V413.82C48.2664 414.591 48.9278 414.977 49.8184 414.977C50.5111 414.977 51.0606 414.703 51.4669 414.156C51.8783 413.604 52.0841 412.786 52.0841 411.703ZM57.7741 405.5V407.547H59.3522V408.664H57.7741V413.906C57.7741 414.245 57.8444 414.5 57.985 414.672C58.1256 414.839 58.3652 414.922 58.7038 414.922C58.8704 414.922 59.0996 414.891 59.3913 414.828V416C59.011 416.104 58.6413 416.156 58.2819 416.156C57.636 416.156 57.1491 415.961 56.8209 415.57C56.4928 415.18 56.3288 414.625 56.3288 413.906V408.664H54.7897V407.547H56.3288V405.5H57.7741ZM64.9953 416.156C63.8495 416.156 62.9172 415.781 62.1984 415.031C61.4797 414.276 61.1203 413.268 61.1203 412.008V411.742C61.1203 410.904 61.2792 410.156 61.5969 409.5C61.9198 408.839 62.3677 408.323 62.9406 407.953C63.5187 407.578 64.1437 407.391 64.8156 407.391C65.9146 407.391 66.7687 407.753 67.3781 408.477C67.9875 409.201 68.2922 410.237 68.2922 411.586V412.188H62.5656C62.5865 413.021 62.8286 413.695 63.2922 414.211C63.7609 414.721 64.3547 414.977 65.0734 414.977C65.5839 414.977 66.0161 414.872 66.3703 414.664C66.7245 414.456 67.0344 414.18 67.3 413.836L68.1828 414.523C67.4745 415.612 66.412 416.156 64.9953 416.156ZM64.8156 408.578C64.2323 408.578 63.7427 408.792 63.3469 409.219C62.951 409.641 62.7062 410.234 62.6125 411H66.8469V410.891C66.8052 410.156 66.6073 409.589 66.2531 409.188C65.899 408.781 65.4198 408.578 64.8156 408.578ZM71.7713 407.547L71.8103 408.484C72.4301 407.755 73.266 407.391 74.3181 407.391C75.5004 407.391 76.3051 407.844 76.7322 408.75C77.0134 408.344 77.378 408.016 77.8259 407.766C78.2791 407.516 78.8129 407.391 79.4275 407.391C81.2817 407.391 82.2244 408.372 82.2556 410.336V416H80.8103V410.422C80.8103 409.818 80.6723 409.367 80.3963 409.07C80.1202 408.768 79.6567 408.617 79.0056 408.617C78.4692 408.617 78.0239 408.779 77.6697 409.102C77.3155 409.419 77.1098 409.849 77.0525 410.391V416H75.5994V410.461C75.5994 409.232 74.9978 408.617 73.7947 408.617C72.8468 408.617 72.1983 409.021 71.8494 409.828V416H70.4041V407.547H71.7713ZM92.0394 411.867C92.0394 413.159 91.7425 414.198 91.1488 414.984C90.555 415.766 89.7581 416.156 88.7581 416.156C87.6904 416.156 86.8649 415.779 86.2816 415.023L86.2113 416H84.8831V404H86.3284V408.477C86.9118 407.753 87.7165 407.391 88.7425 407.391C89.7685 407.391 90.5732 407.779 91.1566 408.555C91.7451 409.331 92.0394 410.393 92.0394 411.742V411.867ZM90.5941 411.703C90.5941 410.719 90.404 409.958 90.0238 409.422C89.6435 408.885 89.0967 408.617 88.3831 408.617C87.43 408.617 86.7451 409.06 86.3284 409.945V413.602C86.7711 414.487 87.4613 414.93 88.3988 414.93C89.0915 414.93 89.6305 414.661 90.0159 414.125C90.4014 413.589 90.5941 412.781 90.5941 411.703ZM97.8153 416.156C96.6695 416.156 95.7372 415.781 95.0184 415.031C94.2997 414.276 93.9403 413.268 93.9403 412.008V411.742C93.9403 410.904 94.0992 410.156 94.4169 409.5C94.7398 408.839 95.1877 408.323 95.7606 407.953C96.3388 407.578 96.9638 407.391 97.6356 407.391C98.7346 407.391 99.5888 407.753 100.198 408.477C100.808 409.201 101.112 410.237 101.112 411.586V412.188H95.3856C95.4065 413.021 95.6486 413.695 96.1122 414.211C96.5809 414.721 97.1747 414.977 97.8934 414.977C98.4039 414.977 98.8361 414.872 99.1903 414.664C99.5445 414.456 99.8544 414.18 100.12 413.836L101.003 414.523C100.294 415.612 99.232 416.156 97.8153 416.156ZM97.6356 408.578C97.0523 408.578 96.5627 408.792 96.1669 409.219C95.771 409.641 95.5263 410.234 95.4325 411H99.6669V410.891C99.6252 410.156 99.4273 409.589 99.0731 409.188C98.719 408.781 98.2398 408.578 97.6356 408.578ZM107.318 408.844C107.099 408.807 106.862 408.789 106.607 408.789C105.659 408.789 105.016 409.193 104.677 410V416H103.232V407.547H104.638L104.662 408.523C105.136 407.768 105.807 407.391 106.677 407.391C106.958 407.391 107.172 407.427 107.318 407.5V408.844Z" fill="#607D8B"/>
<path d="M499.258 404.625L502.977 413.906L506.695 404.625H508.641V416H507.141V411.57L507.281 406.789L503.547 416H502.398L498.672 406.812L498.82 411.57V416H497.32V404.625H499.258ZM516.721 416C516.638 415.833 516.57 415.536 516.518 415.109C515.846 415.807 515.044 416.156 514.112 416.156C513.279 416.156 512.594 415.922 512.057 415.453C511.526 414.979 511.26 414.38 511.26 413.656C511.26 412.776 511.594 412.094 512.26 411.609C512.932 411.12 513.875 410.875 515.088 410.875H516.495V410.211C516.495 409.706 516.344 409.305 516.042 409.008C515.739 408.706 515.294 408.555 514.706 408.555C514.19 408.555 513.758 408.685 513.409 408.945C513.06 409.206 512.885 409.521 512.885 409.891H511.432C511.432 409.469 511.581 409.062 511.877 408.672C512.18 408.276 512.586 407.964 513.096 407.734C513.612 407.505 514.177 407.391 514.792 407.391C515.766 407.391 516.529 407.635 517.081 408.125C517.633 408.609 517.919 409.279 517.94 410.133V414.023C517.94 414.799 518.039 415.417 518.237 415.875V416H516.721ZM514.323 414.898C514.776 414.898 515.206 414.781 515.612 414.547C516.018 414.312 516.312 414.008 516.495 413.633V411.898H515.362C513.591 411.898 512.706 412.417 512.706 413.453C512.706 413.906 512.857 414.26 513.159 414.516C513.461 414.771 513.849 414.898 514.323 414.898ZM523.286 413.883L525.255 407.547H526.802L523.403 417.305C522.877 418.711 522.041 419.414 520.896 419.414L520.622 419.391L520.083 419.289V418.117L520.474 418.148C520.963 418.148 521.344 418.049 521.614 417.852C521.89 417.654 522.117 417.292 522.294 416.766L522.614 415.906L519.599 407.547H521.177L523.286 413.883Z" fill="#607D8B"/>
<path d="M114.035 42V30.625H117.246C118.235 30.625 119.11 30.8438 119.871 31.2812C120.631 31.7188 121.217 32.3411 121.628 33.1484C122.045 33.9557 122.256 34.8828 122.261 35.9297V36.6562C122.261 37.7292 122.053 38.6693 121.636 39.4766C121.225 40.2839 120.634 40.9036 119.863 41.3359C119.097 41.7682 118.204 41.9896 117.183 42H114.035ZM115.535 31.8594V40.7734H117.113C118.269 40.7734 119.168 40.4141 119.808 39.6953C120.454 38.9766 120.777 37.9531 120.777 36.625V35.9609C120.777 34.6693 120.472 33.6667 119.863 32.9531C119.259 32.2344 118.399 31.8698 117.285 31.8594H115.535ZM128.256 42.1562C127.11 42.1562 126.178 41.7812 125.459 41.0312C124.74 40.276 124.381 39.2682 124.381 38.0078V37.7422C124.381 36.9036 124.54 36.1562 124.858 35.5C125.18 34.8385 125.628 34.3229 126.201 33.9531C126.779 33.5781 127.404 33.3906 128.076 33.3906C129.175 33.3906 130.029 33.7526 130.639 34.4766C131.248 35.2005 131.553 36.237 131.553 37.5859V38.1875H125.826C125.847 39.0208 126.089 39.6953 126.553 40.2109C127.022 40.7214 127.615 40.9766 128.334 40.9766C128.844 40.9766 129.277 40.8724 129.631 40.6641C129.985 40.4557 130.295 40.1797 130.561 39.8359L131.443 40.5234C130.735 41.612 129.673 42.1562 128.256 42.1562ZM128.076 34.5781C127.493 34.5781 127.003 34.7917 126.608 35.2188C126.212 35.6406 125.967 36.2344 125.873 37H130.108V36.8906C130.066 36.1562 129.868 35.5885 129.514 35.1875C129.16 34.7812 128.68 34.5781 128.076 34.5781ZM137.063 40.9766C137.579 40.9766 138.029 40.8203 138.415 40.5078C138.8 40.1953 139.014 39.8047 139.055 39.3359H140.423C140.396 39.8203 140.23 40.2812 139.923 40.7188C139.615 41.1562 139.204 41.5052 138.688 41.7656C138.178 42.026 137.636 42.1562 137.063 42.1562C135.912 42.1562 134.995 41.7734 134.313 41.0078C133.636 40.237 133.298 39.1849 133.298 37.8516V37.6094C133.298 36.7865 133.449 36.0547 133.751 35.4141C134.053 34.7734 134.485 34.276 135.048 33.9219C135.615 33.5677 136.284 33.3906 137.055 33.3906C138.003 33.3906 138.79 33.6745 139.415 34.2422C140.045 34.8099 140.381 35.5469 140.423 36.4531H139.055C139.014 35.9062 138.805 35.4583 138.43 35.1094C138.061 34.7552 137.602 34.5781 137.055 34.5781C136.321 34.5781 135.751 34.8438 135.344 35.375C134.943 35.901 134.743 36.6641 134.743 37.6641V37.9375C134.743 38.9115 134.943 39.6615 135.344 40.1875C135.745 40.7135 136.318 40.9766 137.063 40.9766ZM145.995 42.1562C144.849 42.1562 143.917 41.7812 143.198 41.0312C142.48 40.276 142.12 39.2682 142.12 38.0078V37.7422C142.12 36.9036 142.279 36.1562 142.597 35.5C142.92 34.8385 143.368 34.3229 143.941 33.9531C144.519 33.5781 145.144 33.3906 145.816 33.3906C146.915 33.3906 147.769 33.7526 148.378 34.4766C148.988 35.2005 149.292 36.237 149.292 37.5859V38.1875H143.566C143.586 39.0208 143.829 39.6953 144.292 40.2109C144.761 40.7214 145.355 40.9766 146.073 40.9766C146.584 40.9766 147.016 40.8724 147.37 40.6641C147.724 40.4557 148.034 40.1797 148.3 39.8359L149.183 40.5234C148.474 41.612 147.412 42.1562 145.995 42.1562ZM145.816 34.5781C145.232 34.5781 144.743 34.7917 144.347 35.2188C143.951 35.6406 143.706 36.2344 143.613 37H147.847V36.8906C147.805 36.1562 147.607 35.5885 147.253 35.1875C146.899 34.7812 146.42 34.5781 145.816 34.5781ZM152.771 33.5469L152.81 34.4844C153.43 33.7552 154.266 33.3906 155.318 33.3906C156.5 33.3906 157.305 33.8438 157.732 34.75C158.013 34.3438 158.378 34.0156 158.826 33.7656C159.279 33.5156 159.813 33.3906 160.428 33.3906C162.282 33.3906 163.224 34.3724 163.256 36.3359V42H161.81V36.4219C161.81 35.8177 161.672 35.3672 161.396 35.0703C161.12 34.7682 160.657 34.6172 160.006 34.6172C159.469 34.6172 159.024 34.7786 158.67 35.1016C158.316 35.4193 158.11 35.849 158.053 36.3906V42H156.599V36.4609C156.599 35.2318 155.998 34.6172 154.795 34.6172C153.847 34.6172 153.198 35.0208 152.849 35.8281V42H151.404V33.5469H152.771ZM173.039 37.8672C173.039 39.1589 172.743 40.1979 172.149 40.9844C171.555 41.7656 170.758 42.1562 169.758 42.1562C168.69 42.1562 167.865 41.7786 167.282 41.0234L167.211 42H165.883V30H167.328V34.4766C167.912 33.7526 168.716 33.3906 169.743 33.3906C170.769 33.3906 171.573 33.7786 172.157 34.5547C172.745 35.3307 173.039 36.3932 173.039 37.7422V37.8672ZM171.594 37.7031C171.594 36.7188 171.404 35.9583 171.024 35.4219C170.644 34.8854 170.097 34.6172 169.383 34.6172C168.43 34.6172 167.745 35.0599 167.328 35.9453V39.6016C167.771 40.487 168.461 40.9297 169.399 40.9297C170.091 40.9297 170.631 40.6615 171.016 40.125C171.401 39.5885 171.594 38.7812 171.594 37.7031ZM178.815 42.1562C177.669 42.1562 176.737 41.7812 176.018 41.0312C175.3 40.276 174.94 39.2682 174.94 38.0078V37.7422C174.94 36.9036 175.099 36.1562 175.417 35.5C175.74 34.8385 176.188 34.3229 176.761 33.9531C177.339 33.5781 177.964 33.3906 178.636 33.3906C179.735 33.3906 180.589 33.7526 181.198 34.4766C181.808 35.2005 182.112 36.237 182.112 37.5859V38.1875H176.386C176.406 39.0208 176.649 39.6953 177.112 40.2109C177.581 40.7214 178.175 40.9766 178.893 40.9766C179.404 40.9766 179.836 40.8724 180.19 40.6641C180.544 40.4557 180.854 40.1797 181.12 39.8359L182.003 40.5234C181.294 41.612 180.232 42.1562 178.815 42.1562ZM178.636 34.5781C178.052 34.5781 177.563 34.7917 177.167 35.2188C176.771 35.6406 176.526 36.2344 176.433 37H180.667V36.8906C180.625 36.1562 180.427 35.5885 180.073 35.1875C179.719 34.7812 179.24 34.5781 178.636 34.5781ZM188.318 34.8438C188.099 34.8073 187.862 34.7891 187.607 34.7891C186.659 34.7891 186.016 35.1927 185.677 36V42H184.232V33.5469H185.638L185.662 34.5234C186.136 33.7682 186.807 33.3906 187.677 33.3906C187.958 33.3906 188.172 33.4271 188.318 33.5V34.8438Z" fill="#607D8B"/>
<path d="M423.594 36.9766H418.82V42H417.32V30.625H424.367V31.8594H418.82V35.75H423.594V36.9766ZM431.424 41.1641C430.862 41.8255 430.036 42.1562 428.948 42.1562C428.047 42.1562 427.359 41.8958 426.885 41.375C426.417 40.849 426.18 40.0729 426.174 39.0469V33.5469H427.62V39.0078C427.62 40.2891 428.141 40.9297 429.182 40.9297C430.286 40.9297 431.021 40.5182 431.385 39.6953V33.5469H432.831V42H431.456L431.424 41.1641ZM442.63 37.8672C442.63 39.1589 442.333 40.1979 441.739 40.9844C441.146 41.7656 440.349 42.1562 439.349 42.1562C438.281 42.1562 437.456 41.7786 436.872 41.0234L436.802 42H435.474V30H436.919V34.4766C437.502 33.7526 438.307 33.3906 439.333 33.3906C440.359 33.3906 441.164 33.7786 441.747 34.5547C442.336 35.3307 442.63 36.3932 442.63 37.7422V37.8672ZM441.185 37.7031C441.185 36.7188 440.995 35.9583 440.614 35.4219C440.234 34.8854 439.687 34.6172 438.974 34.6172C438.021 34.6172 437.336 35.0599 436.919 35.9453V39.6016C437.362 40.487 438.052 40.9297 438.989 40.9297C439.682 40.9297 440.221 40.6615 440.607 40.125C440.992 39.5885 441.185 38.7812 441.185 37.7031ZM448.984 34.8438C448.765 34.8073 448.528 34.7891 448.273 34.7891C447.325 34.7891 446.682 35.1927 446.343 36V42H444.898V33.5469H446.304L446.328 34.5234C446.802 33.7682 447.474 33.3906 448.343 33.3906C448.625 33.3906 448.838 33.4271 448.984 33.5V34.8438ZM455.979 41.1641C455.416 41.8255 454.591 42.1562 453.502 42.1562C452.601 42.1562 451.914 41.8958 451.44 41.375C450.971 40.849 450.734 40.0729 450.729 39.0469V33.5469H452.174V39.0078C452.174 40.2891 452.695 40.9297 453.737 40.9297C454.841 40.9297 455.575 40.5182 455.94 39.6953V33.5469H457.385V42H456.01L455.979 41.1641ZM465.247 42C465.164 41.8333 465.096 41.5365 465.044 41.1094C464.372 41.8073 463.57 42.1562 462.638 42.1562C461.804 42.1562 461.119 41.9219 460.583 41.4531C460.052 40.9792 459.786 40.3802 459.786 39.6562C459.786 38.776 460.119 38.0938 460.786 37.6094C461.458 37.1198 462.401 36.875 463.614 36.875H465.02V36.2109C465.02 35.7057 464.869 35.3047 464.567 35.0078C464.265 34.7057 463.82 34.5547 463.231 34.5547C462.716 34.5547 462.283 34.6849 461.934 34.9453C461.585 35.2057 461.411 35.5208 461.411 35.8906H459.958C459.958 35.4688 460.106 35.0625 460.403 34.6719C460.705 34.276 461.111 33.9635 461.622 33.7344C462.138 33.5052 462.703 33.3906 463.317 33.3906C464.291 33.3906 465.054 33.6354 465.606 34.125C466.158 34.6094 466.445 35.2786 466.466 36.1328V40.0234C466.466 40.7995 466.565 41.4167 466.763 41.875V42H465.247ZM462.848 40.8984C463.302 40.8984 463.731 40.7812 464.138 40.5469C464.544 40.3125 464.838 40.0078 465.02 39.6328V37.8984H463.888C462.117 37.8984 461.231 38.4167 461.231 39.4531C461.231 39.9062 461.382 40.2604 461.684 40.5156C461.986 40.7708 462.374 40.8984 462.848 40.8984ZM473.257 34.8438C473.038 34.8073 472.801 34.7891 472.546 34.7891C471.598 34.7891 470.955 35.1927 470.617 36V42H469.171V33.5469H470.577L470.601 34.5234C471.075 33.7682 471.747 33.3906 472.617 33.3906C472.898 33.3906 473.111 33.4271 473.257 33.5V34.8438ZM477.939 39.8828L479.908 33.5469H481.455L478.057 43.3047C477.531 44.7109 476.695 45.4141 475.549 45.4141L475.275 45.3906L474.736 45.2891V44.1172L475.127 44.1484C475.616 44.1484 475.997 44.0495 476.268 43.8516C476.544 43.6536 476.77 43.2917 476.947 42.7656L477.268 41.9062L474.252 33.5469H475.83L477.939 39.8828Z" fill="#607D8B"/>
<path d="M143.493 494.031H138.727L137.657 497H136.11L140.454 485.625H141.766L146.118 497H144.579L143.493 494.031ZM139.18 492.797H143.048L141.11 487.477L139.18 492.797ZM152.988 496.164C152.425 496.826 151.599 497.156 150.511 497.156C149.61 497.156 148.922 496.896 148.448 496.375C147.98 495.849 147.743 495.073 147.738 494.047V488.547H149.183V494.008C149.183 495.289 149.704 495.93 150.745 495.93C151.849 495.93 152.584 495.518 152.948 494.695V488.547H154.394V497H153.019L152.988 496.164ZM156.693 492.703C156.693 491.385 156.998 490.339 157.607 489.562C158.217 488.781 159.024 488.391 160.029 488.391C161.06 488.391 161.865 488.755 162.443 489.484L162.513 488.547H163.834V496.797C163.834 497.891 163.508 498.753 162.857 499.383C162.211 500.013 161.342 500.328 160.248 500.328C159.638 500.328 159.042 500.198 158.459 499.938C157.875 499.677 157.43 499.32 157.123 498.867L157.873 498C158.493 498.766 159.25 499.148 160.146 499.148C160.849 499.148 161.396 498.951 161.787 498.555C162.183 498.159 162.381 497.602 162.381 496.883V496.156C161.802 496.823 161.013 497.156 160.013 497.156C159.024 497.156 158.222 496.758 157.607 495.961C156.998 495.164 156.693 494.078 156.693 492.703ZM158.146 492.867C158.146 493.82 158.342 494.57 158.732 495.117C159.123 495.659 159.67 495.93 160.373 495.93C161.284 495.93 161.954 495.516 162.381 494.688V490.828C161.938 490.021 161.274 489.617 160.388 489.617C159.685 489.617 159.136 489.891 158.74 490.438C158.344 490.984 158.146 491.794 158.146 492.867ZM171.68 496.164C171.118 496.826 170.292 497.156 169.203 497.156C168.302 497.156 167.615 496.896 167.141 496.375C166.672 495.849 166.435 495.073 166.43 494.047V488.547H167.875V494.008C167.875 495.289 168.396 495.93 169.438 495.93C170.542 495.93 171.276 495.518 171.641 494.695V488.547H173.086V497H171.711L171.68 496.164ZM180.651 494.758C180.651 494.367 180.503 494.065 180.206 493.852C179.914 493.633 179.401 493.445 178.667 493.289C177.938 493.133 177.357 492.945 176.925 492.727C176.498 492.508 176.18 492.247 175.972 491.945C175.768 491.643 175.667 491.284 175.667 490.867C175.667 490.174 175.959 489.589 176.542 489.109C177.13 488.63 177.88 488.391 178.792 488.391C179.75 488.391 180.526 488.638 181.12 489.133C181.719 489.628 182.018 490.26 182.018 491.031H180.565C180.565 490.635 180.396 490.294 180.057 490.008C179.724 489.721 179.302 489.578 178.792 489.578C178.266 489.578 177.854 489.693 177.557 489.922C177.261 490.151 177.112 490.451 177.112 490.82C177.112 491.169 177.25 491.432 177.526 491.609C177.802 491.786 178.3 491.956 179.018 492.117C179.742 492.279 180.328 492.471 180.776 492.695C181.224 492.919 181.555 493.19 181.768 493.508C181.987 493.82 182.097 494.203 182.097 494.656C182.097 495.411 181.794 496.018 181.19 496.477C180.586 496.93 179.802 497.156 178.839 497.156C178.162 497.156 177.563 497.036 177.042 496.797C176.521 496.557 176.112 496.224 175.815 495.797C175.524 495.365 175.378 494.898 175.378 494.398H176.823C176.849 494.883 177.042 495.268 177.401 495.555C177.766 495.836 178.245 495.977 178.839 495.977C179.386 495.977 179.823 495.867 180.151 495.648C180.485 495.424 180.651 495.128 180.651 494.758ZM186.38 486.5V488.547H187.958V489.664H186.38V494.906C186.38 495.245 186.451 495.5 186.591 495.672C186.732 495.839 186.971 495.922 187.31 495.922C187.477 495.922 187.706 495.891 187.998 495.828V497C187.617 497.104 187.248 497.156 186.888 497.156C186.242 497.156 185.755 496.961 185.427 496.57C185.099 496.18 184.935 495.625 184.935 494.906V489.664H183.396V488.547H184.935V486.5H186.38Z" fill="#607D8B"/>
<path d="M422.086 485.625H423.594V493.68C423.594 494.768 423.266 495.62 422.609 496.234C421.958 496.849 421.089 497.156 420 497.156C418.87 497.156 417.99 496.867 417.359 496.289C416.729 495.711 416.414 494.901 416.414 493.859H417.914C417.914 494.51 418.091 495.018 418.445 495.383C418.805 495.747 419.323 495.93 420 495.93C420.62 495.93 421.12 495.734 421.5 495.344C421.885 494.953 422.081 494.406 422.086 493.703V485.625ZM431.581 496.164C431.018 496.826 430.193 497.156 429.104 497.156C428.203 497.156 427.516 496.896 427.042 496.375C426.573 495.849 426.336 495.073 426.331 494.047V488.547H427.776V494.008C427.776 495.289 428.297 495.93 429.338 495.93C430.443 495.93 431.177 495.518 431.542 494.695V488.547H432.987V497H431.612L431.581 496.164ZM436.997 488.547L437.044 489.609C437.69 488.797 438.534 488.391 439.575 488.391C441.362 488.391 442.263 489.398 442.278 491.414V497H440.833V491.406C440.828 490.797 440.687 490.346 440.411 490.055C440.14 489.763 439.716 489.617 439.138 489.617C438.669 489.617 438.258 489.742 437.903 489.992C437.549 490.242 437.273 490.57 437.075 490.977V497H435.63V488.547H436.997ZM448.406 497.156C447.26 497.156 446.328 496.781 445.609 496.031C444.89 495.276 444.531 494.268 444.531 493.008V492.742C444.531 491.904 444.69 491.156 445.007 490.5C445.33 489.839 445.778 489.323 446.351 488.953C446.929 488.578 447.554 488.391 448.226 488.391C449.325 488.391 450.179 488.753 450.789 489.477C451.398 490.201 451.703 491.237 451.703 492.586V493.188H445.976C445.997 494.021 446.239 494.695 446.703 495.211C447.172 495.721 447.765 495.977 448.484 495.977C448.994 495.977 449.427 495.872 449.781 495.664C450.135 495.456 450.445 495.18 450.711 494.836L451.593 495.523C450.885 496.612 449.823 497.156 448.406 497.156ZM448.226 489.578C447.643 489.578 447.153 489.792 446.757 490.219C446.362 490.641 446.117 491.234 446.023 492H450.257V491.891C450.216 491.156 450.018 490.589 449.664 490.188C449.31 489.781 448.83 489.578 448.226 489.578Z" fill="#607D8B"/>
<defs>
<filter id="filter0_d" x="282" y="223" width="40" height="32" filterUnits="userSpaceOnUse" color-interpolation-filters="sRGB">
<feFlood flood-opacity="0" result="BackgroundImageFix"/>
<feColorMatrix in="SourceAlpha" type="matrix" values="0 0 0 0 0 0 0 0 0 0 0 0 0 0 0 0 0 0 127 0"/>
<feOffset dy="4"/>
<feGaussianBlur stdDeviation="4"/>
<feColorMatrix type="matrix" values="0 0 0 0 0.329412 0 0 0 0 0.431373 0 0 0 0 0.478431 0 0 0 0.24 0"/>
<feBlend mode="multiply" in2="BackgroundImageFix" result="effect1_dropShadow"/>
<feBlend mode="normal" in="SourceGraphic" in2="effect1_dropShadow" result="shape"/>
</filter>
<filter id="filter1_d" x="282" y="191" width="40" height="32" filterUnits="userSpaceOnUse" color-interpolation-filters="sRGB">
<feFlood flood-opacity="0" result="BackgroundImageFix"/>
<feColorMatrix in="SourceAlpha" type="matrix" values="0 0 0 0 0 0 0 0 0 0 0 0 0 0 0 0 0 0 127 0"/>
<feOffset dy="4"/>
<feGaussianBlur stdDeviation="4"/>
<feColorMatrix type="matrix" values="0 0 0 0 0.329412 0 0 0 0 0.431373 0 0 0 0 0.478431 0 0 0 0.24 0"/>
<feBlend mode="multiply" in2="BackgroundImageFix" result="effect1_dropShadow"/>
<feBlend mode="normal" in="SourceGraphic" in2="effect1_dropShadow" result="shape"/>
</filter>
<filter id="filter2_d" x="282" y="159" width="40" height="32" filterUnits="userSpaceOnUse" color-interpolation-filters="sRGB">
<feFlood flood-opacity="0" result="BackgroundImageFix"/>
<feColorMatrix in="SourceAlpha" type="matrix" values="0 0 0 0 0 0 0 0 0 0 0 0 0 0 0 0 0 0 127 0"/>
<feOffset dy="4"/>
<feGaussianBlur stdDeviation="4"/>
<feColorMatrix type="matrix" values="0 0 0 0 0.329412 0 0 0 0 0.431373 0 0 0 0 0.478431 0 0 0 0.24 0"/>
<feBlend mode="multiply" in2="BackgroundImageFix" result="effect1_dropShadow"/>
<feBlend mode="normal" in="SourceGraphic" in2="effect1_dropShadow" result="shape"/>
</filter>
<filter id="filter3_d" x="282" y="127" width="40" height="32" filterUnits="userSpaceOnUse" color-interpolation-filters="sRGB">
<feFlood flood-opacity="0" result="BackgroundImageFix"/>
<feColorMatrix in="SourceAlpha" type="matrix" values="0 0 0 0 0 0 0 0 0 0 0 0 0 0 0 0 0 0 127 0"/>
<feOffset dy="4"/>
<feGaussianBlur stdDeviation="4"/>
<feColorMatrix type="matrix" values="0 0 0 0 0.329412 0 0 0 0 0.431373 0 0 0 0 0.478431 0 0 0 0.24 0"/>
<feBlend mode="multiply" in2="BackgroundImageFix" result="effect1_dropShadow"/>
<feBlend mode="normal" in="SourceGraphic" in2="effect1_dropShadow" result="shape"/>
</filter>
<filter id="filter4_d" x="282" y="95" width="40" height="32" filterUnits="userSpaceOnUse" color-interpolation-filters="sRGB">
<feFlood flood-opacity="0" result="BackgroundImageFix"/>
<feColorMatrix in="SourceAlpha" type="matrix" values="0 0 0 0 0 0 0 0 0 0 0 0 0 0 0 0 0 0 127 0"/>
<feOffset dy="4"/>
<feGaussianBlur stdDeviation="4"/>
<feColorMatrix type="matrix" values="0 0 0 0 0.329412 0 0 0 0 0.431373 0 0 0 0 0.478431 0 0 0 0.24 0"/>
<feBlend mode="multiply" in2="BackgroundImageFix" result="effect1_dropShadow"/>
<feBlend mode="normal" in="SourceGraphic" in2="effect1_dropShadow" result="shape"/>
</filter>
<filter id="filter5_d" x="282" y="63" width="40" height="32" filterUnits="userSpaceOnUse" color-interpolation-filters="sRGB">
<feFlood flood-opacity="0" result="BackgroundImageFix"/>
<feColorMatrix in="SourceAlpha" type="matrix" values="0 0 0 0 0 0 0 0 0 0 0 0 0 0 0 0 0 0 127 0"/>
<feOffset dy="4"/>
<feGaussianBlur stdDeviation="4"/>
<feColorMatrix type="matrix" values="0 0 0 0 0.329412 0 0 0 0 0.431373 0 0 0 0 0.478431 0 0 0 0.24 0"/>
<feBlend mode="multiply" in2="BackgroundImageFix" result="effect1_dropShadow"/>
<feBlend mode="normal" in="SourceGraphic" in2="effect1_dropShadow" result="shape"/>
</filter>
<filter id="filter6_d" x="282" y="31" width="40" height="32" filterUnits="userSpaceOnUse" color-interpolation-filters="sRGB">
<feFlood flood-opacity="0" result="BackgroundImageFix"/>
<feColorMatrix in="SourceAlpha" type="matrix" values="0 0 0 0 0 0 0 0 0 0 0 0 0 0 0 0 0 0 127 0"/>
<feOffset dy="4"/>
<feGaussianBlur stdDeviation="4"/>
<feColorMatrix type="matrix" values="0 0 0 0 0.329412 0 0 0 0 0.431373 0 0 0 0 0.478431 0 0 0 0.24 0"/>
<feBlend mode="multiply" in2="BackgroundImageFix" result="effect1_dropShadow"/>
<feBlend mode="normal" in="SourceGraphic" in2="effect1_dropShadow" result="shape"/>
</filter>
<filter id="filter7_d" x="476" y="134" width="40" height="40" filterUnits="userSpaceOnUse" color-interpolation-filters="sRGB">
<feFlood flood-opacity="0" result="BackgroundImageFix"/>
<feColorMatrix in="SourceAlpha" type="matrix" values="0 0 0 0 0 0 0 0 0 0 0 0 0 0 0 0 0 0 127 0"/>
<feOffset dy="4"/>
<feGaussianBlur stdDeviation="4"/>
<feColorMatrix type="matrix" values="0 0 0 0 0.486275 0 0 0 0 0.301961 0 0 0 0 1 0 0 0 0.16 0"/>
<feBlend mode="multiply" in2="BackgroundImageFix" result="effect1_dropShadow"/>
<feBlend mode="normal" in="SourceGraphic" in2="effect1_dropShadow" result="shape"/>
</filter>
<filter id="filter8_d" x="504" y="248" width="40" height="40" filterUnits="userSpaceOnUse" color-interpolation-filters="sRGB">
<feFlood flood-opacity="0" result="BackgroundImageFix"/>
<feColorMatrix in="SourceAlpha" type="matrix" values="0 0 0 0 0 0 0 0 0 0 0 0 0 0 0 0 0 0 127 0"/>
<feOffset dy="4"/>
<feGaussianBlur stdDeviation="4"/>
<feColorMatrix type="matrix" values="0 0 0 0 0.486275 0 0 0 0 0.301961 0 0 0 0 1 0 0 0 0.16 0"/>
<feBlend mode="multiply" in2="BackgroundImageFix" result="effect1_dropShadow"/>
<feBlend mode="normal" in="SourceGraphic" in2="effect1_dropShadow" result="shape"/>
</filter>
<filter id="filter9_d" x="60" y="248" width="40" height="40" filterUnits="userSpaceOnUse" color-interpolation-filters="sRGB">
<feFlood flood-opacity="0" result="BackgroundImageFix"/>
<feColorMatrix in="SourceAlpha" type="matrix" values="0 0 0 0 0 0 0 0 0 0 0 0 0 0 0 0 0 0 127 0"/>
<feOffset dy="4"/>
<feGaussianBlur stdDeviation="4"/>
<feColorMatrix type="matrix" values="0 0 0 0 0.486275 0 0 0 0 0.301961 0 0 0 0 1 0 0 0 0.16 0"/>
<feBlend mode="multiply" in2="BackgroundImageFix" result="effect1_dropShadow"/>
<feBlend mode="normal" in="SourceGraphic" in2="effect1_dropShadow" result="shape"/>
</filter>
<filter id="filter10_d" x="476" y="362" width="40" height="40" filterUnits="userSpaceOnUse" color-interpolation-filters="sRGB">
<feFlood flood-opacity="0" result="BackgroundImageFix"/>
<feColorMatrix in="SourceAlpha" type="matrix" values="0 0 0 0 0 0 0 0 0 0 0 0 0 0 0 0 0 0 127 0"/>
<feOffset dy="4"/>
<feGaussianBlur stdDeviation="4"/>
<feColorMatrix type="matrix" values="0 0 0 0 0.486275 0 0 0 0 0.301961 0 0 0 0 1 0 0 0 0.16 0"/>
<feBlend mode="multiply" in2="BackgroundImageFix" result="effect1_dropShadow"/>
<feBlend mode="normal" in="SourceGraphic" in2="effect1_dropShadow" result="shape"/>
</filter>
<filter id="filter11_d" x="88" y="362" width="40" height="40" filterUnits="userSpaceOnUse" color-interpolation-filters="sRGB">
<feFlood flood-opacity="0" result="BackgroundImageFix"/>
<feColorMatrix in="SourceAlpha" type="matrix" values="0 0 0 0 0 0 0 0 0 0 0 0 0 0 0 0 0 0 127 0"/>
<feOffset dy="4"/>
<feGaussianBlur stdDeviation="4"/>
<feColorMatrix type="matrix" values="0 0 0 0 0.486275 0 0 0 0 0.301961 0 0 0 0 1 0 0 0 0.16 0"/>
<feBlend mode="multiply" in2="BackgroundImageFix" result="effect1_dropShadow"/>
<feBlend mode="normal" in="SourceGraphic" in2="effect1_dropShadow" result="shape"/>
</filter>
<filter id="filter12_d" x="88" y="134" width="40" height="40" filterUnits="userSpaceOnUse" color-interpolation-filters="sRGB">
<feFlood flood-opacity="0" result="BackgroundImageFix"/>
<feColorMatrix in="SourceAlpha" type="matrix" values="0 0 0 0 0 0 0 0 0 0 0 0 0 0 0 0 0 0 127 0"/>
<feOffset dy="4"/>
<feGaussianBlur stdDeviation="4"/>
<feColorMatrix type="matrix" values="0 0 0 0 0.486275 0 0 0 0 0.301961 0 0 0 0 1 0 0 0 0.16 0"/>
<feBlend mode="multiply" in2="BackgroundImageFix" result="effect1_dropShadow"/>
<feBlend mode="normal" in="SourceGraphic" in2="effect1_dropShadow" result="shape"/>
</filter>
<filter id="filter13_d" x="396" y="54" width="40" height="40" filterUnits="userSpaceOnUse" color-interpolation-filters="sRGB">
<feFlood flood-opacity="0" result="BackgroundImageFix"/>
<feColorMatrix in="SourceAlpha" type="matrix" values="0 0 0 0 0 0 0 0 0 0 0 0 0 0 0 0 0 0 127 0"/>
<feOffset dy="4"/>
<feGaussianBlur stdDeviation="4"/>
<feColorMatrix type="matrix" values="0 0 0 0 0.486275 0 0 0 0 0.301961 0 0 0 0 1 0 0 0 0.16 0"/>
<feBlend mode="multiply" in2="BackgroundImageFix" result="effect1_dropShadow"/>
<feBlend mode="normal" in="SourceGraphic" in2="effect1_dropShadow" result="shape"/>
</filter>
<filter id="filter14_d" x="168" y="54" width="40" height="40" filterUnits="userSpaceOnUse" color-interpolation-filters="sRGB">
<feFlood flood-opacity="0" result="BackgroundImageFix"/>
<feColorMatrix in="SourceAlpha" type="matrix" values="0 0 0 0 0 0 0 0 0 0 0 0 0 0 0 0 0 0 127 0"/>
<feOffset dy="4"/>
<feGaussianBlur stdDeviation="4"/>
<feColorMatrix type="matrix" values="0 0 0 0 0.486275 0 0 0 0 0.301961 0 0 0 0 1 0 0 0 0.16 0"/>
<feBlend mode="multiply" in2="BackgroundImageFix" result="effect1_dropShadow"/>
<feBlend mode="normal" in="SourceGraphic" in2="effect1_dropShadow" result="shape"/>
</filter>
<filter id="filter15_d" x="396" y="442" width="40" height="40" filterUnits="userSpaceOnUse" color-interpolation-filters="sRGB">
<feFlood flood-opacity="0" result="BackgroundImageFix"/>
<feColorMatrix in="SourceAlpha" type="matrix" values="0 0 0 0 0 0 0 0 0 0 0 0 0 0 0 0 0 0 127 0"/>
<feOffset dy="4"/>
<feGaussianBlur stdDeviation="4"/>
<feColorMatrix type="matrix" values="0 0 0 0 0.486275 0 0 0 0 0.301961 0 0 0 0 1 0 0 0 0.16 0"/>
<feBlend mode="multiply" in2="BackgroundImageFix" result="effect1_dropShadow"/>
<feBlend mode="normal" in="SourceGraphic" in2="effect1_dropShadow" result="shape"/>
</filter>
<filter id="filter16_d" x="168" y="442" width="40" height="40" filterUnits="userSpaceOnUse" color-interpolation-filters="sRGB">
<feFlood flood-opacity="0" result="BackgroundImageFix"/>
<feColorMatrix in="SourceAlpha" type="matrix" values="0 0 0 0 0 0 0 0 0 0 0 0 0 0 0 0 0 0 127 0"/>
<feOffset dy="4"/>
<feGaussianBlur stdDeviation="4"/>
<feColorMatrix type="matrix" values="0 0 0 0 0.486275 0 0 0 0 0.301961 0 0 0 0 1 0 0 0 0.16 0"/>
<feBlend mode="multiply" in2="BackgroundImageFix" result="effect1_dropShadow"/>
<feBlend mode="normal" in="SourceGraphic" in2="effect1_dropShadow" result="shape"/>
</filter>
<filter id="filter17_d" x="282" y="469" width="40" height="40" filterUnits="userSpaceOnUse" color-interpolation-filters="sRGB">
<feFlood flood-opacity="0" result="BackgroundImageFix"/>
<feColorMatrix in="SourceAlpha" type="matrix" values="0 0 0 0 0 0 0 0 0 0 0 0 0 0 0 0 0 0 127 0"/>
<feOffset dy="4"/>
<feGaussianBlur stdDeviation="4"/>
<feColorMatrix type="matrix" values="0 0 0 0 0.486275 0 0 0 0 0.301961 0 0 0 0 1 0 0 0 0.16 0"/>
<feBlend mode="multiply" in2="BackgroundImageFix" result="effect1_dropShadow"/>
<feBlend mode="normal" in="SourceGraphic" in2="effect1_dropShadow" result="shape"/>
</filter>
</defs>
</svg>
