<svg width="245" height="167" viewBox="0 0 245 167" fill="none" xmlns="http://www.w3.org/2000/svg">
<rect y="23.875" width="236" height="24" fill="#06BF7F"/>
<path d="M190.53 37.875H191.54V34.085C191.54 33.095 191.53 32.265 191.52 31.685H191.53C191.66 32.165 191.79 32.695 192.02 33.385L193.53 37.875H194.64L195.91 34.105C196.24 33.105 196.57 32.045 196.68 31.685H196.69C196.69 32.265 196.66 33.425 196.66 34.185V37.875H197.68V30.725H196.04L194.78 34.565L194.12 36.595H194.11C193.92 35.995 193.67 35.135 193.5 34.635L192.23 30.725H190.53V37.875ZM202.707 37.875H203.677C203.667 37.615 203.667 37.355 203.667 37.085V32.625H202.657V35.035C202.657 36.185 202.467 37.165 201.387 37.165C200.567 37.165 200.227 36.545 200.227 35.515V32.625H199.217V35.895C199.217 37.255 199.817 38.005 201.037 38.005C201.927 38.005 202.437 37.575 202.707 37.125V37.875ZM206.116 32.625H205.116C205.126 32.905 205.126 33.155 205.126 33.435V37.875H206.136V34.865C206.136 34.025 206.586 33.335 207.406 33.335C208.246 33.335 208.546 33.985 208.546 35.045V37.875H209.566V34.855C209.566 34.035 210.016 33.335 210.836 33.335C211.666 33.335 211.976 33.975 211.976 35.045V37.875H212.996V34.645C212.996 33.305 212.406 32.475 211.156 32.475C210.126 32.475 209.656 32.995 209.346 33.445C209.076 32.825 208.546 32.475 207.766 32.475C206.866 32.475 206.396 32.875 206.116 33.335V32.625ZM214.394 37.875H215.344V37.135C215.644 37.595 216.224 37.995 217.124 37.995C218.564 37.995 219.564 36.875 219.564 35.235C219.564 33.645 218.604 32.465 217.114 32.465C216.284 32.465 215.704 32.865 215.404 33.295C215.414 32.925 215.414 32.625 215.414 32.265V30.725H214.394V37.875ZM216.914 33.315C217.894 33.315 218.474 34.125 218.474 35.245C218.474 36.405 217.904 37.165 216.924 37.165C215.934 37.165 215.354 36.395 215.354 35.245C215.354 34.125 215.944 33.315 216.914 33.315ZM224.993 37.875C224.903 37.395 224.863 36.775 224.863 35.925V34.905C224.863 32.845 223.903 32.485 222.773 32.485C221.523 32.485 220.623 33.145 220.573 34.265H221.563C221.623 33.645 221.993 33.285 222.753 33.285C223.443 33.285 223.883 33.585 223.883 34.645C223.543 34.675 223.153 34.715 222.803 34.765C221.403 34.955 220.323 35.325 220.323 36.455C220.323 37.435 221.123 37.975 222.223 37.975C223.063 37.975 223.593 37.725 223.993 37.155C224.013 37.535 224.013 37.665 224.043 37.875H224.993ZM223.903 35.375C223.893 35.435 223.893 35.525 223.893 35.655C223.893 36.675 223.393 37.245 222.453 37.245C221.813 37.245 221.413 36.935 221.413 36.445C221.413 35.715 222.193 35.545 223.903 35.375ZM226.259 32.625V37.875H227.269V32.625H226.259ZM226.239 31.865H227.289V30.725H226.239V31.865Z" fill="white"/>
<g opacity="0.64">
<rect y="47.75" width="214" height="24" fill="#56D3A8"/>
</g>
<g opacity="0.56">
<rect y="71.625" width="149" height="24" fill="#56D3A8"/>
</g>
<g opacity="0.48">
<rect y="95.5" width="124" height="24" fill="#455C55"/>
</g>
<g opacity="0.4">
<rect y="119.375" width="103" height="24" fill="#455C55"/>
</g>
<rect y="143" width="95" height="24" fill="#263238"/>
<path d="M169.712 62H170.752V58.36C171.712 59.58 172.722 60.76 173.662 62H174.992C173.992 60.73 172.872 59.4 171.872 58.12L174.902 54.85H173.612L170.752 58.1V54.85H169.712V62ZM177.683 56.61C176.043 56.61 175.023 57.76 175.023 59.39C175.023 60.99 175.983 62.13 177.663 62.13C179.343 62.13 180.333 60.99 180.333 59.39C180.333 57.76 179.313 56.61 177.683 56.61ZM177.653 57.45C178.643 57.45 179.223 58.26 179.223 59.38C179.223 60.54 178.653 61.29 177.653 61.29C176.663 61.29 176.093 60.54 176.093 59.38C176.093 58.26 176.673 57.45 177.653 57.45ZM181.506 62H182.516V54.85H181.506V62ZM184.015 62H185.035V59.36L185.845 60.39C186.285 60.95 186.805 61.6 187.135 62H188.485C187.675 61.05 186.365 59.47 186.075 59.11L188.245 56.75H186.995C186.645 57.15 186.025 57.9 185.575 58.44L185.035 59.08V54.85H184.015V62ZM193.452 62C193.362 61.52 193.322 60.9 193.322 60.05V59.03C193.322 56.97 192.362 56.61 191.232 56.61C189.982 56.61 189.082 57.27 189.032 58.39H190.022C190.082 57.77 190.452 57.41 191.212 57.41C191.902 57.41 192.342 57.71 192.342 58.77C192.002 58.8 191.612 58.84 191.262 58.89C189.862 59.08 188.782 59.45 188.782 60.58C188.782 61.56 189.582 62.1 190.682 62.1C191.522 62.1 192.052 61.85 192.452 61.28C192.472 61.66 192.472 61.79 192.502 62H193.452ZM192.362 59.5C192.352 59.56 192.352 59.65 192.352 59.78C192.352 60.8 191.852 61.37 190.912 61.37C190.272 61.37 189.872 61.06 189.872 60.57C189.872 59.84 190.652 59.67 192.362 59.5ZM195.978 55.33H194.958V56.75H194.168V57.53H194.958V60.74C194.958 61.79 195.548 62.1 196.478 62.1C196.608 62.1 196.718 62.08 196.868 62.06V61.31C196.808 61.32 196.688 61.33 196.618 61.33C196.228 61.33 195.978 61.18 195.978 60.68V57.53H196.958V56.75H195.978V55.33ZM199.201 55.33H198.181V56.75H197.391V57.53H198.181V60.74C198.181 61.79 198.771 62.1 199.701 62.1C199.831 62.1 199.941 62.08 200.091 62.06V61.31C200.031 61.32 199.911 61.33 199.841 61.33C199.451 61.33 199.201 61.18 199.201 60.68V57.53H200.181V56.75H199.201V55.33ZM205.464 62C205.374 61.52 205.334 60.9 205.334 60.05V59.03C205.334 56.97 204.374 56.61 203.244 56.61C201.994 56.61 201.094 57.27 201.044 58.39H202.034C202.094 57.77 202.464 57.41 203.224 57.41C203.914 57.41 204.354 57.71 204.354 58.77C204.014 58.8 203.624 58.84 203.274 58.89C201.874 59.08 200.794 59.45 200.794 60.58C200.794 61.56 201.594 62.1 202.694 62.1C203.534 62.1 204.064 61.85 204.464 61.28C204.484 61.66 204.484 61.79 204.514 62H205.464ZM204.374 59.5C204.364 59.56 204.364 59.65 204.364 59.78C204.364 60.8 203.864 61.37 202.924 61.37C202.284 61.37 201.884 61.06 201.884 60.57C201.884 59.84 202.664 59.67 204.374 59.5Z" fill="white"/>
<path d="M113.371 83.91C112.971 84.76 112.281 85.26 111.231 85.26C109.681 85.26 108.791 84.07 108.791 82.41C108.791 80.74 109.681 79.6 111.221 79.6C112.341 79.6 113.011 80.12 113.401 81.02H114.481C114.031 79.54 112.891 78.71 111.231 78.71C109.111 78.71 107.651 80.22 107.651 82.42C107.651 84.64 109.091 86.14 111.181 86.14C112.861 86.14 113.981 85.28 114.471 83.91H113.371ZM117.839 80.61C116.199 80.61 115.179 81.76 115.179 83.39C115.179 84.99 116.139 86.13 117.819 86.13C119.499 86.13 120.489 84.99 120.489 83.39C120.489 81.76 119.469 80.61 117.839 80.61ZM117.809 81.45C118.799 81.45 119.379 82.26 119.379 83.38C119.379 84.54 118.809 85.29 117.809 85.29C116.819 85.29 116.249 84.54 116.249 83.38C116.249 82.26 116.829 81.45 117.809 81.45ZM125.333 84.32C125.103 84.93 124.613 85.29 123.933 85.29C122.943 85.29 122.363 84.53 122.363 83.37C122.363 82.25 122.953 81.45 123.933 81.45C124.623 81.45 125.133 81.85 125.353 82.48H126.393C126.163 81.37 125.323 80.61 123.973 80.61C122.353 80.61 121.293 81.78 121.293 83.36C121.293 84.95 122.313 86.13 123.963 86.13C125.303 86.13 126.113 85.36 126.383 84.32H125.333ZM128.472 78.85H127.462V86H128.472V82.94C128.472 82.14 128.962 81.46 129.772 81.46C130.592 81.46 130.942 82.13 130.942 83.16V86H131.962V82.74C131.962 81.42 131.312 80.6 130.122 80.6C129.202 80.6 128.652 81.09 128.462 81.44C128.472 81.06 128.472 80.44 128.472 80V78.85ZM133.361 80.75V86H134.371V80.75H133.361ZM133.341 79.99H134.391V78.85H133.341V79.99ZM136.822 80.75H135.822C135.832 81.02 135.832 81.27 135.832 81.54V86H136.842V82.97C136.842 82.15 137.312 81.46 138.142 81.46C138.962 81.46 139.312 82.12 139.312 83.15V86H140.332V82.77C140.332 81.42 139.692 80.6 138.492 80.6C137.602 80.6 137.102 81.01 136.822 81.46V80.75Z" fill="white"/>
<path opacity="0.6" d="M84.5165 110H86.7865C88.1565 110 89.6065 109.63 89.6065 107.96C89.6065 106.9 88.9265 106.42 88.2565 106.23C88.7865 106.03 89.3065 105.57 89.3065 104.6C89.3065 103.33 88.3765 102.85 86.6565 102.85H84.5165V110ZM85.5565 106.77H86.8265C87.8565 106.77 88.5165 107.06 88.5165 107.94C88.5165 108.81 87.8465 109.12 87.0365 109.12H85.5565V106.77ZM85.5565 103.74H86.3765C87.4365 103.74 88.1765 103.85 88.1765 104.8C88.1765 105.62 87.6765 105.91 86.7165 105.91H85.5565V103.74ZM94.063 102.71C91.923 102.71 90.473 104.22 90.473 106.43C90.473 108.64 91.913 110.14 94.073 110.14C96.243 110.14 97.673 108.64 97.673 106.43C97.673 104.21 96.213 102.71 94.063 102.71ZM94.053 103.6C95.603 103.6 96.523 104.76 96.523 106.42C96.523 108.07 95.593 109.26 94.063 109.26C92.523 109.26 91.603 108.05 91.603 106.42C91.603 104.78 92.513 103.6 94.053 103.6ZM98.9696 110H101.24C102.61 110 104.06 109.63 104.06 107.96C104.06 106.9 103.38 106.42 102.71 106.23C103.24 106.03 103.76 105.57 103.76 104.6C103.76 103.33 102.83 102.85 101.11 102.85H98.9696V110ZM100.01 106.77H101.28C102.31 106.77 102.97 107.06 102.97 107.94C102.97 108.81 102.3 109.12 101.49 109.12H100.01V106.77ZM100.01 103.74H100.83C101.89 103.74 102.63 103.85 102.63 104.8C102.63 105.62 102.13 105.91 101.17 105.91H100.01V103.74ZM104.856 107.97C104.946 109.34 105.966 110.14 107.566 110.14C109.116 110.14 110.196 109.28 110.196 107.97C110.196 106.77 109.366 106.32 108.116 105.94L107.616 105.79C106.836 105.56 106.206 105.31 106.206 104.58C106.206 103.98 106.696 103.57 107.526 103.57C108.386 103.57 108.846 103.99 108.966 104.7H110.046C109.916 103.48 109.076 102.7 107.556 102.7C106.076 102.7 105.076 103.5 105.076 104.67C105.076 105.81 105.876 106.31 107.166 106.72L107.636 106.87C108.456 107.13 109.086 107.32 109.086 108.1C109.086 108.82 108.516 109.3 107.576 109.3C106.556 109.3 106.056 108.72 105.926 107.97H104.856ZM112.751 110H113.801V103.77H115.741V102.85H110.811V103.77H112.751V110Z" fill="white"/>
<path opacity="0.6" d="M76.7587 134H77.8087V131.19H78.6787C79.4987 131.19 80.1587 131.14 80.6987 130.78C81.2887 130.39 81.5787 129.74 81.5787 128.99C81.5787 128.18 81.2187 127.53 80.6087 127.2C80.0487 126.9 79.6087 126.85 78.6887 126.85H76.7587V134ZM77.8087 127.78L78.8487 127.77C79.9287 127.76 80.4687 128.14 80.4687 129C80.4687 129.93 79.7987 130.28 78.9187 130.28H77.8087V127.78ZM83.8243 134V130.77H87.1443V134H88.1843V126.85H87.1443V129.88H83.8243V126.85H82.7743V134H83.8243ZM90.9127 130.14C90.0227 130.47 89.5227 131.07 89.5227 132.04C89.5227 133.31 90.4627 134.15 92.0327 134.15C93.6027 134.15 94.5327 133.31 94.5327 132.05C94.5327 131.08 94.0627 130.5 93.1527 130.14V130.12C93.6227 129.94 94.2327 129.47 94.2327 128.52C94.2327 127.5 93.4527 126.71 92.0327 126.71C90.6127 126.71 89.8327 127.5 89.8327 128.52C89.8327 129.47 90.4427 129.94 90.9127 130.12V130.14ZM92.0327 130.64C92.9227 130.64 93.4627 131.16 93.4627 131.96C93.4627 132.72 92.9327 133.27 92.0327 133.27C91.1027 133.27 90.5927 132.72 90.5927 131.96C90.5927 131.16 91.1327 130.64 92.0327 130.64ZM92.0327 127.64C92.7527 127.64 93.2127 128.07 93.2127 128.67C93.2127 129.29 92.7527 129.72 92.0327 129.72C91.3127 129.72 90.8627 129.29 90.8627 128.68C90.8627 128.06 91.3027 127.64 92.0327 127.64Z" fill="white"/>
<path opacity="0.6" d="M59.4032 158H60.4532V155.13H61.4732C61.9832 156 62.6032 157.06 63.1332 158H64.3932C63.5732 156.62 63.0732 155.8 62.5632 154.97C63.4732 154.78 64.2932 154.2 64.2932 152.94C64.2932 152.21 63.9932 151.63 63.4432 151.26C62.9332 150.92 62.2732 150.85 61.5632 150.85H59.4032V158ZM60.4532 151.78C60.7932 151.77 61.1532 151.77 61.5532 151.77C62.5432 151.77 63.1532 152.08 63.1532 152.98C63.1532 153.86 62.5432 154.22 61.5532 154.22H60.4532V151.78ZM67.6479 152.61C66.0079 152.61 64.9879 153.76 64.9879 155.39C64.9879 156.99 65.9479 158.13 67.6279 158.13C69.3079 158.13 70.2979 156.99 70.2979 155.39C70.2979 153.76 69.2779 152.61 67.6479 152.61ZM67.6179 153.45C68.6079 153.45 69.1879 154.26 69.1879 155.38C69.1879 156.54 68.6179 157.29 67.6179 157.29C66.6279 157.29 66.0579 156.54 66.0579 155.38C66.0579 154.26 66.6379 153.45 67.6179 153.45ZM72.6423 151.33H71.6223V152.75H70.8323V153.53H71.6223V156.74C71.6223 157.79 72.2123 158.1 73.1423 158.1C73.2723 158.1 73.3823 158.08 73.5323 158.06V157.31C73.4723 157.32 73.3523 157.33 73.2823 157.33C72.8923 157.33 72.6423 157.18 72.6423 156.68V153.53H73.6223V152.75H72.6423V151.33ZM76.8862 152.61C75.2462 152.61 74.2262 153.76 74.2262 155.39C74.2262 156.99 75.1862 158.13 76.8662 158.13C78.5462 158.13 79.5362 156.99 79.5362 155.39C79.5362 153.76 78.5162 152.61 76.8862 152.61ZM76.8562 153.45C77.8462 153.45 78.4262 154.26 78.4262 155.38C78.4262 156.54 77.8562 157.29 76.8562 157.29C75.8662 157.29 75.2962 156.54 75.2962 155.38C75.2962 154.26 75.8762 153.45 76.8562 153.45ZM80.5795 158H81.6495V156.8H80.5795V158ZM82.933 158H84.003V156.8H82.933V158ZM85.2865 158H86.3565V156.8H85.2865V158Z" fill="white"/>
<rect width="245" height="24" fill="#049160"/>
<path d="M213.837 14H215.957C218.687 14 219.757 12.42 219.757 10.44C219.757 8.13 218.437 6.85 215.787 6.85H213.837V14ZM214.897 7.76C214.897 7.76 215.457 7.75 215.807 7.75C217.607 7.75 218.617 8.68 218.617 10.44C218.617 12.41 217.577 13.11 215.707 13.11H214.897V7.76ZM225.733 11.64V11.31C225.733 9.9 224.943 8.6 223.233 8.6C221.653 8.6 220.603 9.76 220.603 11.4C220.603 13.04 221.613 14.13 223.233 14.13C224.493 14.13 225.323 13.45 225.623 12.5H224.613C224.343 12.95 223.993 13.29 223.273 13.29C222.253 13.29 221.663 12.56 221.623 11.64H225.733ZM221.663 10.84C221.763 9.96 222.393 9.42 223.213 9.42C224.073 9.42 224.593 10.01 224.683 10.84H221.663ZM226.852 14H227.862V6.85H226.852V14ZM230.371 6.85H229.361V14H230.371V10.94C230.371 10.14 230.861 9.46 231.671 9.46C232.491 9.46 232.841 10.13 232.841 11.16V14H233.861V10.74C233.861 9.42 233.211 8.6 232.021 8.6C231.101 8.6 230.551 9.09 230.361 9.44C230.371 9.06 230.371 8.44 230.371 8V6.85ZM235.259 8.75V14H236.269V8.75H235.259ZM235.239 7.99H236.289V6.85H235.239V7.99Z" fill="white"/>
</svg>
