<svg width="171" height="171" viewBox="0 0 171 171" fill="none" xmlns="http://www.w3.org/2000/svg">
<path fill-rule="evenodd" clip-rule="evenodd" d="M85.4999 15.3463L85.4999 1.90735e-05C61.9558 1.90735e-05 40.6406 9.7391 25.2114 25.2116L35.8937 35.8938C48.589 23.1985 66.1275 15.3463 85.4999 15.3463Z" fill="#CFD8DC"/>
<path fill-rule="evenodd" clip-rule="evenodd" d="M15.346 85.4999L-0.000225067 85.4999C-0.000225067 61.9558 9.73886 40.6406 25.2113 25.2114L35.8936 35.8937C23.1982 48.589 15.346 66.1275 15.346 85.4999Z" fill="#CFD8DC"/>
<path fill-rule="evenodd" clip-rule="evenodd" d="M15.346 85.5001L-0.000236511 85.5001C-0.000236511 109.044 9.73885 130.359 25.2113 145.789L35.8936 135.106C23.1982 122.411 15.346 104.873 15.346 85.5001Z" fill="#CFD8DC"/>
<path fill-rule="evenodd" clip-rule="evenodd" d="M85.4999 155.654L85.4999 171C61.9558 171 40.6406 161.261 25.2114 145.788L35.8937 135.106C48.589 147.802 66.1275 155.654 85.4999 155.654Z" fill="#CFD8DC"/>
<path fill-rule="evenodd" clip-rule="evenodd" d="M85.5001 155.654L85.5001 171C109.044 171 130.359 161.261 145.789 145.788L135.106 135.106C122.411 147.802 104.873 155.654 85.5001 155.654Z" fill="#CFD8DC"/>
<path fill-rule="evenodd" clip-rule="evenodd" d="M155.654 85.5001L171 85.5001C171 109.044 161.261 130.359 145.789 145.789L135.106 135.106C147.802 122.411 155.654 104.873 155.654 85.5001Z" fill="#CFD8DC"/>
<path fill-rule="evenodd" clip-rule="evenodd" d="M155.654 85.4999L171 85.4999C171 61.9558 161.261 40.6406 145.789 25.2114L135.106 35.8937C147.802 48.589 155.654 66.1275 155.654 85.4999Z" fill="#CFD8DC"/>
<path fill-rule="evenodd" clip-rule="evenodd" d="M85.5001 15.3463L85.5001 7.62939e-06C109.044 7.62939e-06 130.359 9.73909 145.789 25.2115L135.106 35.8938C122.411 23.1985 104.873 15.3463 85.5001 15.3463Z" fill="#06BF7F"/>
<path d="M48.6427 89.0003H52.6427V66.1203H49.1227C48.7387 68.6483 47.0747 69.5123 43.1387 69.6083V72.6483H48.6427V89.0003ZM72.3804 89.0003V85.5763H62.5244C66.0444 82.3123 72.3804 78.5043 72.3804 72.6803C72.3804 68.6803 69.5324 65.6723 64.7964 65.6723C59.8684 65.6723 57.2124 69.0643 57.2124 73.2243C57.2124 73.2883 57.2444 73.3523 57.2444 73.4483H61.0524C61.0844 71.0163 62.2364 69.1923 64.7964 69.1923C67.0044 69.1923 68.3164 70.6323 68.3164 72.7763C68.3164 74.9523 67.0684 76.8083 64.1884 79.4643C61.5004 81.9923 57.4044 85.6723 57.4044 85.6723V89.0003H72.3804ZM76.0019 89.0003H80.1299V84.7123H76.0019V89.0003ZM84.0302 78.4723C85.2782 78.6323 86.3982 78.8563 87.6142 79.0483C88.1902 77.9603 89.3102 77.0963 91.0382 77.0963C93.6302 77.0963 95.1662 79.0803 95.1662 81.5443C95.1662 84.2003 93.6622 86.1203 91.0062 86.1203C88.7022 86.1203 87.4542 84.6483 87.1022 82.7283H83.1662C83.5822 86.6963 86.5902 89.4803 91.1022 89.4803C95.9022 89.4803 99.1342 86.0243 99.1342 81.4163C99.1342 76.8723 96.1902 73.7363 91.8702 73.7363C90.2702 73.7363 88.9902 74.2163 87.9022 74.9203L88.1582 73.0963C88.3182 71.9443 88.3822 70.7923 88.5742 69.6403H97.5342V66.1203H85.4382C84.9582 70.3123 84.5422 74.2483 84.0302 78.4723ZM106.726 78.6643C110.278 78.6643 112.07 76.2003 112.07 72.2323C112.07 68.3283 110.246 65.7683 106.694 65.7683C103.142 65.7683 101.318 68.2963 101.318 72.2003C101.318 76.1683 103.174 78.6643 106.726 78.6643ZM104.294 72.2643C104.294 69.9603 104.806 68.3603 106.694 68.3603C108.582 68.3603 109.094 69.8963 109.094 72.2643C109.094 74.5043 108.518 76.0723 106.694 76.0723C104.87 76.0723 104.294 74.4723 104.294 72.2643ZM108.838 89.0003H111.59L120.326 66.1523H117.606L108.838 89.0003ZM122.47 89.4803C126.022 89.4803 127.814 87.0163 127.814 83.0483C127.814 79.1443 125.99 76.5843 122.438 76.5843C118.886 76.5843 117.062 79.1123 117.062 83.0163C117.062 86.9843 118.918 89.4803 122.47 89.4803ZM120.038 83.0803C120.038 80.7763 120.55 79.1763 122.438 79.1763C124.326 79.1763 124.838 80.7123 124.838 83.0803C124.838 85.3203 124.262 86.8883 122.438 86.8883C120.614 86.8883 120.038 85.2883 120.038 83.0803Z" fill="#323946"/>
<path d="M46.8712 112V103.42H45.6592V105.268C45.6592 105.7 45.6592 106.072 45.6712 106.516C45.3112 106 44.6272 105.508 43.6432 105.508C41.8312 105.508 40.6792 106.924 40.6792 108.832C40.6792 110.8 41.8792 112.144 43.6072 112.144C44.6872 112.144 45.3832 111.664 45.7432 111.112V112H46.8712ZM43.8592 106.528C45.0232 106.528 45.7192 107.5 45.7192 108.844C45.7192 110.224 45.0352 111.148 43.8472 111.148C42.6712 111.148 41.9872 110.236 41.9872 108.844C41.9872 107.5 42.6832 106.528 43.8592 106.528ZM54.3821 109.168V108.772C54.3821 107.08 53.4341 105.52 51.3821 105.52C49.4861 105.52 48.2261 106.912 48.2261 108.88C48.2261 110.848 49.4381 112.156 51.3821 112.156C52.8941 112.156 53.8901 111.34 54.2501 110.2H53.0381C52.7141 110.74 52.2941 111.148 51.4301 111.148C50.2061 111.148 49.4981 110.272 49.4501 109.168H54.3821ZM49.4981 108.208C49.6181 107.152 50.3741 106.504 51.3581 106.504C52.3901 106.504 53.0141 107.212 53.1221 108.208H49.4981ZM60.8368 112C60.7288 111.424 60.6808 110.68 60.6808 109.66V108.436C60.6808 105.964 59.5288 105.532 58.1728 105.532C56.6728 105.532 55.5928 106.324 55.5328 107.668H56.7208C56.7928 106.924 57.2368 106.492 58.1488 106.492C58.9768 106.492 59.5048 106.852 59.5048 108.124C59.0968 108.16 58.6288 108.208 58.2088 108.268C56.5288 108.496 55.2328 108.94 55.2328 110.296C55.2328 111.472 56.1928 112.12 57.5128 112.12C58.5208 112.12 59.1568 111.82 59.6368 111.136C59.6608 111.592 59.6608 111.748 59.6968 112H60.8368ZM59.5288 109C59.5168 109.072 59.5168 109.18 59.5168 109.336C59.5168 110.56 58.9168 111.244 57.7888 111.244C57.0208 111.244 56.5408 110.872 56.5408 110.284C56.5408 109.408 57.4768 109.204 59.5288 109ZM63.8685 103.996H62.6445V105.7H61.6965V106.636H62.6445V110.488C62.6445 111.748 63.3525 112.12 64.4685 112.12C64.6245 112.12 64.7565 112.096 64.9365 112.072V111.172C64.8645 111.184 64.7205 111.196 64.6365 111.196C64.1685 111.196 63.8685 111.016 63.8685 110.416V106.636H65.0445V105.7H63.8685V103.996ZM67.4357 103.42H66.2237V112H67.4357V108.328C67.4357 107.368 68.0237 106.552 68.9957 106.552C69.9797 106.552 70.3997 107.356 70.3997 108.592V112H71.6237V108.088C71.6237 106.504 70.8437 105.52 69.4157 105.52C68.3117 105.52 67.6517 106.108 67.4237 106.528C67.4357 106.072 67.4357 105.328 67.4357 104.8V103.42ZM72.8218 110.08C73.0738 111.484 73.9858 112.144 75.5098 112.144C76.9618 112.144 77.9938 111.364 77.9938 110.152C77.9938 109.084 77.3338 108.712 76.0738 108.352L75.4018 108.16C74.6458 107.944 74.2618 107.776 74.2618 107.272C74.2618 106.804 74.6458 106.492 75.4018 106.492C76.1338 106.492 76.5538 106.804 76.7338 107.368H77.8858C77.7418 106.144 76.8178 105.532 75.4378 105.532C74.0338 105.532 73.0258 106.252 73.0258 107.38C73.0258 108.484 73.8058 108.928 74.8498 109.192L75.2938 109.312C76.1818 109.54 76.7818 109.684 76.7818 110.272C76.7818 110.836 76.2658 111.16 75.5458 111.16C74.6698 111.16 74.2258 110.752 74.0218 110.08H72.8218ZM82.3484 105.7C82.3604 106.084 82.3604 106.432 82.3604 106.828V112H83.5724V108.736C83.5724 107.476 83.7884 106.636 84.9284 106.636C85.0604 106.636 85.2404 106.648 85.3484 106.672V105.568C85.2644 105.556 85.1924 105.544 85.0364 105.544C84.3284 105.544 83.7164 105.916 83.5124 106.504V105.7H82.3484ZM92.0344 109.168V108.772C92.0344 107.08 91.0864 105.52 89.0344 105.52C87.1384 105.52 85.8784 106.912 85.8784 108.88C85.8784 110.848 87.0904 112.156 89.0344 112.156C90.5464 112.156 91.5424 111.34 91.9024 110.2H90.6904C90.3664 110.74 89.9464 111.148 89.0824 111.148C87.8584 111.148 87.1504 110.272 87.1024 109.168H92.0344ZM87.1504 108.208C87.2704 107.152 88.0264 106.504 89.0104 106.504C90.0424 106.504 90.6664 107.212 90.7744 108.208H87.1504ZM94.4931 105.7H93.3291V114.16H94.5411V112.684C94.5411 111.928 94.5171 111.244 94.5171 111.208C94.8771 111.748 95.5131 112.144 96.5931 112.144C98.3211 112.144 99.5091 110.8 99.5091 108.832C99.5091 106.924 98.3571 105.508 96.5571 105.508C95.5731 105.508 94.8531 106 94.4931 106.516V105.7ZM96.3411 106.528C97.5171 106.528 98.2131 107.5 98.2131 108.844C98.2131 110.236 97.5291 111.148 96.3411 111.148C95.1651 111.148 94.4691 110.224 94.4691 108.844C94.4691 107.5 95.1771 106.528 96.3411 106.528ZM103.66 105.532C101.692 105.532 100.468 106.912 100.468 108.868C100.468 110.788 101.62 112.156 103.636 112.156C105.652 112.156 106.84 110.788 106.84 108.868C106.84 106.912 105.616 105.532 103.66 105.532ZM103.624 106.54C104.812 106.54 105.508 107.512 105.508 108.856C105.508 110.248 104.824 111.148 103.624 111.148C102.436 111.148 101.752 110.248 101.752 108.856C101.752 107.512 102.448 106.54 103.624 106.54ZM108.188 105.7C108.2 106.084 108.2 106.432 108.2 106.828V112H109.412V108.736C109.412 107.476 109.628 106.636 110.768 106.636C110.9 106.636 111.08 106.648 111.188 106.672V105.568C111.104 105.556 111.032 105.544 110.876 105.544C110.168 105.544 109.556 105.916 109.352 106.504V105.7H108.188ZM113.779 103.996H112.555V105.7H111.607V106.636H112.555V110.488C112.555 111.748 113.263 112.12 114.379 112.12C114.535 112.12 114.667 112.096 114.847 112.072V111.172C114.775 111.184 114.631 111.196 114.547 111.196C114.079 111.196 113.779 111.016 113.779 110.416V106.636H114.955V105.7H113.779V103.996ZM121.835 109.168V108.772C121.835 107.08 120.887 105.52 118.835 105.52C116.939 105.52 115.679 106.912 115.679 108.88C115.679 110.848 116.891 112.156 118.835 112.156C120.347 112.156 121.343 111.34 121.703 110.2H120.491C120.167 110.74 119.747 111.148 118.883 111.148C117.659 111.148 116.951 110.272 116.903 109.168H121.835ZM116.951 108.208C117.071 107.152 117.827 106.504 118.811 106.504C119.843 106.504 120.467 107.212 120.575 108.208H116.951ZM128.926 112V103.42H127.714V105.268C127.714 105.7 127.714 106.072 127.726 106.516C127.366 106 126.682 105.508 125.698 105.508C123.886 105.508 122.734 106.924 122.734 108.832C122.734 110.8 123.934 112.144 125.662 112.144C126.742 112.144 127.438 111.664 127.798 111.112V112H128.926ZM125.914 106.528C127.078 106.528 127.774 107.5 127.774 108.844C127.774 110.224 127.09 111.148 125.902 111.148C124.726 111.148 124.042 110.236 124.042 108.844C124.042 107.5 124.738 106.528 125.914 106.528Z" fill="#323946"/>
</svg>
