<svg width="240" height="167" viewBox="0 0 240 167" fill="none" xmlns="http://www.w3.org/2000/svg">
<rect width="240" height="24" fill="#049160"/>
<path d="M207.837 14H209.957C212.687 14 213.757 12.42 213.757 10.44C213.757 8.13 212.437 6.85 209.787 6.85H207.837V14ZM208.897 7.76C208.897 7.76 209.457 7.75 209.807 7.75C211.607 7.75 212.617 8.68 212.617 10.44C212.617 12.41 211.577 13.11 209.707 13.11H208.897V7.76ZM219.733 11.64V11.31C219.733 9.9 218.943 8.6 217.233 8.6C215.653 8.6 214.603 9.76 214.603 11.4C214.603 13.04 215.613 14.13 217.233 14.13C218.493 14.13 219.323 13.45 219.623 12.5H218.613C218.343 12.95 217.993 13.29 217.273 13.29C216.253 13.29 215.663 12.56 215.623 11.64H219.733ZM215.663 10.84C215.763 9.96 216.393 9.42 217.213 9.42C218.073 9.42 218.593 10.01 218.683 10.84H215.663ZM220.852 14H221.862V6.85H220.852V14ZM224.371 6.85H223.361V14H224.371V10.94C224.371 10.14 224.861 9.46 225.671 9.46C226.491 9.46 226.841 10.13 226.841 11.16V14H227.861V10.74C227.861 9.42 227.211 8.6 226.021 8.6C225.101 8.6 224.551 9.09 224.361 9.44C224.371 9.06 224.371 8.44 224.371 8V6.85ZM229.259 8.75V14H230.269V8.75H229.259ZM229.239 7.99H230.289V6.85H229.239V7.99Z" fill="white"/>
<rect y="23.875" width="231" height="24" fill="#06BF7F"/>
<path d="M185.53 37.875H186.54V34.085C186.54 33.095 186.53 32.265 186.52 31.685H186.53C186.66 32.165 186.79 32.695 187.02 33.385L188.53 37.875H189.64L190.91 34.105C191.24 33.105 191.57 32.045 191.68 31.685H191.69C191.69 32.265 191.66 33.425 191.66 34.185V37.875H192.68V30.725H191.04L189.78 34.565L189.12 36.595H189.11C188.92 35.995 188.67 35.135 188.5 34.635L187.23 30.725H185.53V37.875ZM197.707 37.875H198.677C198.667 37.615 198.667 37.355 198.667 37.085V32.625H197.657V35.035C197.657 36.185 197.467 37.165 196.387 37.165C195.567 37.165 195.227 36.545 195.227 35.515V32.625H194.217V35.895C194.217 37.255 194.817 38.005 196.037 38.005C196.927 38.005 197.437 37.575 197.707 37.125V37.875ZM201.116 32.625H200.116C200.126 32.905 200.126 33.155 200.126 33.435V37.875H201.136V34.865C201.136 34.025 201.586 33.335 202.406 33.335C203.246 33.335 203.546 33.985 203.546 35.045V37.875H204.566V34.855C204.566 34.035 205.016 33.335 205.836 33.335C206.666 33.335 206.976 33.975 206.976 35.045V37.875H207.996V34.645C207.996 33.305 207.406 32.475 206.156 32.475C205.126 32.475 204.656 32.995 204.346 33.445C204.076 32.825 203.546 32.475 202.766 32.475C201.866 32.475 201.396 32.875 201.116 33.335V32.625ZM209.394 37.875H210.344V37.135C210.644 37.595 211.224 37.995 212.124 37.995C213.564 37.995 214.564 36.875 214.564 35.235C214.564 33.645 213.604 32.465 212.114 32.465C211.284 32.465 210.704 32.865 210.404 33.295C210.414 32.925 210.414 32.625 210.414 32.265V30.725H209.394V37.875ZM211.914 33.315C212.894 33.315 213.474 34.125 213.474 35.245C213.474 36.405 212.904 37.165 211.924 37.165C210.934 37.165 210.354 36.395 210.354 35.245C210.354 34.125 210.944 33.315 211.914 33.315ZM219.993 37.875C219.903 37.395 219.863 36.775 219.863 35.925V34.905C219.863 32.845 218.903 32.485 217.773 32.485C216.523 32.485 215.623 33.145 215.573 34.265H216.563C216.623 33.645 216.993 33.285 217.753 33.285C218.443 33.285 218.883 33.585 218.883 34.645C218.543 34.675 218.153 34.715 217.803 34.765C216.403 34.955 215.323 35.325 215.323 36.455C215.323 37.435 216.123 37.975 217.223 37.975C218.063 37.975 218.593 37.725 218.993 37.155C219.013 37.535 219.013 37.665 219.043 37.875H219.993ZM218.903 35.375C218.893 35.435 218.893 35.525 218.893 35.655C218.893 36.675 218.393 37.245 217.453 37.245C216.813 37.245 216.413 36.935 216.413 36.445C216.413 35.715 217.193 35.545 218.903 35.375ZM221.259 32.625V37.875H222.269V32.625H221.259ZM221.239 31.865H222.289V30.725H221.239V31.865Z" fill="white"/>
<g opacity="0.64">
<rect y="47.75" width="209" height="24" fill="#56D3A8"/>
</g>
<g opacity="0.56">
<rect y="71.625" width="144" height="24" fill="#56D3A8"/>
</g>
<g opacity="0.48">
<rect y="95.5" width="119" height="24" fill="#455C55"/>
</g>
<g opacity="0.4">
<rect y="119.375" width="98" height="24" fill="#455C55"/>
</g>
<rect y="143" width="90" height="24" fill="#263238"/>
<path d="M164.712 62H165.752V58.36C166.712 59.58 167.722 60.76 168.662 62H169.992C168.992 60.73 167.872 59.4 166.872 58.12L169.902 54.85H168.612L165.752 58.1V54.85H164.712V62ZM172.683 56.61C171.043 56.61 170.023 57.76 170.023 59.39C170.023 60.99 170.983 62.13 172.663 62.13C174.343 62.13 175.333 60.99 175.333 59.39C175.333 57.76 174.313 56.61 172.683 56.61ZM172.653 57.45C173.643 57.45 174.223 58.26 174.223 59.38C174.223 60.54 173.653 61.29 172.653 61.29C171.663 61.29 171.093 60.54 171.093 59.38C171.093 58.26 171.673 57.45 172.653 57.45ZM176.506 62H177.516V54.85H176.506V62ZM179.015 62H180.035V59.36L180.845 60.39C181.285 60.95 181.805 61.6 182.135 62H183.485C182.675 61.05 181.365 59.47 181.075 59.11L183.245 56.75H181.995C181.645 57.15 181.025 57.9 180.575 58.44L180.035 59.08V54.85H179.015V62ZM188.452 62C188.362 61.52 188.322 60.9 188.322 60.05V59.03C188.322 56.97 187.362 56.61 186.232 56.61C184.982 56.61 184.082 57.27 184.032 58.39H185.022C185.082 57.77 185.452 57.41 186.212 57.41C186.902 57.41 187.342 57.71 187.342 58.77C187.002 58.8 186.612 58.84 186.262 58.89C184.862 59.08 183.782 59.45 183.782 60.58C183.782 61.56 184.582 62.1 185.682 62.1C186.522 62.1 187.052 61.85 187.452 61.28C187.472 61.66 187.472 61.79 187.502 62H188.452ZM187.362 59.5C187.352 59.56 187.352 59.65 187.352 59.78C187.352 60.8 186.852 61.37 185.912 61.37C185.272 61.37 184.872 61.06 184.872 60.57C184.872 59.84 185.652 59.67 187.362 59.5ZM190.978 55.33H189.958V56.75H189.168V57.53H189.958V60.74C189.958 61.79 190.548 62.1 191.478 62.1C191.608 62.1 191.718 62.08 191.868 62.06V61.31C191.808 61.32 191.688 61.33 191.618 61.33C191.228 61.33 190.978 61.18 190.978 60.68V57.53H191.958V56.75H190.978V55.33ZM194.201 55.33H193.181V56.75H192.391V57.53H193.181V60.74C193.181 61.79 193.771 62.1 194.701 62.1C194.831 62.1 194.941 62.08 195.091 62.06V61.31C195.031 61.32 194.911 61.33 194.841 61.33C194.451 61.33 194.201 61.18 194.201 60.68V57.53H195.181V56.75H194.201V55.33ZM200.464 62C200.374 61.52 200.334 60.9 200.334 60.05V59.03C200.334 56.97 199.374 56.61 198.244 56.61C196.994 56.61 196.094 57.27 196.044 58.39H197.034C197.094 57.77 197.464 57.41 198.224 57.41C198.914 57.41 199.354 57.71 199.354 58.77C199.014 58.8 198.624 58.84 198.274 58.89C196.874 59.08 195.794 59.45 195.794 60.58C195.794 61.56 196.594 62.1 197.694 62.1C198.534 62.1 199.064 61.85 199.464 61.28C199.484 61.66 199.484 61.79 199.514 62H200.464ZM199.374 59.5C199.364 59.56 199.364 59.65 199.364 59.78C199.364 60.8 198.864 61.37 197.924 61.37C197.284 61.37 196.884 61.06 196.884 60.57C196.884 59.84 197.664 59.67 199.374 59.5Z" fill="white"/>
<path d="M108.371 83.91C107.971 84.76 107.281 85.26 106.231 85.26C104.681 85.26 103.791 84.07 103.791 82.41C103.791 80.74 104.681 79.6 106.221 79.6C107.341 79.6 108.011 80.12 108.401 81.02H109.481C109.031 79.54 107.891 78.71 106.231 78.71C104.111 78.71 102.651 80.22 102.651 82.42C102.651 84.64 104.091 86.14 106.181 86.14C107.861 86.14 108.981 85.28 109.471 83.91H108.371ZM112.839 80.61C111.199 80.61 110.179 81.76 110.179 83.39C110.179 84.99 111.139 86.13 112.819 86.13C114.499 86.13 115.489 84.99 115.489 83.39C115.489 81.76 114.469 80.61 112.839 80.61ZM112.809 81.45C113.799 81.45 114.379 82.26 114.379 83.38C114.379 84.54 113.809 85.29 112.809 85.29C111.819 85.29 111.249 84.54 111.249 83.38C111.249 82.26 111.829 81.45 112.809 81.45ZM120.333 84.32C120.103 84.93 119.613 85.29 118.933 85.29C117.943 85.29 117.363 84.53 117.363 83.37C117.363 82.25 117.953 81.45 118.933 81.45C119.623 81.45 120.133 81.85 120.353 82.48H121.393C121.163 81.37 120.323 80.61 118.973 80.61C117.353 80.61 116.293 81.78 116.293 83.36C116.293 84.95 117.313 86.13 118.963 86.13C120.303 86.13 121.113 85.36 121.383 84.32H120.333ZM123.472 78.85H122.462V86H123.472V82.94C123.472 82.14 123.962 81.46 124.772 81.46C125.592 81.46 125.942 82.13 125.942 83.16V86H126.962V82.74C126.962 81.42 126.312 80.6 125.122 80.6C124.202 80.6 123.652 81.09 123.462 81.44C123.472 81.06 123.472 80.44 123.472 80V78.85ZM128.361 80.75V86H129.371V80.75H128.361ZM128.341 79.99H129.391V78.85H128.341V79.99ZM131.822 80.75H130.822C130.832 81.02 130.832 81.27 130.832 81.54V86H131.842V82.97C131.842 82.15 132.312 81.46 133.142 81.46C133.962 81.46 134.312 82.12 134.312 83.15V86H135.332V82.77C135.332 81.42 134.692 80.6 133.492 80.6C132.602 80.6 132.102 81.01 131.822 81.46V80.75Z" fill="white"/>
<path opacity="0.6" d="M79.5165 110H81.7865C83.1565 110 84.6065 109.63 84.6065 107.96C84.6065 106.9 83.9265 106.42 83.2565 106.23C83.7865 106.03 84.3065 105.57 84.3065 104.6C84.3065 103.33 83.3765 102.85 81.6565 102.85H79.5165V110ZM80.5565 106.77H81.8265C82.8565 106.77 83.5165 107.06 83.5165 107.94C83.5165 108.81 82.8465 109.12 82.0365 109.12H80.5565V106.77ZM80.5565 103.74H81.3765C82.4365 103.74 83.1765 103.85 83.1765 104.8C83.1765 105.62 82.6765 105.91 81.7165 105.91H80.5565V103.74ZM89.063 102.71C86.923 102.71 85.473 104.22 85.473 106.43C85.473 108.64 86.913 110.14 89.073 110.14C91.243 110.14 92.673 108.64 92.673 106.43C92.673 104.21 91.213 102.71 89.063 102.71ZM89.053 103.6C90.603 103.6 91.523 104.76 91.523 106.42C91.523 108.07 90.593 109.26 89.063 109.26C87.523 109.26 86.603 108.05 86.603 106.42C86.603 104.78 87.513 103.6 89.053 103.6ZM93.9696 110H96.2396C97.6096 110 99.0596 109.63 99.0596 107.96C99.0596 106.9 98.3796 106.42 97.7096 106.23C98.2396 106.03 98.7596 105.57 98.7596 104.6C98.7596 103.33 97.8296 102.85 96.1096 102.85H93.9696V110ZM95.0096 106.77H96.2796C97.3096 106.77 97.9696 107.06 97.9696 107.94C97.9696 108.81 97.2996 109.12 96.4896 109.12H95.0096V106.77ZM95.0096 103.74H95.8296C96.8896 103.74 97.6296 103.85 97.6296 104.8C97.6296 105.62 97.1296 105.91 96.1696 105.91H95.0096V103.74ZM99.8561 107.97C99.9461 109.34 100.966 110.14 102.566 110.14C104.116 110.14 105.196 109.28 105.196 107.97C105.196 106.77 104.366 106.32 103.116 105.94L102.616 105.79C101.836 105.56 101.206 105.31 101.206 104.58C101.206 103.98 101.696 103.57 102.526 103.57C103.386 103.57 103.846 103.99 103.966 104.7H105.046C104.916 103.48 104.076 102.7 102.556 102.7C101.076 102.7 100.076 103.5 100.076 104.67C100.076 105.81 100.876 106.31 102.166 106.72L102.636 106.87C103.456 107.13 104.086 107.32 104.086 108.1C104.086 108.82 103.516 109.3 102.576 109.3C101.556 109.3 101.056 108.72 100.926 107.97H99.8561ZM107.751 110H108.801V103.77H110.741V102.85H105.811V103.77H107.751V110Z" fill="white"/>
<path opacity="0.6" d="M71.7587 134H72.8087V131.19H73.6787C74.4987 131.19 75.1587 131.14 75.6987 130.78C76.2887 130.39 76.5787 129.74 76.5787 128.99C76.5787 128.18 76.2187 127.53 75.6087 127.2C75.0487 126.9 74.6087 126.85 73.6887 126.85H71.7587V134ZM72.8087 127.78L73.8487 127.77C74.9287 127.76 75.4687 128.14 75.4687 129C75.4687 129.93 74.7987 130.28 73.9187 130.28H72.8087V127.78ZM78.8243 134V130.77H82.1443V134H83.1843V126.85H82.1443V129.88H78.8243V126.85H77.7743V134H78.8243ZM85.9127 130.14C85.0227 130.47 84.5227 131.07 84.5227 132.04C84.5227 133.31 85.4627 134.15 87.0327 134.15C88.6027 134.15 89.5327 133.31 89.5327 132.05C89.5327 131.08 89.0627 130.5 88.1527 130.14V130.12C88.6227 129.94 89.2327 129.47 89.2327 128.52C89.2327 127.5 88.4527 126.71 87.0327 126.71C85.6127 126.71 84.8327 127.5 84.8327 128.52C84.8327 129.47 85.4427 129.94 85.9127 130.12V130.14ZM87.0327 130.64C87.9227 130.64 88.4627 131.16 88.4627 131.96C88.4627 132.72 87.9327 133.27 87.0327 133.27C86.1027 133.27 85.5927 132.72 85.5927 131.96C85.5927 131.16 86.1327 130.64 87.0327 130.64ZM87.0327 127.64C87.7527 127.64 88.2127 128.07 88.2127 128.67C88.2127 129.29 87.7527 129.72 87.0327 129.72C86.3127 129.72 85.8627 129.29 85.8627 128.68C85.8627 128.06 86.3027 127.64 87.0327 127.64Z" fill="white"/>
<path opacity="0.6" d="M54.4032 158H55.4532V155.13H56.4732C56.9832 156 57.6032 157.06 58.1332 158H59.3932C58.5732 156.62 58.0732 155.8 57.5632 154.97C58.4732 154.78 59.2932 154.2 59.2932 152.94C59.2932 152.21 58.9932 151.63 58.4432 151.26C57.9332 150.92 57.2732 150.85 56.5632 150.85H54.4032V158ZM55.4532 151.78C55.7932 151.77 56.1532 151.77 56.5532 151.77C57.5432 151.77 58.1532 152.08 58.1532 152.98C58.1532 153.86 57.5432 154.22 56.5532 154.22H55.4532V151.78ZM62.6479 152.61C61.0079 152.61 59.9879 153.76 59.9879 155.39C59.9879 156.99 60.9479 158.13 62.6279 158.13C64.3079 158.13 65.2979 156.99 65.2979 155.39C65.2979 153.76 64.2779 152.61 62.6479 152.61ZM62.6179 153.45C63.6079 153.45 64.1879 154.26 64.1879 155.38C64.1879 156.54 63.6179 157.29 62.6179 157.29C61.6279 157.29 61.0579 156.54 61.0579 155.38C61.0579 154.26 61.6379 153.45 62.6179 153.45ZM67.6423 151.33H66.6223V152.75H65.8323V153.53H66.6223V156.74C66.6223 157.79 67.2123 158.1 68.1423 158.1C68.2723 158.1 68.3823 158.08 68.5323 158.06V157.31C68.4723 157.32 68.3523 157.33 68.2823 157.33C67.8923 157.33 67.6423 157.18 67.6423 156.68V153.53H68.6223V152.75H67.6423V151.33ZM71.8862 152.61C70.2462 152.61 69.2262 153.76 69.2262 155.39C69.2262 156.99 70.1862 158.13 71.8662 158.13C73.5462 158.13 74.5362 156.99 74.5362 155.39C74.5362 153.76 73.5162 152.61 71.8862 152.61ZM71.8562 153.45C72.8462 153.45 73.4262 154.26 73.4262 155.38C73.4262 156.54 72.8562 157.29 71.8562 157.29C70.8662 157.29 70.2962 156.54 70.2962 155.38C70.2962 154.26 70.8762 153.45 71.8562 153.45ZM75.5795 158H76.6495V156.8H75.5795V158ZM77.933 158H79.003V156.8H77.933V158ZM80.2865 158H81.3565V156.8H80.2865V158Z" fill="white"/>
</svg>
