<svg width="504" height="466" viewBox="0 0 504 466" fill="none" xmlns="http://www.w3.org/2000/svg">
<path d="M90.1972 136.47L262.5 235.944M262.5 235.944V37.8849M262.5 235.944L434.802 136.47M262.5 235.944L434.802 335.862M262.5 235.944V433.115M262.5 235.944L90.6413 336.306M262.5 235.944L361.974 408.247M262.5 235.944H461.003M262.5 235.944H63.9966M262.5 235.944L163.026 64.5296M262.5 235.944L361.974 64.5296M262.5 235.944L163.026 408.247" stroke="#CFD8DC"/>
<path d="M248.548 212.223L262.5 208.485L276.452 212.223L286.665 222.436L290.404 236.388L286.665 250.34L276.452 260.553L262.5 264.292L248.548 260.553L238.335 250.34L234.597 236.388L238.335 222.436L248.548 212.223Z" stroke="#CFD8DC"/>
<path d="M234.338 187.61L262.5 180.064L290.663 187.61L311.279 208.226L318.825 236.388L311.279 264.55L290.663 285.167L262.5 292.713L234.338 285.167L213.722 264.55L206.176 236.388L213.722 208.226L234.338 187.61Z" stroke="#CFD8DC"/>
<path d="M220.127 162.996L262.5 151.643L304.873 162.996L335.892 194.015L347.245 236.388L335.892 278.761L304.873 309.78L262.5 321.134L220.127 309.78L189.108 278.761L177.754 236.388L189.108 194.015L220.127 162.996Z" stroke="#CFD8DC"/>
<path d="M205.917 138.383L262.5 123.222L319.083 138.383L360.505 179.805L375.667 236.388L360.505 292.971L319.083 334.393L262.5 349.555L205.917 334.393L164.495 292.971L149.334 236.388L164.495 179.805L205.917 138.383Z" stroke="#CFD8DC"/>
<path d="M191.706 113.77L262.5 94.8005L333.294 113.77L385.119 165.594L404.088 236.388L385.119 307.182L333.294 359.007L262.5 377.976L191.706 359.007L139.882 307.182L120.913 236.388L139.882 165.594L191.706 113.77Z" stroke="#CFD8DC"/>
<path d="M177.496 89.1563L262.5 66.3795L347.504 89.1563L409.732 151.384L432.509 236.388L409.732 321.393L347.504 383.62L262.5 406.397L177.496 383.62L115.268 321.392L92.4913 236.388L115.268 151.384L177.496 89.1563Z" stroke="#CFD8DC"/>
<path d="M163.285 64.543L262.5 37.9584L361.715 64.543L434.345 137.173L460.93 236.388L434.345 335.603L361.715 408.233L262.5 434.818L163.285 408.233L90.6549 335.603L64.0704 236.388L90.6549 137.173L163.285 64.543Z" stroke="#CFD8DC"/>
<g filter="url(#filter0_d)">
<rect x="251.842" y="203.526" width="21.3158" height="14.2105" rx="2" fill="white"/>
</g>
<path d="M260.358 211.001L260.744 207.417H264.562V208.442H261.73L261.535 210.142C261.864 209.953 262.235 209.858 262.648 209.858C263.325 209.858 263.851 210.075 264.225 210.508C264.603 210.941 264.792 211.523 264.792 212.256C264.792 212.978 264.583 213.555 264.167 213.984C263.75 214.411 263.179 214.624 262.453 214.624C261.802 214.624 261.261 214.44 260.832 214.072C260.405 213.701 260.174 213.213 260.138 212.607H261.286C261.331 212.952 261.455 213.218 261.657 213.403C261.859 213.586 262.122 213.677 262.448 213.677C262.812 213.677 263.096 213.547 263.297 213.286C263.503 213.026 263.605 212.671 263.605 212.222C263.605 211.789 263.493 211.447 263.268 211.196C263.044 210.942 262.734 210.815 262.34 210.815C262.126 210.815 261.943 210.845 261.794 210.903C261.644 210.959 261.481 211.069 261.305 211.235L260.358 211.001Z" fill="black"/>
<g filter="url(#filter1_d)">
<rect x="251.842" y="175.105" width="21.3158" height="14.2105" rx="2" fill="white"/>
</g>
<path d="M260.262 186.105H259.08V180.397L257.337 180.993V179.992L260.11 178.971H260.262V186.105ZM267.666 183.112C267.666 184.134 267.474 184.906 267.09 185.427C266.709 185.944 266.128 186.203 265.347 186.203C264.579 186.203 263.999 185.951 263.609 185.446C263.221 184.938 263.023 184.188 263.013 183.195V181.965C263.013 180.943 263.203 180.176 263.584 179.665C263.968 179.154 264.553 178.898 265.337 178.898C266.115 178.898 266.695 179.147 267.075 179.645C267.459 180.143 267.656 180.889 267.666 181.882V183.112ZM266.48 181.784C266.48 181.117 266.389 180.628 266.206 180.319C266.024 180.007 265.734 179.85 265.337 179.85C264.95 179.85 264.665 179.998 264.483 180.295C264.3 180.588 264.204 181.047 264.195 181.672V183.283C264.195 183.947 264.287 184.442 264.473 184.767C264.658 185.093 264.95 185.256 265.347 185.256C265.728 185.256 266.009 185.106 266.192 184.806C266.374 184.504 266.47 184.032 266.48 183.39V181.784Z" fill="black"/>
<g filter="url(#filter2_d)">
<rect x="251.842" y="146.684" width="21.3158" height="14.2105" rx="2" fill="white"/>
</g>
<path d="M260.262 157.684H259.08V151.976L257.337 152.572V151.571L260.11 150.55H260.262V157.684ZM263.35 154.159L263.736 150.575H267.554V151.6H264.722L264.527 153.299C264.855 153.111 265.226 153.016 265.64 153.016C266.317 153.016 266.843 153.233 267.217 153.666C267.595 154.099 267.783 154.681 267.783 155.414C267.783 156.136 267.575 156.713 267.158 157.142C266.742 157.569 266.17 157.782 265.445 157.782C264.793 157.782 264.253 157.598 263.823 157.23C263.397 156.859 263.166 156.371 263.13 155.765H264.278C264.323 156.11 264.447 156.376 264.649 156.561C264.85 156.743 265.114 156.835 265.44 156.835C265.804 156.835 266.087 156.704 266.289 156.444C266.494 156.184 266.597 155.829 266.597 155.38C266.597 154.947 266.485 154.605 266.26 154.354C266.035 154.1 265.726 153.973 265.332 153.973C265.117 153.973 264.935 154.003 264.785 154.061C264.636 154.117 264.473 154.227 264.297 154.393L263.35 154.159Z" fill="black"/>
<g filter="url(#filter3_d)">
<rect x="251.842" y="118.263" width="21.3158" height="14.2105" rx="2" fill="white"/>
</g>
<path d="M261.829 129.263H257.049V128.448L259.417 125.865C259.759 125.484 260.001 125.166 260.145 124.913C260.291 124.655 260.364 124.398 260.364 124.141C260.364 123.803 260.268 123.529 260.076 123.321C259.887 123.112 259.632 123.008 259.31 123.008C258.925 123.008 258.628 123.125 258.416 123.36C258.204 123.594 258.099 123.915 258.099 124.322H256.912C256.912 123.889 257.01 123.5 257.205 123.155C257.404 122.806 257.685 122.536 258.05 122.344C258.418 122.152 258.841 122.056 259.319 122.056C260.009 122.056 260.553 122.23 260.95 122.579C261.351 122.924 261.551 123.402 261.551 124.014C261.551 124.369 261.45 124.742 261.248 125.132C261.049 125.52 260.722 125.961 260.267 126.456L258.528 128.316H261.829V129.263ZM267.666 126.27C267.666 127.292 267.474 128.064 267.09 128.584C266.709 129.102 266.128 129.361 265.347 129.361C264.579 129.361 263.999 129.109 263.609 128.604C263.221 128.096 263.023 127.346 263.013 126.353V125.123C263.013 124.1 263.203 123.334 263.584 122.823C263.968 122.312 264.553 122.056 265.337 122.056C266.115 122.056 266.695 122.305 267.075 122.803C267.459 123.301 267.656 124.047 267.666 125.04V126.27ZM266.48 124.942C266.48 124.275 266.389 123.786 266.206 123.477C266.024 123.165 265.734 123.008 265.337 123.008C264.95 123.008 264.665 123.156 264.483 123.453C264.3 123.746 264.204 124.205 264.195 124.83V126.441C264.195 127.105 264.287 127.6 264.473 127.925C264.658 128.251 264.95 128.414 265.347 128.414C265.728 128.414 266.009 128.264 266.192 127.964C266.374 127.662 266.47 127.19 266.48 126.548V124.942Z" fill="black"/>
<g filter="url(#filter4_d)">
<rect x="251.842" y="89.8421" width="21.3158" height="14.2105" rx="2" fill="white"/>
</g>
<path d="M261.829 100.842H257.049V100.027L259.417 97.4437C259.759 97.0628 260.001 96.7454 260.145 96.4915C260.291 96.2344 260.364 95.9772 260.364 95.72C260.364 95.3815 260.268 95.1081 260.076 94.8997C259.887 94.6914 259.632 94.5872 259.31 94.5872C258.925 94.5872 258.628 94.7044 258.416 94.9388C258.204 95.1732 258.099 95.4938 258.099 95.9007H256.912C256.912 95.4678 257.01 95.0788 257.205 94.7337C257.404 94.3854 257.685 94.1152 258.05 93.9232C258.418 93.7311 258.841 93.6351 259.319 93.6351C260.009 93.6351 260.553 93.8092 260.95 94.1575C261.351 94.5026 261.551 94.9811 261.551 95.5931C261.551 95.9479 261.45 96.3206 261.248 96.7112C261.049 97.0986 260.722 97.5397 260.267 98.0345L258.528 99.8948H261.829V100.842ZM263.35 97.3167L263.736 93.7327H267.554V94.7581H264.722L264.527 96.4573C264.855 96.2685 265.226 96.1741 265.64 96.1741C266.317 96.1741 266.843 96.3906 267.217 96.8236C267.595 97.2565 267.783 97.8392 267.783 98.5716C267.783 99.2943 267.575 99.8704 267.158 100.3C266.742 100.727 266.17 100.94 265.445 100.94C264.793 100.94 264.253 100.756 263.823 100.388C263.397 100.017 263.166 99.5286 263.13 98.9232H264.278C264.323 99.2682 264.447 99.5335 264.649 99.7191C264.85 99.9014 265.114 99.9925 265.44 99.9925C265.804 99.9925 266.087 99.8623 266.289 99.6019C266.494 99.3415 266.597 98.9866 266.597 98.5374C266.597 98.1045 266.485 97.7627 266.26 97.512C266.035 97.2581 265.726 97.1312 265.332 97.1312C265.117 97.1312 264.935 97.1605 264.785 97.2191C264.636 97.2744 264.473 97.3851 264.297 97.5511L263.35 97.3167Z" fill="black"/>
<g filter="url(#filter5_d)">
<rect x="251.842" y="61.4211" width="21.3158" height="14.2105" rx="2" fill="white"/>
</g>
<path d="M258.421 68.3244H259.144C259.508 68.3211 259.796 68.2267 260.008 68.0412C260.223 67.8556 260.33 67.5871 260.33 67.2355C260.33 66.897 260.241 66.6349 260.061 66.4494C259.886 66.2606 259.616 66.1662 259.251 66.1662C258.932 66.1662 258.67 66.2589 258.465 66.4445C258.26 66.6268 258.157 66.866 258.157 67.1623H256.971C256.971 66.7977 257.067 66.4656 257.259 66.1662C257.454 65.8667 257.724 65.6339 258.069 65.4679C258.418 65.2987 258.807 65.214 259.236 65.214C259.946 65.214 260.503 65.3931 260.906 65.7511C261.313 66.1059 261.517 66.6007 261.517 67.2355C261.517 67.5545 261.414 67.8556 261.209 68.1388C261.007 68.4188 260.745 68.6304 260.423 68.7736C260.813 68.9071 261.11 69.117 261.311 69.4035C261.517 69.6899 261.619 70.0317 261.619 70.4289C261.619 71.0669 261.399 71.5747 260.96 71.9523C260.524 72.3299 259.949 72.5187 259.236 72.5187C258.553 72.5187 257.993 72.3364 257.557 71.9718C257.12 71.6073 256.902 71.1222 256.902 70.5168H258.089C258.089 70.8293 258.193 71.0832 258.401 71.2785C258.613 71.4738 258.896 71.5714 259.251 71.5714C259.619 71.5714 259.909 71.4738 260.12 71.2785C260.332 71.0832 260.437 70.8 260.437 70.4289C260.437 70.0545 260.327 69.7664 260.105 69.5646C259.884 69.3628 259.555 69.2619 259.119 69.2619H258.421V68.3244ZM267.666 69.4279C267.666 70.45 267.474 71.2215 267.09 71.7423C266.709 72.2599 266.128 72.5187 265.347 72.5187C264.579 72.5187 263.999 72.2664 263.609 71.7619C263.221 71.2541 263.023 70.5037 263.013 69.5109V68.2804C263.013 67.2583 263.203 66.4917 263.584 65.9806C263.968 65.4696 264.553 65.214 265.337 65.214C266.115 65.214 266.695 65.463 267.075 65.9611C267.459 66.4591 267.656 67.2046 267.666 68.1974V69.4279ZM266.48 68.0998C266.48 67.4324 266.389 66.9442 266.206 66.6349C266.024 66.3224 265.734 66.1662 265.337 66.1662C264.95 66.1662 264.665 66.3143 264.483 66.6105C264.3 66.9035 264.204 67.3625 264.195 67.9875V69.5988C264.195 70.2628 264.287 70.7576 264.473 71.0832C264.658 71.4087 264.95 71.5714 265.347 71.5714C265.728 71.5714 266.009 71.4217 266.192 71.1222C266.374 70.8195 266.47 70.3475 266.48 69.7062V68.0998Z" fill="black"/>
<g filter="url(#filter6_d)">
<rect x="251.842" y="33" width="21.3158" height="14.2105" rx="2" fill="white"/>
<rect x="252.342" y="33.5" width="20.3158" height="13.2105" rx="1.5" stroke="#78909C"/>
</g>
<path d="M258.421 39.9033H259.144C259.508 39.9001 259.796 39.8057 260.008 39.6201C260.223 39.4346 260.33 39.166 260.33 38.8145C260.33 38.4759 260.241 38.2139 260.061 38.0283C259.886 37.8395 259.616 37.7451 259.251 37.7451C258.932 37.7451 258.67 37.8379 258.465 38.0234C258.26 38.2057 258.157 38.445 258.157 38.7412H256.971C256.971 38.3766 257.067 38.0446 257.259 37.7451C257.454 37.4456 257.724 37.2129 258.069 37.0469C258.418 36.8776 258.807 36.793 259.236 36.793C259.946 36.793 260.503 36.972 260.906 37.3301C261.313 37.6849 261.517 38.1797 261.517 38.8145C261.517 39.1335 261.414 39.4346 261.209 39.7178C261.007 39.9977 260.745 40.2093 260.423 40.3525C260.813 40.486 261.11 40.696 261.311 40.9824C261.517 41.2689 261.619 41.6107 261.619 42.0078C261.619 42.6458 261.399 43.1536 260.96 43.5312C260.524 43.9089 259.949 44.0977 259.236 44.0977C258.553 44.0977 257.993 43.9154 257.557 43.5508C257.12 43.1862 256.902 42.7012 256.902 42.0957H258.089C258.089 42.4082 258.193 42.6621 258.401 42.8574C258.613 43.0527 258.896 43.1504 259.251 43.1504C259.619 43.1504 259.909 43.0527 260.12 42.8574C260.332 42.6621 260.437 42.3789 260.437 42.0078C260.437 41.6335 260.327 41.3454 260.105 41.1436C259.884 40.9417 259.555 40.8408 259.119 40.8408H258.421V39.9033ZM263.35 40.4746L263.736 36.8906H267.554V37.916H264.722L264.527 39.6152C264.855 39.4264 265.226 39.332 265.64 39.332C266.317 39.332 266.843 39.5485 267.217 39.9814C267.595 40.4144 267.783 40.9971 267.783 41.7295C267.783 42.4521 267.575 43.0283 267.158 43.458C266.742 43.8844 266.17 44.0977 265.445 44.0977C264.793 44.0977 264.253 43.9137 263.823 43.5459C263.397 43.1748 263.166 42.6865 263.13 42.0811H264.278C264.323 42.4261 264.447 42.6914 264.649 42.877C264.85 43.0592 265.114 43.1504 265.44 43.1504C265.804 43.1504 266.087 43.0202 266.289 42.7598C266.494 42.4993 266.597 42.1445 266.597 41.6953C266.597 41.2624 266.485 40.9206 266.26 40.6699C266.035 40.416 265.726 40.2891 265.332 40.2891C265.117 40.2891 264.935 40.3184 264.785 40.377C264.636 40.4323 264.473 40.543 264.297 40.709L263.35 40.4746Z" fill="black"/>
<g filter="url(#filter7_d)">
<rect x="429.145" y="129.48" width="12" height="12" rx="3" fill="#607D8B"/>
<rect x="430.145" y="130.48" width="10" height="10" rx="2" fill="white"/>
</g>
<g filter="url(#filter8_d)">
<rect x="454.013" y="230.73" width="12" height="12" rx="3" fill="#607D8B"/>
<rect x="455.013" y="231.73" width="10" height="10" rx="2" fill="white"/>
</g>
<g filter="url(#filter9_d)">
<rect x="59.6709" y="230.73" width="12" height="12" rx="3" fill="#607D8B"/>
<rect x="60.6709" y="231.73" width="10" height="10" rx="2" fill="white"/>
</g>
<g filter="url(#filter10_d)">
<rect x="429.145" y="331.98" width="12" height="12" rx="3" fill="#607D8B"/>
<rect x="430.145" y="332.98" width="10" height="10" rx="2" fill="white"/>
</g>
<g filter="url(#filter11_d)">
<rect x="84.5396" y="331.98" width="12" height="12" rx="3" fill="#607D8B"/>
<rect x="85.5396" y="332.98" width="10" height="10" rx="2" fill="white"/>
</g>
<g filter="url(#filter12_d)">
<rect x="84.5396" y="129.48" width="12" height="12" rx="3" fill="#607D8B"/>
<rect x="85.5396" y="130.48" width="10" height="10" rx="2" fill="white"/>
</g>
<g filter="url(#filter13_d)">
<rect x="358.092" y="58.4276" width="12" height="12" rx="3" fill="#607D8B"/>
<rect x="359.092" y="59.4276" width="10" height="10" rx="2" fill="white"/>
</g>
<g filter="url(#filter14_d)">
<rect x="155.592" y="58.4276" width="12" height="12" rx="3" fill="#607D8B"/>
<rect x="156.592" y="59.4276" width="10" height="10" rx="2" fill="white"/>
</g>
<g filter="url(#filter15_d)">
<rect x="358.092" y="403.033" width="12" height="12" rx="3" fill="#607D8B"/>
<rect x="359.092" y="404.033" width="10" height="10" rx="2" fill="white"/>
</g>
<g filter="url(#filter16_d)">
<rect x="155.592" y="403.033" width="12" height="12" rx="3" fill="#607D8B"/>
<rect x="156.592" y="404.033" width="10" height="10" rx="2" fill="white"/>
</g>
<g filter="url(#filter17_d)">
<rect x="256.842" y="427.013" width="12" height="12" rx="3" fill="#607D8B"/>
<rect x="257.842" y="428.013" width="10" height="10" rx="2" fill="white"/>
</g>
<path opacity="0.24" d="M196.776 235.944L119.951 318.987L202.105 340.303L262.5 312.77L351.316 389.151L405.049 318.099L453.898 235.944L409.49 151.125L349.095 86.2895L262.5 190.204L212.763 148.905L151.924 171.109L196.776 235.944Z" fill="#90A4AE"/>
<path d="M196.776 235.944L119.951 318.987L202.105 340.303L262.5 312.77L351.316 389.151L405.049 318.099L453.898 235.944L409.49 151.125L349.095 86.2895L262.5 190.204L212.763 148.905L151.924 171.109L196.776 235.944Z" stroke="#90A4AE" stroke-width="2"/>
<rect x="258.342" y="186.046" width="9" height="9" rx="4.5" fill="#607D8B" stroke="white"/>
<rect x="147.322" y="166.507" width="9" height="9" rx="4.5" fill="#607D8B" stroke="white"/>
<rect x="192.618" y="231.342" width="9" height="9" rx="4.5" fill="#607D8B" stroke="white"/>
<rect x="208.605" y="145.191" width="9" height="9" rx="4.5" fill="#607D8B" stroke="white"/>
<rect x="345.381" y="82.1316" width="9" height="9" rx="4.5" fill="#607D8B" stroke="white"/>
<rect x="116.237" y="314.829" width="9" height="9" rx="4.5" fill="#607D8B" stroke="white"/>
<rect x="197.947" y="336.145" width="9" height="9" rx="4.5" fill="#607D8B" stroke="white"/>
<rect x="258.342" y="308.612" width="9" height="9" rx="4.5" fill="#607D8B" stroke="white"/>
<rect x="347.158" y="384.993" width="9" height="9" rx="4.5" fill="#607D8B" stroke="white"/>
<rect x="400.447" y="313.941" width="9" height="9" rx="4.5" fill="#607D8B" stroke="white"/>
<rect x="449.296" y="232.23" width="9" height="9" rx="4.5" fill="#607D8B" stroke="white"/>
<rect x="404.888" y="146.967" width="9" height="9" rx="4.5" fill="#607D8B" stroke="white"/>
<path opacity="0.24" d="M178.125 186.651L263.388 122.704L410.378 150.681L317.122 267.474H263.388L115.954 321.651L178.125 186.651Z" fill="#7C4DFF"/>
<path d="M178.125 186.651L263.388 122.704L410.378 150.681L317.122 267.474H263.388L115.954 321.651L178.125 186.651Z" stroke="#7C4DFF" stroke-width="2"/>
<rect x="0.5" y="-0.5" width="9" height="9" rx="4.5" transform="matrix(-1 0 0 1 268.046 119.046)" fill="#7C4DFF" stroke="white"/>
<rect x="0.5" y="-0.5" width="9" height="9" rx="4.5" transform="matrix(-1 0 0 1 414.592 147.467)" fill="#7C4DFF" stroke="white"/>
<rect x="0.5" y="-0.5" width="9" height="9" rx="4.5" transform="matrix(-1 0 0 1 321.336 263.816)" fill="#7C4DFF" stroke="white"/>
<rect x="0.5" y="-0.5" width="9" height="9" rx="4.5" transform="matrix(-1 0 0 1 268.046 263.816)" fill="#7C4DFF" stroke="white"/>
<rect x="0.5" y="-0.5" width="9" height="9" rx="4.5" transform="matrix(-1 0 0 1 120.612 317.993)" fill="#7C4DFF" stroke="white"/>
<rect x="0.5" y="-0.5" width="9" height="9" rx="4.5" transform="matrix(-1 0 0 1 182.783 182.993)" fill="#7C4DFF" stroke="white"/>
<rect x="0.5" y="-0.5" width="9" height="9" rx="4.5" transform="matrix(-1 0 0 1 221.862 154.572)" fill="#7C4DFF" stroke="white"/>
<rect x="0.5" y="-0.5" width="9" height="9" rx="4.5" transform="matrix(-1 0 0 1 326.665 129.704)" fill="#7C4DFF" stroke="white"/>
<rect x="0.5" y="-0.5" width="9" height="9" rx="4.5" transform="matrix(-1 0 0 1 347.092 232.73)" fill="#7C4DFF" stroke="white"/>
<rect x="0.5" y="-0.5" width="9" height="9" rx="4.5" transform="matrix(-1 0 0 1 244.066 272.697)" fill="#7C4DFF" stroke="white"/>
<rect x="0.5" y="-0.5" width="9" height="9" rx="4.5" transform="matrix(-1 0 0 1 284.921 263.816)" fill="#7C4DFF" stroke="white"/>
<rect x="0.5" y="-0.5" width="9" height="9" rx="4.5" transform="matrix(-1 0 0 1 160.579 232.73)" fill="#7C4DFF" stroke="white"/>
<path d="M251.971 461.246C251.995 462.722 252.739 463.49 254.251 463.49C255.967 463.49 256.579 462.314 256.579 460.778V454.742H255.319V460.454C255.319 461.582 255.199 462.506 254.203 462.506C253.387 462.506 253.183 461.894 253.171 461.246H251.971ZM262.404 463.322H263.568C263.556 463.01 263.556 462.698 263.556 462.374V457.022H262.344V459.914C262.344 461.294 262.116 462.47 260.82 462.47C259.836 462.47 259.428 461.726 259.428 460.49V457.022H258.216V460.946C258.216 462.578 258.936 463.478 260.4 463.478C261.468 463.478 262.08 462.962 262.404 462.422V463.322ZM265.283 463.322H266.495V454.742H265.283V463.322ZM273.646 457.022H272.326L271.126 460.418C270.91 461.03 270.802 461.378 270.598 461.966H270.574C270.418 461.462 270.274 461.054 270.07 460.454L268.906 457.022H267.514L269.926 463.322C269.662 464.006 269.314 464.786 269.014 465.482H270.274C271.33 462.722 272.542 459.818 273.646 457.022Z" fill="#777E8B"/>
<path d="M241.54 7.39768C241.564 8.87368 242.308 9.64168 243.82 9.64168C245.536 9.64168 246.148 8.46568 246.148 6.92968V0.893682H244.888V6.60568C244.888 7.73368 244.768 8.65768 243.772 8.65768C242.956 8.65768 242.752 8.04568 242.74 7.39768H241.54ZM253.005 9.47368C252.897 8.89768 252.849 8.15368 252.849 7.13368V5.90968C252.849 3.43768 251.697 3.00568 250.341 3.00568C248.841 3.00568 247.761 3.79768 247.701 5.14168H248.889C248.961 4.39768 249.405 3.96568 250.317 3.96568C251.145 3.96568 251.673 4.32568 251.673 5.59768C251.265 5.63368 250.797 5.68168 250.377 5.74168C248.697 5.96968 247.401 6.41368 247.401 7.76968C247.401 8.94568 248.361 9.59368 249.681 9.59368C250.689 9.59368 251.325 9.29368 251.805 8.60968C251.829 9.06568 251.829 9.22168 251.865 9.47368H253.005ZM251.697 6.47368C251.685 6.54568 251.685 6.65368 251.685 6.80968C251.685 8.03368 251.085 8.71768 249.957 8.71768C249.189 8.71768 248.709 8.34568 248.709 7.75768C248.709 6.88168 249.645 6.67768 251.697 6.47368ZM255.641 3.17368H254.441C254.453 3.49768 254.453 3.79768 254.453 4.12168V9.47368H255.665V5.83768C255.665 4.85368 256.229 4.02568 257.225 4.02568C258.209 4.02568 258.629 4.81768 258.629 6.05368V9.47368H259.853V5.59768C259.853 3.97768 259.085 2.99368 257.645 2.99368C256.577 2.99368 255.977 3.48568 255.641 4.02568V3.17368ZM265.575 9.47368H266.739C266.727 9.16168 266.727 8.84968 266.727 8.52568V3.17368H265.515V6.06568C265.515 7.44568 265.287 8.62168 263.991 8.62168C263.007 8.62168 262.599 7.87768 262.599 6.64168V3.17368H261.387V7.09768C261.387 8.72968 262.107 9.62968 263.571 9.62968C264.639 9.62968 265.251 9.11368 265.575 8.57368V9.47368ZM273.566 9.47368C273.458 8.89768 273.41 8.15368 273.41 7.13368V5.90968C273.41 3.43768 272.258 3.00568 270.902 3.00568C269.402 3.00568 268.322 3.79768 268.262 5.14168H269.45C269.522 4.39768 269.966 3.96568 270.878 3.96568C271.706 3.96568 272.234 4.32568 272.234 5.59768C271.826 5.63368 271.358 5.68168 270.938 5.74168C269.258 5.96968 267.962 6.41368 267.962 7.76968C267.962 8.94568 268.922 9.59368 270.242 9.59368C271.25 9.59368 271.886 9.29368 272.366 8.60968C272.39 9.06568 272.39 9.22168 272.426 9.47368H273.566ZM272.258 6.47368C272.246 6.54568 272.246 6.65368 272.246 6.80968C272.246 8.03368 271.646 8.71768 270.518 8.71768C269.75 8.71768 269.27 8.34568 269.27 7.75768C269.27 6.88168 270.206 6.67768 272.258 6.47368ZM275.002 3.17368C275.014 3.55768 275.014 3.90568 275.014 4.30168V9.47368H276.226V6.20968C276.226 4.94968 276.442 4.10968 277.582 4.10968C277.714 4.10968 277.894 4.12168 278.002 4.14568V3.04168C277.918 3.02968 277.846 3.01768 277.69 3.01768C276.982 3.01768 276.37 3.38968 276.166 3.97768V3.17368H275.002ZM284.433 3.17368H283.112L281.913 6.56968C281.696 7.18168 281.588 7.52968 281.385 8.11768H281.36C281.204 7.61368 281.06 7.20568 280.856 6.60568L279.692 3.17368H278.3L280.712 9.47368C280.448 10.1577 280.1 10.9377 279.8 11.6337H281.06C282.116 8.87368 283.329 5.96968 284.433 3.17368Z" fill="#777E8B"/>
<path d="M435.847 108.059H437.059V103.511C437.059 102.323 437.047 101.327 437.035 100.631H437.047C437.203 101.207 437.359 101.843 437.635 102.671L439.447 108.059H440.779L442.303 103.535C442.699 102.335 443.095 101.063 443.227 100.631H443.239C443.239 101.327 443.203 102.719 443.203 103.631V108.059H444.427V99.4792H442.459L440.947 104.087L440.155 106.523H440.143C439.915 105.803 439.615 104.771 439.411 104.171L437.887 99.4792H435.847V108.059ZM451.36 108.059C451.252 107.483 451.204 106.739 451.204 105.719V104.495C451.204 102.023 450.052 101.591 448.696 101.591C447.196 101.591 446.116 102.383 446.056 103.727H447.244C447.316 102.983 447.76 102.551 448.672 102.551C449.5 102.551 450.028 102.911 450.028 104.183C449.62 104.219 449.152 104.267 448.732 104.327C447.052 104.555 445.756 104.999 445.756 106.355C445.756 107.531 446.716 108.179 448.036 108.179C449.044 108.179 449.68 107.879 450.16 107.195C450.184 107.651 450.184 107.807 450.22 108.059H451.36ZM450.052 105.059C450.04 105.131 450.04 105.239 450.04 105.395C450.04 106.619 449.44 107.303 448.312 107.303C447.544 107.303 447.064 106.931 447.064 106.343C447.064 105.467 448 105.263 450.052 105.059ZM452.796 101.759C452.808 102.143 452.808 102.491 452.808 102.887V108.059H454.02V104.795C454.02 103.535 454.236 102.695 455.376 102.695C455.508 102.695 455.688 102.707 455.796 102.731V101.627C455.712 101.615 455.64 101.603 455.484 101.603C454.776 101.603 454.164 101.975 453.96 102.563V101.759H452.796ZM461.102 106.043C460.826 106.775 460.238 107.207 459.422 107.207C458.234 107.207 457.538 106.295 457.538 104.903C457.538 103.559 458.246 102.599 459.422 102.599C460.25 102.599 460.862 103.079 461.126 103.835H462.374C462.098 102.503 461.09 101.591 459.47 101.591C457.526 101.591 456.254 102.995 456.254 104.891C456.254 106.799 457.478 108.215 459.458 108.215C461.066 108.215 462.038 107.291 462.362 106.043H461.102ZM464.798 99.4792H463.586V108.059H464.798V104.387C464.798 103.427 465.386 102.611 466.358 102.611C467.342 102.611 467.762 103.415 467.762 104.651V108.059H468.986V104.147C468.986 102.563 468.206 101.579 466.778 101.579C465.674 101.579 465.014 102.167 464.786 102.587C464.798 102.131 464.798 101.387 464.798 100.859V99.4792Z" fill="#777E8B"/>
<path d="M32.3314 108.059H33.5794V104.255C33.5794 103.499 33.5674 101.639 33.5674 101.171H33.5794C33.7114 101.411 34.2394 102.347 34.7554 103.235L37.5994 108.059H39.2314V99.4792H37.9834V104.003C37.9834 104.831 38.0074 105.851 38.0074 106.343L37.9954 106.355L36.9274 104.495L34.0114 99.4792H32.3314V108.059ZM43.782 101.591C41.814 101.591 40.59 102.971 40.59 104.927C40.59 106.847 41.742 108.215 43.758 108.215C45.774 108.215 46.962 106.847 46.962 104.927C46.962 102.971 45.738 101.591 43.782 101.591ZM43.746 102.599C44.934 102.599 45.63 103.571 45.63 104.915C45.63 106.307 44.946 107.207 43.746 107.207C42.558 107.207 41.874 106.307 41.874 104.915C41.874 103.571 42.57 102.599 43.746 102.599ZM49.695 108.059H51.015C51.819 105.959 52.635 103.871 53.439 101.759H52.131L51.207 104.495C50.907 105.407 50.715 105.875 50.427 106.751H50.403C50.127 105.851 49.995 105.479 49.707 104.627L48.723 101.759H47.343C48.111 103.787 48.939 106.019 49.695 108.059ZM59.9496 105.227V104.831C59.9496 103.139 59.0016 101.579 56.9496 101.579C55.0536 101.579 53.7936 102.971 53.7936 104.939C53.7936 106.907 55.0056 108.215 56.9496 108.215C58.4616 108.215 59.4576 107.399 59.8176 106.259H58.6056C58.2816 106.799 57.8616 107.207 56.9976 107.207C55.7736 107.207 55.0656 106.331 55.0176 105.227H59.9496ZM55.0656 104.267C55.1856 103.211 55.9416 102.563 56.9256 102.563C57.9576 102.563 58.5816 103.271 58.6896 104.267H55.0656ZM62.3603 101.759H61.1603C61.1723 102.095 61.1723 102.395 61.1723 102.731V108.059H62.3843V104.447C62.3843 103.439 62.9243 102.611 63.9083 102.611C64.9163 102.611 65.2763 103.391 65.2763 104.663V108.059H66.5003V104.435C66.5003 103.451 67.0403 102.611 68.0243 102.611C69.0203 102.611 69.3923 103.379 69.3923 104.663V108.059H70.6163V104.183C70.6163 102.575 69.9083 101.579 68.4083 101.579C67.1723 101.579 66.6083 102.203 66.2363 102.743C65.9123 101.999 65.2763 101.579 64.3403 101.579C63.2603 101.579 62.6963 102.059 62.3603 102.611V101.759ZM72.2214 108.059H73.3614V107.171C73.7214 107.723 74.4174 108.203 75.4974 108.203C77.2254 108.203 78.4254 106.859 78.4254 104.891C78.4254 102.983 77.2734 101.567 75.4854 101.567C74.4894 101.567 73.7934 102.047 73.4334 102.563C73.4454 102.119 73.4454 101.759 73.4454 101.327V99.4792H72.2214V108.059ZM75.2454 102.587C76.4214 102.587 77.1174 103.559 77.1174 104.903C77.1174 106.295 76.4334 107.207 75.2574 107.207C74.0694 107.207 73.3734 106.283 73.3734 104.903C73.3734 103.559 74.0814 102.587 75.2454 102.587ZM85.468 105.227V104.831C85.468 103.139 84.52 101.579 82.468 101.579C80.572 101.579 79.312 102.971 79.312 104.939C79.312 106.907 80.524 108.215 82.468 108.215C83.98 108.215 84.976 107.399 85.336 106.259H84.124C83.8 106.799 83.38 107.207 82.516 107.207C81.292 107.207 80.584 106.331 80.536 105.227H85.468ZM80.584 104.267C80.704 103.211 81.46 102.563 82.444 102.563C83.476 102.563 84.1 103.271 84.208 104.267H80.584ZM86.6787 101.759C86.6907 102.143 86.6907 102.491 86.6907 102.887V108.059H87.9027V104.795C87.9027 103.535 88.1187 102.695 89.2587 102.695C89.3907 102.695 89.5707 102.707 89.6787 102.731V101.627C89.5947 101.615 89.5227 101.603 89.3667 101.603C88.6587 101.603 88.0467 101.975 87.8427 102.563V101.759H86.6787Z" fill="#777E8B"/>
<path d="M478.274 237.73H479.57L480.578 235.138H484.334L485.366 237.73H486.698L483.278 229.15H481.754C480.602 232.018 479.426 234.874 478.274 237.73ZM482.462 230.302H482.486C482.594 230.626 482.798 231.118 482.99 231.634C483.65 233.35 483.65 233.386 483.926 234.094H480.986C481.49 232.81 481.958 231.55 482.462 230.302ZM488.657 231.43H487.493V239.89H488.705V238.414C488.705 237.658 488.681 236.974 488.681 236.938C489.041 237.478 489.677 237.874 490.757 237.874C492.485 237.874 493.673 236.53 493.673 234.562C493.673 232.654 492.521 231.238 490.721 231.238C489.737 231.238 489.017 231.73 488.657 232.246V231.43ZM490.505 232.258C491.681 232.258 492.377 233.23 492.377 234.574C492.377 235.966 491.693 236.878 490.505 236.878C489.329 236.878 488.633 235.954 488.633 234.574C488.633 233.23 489.341 232.258 490.505 232.258ZM494.945 231.43C494.957 231.814 494.957 232.162 494.957 232.558V237.73H496.169V234.466C496.169 233.206 496.385 232.366 497.525 232.366C497.657 232.366 497.837 232.378 497.945 232.402V231.298C497.861 231.286 497.789 231.274 497.633 231.274C496.925 231.274 496.313 231.646 496.109 232.234V231.43H494.945ZM498.951 231.43V237.73H500.163V231.43H498.951ZM498.927 230.518H500.187V229.15H498.927V230.518ZM501.892 237.73H503.104V229.15H501.892V237.73Z" fill="#777E8B"/>
<path d="M5.21619 228.982C2.64819 228.982 0.908185 230.794 0.908185 233.446C0.908185 236.098 2.63619 237.898 5.22819 237.898C7.83219 237.898 9.54819 236.098 9.54819 233.446C9.54819 230.782 7.79619 228.982 5.21619 228.982ZM5.20419 230.05C7.06419 230.05 8.16819 231.442 8.16819 233.434C8.16819 235.414 7.05219 236.842 5.21619 236.842C3.36819 236.842 2.26419 235.39 2.26419 233.434C2.26419 231.466 3.35619 230.05 5.20419 230.05ZM15.3162 235.714C15.0402 236.446 14.4522 236.878 13.6362 236.878C12.4482 236.878 11.7522 235.966 11.7522 234.574C11.7522 233.23 12.4602 232.27 13.6362 232.27C14.4642 232.27 15.0762 232.75 15.3402 233.506H16.5882C16.3122 232.174 15.3042 231.262 13.6842 231.262C11.7402 231.262 10.4682 232.666 10.4682 234.562C10.4682 236.47 11.6922 237.886 13.6722 237.886C15.2802 237.886 16.2522 236.962 16.5762 235.714H15.3162ZM19.312 229.726H18.088V231.43H17.14V232.366H18.088V236.218C18.088 237.478 18.796 237.85 19.912 237.85C20.068 237.85 20.2 237.826 20.38 237.802V236.902C20.308 236.914 20.164 236.926 20.08 236.926C19.612 236.926 19.312 236.746 19.312 236.146V232.366H20.488V231.43H19.312V229.726ZM24.3326 231.262C22.3646 231.262 21.1406 232.642 21.1406 234.598C21.1406 236.518 22.2926 237.886 24.3086 237.886C26.3246 237.886 27.5126 236.518 27.5126 234.598C27.5126 232.642 26.2886 231.262 24.3326 231.262ZM24.2966 232.27C25.4846 232.27 26.1806 233.242 26.1806 234.586C26.1806 235.978 25.4966 236.878 24.2966 236.878C23.1086 236.878 22.4246 235.978 22.4246 234.586C22.4246 233.242 23.1206 232.27 24.2966 232.27ZM28.8005 237.73H29.9405V236.842C30.3005 237.394 30.9965 237.874 32.0765 237.874C33.8045 237.874 35.0045 236.53 35.0045 234.562C35.0045 232.654 33.8525 231.238 32.0645 231.238C31.0685 231.238 30.3725 231.718 30.0125 232.234C30.0245 231.79 30.0245 231.43 30.0245 230.998V229.15H28.8005V237.73ZM31.8245 232.258C33.0005 232.258 33.6965 233.23 33.6965 234.574C33.6965 235.966 33.0125 236.878 31.8365 236.878C30.6485 236.878 29.9525 235.954 29.9525 234.574C29.9525 233.23 30.6605 232.258 31.8245 232.258ZM42.0471 234.898V234.502C42.0471 232.81 41.0991 231.25 39.0471 231.25C37.1511 231.25 35.8911 232.642 35.8911 234.61C35.8911 236.578 37.1031 237.886 39.0471 237.886C40.5591 237.886 41.5551 237.07 41.9151 235.93H40.7031C40.3791 236.47 39.9591 236.878 39.0951 236.878C37.8711 236.878 37.1631 236.002 37.1151 234.898H42.0471ZM37.1631 233.938C37.2831 232.882 38.0391 232.234 39.0231 232.234C40.0551 232.234 40.6791 232.942 40.7871 233.938H37.1631ZM43.2578 231.43C43.2698 231.814 43.2698 232.162 43.2698 232.558V237.73H44.4818V234.466C44.4818 233.206 44.6978 232.366 45.8378 232.366C45.9698 232.366 46.1498 232.378 46.2578 232.402V231.298C46.1738 231.286 46.1018 231.274 45.9458 231.274C45.2378 231.274 44.6258 231.646 44.4218 232.234V231.43H43.2578Z" fill="#777E8B"/>
<path d="M27.9174 365.853C28.0254 367.497 29.2494 368.457 31.1694 368.457C33.0294 368.457 34.3254 367.425 34.3254 365.853C34.3254 364.413 33.3294 363.873 31.8294 363.417L31.2294 363.237C30.2934 362.961 29.5374 362.661 29.5374 361.785C29.5374 361.065 30.1254 360.573 31.1214 360.573C32.1534 360.573 32.7054 361.077 32.8494 361.929H34.1454C33.9894 360.465 32.9814 359.529 31.1574 359.529C29.3814 359.529 28.1814 360.489 28.1814 361.893C28.1814 363.261 29.1414 363.861 30.6894 364.353L31.2534 364.533C32.2374 364.845 32.9934 365.073 32.9934 366.009C32.9934 366.873 32.3094 367.449 31.1814 367.449C29.9574 367.449 29.3574 366.753 29.2014 365.853H27.9174ZM41.3853 365.457V365.061C41.3853 363.369 40.4373 361.809 38.3853 361.809C36.4893 361.809 35.2293 363.201 35.2293 365.169C35.2293 367.137 36.4413 368.445 38.3853 368.445C39.8973 368.445 40.8933 367.629 41.2533 366.489H40.0413C39.7173 367.029 39.2973 367.437 38.4333 367.437C37.2093 367.437 36.5013 366.561 36.4533 365.457H41.3853ZM36.5013 364.497C36.6213 363.441 37.3773 362.793 38.3613 362.793C39.3933 362.793 40.0173 363.501 40.1253 364.497H36.5013ZM43.772 361.989H42.608V370.449H43.82V368.973C43.82 368.217 43.796 367.533 43.796 367.497C44.156 368.037 44.792 368.433 45.872 368.433C47.6 368.433 48.788 367.089 48.788 365.121C48.788 363.213 47.636 361.797 45.836 361.797C44.852 361.797 44.132 362.289 43.772 362.805V361.989ZM45.62 362.817C46.796 362.817 47.492 363.789 47.492 365.133C47.492 366.525 46.808 367.437 45.62 367.437C44.444 367.437 43.748 366.513 43.748 365.133C43.748 363.789 44.456 362.817 45.62 362.817ZM51.5246 360.285H50.3006V361.989H49.3526V362.925H50.3006V366.777C50.3006 368.037 51.0086 368.409 52.1246 368.409C52.2806 368.409 52.4126 368.385 52.5926 368.361V367.461C52.5206 367.473 52.3766 367.485 52.2926 367.485C51.8246 367.485 51.5246 367.305 51.5246 366.705V362.925H52.7006V361.989H51.5246V360.285ZM59.5092 365.457V365.061C59.5092 363.369 58.5612 361.809 56.5092 361.809C54.6132 361.809 53.3532 363.201 53.3532 365.169C53.3532 367.137 54.5652 368.445 56.5092 368.445C58.0212 368.445 59.0172 367.629 59.3772 366.489H58.1652C57.8412 367.029 57.4212 367.437 56.5572 367.437C55.3332 367.437 54.6252 366.561 54.5772 365.457H59.5092ZM54.6252 364.497C54.7452 363.441 55.5012 362.793 56.4852 362.793C57.5172 362.793 58.1412 363.501 58.2492 364.497H54.6252ZM61.9199 361.989H60.7199C60.7319 362.325 60.7319 362.625 60.7319 362.961V368.289H61.9439V364.677C61.9439 363.669 62.4839 362.841 63.4679 362.841C64.4759 362.841 64.8359 363.621 64.8359 364.893V368.289H66.0599V364.665C66.0599 363.681 66.5999 362.841 67.5839 362.841C68.5799 362.841 68.9519 363.609 68.9519 364.893V368.289H70.1759V364.413C70.1759 362.805 69.4679 361.809 67.9679 361.809C66.7319 361.809 66.1679 362.433 65.7959 362.973C65.4719 362.229 64.8359 361.809 63.8999 361.809C62.8199 361.809 62.2559 362.289 61.9199 362.841V361.989ZM71.781 368.289H72.921V367.401C73.281 367.953 73.977 368.433 75.057 368.433C76.785 368.433 77.985 367.089 77.985 365.121C77.985 363.213 76.833 361.797 75.045 361.797C74.049 361.797 73.353 362.277 72.993 362.793C73.005 362.349 73.005 361.989 73.005 361.557V359.709H71.781V368.289ZM74.805 362.817C75.981 362.817 76.677 363.789 76.677 365.133C76.677 366.525 75.993 367.437 74.817 367.437C73.629 367.437 72.933 366.513 72.933 365.133C72.933 363.789 73.641 362.817 74.805 362.817ZM85.0276 365.457V365.061C85.0276 363.369 84.0796 361.809 82.0276 361.809C80.1316 361.809 78.8716 363.201 78.8716 365.169C78.8716 367.137 80.0836 368.445 82.0276 368.445C83.5396 368.445 84.5356 367.629 84.8956 366.489H83.6836C83.3596 367.029 82.9396 367.437 82.0756 367.437C80.8516 367.437 80.1436 366.561 80.0956 365.457H85.0276ZM80.1436 364.497C80.2636 363.441 81.0196 362.793 82.0036 362.793C83.0356 362.793 83.6596 363.501 83.7676 364.497H80.1436ZM86.2382 361.989C86.2502 362.373 86.2502 362.721 86.2502 363.117V368.289H87.4622V365.025C87.4622 363.765 87.6782 362.925 88.8182 362.925C88.9502 362.925 89.1302 362.937 89.2382 362.961V361.857C89.1542 361.845 89.0822 361.833 88.9262 361.833C88.2182 361.833 87.6062 362.205 87.4022 362.793V361.989H86.2382Z" fill="#777E8B"/>
<path d="M435.847 368.289H437.059V363.741C437.059 362.553 437.047 361.557 437.035 360.861H437.047C437.203 361.437 437.359 362.073 437.635 362.901L439.447 368.289H440.779L442.303 363.765C442.699 362.565 443.095 361.293 443.227 360.861H443.239C443.239 361.557 443.203 362.949 443.203 363.861V368.289H444.427V359.709H442.459L440.947 364.317L440.155 366.753H440.143C439.915 366.033 439.615 365.001 439.411 364.401L437.887 359.709H435.847V368.289ZM451.36 368.289C451.252 367.713 451.204 366.969 451.204 365.949V364.725C451.204 362.253 450.052 361.821 448.696 361.821C447.196 361.821 446.116 362.613 446.056 363.957H447.244C447.316 363.213 447.76 362.781 448.672 362.781C449.5 362.781 450.028 363.141 450.028 364.413C449.62 364.449 449.152 364.497 448.732 364.557C447.052 364.785 445.756 365.229 445.756 366.585C445.756 367.761 446.716 368.409 448.036 368.409C449.044 368.409 449.68 368.109 450.16 367.425C450.184 367.881 450.184 368.037 450.22 368.289H451.36ZM450.052 365.289C450.04 365.361 450.04 365.469 450.04 365.625C450.04 366.849 449.44 367.533 448.312 367.533C447.544 367.533 447.064 367.161 447.064 366.573C447.064 365.697 448 365.493 450.052 365.289ZM458.103 361.989H456.783L455.583 365.385C455.367 365.997 455.259 366.345 455.055 366.933H455.031C454.875 366.429 454.731 366.021 454.527 365.421L453.363 361.989H451.971L454.383 368.289C454.119 368.973 453.771 369.753 453.471 370.449H454.731C455.787 367.689 456.999 364.785 458.103 361.989Z" fill="#777E8B"/>
<path d="M103.768 36.1184H106.312C109.588 36.1184 110.872 34.2224 110.872 31.8464C110.872 29.0744 109.288 27.5384 106.108 27.5384H103.768V36.1184ZM105.04 28.6304C105.04 28.6304 105.712 28.6184 106.132 28.6184C108.292 28.6184 109.504 29.7344 109.504 31.8464C109.504 34.2104 108.256 35.0504 106.012 35.0504H105.04V28.6304ZM117.972 33.2864V32.8904C117.972 31.1984 117.024 29.6384 114.972 29.6384C113.076 29.6384 111.816 31.0304 111.816 32.9984C111.816 34.9664 113.028 36.2744 114.972 36.2744C116.484 36.2744 117.48 35.4584 117.84 34.3184H116.628C116.304 34.8584 115.884 35.2664 115.02 35.2664C113.796 35.2664 113.088 34.3904 113.04 33.2864H117.972ZM113.088 32.3264C113.208 31.2704 113.964 30.6224 114.948 30.6224C115.98 30.6224 116.604 31.3304 116.712 32.3264H113.088ZM123.647 34.1024C123.371 34.8344 122.783 35.2664 121.967 35.2664C120.779 35.2664 120.083 34.3544 120.083 32.9624C120.083 31.6184 120.791 30.6584 121.967 30.6584C122.795 30.6584 123.407 31.1384 123.671 31.8944H124.919C124.643 30.5624 123.635 29.6504 122.015 29.6504C120.071 29.6504 118.799 31.0544 118.799 32.9504C118.799 34.8584 120.023 36.2744 122.003 36.2744C123.611 36.2744 124.583 35.3504 124.907 34.1024H123.647ZM131.891 33.2864V32.8904C131.891 31.1984 130.943 29.6384 128.891 29.6384C126.995 29.6384 125.735 31.0304 125.735 32.9984C125.735 34.9664 126.947 36.2744 128.891 36.2744C130.403 36.2744 131.399 35.4584 131.759 34.3184H130.547C130.223 34.8584 129.803 35.2664 128.939 35.2664C127.715 35.2664 127.007 34.3904 126.959 33.2864H131.891ZM127.007 32.3264C127.127 31.2704 127.883 30.6224 128.867 30.6224C129.899 30.6224 130.523 31.3304 130.631 32.3264H127.007ZM134.301 29.8184H133.101C133.113 30.1544 133.113 30.4544 133.113 30.7904V36.1184H134.325V32.5064C134.325 31.4984 134.865 30.6704 135.849 30.6704C136.857 30.6704 137.217 31.4504 137.217 32.7224V36.1184H138.441V32.4944C138.441 31.5104 138.981 30.6704 139.965 30.6704C140.961 30.6704 141.333 31.4384 141.333 32.7224V36.1184H142.557V32.2424C142.557 30.6344 141.849 29.6384 140.349 29.6384C139.113 29.6384 138.549 30.2624 138.177 30.8024C137.853 30.0584 137.217 29.6384 136.281 29.6384C135.201 29.6384 134.637 30.1184 134.301 30.6704V29.8184ZM144.162 36.1184H145.302V35.2304C145.662 35.7824 146.358 36.2624 147.438 36.2624C149.166 36.2624 150.366 34.9184 150.366 32.9504C150.366 31.0424 149.214 29.6264 147.426 29.6264C146.43 29.6264 145.734 30.1064 145.374 30.6224C145.386 30.1784 145.386 29.8184 145.386 29.3864V27.5384H144.162V36.1184ZM147.186 30.6464C148.362 30.6464 149.058 31.6184 149.058 32.9624C149.058 34.3544 148.374 35.2664 147.198 35.2664C146.01 35.2664 145.314 34.3424 145.314 32.9624C145.314 31.6184 146.022 30.6464 147.186 30.6464ZM157.409 33.2864V32.8904C157.409 31.1984 156.461 29.6384 154.409 29.6384C152.513 29.6384 151.253 31.0304 151.253 32.9984C151.253 34.9664 152.465 36.2744 154.409 36.2744C155.921 36.2744 156.917 35.4584 157.277 34.3184H156.065C155.741 34.8584 155.321 35.2664 154.457 35.2664C153.233 35.2664 152.525 34.3904 152.477 33.2864H157.409ZM152.525 32.3264C152.645 31.2704 153.401 30.6224 154.385 30.6224C155.417 30.6224 156.041 31.3304 156.149 32.3264H152.525ZM158.62 29.8184C158.632 30.2024 158.632 30.5504 158.632 30.9464V36.1184H159.844V32.8544C159.844 31.5944 160.06 30.7544 161.2 30.7544C161.332 30.7544 161.512 30.7664 161.62 30.7904V29.6864C161.536 29.6744 161.464 29.6624 161.308 29.6624C160.6 29.6624 159.988 30.0344 159.784 30.6224V29.8184H158.62Z" fill="#777E8B"/>
<path d="M364.794 36.1184H366.066V32.2784H369.762V31.1744H366.066V28.6424H370.05V27.5384H364.794V36.1184ZM375.315 36.1184H376.479C376.467 35.8064 376.467 35.4944 376.467 35.1704V29.8184H375.255V32.7104C375.255 34.0904 375.027 35.2664 373.731 35.2664C372.747 35.2664 372.339 34.5224 372.339 33.2864V29.8184H371.127V33.7424C371.127 35.3744 371.847 36.2744 373.311 36.2744C374.379 36.2744 374.991 35.7584 375.315 35.2184V36.1184ZM378.146 36.1184H379.286V35.2304C379.646 35.7824 380.342 36.2624 381.422 36.2624C383.15 36.2624 384.35 34.9184 384.35 32.9504C384.35 31.0424 383.198 29.6264 381.41 29.6264C380.414 29.6264 379.718 30.1064 379.358 30.6224C379.37 30.1784 379.37 29.8184 379.37 29.3864V27.5384H378.146V36.1184ZM381.17 30.6464C382.346 30.6464 383.042 31.6184 383.042 32.9624C383.042 34.3544 382.358 35.2664 381.182 35.2664C379.994 35.2664 379.298 34.3424 379.298 32.9624C379.298 31.6184 380.006 30.6464 381.17 30.6464ZM385.621 29.8184C385.633 30.2024 385.633 30.5504 385.633 30.9464V36.1184H386.845V32.8544C386.845 31.5944 387.061 30.7544 388.201 30.7544C388.333 30.7544 388.513 30.7664 388.621 30.7904V29.6864C388.537 29.6744 388.465 29.6624 388.309 29.6624C387.601 29.6624 386.989 30.0344 386.785 30.6224V29.8184H385.621ZM393.743 36.1184H394.907C394.895 35.8064 394.895 35.4944 394.895 35.1704V29.8184H393.683V32.7104C393.683 34.0904 393.455 35.2664 392.159 35.2664C391.175 35.2664 390.767 34.5224 390.767 33.2864V29.8184H389.555V33.7424C389.555 35.3744 390.275 36.2744 391.739 36.2744C392.807 36.2744 393.419 35.7584 393.743 35.2184V36.1184ZM401.735 36.1184C401.627 35.5424 401.579 34.7984 401.579 33.7784V32.5544C401.579 30.0824 400.427 29.6504 399.071 29.6504C397.571 29.6504 396.491 30.4424 396.431 31.7864H397.619C397.691 31.0424 398.135 30.6104 399.047 30.6104C399.875 30.6104 400.403 30.9704 400.403 32.2424C399.995 32.2784 399.527 32.3264 399.107 32.3864C397.427 32.6144 396.131 33.0584 396.131 34.4144C396.131 35.5904 397.091 36.2384 398.411 36.2384C399.419 36.2384 400.055 35.9384 400.535 35.2544C400.559 35.7104 400.559 35.8664 400.595 36.1184H401.735ZM400.427 33.1184C400.415 33.1904 400.415 33.2984 400.415 33.4544C400.415 34.6784 399.815 35.3624 398.687 35.3624C397.919 35.3624 397.439 34.9904 397.439 34.4024C397.439 33.5264 398.375 33.3224 400.427 33.1184ZM403.17 29.8184C403.182 30.2024 403.182 30.5504 403.182 30.9464V36.1184H404.394V32.8544C404.394 31.5944 404.61 30.7544 405.75 30.7544C405.882 30.7544 406.062 30.7664 406.17 30.7904V29.6864C406.086 29.6744 406.014 29.6624 405.858 29.6624C405.15 29.6624 404.538 30.0344 404.334 30.6224V29.8184H403.17ZM412.601 29.8184H411.281L410.081 33.2144C409.865 33.8264 409.757 34.1744 409.553 34.7624H409.529C409.373 34.2584 409.229 33.8504 409.025 33.2504L407.861 29.8184H406.469L408.881 36.1184C408.617 36.8024 408.269 37.5824 407.969 38.2784H409.229C410.285 35.5184 411.497 32.6144 412.601 29.8184Z" fill="#777E8B"/>
<path d="M121.753 440.23H123.049L124.057 437.638H127.813L128.845 440.23H130.177L126.757 431.65H125.233C124.081 434.518 122.905 437.374 121.753 440.23ZM125.941 432.802H125.965C126.073 433.126 126.277 433.618 126.469 434.134C127.129 435.85 127.129 435.886 127.405 436.594H124.465C124.969 435.31 125.437 434.05 125.941 432.802ZM135.018 440.23H136.182C136.17 439.918 136.17 439.606 136.17 439.282V433.93H134.958V436.822C134.958 438.202 134.73 439.378 133.434 439.378C132.45 439.378 132.042 438.634 132.042 437.398V433.93H130.83V437.854C130.83 439.486 131.55 440.386 133.014 440.386C134.082 440.386 134.694 439.87 135.018 439.33V440.23ZM143.682 433.93H142.482V434.326C142.482 434.458 142.482 434.59 142.494 434.722C142.134 434.206 141.474 433.738 140.382 433.738C138.69 433.738 137.466 434.998 137.466 436.87C137.466 438.67 138.594 439.954 140.37 439.954C141.474 439.954 142.17 439.474 142.482 438.934C142.494 438.934 142.494 438.946 142.506 438.946C142.506 440.65 141.99 441.55 140.55 441.55C139.614 441.55 139.158 441.034 138.942 440.458H137.67C138.006 441.706 138.954 442.534 140.526 442.534C142.638 442.534 143.682 441.298 143.682 439.018V433.93ZM140.646 434.758C141.798 434.758 142.518 435.586 142.518 436.822C142.518 438.214 141.702 438.958 140.646 438.958C139.47 438.958 138.786 438.082 138.786 436.858C138.786 435.586 139.494 434.758 140.646 434.758ZM149.464 440.23H150.628C150.616 439.918 150.616 439.606 150.616 439.282V433.93H149.404V436.822C149.404 438.202 149.176 439.378 147.88 439.378C146.896 439.378 146.488 438.634 146.488 437.398V433.93H145.276V437.854C145.276 439.486 145.996 440.386 147.46 440.386C148.528 440.386 149.14 439.87 149.464 439.33V440.23ZM151.815 438.31C152.067 439.714 152.979 440.374 154.503 440.374C155.955 440.374 156.987 439.594 156.987 438.382C156.987 437.314 156.327 436.942 155.067 436.582L154.395 436.39C153.639 436.174 153.255 436.006 153.255 435.502C153.255 435.034 153.639 434.722 154.395 434.722C155.127 434.722 155.547 435.034 155.727 435.598H156.879C156.735 434.374 155.811 433.762 154.431 433.762C153.027 433.762 152.019 434.482 152.019 435.61C152.019 436.714 152.799 437.158 153.843 437.422L154.287 437.542C155.175 437.77 155.775 437.914 155.775 438.502C155.775 439.066 155.259 439.39 154.539 439.39C153.663 439.39 153.219 438.982 153.015 438.31H151.815ZM159.771 432.226H158.547V433.93H157.599V434.866H158.547V438.718C158.547 439.978 159.255 440.35 160.371 440.35C160.527 440.35 160.659 440.326 160.839 440.302V439.402C160.767 439.414 160.623 439.426 160.539 439.426C160.071 439.426 159.771 439.246 159.771 438.646V434.866H160.947V433.93H159.771V432.226Z" fill="#777E8B"/>
<path d="M364.05 438.154C364.074 439.63 364.818 440.398 366.33 440.398C368.046 440.398 368.658 439.222 368.658 437.686V431.65H367.398V437.362C367.398 438.49 367.278 439.414 366.282 439.414C365.466 439.414 365.262 438.802 365.25 438.154H364.05ZM374.483 440.23H375.647C375.635 439.918 375.635 439.606 375.635 439.282V433.93H374.423V436.822C374.423 438.202 374.195 439.378 372.899 439.378C371.915 439.378 371.507 438.634 371.507 437.398V433.93H370.294V437.854C370.294 439.486 371.015 440.386 372.479 440.386C373.547 440.386 374.159 439.87 374.483 439.33V440.23ZM378.502 433.93H377.302C377.314 434.254 377.314 434.554 377.314 434.878V440.23H378.526V436.594C378.526 435.61 379.09 434.782 380.086 434.782C381.07 434.782 381.49 435.574 381.49 436.81V440.23H382.714V436.354C382.714 434.734 381.946 433.75 380.506 433.75C379.438 433.75 378.838 434.242 378.502 434.782V433.93ZM390.08 437.398V437.002C390.08 435.31 389.132 433.75 387.08 433.75C385.184 433.75 383.924 435.142 383.924 437.11C383.924 439.078 385.136 440.386 387.08 440.386C388.592 440.386 389.588 439.57 389.948 438.43H388.736C388.412 438.97 387.992 439.378 387.128 439.378C385.904 439.378 385.196 438.502 385.148 437.398H390.08ZM385.196 436.438C385.316 435.382 386.072 434.734 387.056 434.734C388.088 434.734 388.712 435.442 388.82 436.438H385.196Z" fill="#777E8B"/>
<defs>
<filter id="filter0_d" x="243.842" y="199.526" width="37.3158" height="30.2105" filterUnits="userSpaceOnUse" color-interpolation-filters="sRGB">
<feFlood flood-opacity="0" result="BackgroundImageFix"/>
<feColorMatrix in="SourceAlpha" type="matrix" values="0 0 0 0 0 0 0 0 0 0 0 0 0 0 0 0 0 0 127 0"/>
<feOffset dy="4"/>
<feGaussianBlur stdDeviation="4"/>
<feColorMatrix type="matrix" values="0 0 0 0 0.329412 0 0 0 0 0.431373 0 0 0 0 0.478431 0 0 0 0.24 0"/>
<feBlend mode="multiply" in2="BackgroundImageFix" result="effect1_dropShadow"/>
<feBlend mode="normal" in="SourceGraphic" in2="effect1_dropShadow" result="shape"/>
</filter>
<filter id="filter1_d" x="243.842" y="171.105" width="37.3158" height="30.2105" filterUnits="userSpaceOnUse" color-interpolation-filters="sRGB">
<feFlood flood-opacity="0" result="BackgroundImageFix"/>
<feColorMatrix in="SourceAlpha" type="matrix" values="0 0 0 0 0 0 0 0 0 0 0 0 0 0 0 0 0 0 127 0"/>
<feOffset dy="4"/>
<feGaussianBlur stdDeviation="4"/>
<feColorMatrix type="matrix" values="0 0 0 0 0.329412 0 0 0 0 0.431373 0 0 0 0 0.478431 0 0 0 0.24 0"/>
<feBlend mode="multiply" in2="BackgroundImageFix" result="effect1_dropShadow"/>
<feBlend mode="normal" in="SourceGraphic" in2="effect1_dropShadow" result="shape"/>
</filter>
<filter id="filter2_d" x="243.842" y="142.684" width="37.3158" height="30.2105" filterUnits="userSpaceOnUse" color-interpolation-filters="sRGB">
<feFlood flood-opacity="0" result="BackgroundImageFix"/>
<feColorMatrix in="SourceAlpha" type="matrix" values="0 0 0 0 0 0 0 0 0 0 0 0 0 0 0 0 0 0 127 0"/>
<feOffset dy="4"/>
<feGaussianBlur stdDeviation="4"/>
<feColorMatrix type="matrix" values="0 0 0 0 0.329412 0 0 0 0 0.431373 0 0 0 0 0.478431 0 0 0 0.24 0"/>
<feBlend mode="multiply" in2="BackgroundImageFix" result="effect1_dropShadow"/>
<feBlend mode="normal" in="SourceGraphic" in2="effect1_dropShadow" result="shape"/>
</filter>
<filter id="filter3_d" x="243.842" y="114.263" width="37.3158" height="30.2105" filterUnits="userSpaceOnUse" color-interpolation-filters="sRGB">
<feFlood flood-opacity="0" result="BackgroundImageFix"/>
<feColorMatrix in="SourceAlpha" type="matrix" values="0 0 0 0 0 0 0 0 0 0 0 0 0 0 0 0 0 0 127 0"/>
<feOffset dy="4"/>
<feGaussianBlur stdDeviation="4"/>
<feColorMatrix type="matrix" values="0 0 0 0 0.329412 0 0 0 0 0.431373 0 0 0 0 0.478431 0 0 0 0.24 0"/>
<feBlend mode="multiply" in2="BackgroundImageFix" result="effect1_dropShadow"/>
<feBlend mode="normal" in="SourceGraphic" in2="effect1_dropShadow" result="shape"/>
</filter>
<filter id="filter4_d" x="243.842" y="85.8421" width="37.3158" height="30.2105" filterUnits="userSpaceOnUse" color-interpolation-filters="sRGB">
<feFlood flood-opacity="0" result="BackgroundImageFix"/>
<feColorMatrix in="SourceAlpha" type="matrix" values="0 0 0 0 0 0 0 0 0 0 0 0 0 0 0 0 0 0 127 0"/>
<feOffset dy="4"/>
<feGaussianBlur stdDeviation="4"/>
<feColorMatrix type="matrix" values="0 0 0 0 0.329412 0 0 0 0 0.431373 0 0 0 0 0.478431 0 0 0 0.24 0"/>
<feBlend mode="multiply" in2="BackgroundImageFix" result="effect1_dropShadow"/>
<feBlend mode="normal" in="SourceGraphic" in2="effect1_dropShadow" result="shape"/>
</filter>
<filter id="filter5_d" x="243.842" y="57.4211" width="37.3158" height="30.2105" filterUnits="userSpaceOnUse" color-interpolation-filters="sRGB">
<feFlood flood-opacity="0" result="BackgroundImageFix"/>
<feColorMatrix in="SourceAlpha" type="matrix" values="0 0 0 0 0 0 0 0 0 0 0 0 0 0 0 0 0 0 127 0"/>
<feOffset dy="4"/>
<feGaussianBlur stdDeviation="4"/>
<feColorMatrix type="matrix" values="0 0 0 0 0.329412 0 0 0 0 0.431373 0 0 0 0 0.478431 0 0 0 0.24 0"/>
<feBlend mode="multiply" in2="BackgroundImageFix" result="effect1_dropShadow"/>
<feBlend mode="normal" in="SourceGraphic" in2="effect1_dropShadow" result="shape"/>
</filter>
<filter id="filter6_d" x="243.842" y="29" width="37.3158" height="30.2105" filterUnits="userSpaceOnUse" color-interpolation-filters="sRGB">
<feFlood flood-opacity="0" result="BackgroundImageFix"/>
<feColorMatrix in="SourceAlpha" type="matrix" values="0 0 0 0 0 0 0 0 0 0 0 0 0 0 0 0 0 0 127 0"/>
<feOffset dy="4"/>
<feGaussianBlur stdDeviation="4"/>
<feColorMatrix type="matrix" values="0 0 0 0 0.329412 0 0 0 0 0.431373 0 0 0 0 0.478431 0 0 0 0.24 0"/>
<feBlend mode="multiply" in2="BackgroundImageFix" result="effect1_dropShadow"/>
<feBlend mode="normal" in="SourceGraphic" in2="effect1_dropShadow" result="shape"/>
</filter>
<filter id="filter7_d" x="416.145" y="120.48" width="37.3158" height="37.3158" filterUnits="userSpaceOnUse" color-interpolation-filters="sRGB">
<feFlood flood-opacity="0" result="BackgroundImageFix"/>
<feColorMatrix in="SourceAlpha" type="matrix" values="0 0 0 0 0 0 0 0 0 0 0 0 0 0 0 0 0 0 127 0"/>
<feOffset dy="4"/>
<feGaussianBlur stdDeviation="4"/>
<feColorMatrix type="matrix" values="0 0 0 0 0.486275 0 0 0 0 0.301961 0 0 0 0 1 0 0 0 0.16 0"/>
<feBlend mode="multiply" in2="BackgroundImageFix" result="effect1_dropShadow"/>
<feBlend mode="normal" in="SourceGraphic" in2="effect1_dropShadow" result="shape"/>
</filter>
<filter id="filter8_d" x="441.013" y="221.73" width="37.3158" height="37.3158" filterUnits="userSpaceOnUse" color-interpolation-filters="sRGB">
<feFlood flood-opacity="0" result="BackgroundImageFix"/>
<feColorMatrix in="SourceAlpha" type="matrix" values="0 0 0 0 0 0 0 0 0 0 0 0 0 0 0 0 0 0 127 0"/>
<feOffset dy="4"/>
<feGaussianBlur stdDeviation="4"/>
<feColorMatrix type="matrix" values="0 0 0 0 0.486275 0 0 0 0 0.301961 0 0 0 0 1 0 0 0 0.16 0"/>
<feBlend mode="multiply" in2="BackgroundImageFix" result="effect1_dropShadow"/>
<feBlend mode="normal" in="SourceGraphic" in2="effect1_dropShadow" result="shape"/>
</filter>
<filter id="filter9_d" x="46.6709" y="221.73" width="37.3158" height="37.3158" filterUnits="userSpaceOnUse" color-interpolation-filters="sRGB">
<feFlood flood-opacity="0" result="BackgroundImageFix"/>
<feColorMatrix in="SourceAlpha" type="matrix" values="0 0 0 0 0 0 0 0 0 0 0 0 0 0 0 0 0 0 127 0"/>
<feOffset dy="4"/>
<feGaussianBlur stdDeviation="4"/>
<feColorMatrix type="matrix" values="0 0 0 0 0.486275 0 0 0 0 0.301961 0 0 0 0 1 0 0 0 0.16 0"/>
<feBlend mode="multiply" in2="BackgroundImageFix" result="effect1_dropShadow"/>
<feBlend mode="normal" in="SourceGraphic" in2="effect1_dropShadow" result="shape"/>
</filter>
<filter id="filter10_d" x="416.145" y="322.98" width="37.3158" height="37.3158" filterUnits="userSpaceOnUse" color-interpolation-filters="sRGB">
<feFlood flood-opacity="0" result="BackgroundImageFix"/>
<feColorMatrix in="SourceAlpha" type="matrix" values="0 0 0 0 0 0 0 0 0 0 0 0 0 0 0 0 0 0 127 0"/>
<feOffset dy="4"/>
<feGaussianBlur stdDeviation="4"/>
<feColorMatrix type="matrix" values="0 0 0 0 0.486275 0 0 0 0 0.301961 0 0 0 0 1 0 0 0 0.16 0"/>
<feBlend mode="multiply" in2="BackgroundImageFix" result="effect1_dropShadow"/>
<feBlend mode="normal" in="SourceGraphic" in2="effect1_dropShadow" result="shape"/>
</filter>
<filter id="filter11_d" x="71.5396" y="322.98" width="37.3158" height="37.3158" filterUnits="userSpaceOnUse" color-interpolation-filters="sRGB">
<feFlood flood-opacity="0" result="BackgroundImageFix"/>
<feColorMatrix in="SourceAlpha" type="matrix" values="0 0 0 0 0 0 0 0 0 0 0 0 0 0 0 0 0 0 127 0"/>
<feOffset dy="4"/>
<feGaussianBlur stdDeviation="4"/>
<feColorMatrix type="matrix" values="0 0 0 0 0.486275 0 0 0 0 0.301961 0 0 0 0 1 0 0 0 0.16 0"/>
<feBlend mode="multiply" in2="BackgroundImageFix" result="effect1_dropShadow"/>
<feBlend mode="normal" in="SourceGraphic" in2="effect1_dropShadow" result="shape"/>
</filter>
<filter id="filter12_d" x="71.5396" y="120.48" width="37.3158" height="37.3158" filterUnits="userSpaceOnUse" color-interpolation-filters="sRGB">
<feFlood flood-opacity="0" result="BackgroundImageFix"/>
<feColorMatrix in="SourceAlpha" type="matrix" values="0 0 0 0 0 0 0 0 0 0 0 0 0 0 0 0 0 0 127 0"/>
<feOffset dy="4"/>
<feGaussianBlur stdDeviation="4"/>
<feColorMatrix type="matrix" values="0 0 0 0 0.486275 0 0 0 0 0.301961 0 0 0 0 1 0 0 0 0.16 0"/>
<feBlend mode="multiply" in2="BackgroundImageFix" result="effect1_dropShadow"/>
<feBlend mode="normal" in="SourceGraphic" in2="effect1_dropShadow" result="shape"/>
</filter>
<filter id="filter13_d" x="345.092" y="49.4276" width="37.3158" height="37.3158" filterUnits="userSpaceOnUse" color-interpolation-filters="sRGB">
<feFlood flood-opacity="0" result="BackgroundImageFix"/>
<feColorMatrix in="SourceAlpha" type="matrix" values="0 0 0 0 0 0 0 0 0 0 0 0 0 0 0 0 0 0 127 0"/>
<feOffset dy="4"/>
<feGaussianBlur stdDeviation="4"/>
<feColorMatrix type="matrix" values="0 0 0 0 0.486275 0 0 0 0 0.301961 0 0 0 0 1 0 0 0 0.16 0"/>
<feBlend mode="multiply" in2="BackgroundImageFix" result="effect1_dropShadow"/>
<feBlend mode="normal" in="SourceGraphic" in2="effect1_dropShadow" result="shape"/>
</filter>
<filter id="filter14_d" x="142.592" y="49.4276" width="37.3158" height="37.3158" filterUnits="userSpaceOnUse" color-interpolation-filters="sRGB">
<feFlood flood-opacity="0" result="BackgroundImageFix"/>
<feColorMatrix in="SourceAlpha" type="matrix" values="0 0 0 0 0 0 0 0 0 0 0 0 0 0 0 0 0 0 127 0"/>
<feOffset dy="4"/>
<feGaussianBlur stdDeviation="4"/>
<feColorMatrix type="matrix" values="0 0 0 0 0.486275 0 0 0 0 0.301961 0 0 0 0 1 0 0 0 0.16 0"/>
<feBlend mode="multiply" in2="BackgroundImageFix" result="effect1_dropShadow"/>
<feBlend mode="normal" in="SourceGraphic" in2="effect1_dropShadow" result="shape"/>
</filter>
<filter id="filter15_d" x="345.092" y="394.033" width="37.3158" height="37.3158" filterUnits="userSpaceOnUse" color-interpolation-filters="sRGB">
<feFlood flood-opacity="0" result="BackgroundImageFix"/>
<feColorMatrix in="SourceAlpha" type="matrix" values="0 0 0 0 0 0 0 0 0 0 0 0 0 0 0 0 0 0 127 0"/>
<feOffset dy="4"/>
<feGaussianBlur stdDeviation="4"/>
<feColorMatrix type="matrix" values="0 0 0 0 0.486275 0 0 0 0 0.301961 0 0 0 0 1 0 0 0 0.16 0"/>
<feBlend mode="multiply" in2="BackgroundImageFix" result="effect1_dropShadow"/>
<feBlend mode="normal" in="SourceGraphic" in2="effect1_dropShadow" result="shape"/>
</filter>
<filter id="filter16_d" x="142.592" y="394.033" width="37.3158" height="37.3158" filterUnits="userSpaceOnUse" color-interpolation-filters="sRGB">
<feFlood flood-opacity="0" result="BackgroundImageFix"/>
<feColorMatrix in="SourceAlpha" type="matrix" values="0 0 0 0 0 0 0 0 0 0 0 0 0 0 0 0 0 0 127 0"/>
<feOffset dy="4"/>
<feGaussianBlur stdDeviation="4"/>
<feColorMatrix type="matrix" values="0 0 0 0 0.486275 0 0 0 0 0.301961 0 0 0 0 1 0 0 0 0.16 0"/>
<feBlend mode="multiply" in2="BackgroundImageFix" result="effect1_dropShadow"/>
<feBlend mode="normal" in="SourceGraphic" in2="effect1_dropShadow" result="shape"/>
</filter>
<filter id="filter17_d" x="243.842" y="418.013" width="37.3158" height="37.3158" filterUnits="userSpaceOnUse" color-interpolation-filters="sRGB">
<feFlood flood-opacity="0" result="BackgroundImageFix"/>
<feColorMatrix in="SourceAlpha" type="matrix" values="0 0 0 0 0 0 0 0 0 0 0 0 0 0 0 0 0 0 127 0"/>
<feOffset dy="4"/>
<feGaussianBlur stdDeviation="4"/>
<feColorMatrix type="matrix" values="0 0 0 0 0.486275 0 0 0 0 0.301961 0 0 0 0 1 0 0 0 0.16 0"/>
<feBlend mode="multiply" in2="BackgroundImageFix" result="effect1_dropShadow"/>
<feBlend mode="normal" in="SourceGraphic" in2="effect1_dropShadow" result="shape"/>
</filter>
</defs>
</svg>
