<svg width="611" height="243" viewBox="0 0 611 243" fill="none" xmlns="http://www.w3.org/2000/svg">
<mask id="mask0" mask-type="alpha" maskUnits="userSpaceOnUse" x="0" y="0" width="611" height="243">
<rect width="611" height="243" fill="white"/>
</mask>
<g mask="url(#mask0)">
<g clip-path="url(#clip0)">
<g opacity="0.4">
<g opacity="0.8">
<rect width="48" height="98" rx="2" transform="matrix(1 0 0 -1 36.5898 235.458)" fill="#9BE5CB"/>
</g>
</g>
<g opacity="0.4">
<g opacity="0.8">
<rect x="92.521" y="38.0849" width="48" height="177" rx="2" fill="#9BE5CB"/>
</g>
</g>
<g opacity="0.4">
<g opacity="0.8">
<rect x="148.59" y="49.7108" width="48" height="166" rx="2" fill="#9BE5CB"/>
</g>
</g>
<g opacity="0.4">
<g opacity="0.8">
<rect x="204.59" y="68.9513" width="48" height="147" rx="2" fill="#9BE5CB"/>
</g>
</g>
<g opacity="0.4">
<g opacity="0.8">
<rect width="48" height="128" rx="2" transform="matrix(1 0 0 -1 260.59 266.217)" fill="#9BE5CB"/>
</g>
</g>
<g opacity="0.4">
<g opacity="0.8">
<rect x="316.59" y="126.913" width="48" height="179" rx="2" fill="#9BE5CB"/>
</g>
</g>
<g opacity="0.4">
<g opacity="0.8">
<rect x="372.59" y="107.761" width="48" height="108" rx="2" fill="#9BE5CB"/>
</g>
</g>
<g opacity="0.4">
<g opacity="0.8">
<rect x="429" y="37" width="48" height="179" rx="2" fill="#9BE5CB"/>
</g>
</g>
<g opacity="0.4">
<g opacity="0.8">
<rect x="485" y="38" width="48" height="178" rx="2" fill="#9BE5CB"/>
</g>
</g>
<g opacity="0.4">
<g opacity="0.8">
<rect x="540.59" y="113.28" width="48" height="103" rx="2" fill="#9BE5CB"/>
</g>
</g>
<g opacity="0.4">
<g opacity="0.8">
<rect width="48" height="146" rx="2" transform="matrix(1 0 0 -1 596.59 283.647)" fill="#9BE5CB"/>
</g>
</g>
<g opacity="0.8">
<rect x="36.5898" y="174.103" width="48" height="44" rx="2" fill="#06BF7F"/>
</g>
<g opacity="0.8">
<rect x="92.5898" y="138.042" width="48" height="80" rx="2" fill="#06BF7F"/>
</g>
<g opacity="0.8">
<rect x="148.59" y="98.6211" width="48" height="119" rx="2" fill="#06BF7F"/>
</g>
<g opacity="0.8">
<rect x="204.59" y="123.336" width="48" height="95" rx="2" fill="#06BF7F"/>
</g>
<g opacity="0.8">
<rect x="260.59" y="173.062" width="48" height="45" rx="2" fill="#06BF7F"/>
</g>
<g opacity="0.8">
<rect x="316.59" y="177.103" width="48" height="41" rx="2" fill="#06BF7F"/>
</g>
<g opacity="0.8">
<rect x="372.59" y="156.198" width="48" height="62" rx="2" fill="#06BF7F"/>
</g>
<g opacity="0.8">
<rect x="428.59" y="119.975" width="48" height="98" rx="2" fill="#06BF7F"/>
</g>
<g opacity="0.8">
<rect x="484.59" y="82.0529" width="48" height="136" rx="2" fill="#06BF7F"/>
</g>
<g opacity="0.8">
<rect x="540.59" y="143.756" width="48" height="74" rx="2" fill="#06BF7F"/>
</g>
<g opacity="0.8">
<rect x="596.59" y="162.038" width="48" height="56" rx="2" fill="#06BF7F"/>
</g>
<rect x="36.5898" y="198.204" width="48" height="20" rx="2" fill="#263238"/>
<rect x="92.5898" y="207.204" width="48" height="11" rx="2" fill="#263238"/>
<rect x="148.59" y="176.204" width="48" height="42" rx="2" fill="#263238"/>
<rect x="204.59" y="186.204" width="48" height="32" rx="2" fill="#263238"/>
<rect x="260.59" y="214.204" width="48" height="4" rx="2" fill="#263238"/>
<rect x="316.59" y="195.204" width="48" height="23" rx="2" fill="#263238"/>
<rect x="372.59" y="210.204" width="48" height="8" rx="2" fill="#263238"/>
<rect x="428.59" y="205.204" width="48" height="13" rx="2" fill="#263238"/>
<rect x="484.59" y="162.204" width="48" height="56" rx="2" fill="#263238"/>
<rect x="540.59" y="186.204" width="48" height="32" rx="2" fill="#263238"/>
<rect x="596.59" y="176.204" width="48" height="42" rx="2" fill="#263238"/>
</g>
<g clip-path="url(#clip1)">
<path d="M441.7 237.594H442.78L443.62 235.434H446.75L447.61 237.594H448.72L445.87 230.444H444.6C443.64 232.834 442.66 235.214 441.7 237.594ZM445.19 231.404H445.21C445.3 231.674 445.47 232.084 445.63 232.514C446.18 233.944 446.18 233.974 446.41 234.564H443.96C444.38 233.494 444.77 232.444 445.19 231.404ZM450.563 230.444H449.513V234.814C449.513 235.684 449.593 236.214 449.993 236.784C450.413 237.384 451.243 237.714 452.143 237.714C453.043 237.714 453.883 237.374 454.323 236.764C454.693 236.254 454.793 235.644 454.793 234.814V230.444H453.743V234.784C453.743 235.384 453.703 235.804 453.523 236.154C453.293 236.594 452.753 236.864 452.143 236.864C451.533 236.864 451.013 236.594 450.783 236.154C450.593 235.794 450.563 235.384 450.563 234.784V230.444ZM459.308 233.814V234.724H461.918C461.828 235.744 461.148 236.874 459.598 236.874C458.118 236.874 457.168 235.754 457.168 234.024C457.168 232.234 458.148 231.194 459.618 231.194C460.848 231.194 461.448 231.834 461.768 232.584H462.858C462.478 231.284 461.428 230.304 459.628 230.304C457.438 230.304 456.028 231.884 456.028 234.034C456.028 236.294 457.508 237.754 459.508 237.754C460.798 237.754 461.538 237.154 461.908 236.694C461.898 237.074 461.898 237.454 461.898 237.564V237.594H462.858V233.814H459.308Z" fill="white" fill-opacity="0.6"/>
<path d="M499.951 235.564C500.041 236.934 501.061 237.734 502.661 237.734C504.211 237.734 505.291 236.874 505.291 235.564C505.291 234.364 504.461 233.914 503.211 233.534L502.711 233.384C501.931 233.154 501.301 232.904 501.301 232.174C501.301 231.574 501.791 231.164 502.621 231.164C503.481 231.164 503.941 231.584 504.061 232.294H505.141C505.011 231.074 504.171 230.294 502.651 230.294C501.171 230.294 500.171 231.094 500.171 232.264C500.171 233.404 500.971 233.904 502.261 234.314L502.731 234.464C503.551 234.724 504.181 234.914 504.181 235.694C504.181 236.414 503.611 236.894 502.671 236.894C501.651 236.894 501.151 236.314 501.021 235.564H499.951ZM506.574 237.594H511.124V236.684H507.634V234.394H510.814V233.484H507.634V231.364H511.054V230.444H506.574V237.594ZM512.443 237.594H513.493V234.784H514.363C515.183 234.784 515.843 234.734 516.383 234.374C516.973 233.984 517.263 233.334 517.263 232.584C517.263 231.774 516.903 231.124 516.293 230.794C515.733 230.494 515.293 230.444 514.373 230.444H512.443V237.594ZM513.493 231.374L514.533 231.364C515.613 231.354 516.153 231.734 516.153 232.594C516.153 233.524 515.483 233.874 514.603 233.874H513.493V231.374Z" fill="white" fill-opacity="0.6"/>
<path d="M558.078 230.006C555.938 230.006 554.488 231.516 554.488 233.726C554.488 235.936 555.928 237.436 558.088 237.436C560.258 237.436 561.688 235.936 561.688 233.726C561.688 231.506 560.228 230.006 558.078 230.006ZM558.068 230.896C559.618 230.896 560.538 232.056 560.538 233.716C560.538 235.366 559.608 236.556 558.078 236.556C556.538 236.556 555.618 235.346 555.618 233.716C555.618 232.076 556.528 230.896 558.068 230.896ZM568.264 235.206C567.864 236.056 567.174 236.556 566.124 236.556C564.574 236.556 563.684 235.366 563.684 233.706C563.684 232.036 564.574 230.896 566.114 230.896C567.234 230.896 567.904 231.416 568.294 232.316H569.374C568.924 230.836 567.784 230.006 566.124 230.006C564.004 230.006 562.544 231.516 562.544 233.716C562.544 235.936 563.984 237.436 566.074 237.436C567.754 237.436 568.874 236.576 569.364 235.206H568.264ZM571.873 237.296H572.923V231.066H574.863V230.146H569.933V231.066H571.873V237.296Z" fill="white" fill-opacity="0.6"/>
<path d="M51.1572 235.864C51.1772 237.094 51.7972 237.734 53.0572 237.734C54.4872 237.734 54.9972 236.754 54.9972 235.474V230.444H53.9472V235.204C53.9472 236.144 53.8472 236.914 53.0172 236.914C52.3372 236.914 52.1672 236.404 52.1572 235.864H51.1572ZM55.7696 237.594H56.8496L57.6896 235.434H60.8196L61.6796 237.594H62.7896L59.9396 230.444H58.6696C57.7096 232.834 56.7296 235.214 55.7696 237.594ZM59.2596 231.404H59.2796C59.3696 231.674 59.5396 232.084 59.6996 232.514C60.2496 233.944 60.2496 233.974 60.4796 234.564H58.0296C58.4496 233.494 58.8396 232.444 59.2596 231.404ZM63.6522 237.594H64.6922V234.424C64.6922 233.794 64.6822 232.244 64.6822 231.854H64.6922C64.8022 232.054 65.2422 232.834 65.6722 233.574L68.0422 237.594H69.4022V230.444H68.3622V234.214C68.3622 234.904 68.3822 235.754 68.3822 236.164L68.3722 236.174L67.4822 234.624L65.0522 230.444H63.6522V237.594Z" fill="white" fill-opacity="0.6"/>
<path d="M108.48 237.594H109.54V234.394H112.62V233.474H109.54V231.364H112.86V230.444H108.48V237.594ZM114.174 237.594H118.724V236.684H115.234V234.394H118.414V233.484H115.234V231.364H118.654V230.444H114.174V237.594ZM120.043 237.594H122.313C123.683 237.594 125.133 237.224 125.133 235.554C125.133 234.494 124.453 234.014 123.783 233.824C124.313 233.624 124.833 233.164 124.833 232.194C124.833 230.924 123.903 230.444 122.183 230.444H120.043V237.594ZM121.083 234.364H122.353C123.383 234.364 124.043 234.654 124.043 235.534C124.043 236.404 123.373 236.714 122.563 236.714H121.083V234.364ZM121.083 231.334H121.903C122.963 231.334 123.703 231.444 123.703 232.394C123.703 233.214 123.203 233.504 122.243 233.504H121.083V231.334Z" fill="white" fill-opacity="0.6"/>
<path d="M162.434 237.594H163.444V233.804C163.444 232.814 163.434 231.984 163.424 231.404H163.434C163.564 231.884 163.694 232.414 163.924 233.104L165.434 237.594H166.544L167.814 233.824C168.144 232.824 168.474 231.764 168.584 231.404H168.594C168.594 231.984 168.564 233.144 168.564 233.904V237.594H169.584V230.444H167.944L166.684 234.284L166.024 236.314H166.014C165.824 235.714 165.574 234.854 165.404 234.354L164.134 230.444H162.434V237.594ZM170.411 237.594H171.491L172.331 235.434H175.461L176.321 237.594H177.431L174.581 230.444H173.311C172.351 232.834 171.371 235.214 170.411 237.594ZM173.901 231.404H173.921C174.011 231.674 174.181 232.084 174.341 232.514C174.891 233.944 174.891 233.974 175.121 234.564H172.671C173.091 233.494 173.481 232.444 173.901 231.404ZM178.294 237.594H179.344V234.724H180.364C180.874 235.594 181.494 236.654 182.024 237.594H183.284C182.464 236.214 181.964 235.394 181.454 234.564C182.364 234.374 183.184 233.794 183.184 232.534C183.184 231.804 182.884 231.224 182.334 230.854C181.824 230.514 181.164 230.444 180.454 230.444H178.294V237.594ZM179.344 231.374C179.684 231.364 180.044 231.364 180.444 231.364C181.434 231.364 182.044 231.674 182.044 232.574C182.044 233.454 181.434 233.814 180.444 233.814H179.344V231.374Z" fill="white" fill-opacity="0.6"/>
<path d="M218.96 237.594H220.04L220.88 235.434H224.01L224.87 237.594H225.98L223.13 230.444H221.86C220.9 232.834 219.92 235.214 218.96 237.594ZM222.45 231.404H222.47C222.56 231.674 222.73 232.084 222.89 232.514C223.44 233.944 223.44 233.974 223.67 234.564H221.22C221.64 233.494 222.03 232.444 222.45 231.404ZM226.843 237.594H227.893V234.784H228.763C229.583 234.784 230.243 234.734 230.783 234.374C231.373 233.984 231.663 233.334 231.663 232.584C231.663 231.774 231.303 231.124 230.693 230.794C230.133 230.494 229.693 230.444 228.773 230.444H226.843V237.594ZM227.893 231.374L228.933 231.364C230.013 231.354 230.553 231.734 230.553 232.594C230.553 233.524 229.883 233.874 229.003 233.874H227.893V231.374ZM232.858 237.594H233.908V234.724H234.928C235.438 235.594 236.058 236.654 236.588 237.594H237.848C237.028 236.214 236.528 235.394 236.018 234.564C236.928 234.374 237.748 233.794 237.748 232.534C237.748 231.804 237.448 231.224 236.898 230.854C236.388 230.514 235.728 230.444 235.018 230.444H232.858V237.594ZM233.908 231.374C234.248 231.364 234.608 231.364 235.008 231.364C235.998 231.364 236.608 231.674 236.608 232.574C236.608 233.454 235.998 233.814 235.008 233.814H233.908V231.374Z" fill="white" fill-opacity="0.6"/>
<path d="M274.561 237.594H275.571V233.804C275.571 232.814 275.561 231.984 275.551 231.404H275.561C275.691 231.884 275.821 232.414 276.051 233.104L277.561 237.594H278.671L279.941 233.824C280.271 232.824 280.601 231.764 280.711 231.404H280.721C280.721 231.984 280.691 233.144 280.691 233.904V237.594H281.711V230.444H280.071L278.811 234.284L278.151 236.314H278.141C277.951 235.714 277.701 234.854 277.531 234.354L276.261 230.444H274.561V237.594ZM282.538 237.594H283.618L284.458 235.434H287.588L288.448 237.594H289.558L286.708 230.444H285.438C284.478 232.834 283.498 235.214 282.538 237.594ZM286.028 231.404H286.048C286.138 231.674 286.308 232.084 286.468 232.514C287.018 233.944 287.018 233.974 287.248 234.564H284.798C285.218 233.494 285.608 232.444 286.028 231.404ZM291.991 237.594H293.031V234.824C293.841 233.354 294.661 231.914 295.461 230.444H294.341L292.561 233.824C291.751 232.304 291.261 231.344 290.791 230.444H289.601C290.391 231.914 291.191 233.354 291.991 234.824V237.594Z" fill="white" fill-opacity="0.6"/>
<path d="M331.201 235.864C331.221 237.094 331.841 237.734 333.101 237.734C334.531 237.734 335.041 236.754 335.041 235.474V230.444H333.991V235.204C333.991 236.144 333.891 236.914 333.061 236.914C332.381 236.914 332.211 236.404 332.201 235.864H331.201ZM337.704 230.444H336.654V234.814C336.654 235.684 336.734 236.214 337.134 236.784C337.554 237.384 338.384 237.714 339.284 237.714C340.184 237.714 341.024 237.374 341.464 236.764C341.834 236.254 341.934 235.644 341.934 234.814V230.444H340.884V234.784C340.884 235.384 340.844 235.804 340.664 236.154C340.434 236.594 339.894 236.864 339.284 236.864C338.674 236.864 338.154 236.594 337.924 236.154C337.734 235.794 337.704 235.384 337.704 234.784V230.444ZM343.608 237.594H344.648V234.424C344.648 233.794 344.638 232.244 344.638 231.854H344.648C344.758 232.054 345.198 232.834 345.628 233.574L347.998 237.594H349.358V230.444H348.318V234.214C348.318 234.904 348.338 235.754 348.338 236.164L348.328 236.174L347.438 234.624L345.008 230.444H343.608V237.594Z" fill="white" fill-opacity="0.6"/>
<path d="M388.275 235.864C388.295 237.094 388.915 237.734 390.175 237.734C391.605 237.734 392.115 236.754 392.115 235.474V230.444H391.065V235.204C391.065 236.144 390.965 236.914 390.135 236.914C389.455 236.914 389.285 236.404 389.275 235.864H388.275ZM394.778 230.444H393.728V234.814C393.728 235.684 393.808 236.214 394.208 236.784C394.628 237.384 395.458 237.714 396.358 237.714C397.258 237.714 398.098 237.374 398.538 236.764C398.908 236.254 399.008 235.644 399.008 234.814V230.444H397.958V234.784C397.958 235.384 397.918 235.804 397.738 236.154C397.508 236.594 396.968 236.864 396.358 236.864C395.748 236.864 395.228 236.594 394.998 236.154C394.808 235.794 394.778 235.384 394.778 234.784V230.444ZM400.683 237.594H404.883V236.684H401.743V230.444H400.683V237.594Z" fill="white" fill-opacity="0.6"/>
</g>
<path d="M13.9122 42.3881H14.9522V35.2381H14.0722C13.9622 36.0381 13.4322 36.3481 12.2022 36.3781V37.1381H13.0922C13.3722 37.1381 13.6322 37.1381 13.9122 37.1281C13.9022 37.3781 13.9122 37.6181 13.9122 37.8581V42.3881ZM19.205 42.3881H20.225V39.7481L21.035 40.7781C21.475 41.3381 21.995 41.9881 22.325 42.3881H23.675C22.865 41.4381 21.555 39.8581 21.265 39.4981L23.435 37.1381H22.185C21.835 37.5381 21.215 38.2881 20.765 38.8281L20.225 39.4681V35.2381H19.205V42.3881Z" fill="white" fill-opacity="0.6"/>
<path d="M6.38037 77.8047L7.38037 77.9647C7.55037 77.6247 7.92037 77.2647 8.60037 77.2647C9.45037 77.2647 9.95037 77.9447 9.95037 78.7747C9.95037 79.6847 9.45037 80.3247 8.56037 80.3247C7.62037 80.3247 7.30037 79.6647 7.22037 79.1147H6.11037C6.29037 80.4747 7.20037 81.2247 8.59037 81.2247C10.0804 81.2247 11.0704 80.1647 11.0704 78.7347C11.0704 77.3347 10.1704 76.3747 8.83037 76.3747C8.22037 76.3747 7.75037 76.5747 7.43037 76.8247L7.67037 74.8447H10.5704V73.9247H6.81037C6.66037 75.2247 6.52037 76.5147 6.38037 77.8047ZM14.5133 73.7847C12.4533 73.7847 11.9933 75.5947 11.9933 77.5147C11.9933 79.6347 12.5133 81.2247 14.5133 81.2247C16.5133 81.2247 17.0433 79.6347 17.0433 77.5147C17.0433 75.5947 16.5733 73.7847 14.5133 73.7847ZM14.5133 74.6347C15.6733 74.6347 15.9033 75.9447 15.9033 77.5147C15.9033 79.1947 15.6333 80.3847 14.5133 80.3847C13.4033 80.3847 13.1233 79.1947 13.1233 77.5147C13.1233 75.9547 13.3633 74.6347 14.5133 74.6347ZM20.6265 73.7847C18.5665 73.7847 18.1065 75.5947 18.1065 77.5147C18.1065 79.6347 18.6265 81.2247 20.6265 81.2247C22.6265 81.2247 23.1565 79.6347 23.1565 77.5147C23.1565 75.5947 22.6865 73.7847 20.6265 73.7847ZM20.6265 74.6347C21.7865 74.6347 22.0165 75.9447 22.0165 77.5147C22.0165 79.1947 21.7465 80.3847 20.6265 80.3847C19.5165 80.3847 19.2365 79.1947 19.2365 77.5147C19.2365 75.9547 19.4765 74.6347 20.6265 74.6347Z" fill="white" fill-opacity="0.6"/>
<path d="M11.3415 120.97V120.07H7.93146C8.17146 119.84 8.66146 119.46 8.94146 119.23L9.50146 118.76C10.4515 117.96 11.3115 117.02 11.3115 115.84C11.3115 114.59 10.4815 113.68 8.97146 113.68C7.46146 113.68 6.61146 114.67 6.59146 116.11H7.65146C7.68146 115.14 8.13146 114.62 8.97146 114.62C9.73146 114.62 10.1815 115.11 10.1815 115.84C10.1815 116.61 9.76146 117.23 8.85146 118.05L7.19146 119.55C6.88146 119.83 6.67146 120.04 6.67146 120.07V120.97H11.3415ZM12.4937 117.7L13.4937 117.86C13.6637 117.52 14.0337 117.16 14.7137 117.16C15.5637 117.16 16.0637 117.84 16.0637 118.67C16.0637 119.58 15.5637 120.22 14.6737 120.22C13.7337 120.22 13.4137 119.56 13.3337 119.01H12.2237C12.4037 120.37 13.3137 121.12 14.7037 121.12C16.1937 121.12 17.1837 120.06 17.1837 118.63C17.1837 117.23 16.2837 116.27 14.9437 116.27C14.3337 116.27 13.8637 116.47 13.5437 116.72L13.7837 114.74H16.6837V113.82H12.9237C12.7737 115.12 12.6337 116.41 12.4937 117.7ZM20.6265 113.68C18.5665 113.68 18.1065 115.49 18.1065 117.41C18.1065 119.53 18.6265 121.12 20.6265 121.12C22.6265 121.12 23.1565 119.53 23.1565 117.41C23.1565 115.49 22.6865 113.68 20.6265 113.68ZM20.6265 114.53C21.7865 114.53 22.0165 115.84 22.0165 117.41C22.0165 119.09 21.7465 120.28 20.6265 120.28C19.5165 120.28 19.2365 119.09 19.2365 117.41C19.2365 115.85 19.4765 114.53 20.6265 114.53Z" fill="white" fill-opacity="0.6"/>
<path d="M10.1915 159.657H11.2315V152.507H10.3515C10.2415 153.307 9.71154 153.617 8.48154 153.647V154.407H9.37154C9.65154 154.407 9.91154 154.407 10.1915 154.397C10.1815 154.647 10.1915 154.887 10.1915 155.127V159.657ZM17.4547 159.657V158.757H14.0447C14.2847 158.527 14.7747 158.147 15.0547 157.917L15.6147 157.447C16.5647 156.647 17.4247 155.707 17.4247 154.527C17.4247 153.277 16.5947 152.367 15.0847 152.367C13.5747 152.367 12.7247 153.357 12.7047 154.797H13.7647C13.7947 153.827 14.2447 153.307 15.0847 153.307C15.8447 153.307 16.2947 153.797 16.2947 154.527C16.2947 155.297 15.8747 155.917 14.9647 156.737L13.3047 158.237C12.9947 158.517 12.7847 158.727 12.7847 158.757V159.657H17.4547ZM18.6069 156.387L19.6069 156.547C19.7769 156.207 20.1469 155.847 20.8269 155.847C21.6769 155.847 22.1769 156.527 22.1769 157.357C22.1769 158.267 21.6769 158.907 20.7869 158.907C19.8469 158.907 19.5269 158.247 19.4469 157.697H18.3369C18.5169 159.057 19.4269 159.807 20.8169 159.807C22.3069 159.807 23.2969 158.747 23.2969 157.317C23.2969 155.917 22.3969 154.957 21.0569 154.957C20.4469 154.957 19.9769 155.157 19.6569 155.407L19.8969 153.427H22.7969V152.507H19.0369C18.8869 153.807 18.7469 155.097 18.6069 156.387Z" fill="white" fill-opacity="0.6"/>
<path d="M15.1155 199.552C15.7555 197.762 16.7155 195.572 17.5855 193.762L17.8255 193.262V192.402H13.3455V193.342H16.2055C16.4055 193.342 16.5755 193.342 16.7755 193.332C16.3255 194.182 15.8555 195.182 15.4655 196.052C14.9355 197.232 14.4155 198.352 13.9555 199.552H15.1155ZM18.6069 196.282L19.6069 196.442C19.7769 196.102 20.1469 195.742 20.8269 195.742C21.6769 195.742 22.1769 196.422 22.1769 197.252C22.1769 198.162 21.6769 198.802 20.7869 198.802C19.8469 198.802 19.5269 198.142 19.4469 197.592H18.3369C18.5169 198.952 19.4269 199.702 20.8169 199.702C22.3069 199.702 23.2969 198.642 23.2969 197.212C23.2969 195.812 22.3969 194.852 21.0569 194.852C20.4469 194.852 19.9769 195.052 19.6569 195.302L19.8969 193.322H22.7969V192.402H19.0369C18.8869 193.702 18.7469 194.992 18.6069 196.282Z" fill="white" fill-opacity="0.6"/>
</g>
<defs>
<clipPath id="clip0">
<rect x="36.5898" y="35.2045" width="574.41" height="182.823" fill="white"/>
</clipPath>
<clipPath id="clip1">
<rect x="36.5898" y="223.296" width="548.955" height="19.632" fill="white"/>
</clipPath>
</defs>
</svg>
