<svg width="462" height="524" viewBox="0 0 462 524" fill="none" xmlns="http://www.w3.org/2000/svg">
<path d="M37 151.5L231 263.5M231 263.5V40.5M231 263.5L425 151.5M231 263.5L425 376M231 263.5V485.5M231 263.5L37.5 376.5" stroke="#CFD8DC"/>
<path d="M203.787 248.289L231 232.577L258.213 248.289V279.711L231 295.423L203.787 279.711V248.289Z" stroke="#CFD8DC"/>
<path d="M176.074 232.289L231 200.577L285.926 232.289V295.711L231 327.423L176.074 295.711V232.289Z" stroke="#CFD8DC"/>
<path d="M148.362 216.289L231 168.577L313.638 216.289V311.711L231 359.423L148.362 311.711V216.289Z" stroke="#CFD8DC"/>
<path d="M120.649 200.289L231 136.577L341.351 200.289V327.711L231 391.423L120.649 327.711V200.289Z" stroke="#CFD8DC"/>
<path d="M92.9359 184.289L231 104.577L369.064 184.289V343.711L231 423.423L92.9359 343.711V184.289Z" stroke="#CFD8DC"/>
<path d="M65.2231 168.289L231 72.5774L396.777 168.289V359.711L231 455.423L65.2231 359.711V168.289Z" stroke="#CFD8DC"/>
<path d="M37.5103 152.289L231 40.5774L424.49 152.289V375.711L231 487.423L37.5103 375.711V152.289Z" stroke="#CFD8DC"/>
<g filter="url(#filter0_d)">
<rect x="219" y="227" width="24" height="16" rx="2" fill="white"/>
</g>
<path d="M228.858 234.475L229.244 230.891H233.062V231.916H230.23L230.035 233.615C230.363 233.426 230.734 233.332 231.148 233.332C231.825 233.332 232.351 233.549 232.725 233.981C233.103 234.414 233.291 234.997 233.291 235.729C233.291 236.452 233.083 237.028 232.666 237.458C232.25 237.884 231.678 238.098 230.953 238.098C230.301 238.098 229.761 237.914 229.331 237.546C228.905 237.175 228.674 236.687 228.638 236.081H229.786C229.831 236.426 229.955 236.691 230.157 236.877C230.358 237.059 230.622 237.15 230.948 237.15C231.312 237.15 231.595 237.02 231.797 236.76C232.002 236.499 232.105 236.145 232.105 235.695C232.105 235.262 231.993 234.921 231.768 234.67C231.543 234.416 231.234 234.289 230.84 234.289C230.625 234.289 230.443 234.318 230.293 234.377C230.144 234.432 229.981 234.543 229.805 234.709L228.858 234.475Z" fill="black"/>
<g filter="url(#filter1_d)">
<rect x="219" y="195" width="24" height="16" rx="2" fill="white"/>
</g>
<path d="M228.762 206H227.58V200.292L225.837 200.888V199.887L228.61 198.866H228.762V206ZM236.166 203.007C236.166 204.029 235.974 204.8 235.59 205.321C235.209 205.839 234.628 206.098 233.847 206.098C233.078 206.098 232.499 205.845 232.108 205.341C231.721 204.833 231.522 204.083 231.513 203.09V201.859C231.513 200.837 231.703 200.071 232.084 199.56C232.468 199.049 233.052 198.793 233.837 198.793C234.615 198.793 235.194 199.042 235.575 199.54C235.959 200.038 236.156 200.784 236.166 201.776V203.007ZM234.979 201.679C234.979 201.011 234.888 200.523 234.706 200.214C234.524 199.901 234.234 199.745 233.837 199.745C233.45 199.745 233.165 199.893 232.982 200.189C232.8 200.482 232.704 200.941 232.694 201.566V203.178C232.694 203.842 232.787 204.337 232.973 204.662C233.158 204.988 233.45 205.15 233.847 205.15C234.228 205.15 234.509 205.001 234.691 204.701C234.874 204.398 234.97 203.926 234.979 203.285V201.679Z" fill="black"/>
<g filter="url(#filter2_d)">
<rect x="219" y="163" width="24" height="16" rx="2" fill="white"/>
</g>
<path d="M228.762 174H227.58V168.292L225.837 168.888V167.887L228.61 166.866H228.762V174ZM231.85 170.475L232.235 166.891H236.054V167.916H233.222L233.026 169.615C233.355 169.426 233.726 169.332 234.14 169.332C234.817 169.332 235.342 169.549 235.717 169.981C236.094 170.414 236.283 170.997 236.283 171.729C236.283 172.452 236.075 173.028 235.658 173.458C235.242 173.884 234.67 174.098 233.944 174.098C233.293 174.098 232.753 173.914 232.323 173.546C231.897 173.175 231.666 172.687 231.63 172.081H232.777C232.823 172.426 232.947 172.691 233.148 172.877C233.35 173.059 233.614 173.15 233.939 173.15C234.304 173.15 234.587 173.02 234.789 172.76C234.994 172.499 235.097 172.145 235.097 171.695C235.097 171.262 234.984 170.921 234.76 170.67C234.535 170.416 234.226 170.289 233.832 170.289C233.617 170.289 233.435 170.318 233.285 170.377C233.135 170.432 232.973 170.543 232.797 170.709L231.85 170.475Z" fill="black"/>
<g filter="url(#filter3_d)">
<rect x="219" y="131" width="24" height="16" rx="2" fill="white"/>
</g>
<path d="M230.329 142H225.549V141.185L227.917 138.602C228.259 138.221 228.501 137.903 228.644 137.649C228.791 137.392 228.864 137.135 228.864 136.878C228.864 136.539 228.768 136.266 228.576 136.058C228.387 135.849 228.132 135.745 227.809 135.745C227.425 135.745 227.127 135.862 226.916 136.097C226.704 136.331 226.598 136.652 226.598 137.059H225.412C225.412 136.626 225.51 136.237 225.705 135.892C225.903 135.543 226.185 135.273 226.55 135.081C226.917 134.889 227.341 134.793 227.819 134.793C228.509 134.793 229.053 134.967 229.45 135.315C229.85 135.66 230.051 136.139 230.051 136.751C230.051 137.106 229.95 137.479 229.748 137.869C229.549 138.257 229.222 138.698 228.766 139.192L227.028 141.053H230.329V142ZM236.166 139.007C236.166 140.029 235.974 140.8 235.59 141.321C235.209 141.839 234.628 142.098 233.847 142.098C233.078 142.098 232.499 141.845 232.108 141.341C231.721 140.833 231.522 140.083 231.513 139.09V137.859C231.513 136.837 231.703 136.071 232.084 135.56C232.468 135.049 233.052 134.793 233.837 134.793C234.615 134.793 235.194 135.042 235.575 135.54C235.959 136.038 236.156 136.784 236.166 137.776V139.007ZM234.979 137.679C234.979 137.011 234.888 136.523 234.706 136.214C234.524 135.901 234.234 135.745 233.837 135.745C233.45 135.745 233.165 135.893 232.982 136.189C232.8 136.482 232.704 136.941 232.694 137.566V139.178C232.694 139.842 232.787 140.337 232.973 140.662C233.158 140.988 233.45 141.15 233.847 141.15C234.228 141.15 234.509 141.001 234.691 140.701C234.874 140.398 234.97 139.926 234.979 139.285V137.679Z" fill="black"/>
<g filter="url(#filter4_d)">
<rect x="219" y="99" width="24" height="16" rx="2" fill="white"/>
</g>
<path d="M230.329 110H225.549V109.185L227.917 106.602C228.259 106.221 228.501 105.903 228.644 105.649C228.791 105.392 228.864 105.135 228.864 104.878C228.864 104.539 228.768 104.266 228.576 104.058C228.387 103.849 228.132 103.745 227.809 103.745C227.425 103.745 227.127 103.862 226.916 104.097C226.704 104.331 226.598 104.652 226.598 105.059H225.412C225.412 104.626 225.51 104.237 225.705 103.892C225.903 103.543 226.185 103.273 226.55 103.081C226.917 102.889 227.341 102.793 227.819 102.793C228.509 102.793 229.053 102.967 229.45 103.315C229.85 103.66 230.051 104.139 230.051 104.751C230.051 105.106 229.95 105.479 229.748 105.869C229.549 106.257 229.222 106.698 228.766 107.192L227.028 109.053H230.329V110ZM231.85 106.475L232.235 102.891H236.054V103.916H233.222L233.026 105.615C233.355 105.426 233.726 105.332 234.14 105.332C234.817 105.332 235.342 105.549 235.717 105.981C236.094 106.414 236.283 106.997 236.283 107.729C236.283 108.452 236.075 109.028 235.658 109.458C235.242 109.884 234.67 110.098 233.944 110.098C233.293 110.098 232.753 109.914 232.323 109.546C231.897 109.175 231.666 108.687 231.63 108.081H232.777C232.823 108.426 232.947 108.691 233.148 108.877C233.35 109.059 233.614 109.15 233.939 109.15C234.304 109.15 234.587 109.02 234.789 108.76C234.994 108.499 235.097 108.145 235.097 107.695C235.097 107.262 234.984 106.921 234.76 106.67C234.535 106.416 234.226 106.289 233.832 106.289C233.617 106.289 233.435 106.318 233.285 106.377C233.135 106.432 232.973 106.543 232.797 106.709L231.85 106.475Z" fill="black"/>
<g filter="url(#filter5_d)">
<rect x="219" y="67" width="24" height="16" rx="2" fill="white"/>
</g>
<path d="M226.921 73.9033H227.643C228.008 73.9001 228.296 73.8057 228.508 73.6201C228.722 73.4346 228.83 73.166 228.83 72.8145C228.83 72.4759 228.74 72.2139 228.561 72.0283C228.386 71.8395 228.115 71.7451 227.751 71.7451C227.432 71.7451 227.17 71.8379 226.965 72.0234C226.76 72.2057 226.657 72.445 226.657 72.7412H225.471C225.471 72.3766 225.567 72.0446 225.759 71.7451C225.954 71.4456 226.224 71.2129 226.569 71.0469C226.917 70.8776 227.306 70.793 227.736 70.793C228.446 70.793 229.002 70.972 229.406 71.3301C229.813 71.6849 230.016 72.1797 230.016 72.8145C230.016 73.1335 229.914 73.4346 229.709 73.7178C229.507 73.9977 229.245 74.2093 228.923 74.3525C229.313 74.486 229.61 74.696 229.811 74.9824C230.016 75.2689 230.119 75.6107 230.119 76.0078C230.119 76.6458 229.899 77.1536 229.46 77.5312C229.024 77.9089 228.449 78.0977 227.736 78.0977C227.053 78.0977 226.493 77.9154 226.056 77.5508C225.62 77.1862 225.402 76.7012 225.402 76.0957H226.589C226.589 76.4082 226.693 76.6621 226.901 76.8574C227.113 77.0527 227.396 77.1504 227.751 77.1504C228.119 77.1504 228.408 77.0527 228.62 76.8574C228.832 76.6621 228.937 76.3789 228.937 76.0078C228.937 75.6335 228.827 75.3454 228.605 75.1436C228.384 74.9417 228.055 74.8408 227.619 74.8408H226.921V73.9033ZM236.166 75.0068C236.166 76.029 235.974 76.8005 235.59 77.3213C235.209 77.8389 234.628 78.0977 233.847 78.0977C233.078 78.0977 232.499 77.8454 232.108 77.3408C231.721 76.833 231.522 76.0827 231.513 75.0898V73.8594C231.513 72.8372 231.703 72.0706 232.084 71.5596C232.468 71.0485 233.052 70.793 233.837 70.793C234.615 70.793 235.194 71.042 235.575 71.54C235.959 72.0381 236.156 72.7835 236.166 73.7764V75.0068ZM234.979 73.6787C234.979 73.0114 234.888 72.5231 234.706 72.2139C234.524 71.9014 234.234 71.7451 233.837 71.7451C233.45 71.7451 233.165 71.8932 232.982 72.1895C232.8 72.4824 232.704 72.9414 232.694 73.5664V75.1777C232.694 75.8418 232.787 76.3366 232.973 76.6621C233.158 76.9876 233.45 77.1504 233.847 77.1504C234.228 77.1504 234.509 77.0007 234.691 76.7012C234.874 76.3984 234.97 75.9264 234.979 75.2852V73.6787Z" fill="black"/>
<g filter="url(#filter6_d)">
<rect x="219" y="35" width="24" height="16" rx="2" fill="white"/>
<rect x="219.5" y="35.5" width="23" height="15" rx="1.5" stroke="#78909C"/>
</g>
<path d="M226.921 41.9033H227.643C228.008 41.9001 228.296 41.8057 228.508 41.6201C228.722 41.4346 228.83 41.166 228.83 40.8145C228.83 40.4759 228.74 40.2139 228.561 40.0283C228.386 39.8395 228.115 39.7451 227.751 39.7451C227.432 39.7451 227.17 39.8379 226.965 40.0234C226.76 40.2057 226.657 40.445 226.657 40.7412H225.471C225.471 40.3766 225.567 40.0446 225.759 39.7451C225.954 39.4456 226.224 39.2129 226.569 39.0469C226.917 38.8776 227.306 38.793 227.736 38.793C228.446 38.793 229.002 38.972 229.406 39.3301C229.813 39.6849 230.016 40.1797 230.016 40.8145C230.016 41.1335 229.914 41.4346 229.709 41.7178C229.507 41.9977 229.245 42.2093 228.923 42.3525C229.313 42.486 229.61 42.696 229.811 42.9824C230.016 43.2689 230.119 43.6107 230.119 44.0078C230.119 44.6458 229.899 45.1536 229.46 45.5312C229.024 45.9089 228.449 46.0977 227.736 46.0977C227.053 46.0977 226.493 45.9154 226.056 45.5508C225.62 45.1862 225.402 44.7012 225.402 44.0957H226.589C226.589 44.4082 226.693 44.6621 226.901 44.8574C227.113 45.0527 227.396 45.1504 227.751 45.1504C228.119 45.1504 228.408 45.0527 228.62 44.8574C228.832 44.6621 228.937 44.3789 228.937 44.0078C228.937 43.6335 228.827 43.3454 228.605 43.1436C228.384 42.9417 228.055 42.8408 227.619 42.8408H226.921V41.9033ZM231.85 42.4746L232.235 38.8906H236.054V39.916H233.222L233.026 41.6152C233.355 41.4264 233.726 41.332 234.14 41.332C234.817 41.332 235.342 41.5485 235.717 41.9814C236.094 42.4144 236.283 42.9971 236.283 43.7295C236.283 44.4521 236.075 45.0283 235.658 45.458C235.242 45.8844 234.67 46.0977 233.944 46.0977C233.293 46.0977 232.753 45.9137 232.323 45.5459C231.897 45.1748 231.666 44.6865 231.63 44.0811H232.777C232.823 44.4261 232.947 44.6914 233.148 44.877C233.35 45.0592 233.614 45.1504 233.939 45.1504C234.304 45.1504 234.587 45.0202 234.789 44.7598C234.994 44.4993 235.097 44.1445 235.097 43.6953C235.097 43.2624 234.984 42.9206 234.76 42.6699C234.535 42.416 234.226 42.2891 233.832 42.2891C233.617 42.2891 233.435 42.3184 233.285 42.377C233.135 42.4323 232.973 42.543 232.797 42.709L231.85 42.4746Z" fill="black"/>
<g filter="url(#filter7_d)">
<rect x="419" y="144" width="12" height="12" rx="3" fill="#607D8B"/>
<rect x="420" y="145" width="10" height="10" rx="2" fill="white"/>
</g>
<g filter="url(#filter8_d)">
<rect x="419" y="372" width="12" height="12" rx="3" fill="#607D8B"/>
<rect x="420" y="373" width="10" height="10" rx="2" fill="white"/>
</g>
<g filter="url(#filter9_d)">
<rect x="31" y="372" width="12" height="12" rx="3" fill="#607D8B"/>
<rect x="32" y="373" width="10" height="10" rx="2" fill="white"/>
</g>
<g filter="url(#filter10_d)">
<rect x="31" y="144" width="12" height="12" rx="3" fill="#607D8B"/>
<rect x="32" y="145" width="10" height="10" rx="2" fill="white"/>
</g>
<g filter="url(#filter11_d)">
<rect x="225" y="479" width="12" height="12" rx="3" fill="#607D8B"/>
<rect x="226" y="480" width="10" height="10" rx="2" fill="white"/>
</g>
<path opacity="0.24" d="M391.5 356L396.5 168L231 212L107 190L70.5 357L231 350L391.5 356Z" fill="#39C86A"/>
<path d="M391.5 356L396.5 168L231 212L106.5 190.5L70.5 357L231 350L391.5 356Z" stroke="#39C86A" stroke-width="2"/>
<rect x="226.5" y="207.5" width="9" height="9" rx="4.5" fill="#39C86A" stroke="white"/>
<rect x="101.5" y="185.5" width="9" height="9" rx="4.5" fill="#39C86A" stroke="white"/>
<rect x="66.5" y="352.5" width="9" height="9" rx="4.5" fill="#39C86A" stroke="white"/>
<rect x="226.5" y="345.5" width="9" height="9" rx="4.5" fill="#39C86A" stroke="white"/>
<rect x="386.5" y="351.5" width="9" height="9" rx="4.5" fill="#39C86A" stroke="white"/>
<rect x="391.5" y="163.5" width="9" height="9" rx="4.5" fill="#39C86A" stroke="white"/>
<path opacity="0.24" d="M327 208L231 136L65.5 167.5L170.5 299H231L397 360L327 208Z" fill="#F5C324"/>
<path d="M327 208L231 136L65.5 167.5L170.5 299H231L397 360L327 208Z" stroke="#F5C324" stroke-width="2"/>
<rect x="226.5" y="131.5" width="9" height="9" rx="4.5" fill="#F5C324" stroke="white"/>
<rect x="61.5" y="163.5" width="9" height="9" rx="4.5" fill="#F5C324" stroke="white"/>
<rect x="166.5" y="294.5" width="9" height="9" rx="4.5" fill="#F5C324" stroke="white"/>
<rect x="226.5" y="294.5" width="9" height="9" rx="4.5" fill="#F5C324" stroke="white"/>
<g filter="url(#filter12_d)">
<rect x="390.5" y="353.5" width="13" height="13" rx="6.5" fill="#F5C324" stroke="white" stroke-width="5"/>
</g>
<rect x="322.5" y="203.5" width="9" height="9" rx="4.5" fill="#F5C324" stroke="white"/>
<path d="M220.55 523H213.097V521.961L217.034 517.586C217.617 516.924 218.018 516.388 218.237 515.977C218.461 515.56 218.573 515.13 218.573 514.688C218.573 514.094 218.393 513.607 218.034 513.227C217.675 512.846 217.196 512.656 216.597 512.656C215.878 512.656 215.318 512.862 214.917 513.273C214.521 513.68 214.323 514.247 214.323 514.977H212.878C212.878 513.93 213.214 513.083 213.886 512.438C214.563 511.792 215.466 511.469 216.597 511.469C217.654 511.469 218.49 511.747 219.104 512.305C219.719 512.857 220.026 513.594 220.026 514.516C220.026 515.635 219.313 516.969 217.886 518.516L214.839 521.82H220.55V523ZM229.654 518.148C229.654 519.841 229.365 521.099 228.787 521.922C228.208 522.745 227.305 523.156 226.076 523.156C224.862 523.156 223.964 522.755 223.38 521.953C222.797 521.146 222.495 519.943 222.474 518.344V516.414C222.474 514.742 222.763 513.5 223.341 512.688C223.919 511.875 224.826 511.469 226.06 511.469C227.284 511.469 228.185 511.862 228.763 512.648C229.341 513.43 229.638 514.638 229.654 516.273V518.148ZM228.208 516.172C228.208 514.948 228.037 514.057 227.693 513.5C227.349 512.938 226.805 512.656 226.06 512.656C225.32 512.656 224.781 512.935 224.443 513.492C224.104 514.049 223.93 514.906 223.919 516.062V518.375C223.919 519.604 224.096 520.513 224.451 521.102C224.81 521.685 225.352 521.977 226.076 521.977C226.789 521.977 227.318 521.701 227.662 521.148C228.011 520.596 228.193 519.727 228.208 518.539V516.172ZM236.695 523H235.242V513.367L232.328 514.438V513.125L236.469 511.57H236.695V523ZM242.034 517.297L242.612 511.625H248.44V512.961H243.838L243.495 516.062C244.052 515.734 244.685 515.57 245.393 515.57C246.43 515.57 247.253 515.914 247.862 516.602C248.471 517.284 248.776 518.208 248.776 519.375C248.776 520.547 248.458 521.471 247.823 522.148C247.193 522.82 246.31 523.156 245.174 523.156C244.169 523.156 243.349 522.878 242.713 522.32C242.078 521.763 241.716 520.992 241.628 520.008H242.995C243.083 520.659 243.315 521.151 243.69 521.484C244.065 521.812 244.56 521.977 245.174 521.977C245.846 521.977 246.372 521.747 246.753 521.289C247.138 520.831 247.331 520.198 247.331 519.391C247.331 518.63 247.122 518.021 246.706 517.562C246.294 517.099 245.745 516.867 245.057 516.867C244.427 516.867 243.932 517.005 243.573 517.281L243.19 517.594L242.034 517.297Z" fill="#607D8B"/>
<path d="M220.55 12H213.097V10.9609L217.034 6.58594C217.617 5.92448 218.018 5.38802 218.237 4.97656C218.461 4.5599 218.573 4.13021 218.573 3.6875C218.573 3.09375 218.393 2.60677 218.034 2.22656C217.675 1.84635 217.196 1.65625 216.597 1.65625C215.878 1.65625 215.318 1.86198 214.917 2.27344C214.521 2.67969 214.323 3.2474 214.323 3.97656H212.878C212.878 2.92969 213.214 2.08333 213.886 1.4375C214.563 0.791667 215.466 0.46875 216.597 0.46875C217.654 0.46875 218.49 0.747396 219.104 1.30469C219.719 1.85677 220.026 2.59375 220.026 3.51562C220.026 4.63542 219.313 5.96875 217.886 7.51562L214.839 10.8203H220.55V12ZM229.654 7.14844C229.654 8.84115 229.365 10.099 228.787 10.9219C228.208 11.7448 227.305 12.1562 226.076 12.1562C224.862 12.1562 223.964 11.7552 223.38 10.9531C222.797 10.1458 222.495 8.94271 222.474 7.34375V5.41406C222.474 3.74219 222.763 2.5 223.341 1.6875C223.919 0.875 224.826 0.46875 226.06 0.46875C227.284 0.46875 228.185 0.861979 228.763 1.64844C229.341 2.42969 229.638 3.63802 229.654 5.27344V7.14844ZM228.208 5.17188C228.208 3.94792 228.037 3.05729 227.693 2.5C227.349 1.9375 226.805 1.65625 226.06 1.65625C225.32 1.65625 224.781 1.9349 224.443 2.49219C224.104 3.04948 223.93 3.90625 223.919 5.0625V7.375C223.919 8.60417 224.096 9.51302 224.451 10.1016C224.81 10.6849 225.352 10.9766 226.076 10.9766C226.789 10.9766 227.318 10.7005 227.662 10.1484C228.011 9.59635 228.193 8.72656 228.208 7.53906V5.17188ZM236.695 12H235.242V2.36719L232.328 3.4375V2.125L236.469 0.570312H236.695V12ZM248.268 3.59375C248.268 4.16146 248.117 4.66667 247.815 5.10938C247.518 5.55208 247.114 5.89844 246.604 6.14844C247.198 6.40365 247.667 6.77604 248.01 7.26562C248.359 7.75521 248.534 8.3099 248.534 8.92969C248.534 9.91406 248.2 10.6979 247.534 11.2812C246.872 11.8646 246 12.1562 244.917 12.1562C243.823 12.1562 242.945 11.8646 242.284 11.2812C241.628 10.6927 241.299 9.90885 241.299 8.92969C241.299 8.3151 241.466 7.76042 241.799 7.26562C242.138 6.77083 242.604 6.39583 243.198 6.14062C242.693 5.89062 242.294 5.54427 242.003 5.10156C241.711 4.65885 241.565 4.15625 241.565 3.59375C241.565 2.63542 241.872 1.875 242.487 1.3125C243.101 0.75 243.911 0.46875 244.917 0.46875C245.917 0.46875 246.724 0.75 247.338 1.3125C247.958 1.875 248.268 2.63542 248.268 3.59375ZM247.088 8.89844C247.088 8.26302 246.885 7.74479 246.479 7.34375C246.078 6.94271 245.552 6.74219 244.901 6.74219C244.25 6.74219 243.726 6.9401 243.331 7.33594C242.94 7.73177 242.745 8.2526 242.745 8.89844C242.745 9.54427 242.935 10.0521 243.315 10.4219C243.7 10.7917 244.234 10.9766 244.917 10.9766C245.594 10.9766 246.125 10.7917 246.51 10.4219C246.896 10.0469 247.088 9.53906 247.088 8.89844ZM244.917 1.65625C244.349 1.65625 243.888 1.83333 243.534 2.1875C243.185 2.53646 243.01 3.01302 243.01 3.61719C243.01 4.19531 243.182 4.66406 243.526 5.02344C243.875 5.3776 244.338 5.55469 244.917 5.55469C245.495 5.55469 245.956 5.3776 246.299 5.02344C246.648 4.66406 246.823 4.19531 246.823 3.61719C246.823 3.03906 246.643 2.56771 246.284 2.20312C245.924 1.83854 245.469 1.65625 244.917 1.65625Z" fill="#607D8B"/>
<path d="M433.398 123H425.945V121.961L429.883 117.586C430.466 116.924 430.867 116.388 431.086 115.977C431.31 115.56 431.422 115.13 431.422 114.688C431.422 114.094 431.242 113.607 430.883 113.227C430.523 112.846 430.044 112.656 429.445 112.656C428.727 112.656 428.167 112.862 427.766 113.273C427.37 113.68 427.172 114.247 427.172 114.977H425.727C425.727 113.93 426.062 113.083 426.734 112.438C427.411 111.792 428.315 111.469 429.445 111.469C430.503 111.469 431.339 111.747 431.953 112.305C432.568 112.857 432.875 113.594 432.875 114.516C432.875 115.635 432.161 116.969 430.734 118.516L427.688 121.82H433.398V123ZM442.502 118.148C442.502 119.841 442.213 121.099 441.635 121.922C441.057 122.745 440.154 123.156 438.924 123.156C437.711 123.156 436.812 122.755 436.229 121.953C435.646 121.146 435.344 119.943 435.323 118.344V116.414C435.323 114.742 435.612 113.5 436.19 112.688C436.768 111.875 437.674 111.469 438.909 111.469C440.133 111.469 441.034 111.862 441.612 112.648C442.19 113.43 442.487 114.638 442.502 116.273V118.148ZM441.057 116.172C441.057 114.948 440.885 114.057 440.542 113.5C440.198 112.938 439.654 112.656 438.909 112.656C438.169 112.656 437.63 112.935 437.292 113.492C436.953 114.049 436.779 114.906 436.768 116.062V118.375C436.768 119.604 436.945 120.513 437.299 121.102C437.659 121.685 438.2 121.977 438.924 121.977C439.638 121.977 440.167 121.701 440.51 121.148C440.859 120.596 441.042 119.727 441.057 118.539V116.172ZM449.544 123H448.091V113.367L445.177 114.438V113.125L449.317 111.57H449.544V123ZM461.562 112.438L456.851 123H455.336L460.031 112.812H453.875V111.625H461.562V112.438Z" fill="#607D8B"/>
<path d="M7.70094 123H0.247814V121.961L4.18531 117.586C4.76865 116.924 5.16969 116.388 5.38844 115.977C5.6124 115.56 5.72438 115.13 5.72438 114.688C5.72438 114.094 5.54469 113.607 5.18531 113.227C4.82594 112.846 4.34677 112.656 3.74781 112.656C3.02906 112.656 2.46917 112.862 2.06813 113.273C1.67229 113.68 1.47438 114.247 1.47438 114.977H0.0290642C0.0290642 113.93 0.365002 113.083 1.03688 112.438C1.71396 111.792 2.61761 111.469 3.74781 111.469C4.80511 111.469 5.64104 111.747 6.25563 112.305C6.87021 112.857 7.1775 113.594 7.1775 114.516C7.1775 115.635 6.46396 116.969 5.03688 118.516L1.99 121.82H7.70094V123ZM16.805 118.148C16.805 119.841 16.5159 121.099 15.9378 121.922C15.3597 122.745 14.456 123.156 13.2269 123.156C12.0133 123.156 11.1149 122.755 10.5316 121.953C9.94823 121.146 9.64615 119.943 9.62531 118.344V116.414C9.62531 114.742 9.91438 113.5 10.4925 112.688C11.0706 111.875 11.9769 111.469 13.2113 111.469C14.4352 111.469 15.3363 111.862 15.9144 112.648C16.4925 113.43 16.7894 114.638 16.805 116.273V118.148ZM15.3597 116.172C15.3597 114.948 15.1878 114.057 14.8441 113.5C14.5003 112.938 13.956 112.656 13.2113 112.656C12.4717 112.656 11.9326 112.935 11.5941 113.492C11.2555 114.049 11.081 114.906 11.0706 116.062V118.375C11.0706 119.604 11.2477 120.513 11.6019 121.102C11.9613 121.685 12.5029 121.977 13.2269 121.977C13.9404 121.977 14.4691 121.701 14.8128 121.148C15.1618 120.596 15.3441 119.727 15.3597 118.539V116.172ZM23.8466 123H22.3934V113.367L19.4794 114.438V113.125L23.62 111.57H23.8466V123ZM30.6225 116.609H31.7084C32.3907 116.599 32.9272 116.419 33.3178 116.07C33.7084 115.721 33.9038 115.25 33.9038 114.656C33.9038 113.323 33.2397 112.656 31.9116 112.656C31.2866 112.656 30.7866 112.836 30.4116 113.195C30.0418 113.549 29.8569 114.021 29.8569 114.609H28.4116C28.4116 113.708 28.7397 112.961 29.3959 112.367C30.0574 111.768 30.8959 111.469 31.9116 111.469C32.9845 111.469 33.8256 111.753 34.435 112.32C35.0444 112.888 35.3491 113.677 35.3491 114.688C35.3491 115.182 35.1876 115.661 34.8647 116.125C34.547 116.589 34.1121 116.935 33.56 117.164C34.185 117.362 34.6668 117.69 35.0053 118.148C35.3491 118.607 35.5209 119.167 35.5209 119.828C35.5209 120.849 35.1876 121.659 34.5209 122.258C33.8543 122.857 32.9871 123.156 31.9194 123.156C30.8517 123.156 29.9819 122.867 29.31 122.289C28.6433 121.711 28.31 120.948 28.31 120H29.7631C29.7631 120.599 29.9584 121.078 30.3491 121.438C30.7397 121.797 31.2631 121.977 31.9194 121.977C32.6173 121.977 33.1511 121.794 33.5209 121.43C33.8907 121.065 34.0756 120.542 34.0756 119.859C34.0756 119.198 33.8725 118.69 33.4663 118.336C33.06 117.982 32.4741 117.799 31.7084 117.789H30.6225V116.609Z" fill="#607D8B"/>
<path d="M7.70094 416H0.247814V414.961L4.18531 410.586C4.76865 409.924 5.16969 409.388 5.38844 408.977C5.6124 408.56 5.72438 408.13 5.72438 407.688C5.72438 407.094 5.54469 406.607 5.18531 406.227C4.82594 405.846 4.34677 405.656 3.74781 405.656C3.02906 405.656 2.46917 405.862 2.06813 406.273C1.67229 406.68 1.47438 407.247 1.47438 407.977H0.0290642C0.0290642 406.93 0.365002 406.083 1.03688 405.438C1.71396 404.792 2.61761 404.469 3.74781 404.469C4.80511 404.469 5.64104 404.747 6.25563 405.305C6.87021 405.857 7.1775 406.594 7.1775 407.516C7.1775 408.635 6.46396 409.969 5.03688 411.516L1.99 414.82H7.70094V416ZM16.805 411.148C16.805 412.841 16.5159 414.099 15.9378 414.922C15.3597 415.745 14.456 416.156 13.2269 416.156C12.0133 416.156 11.1149 415.755 10.5316 414.953C9.94823 414.146 9.64615 412.943 9.62531 411.344V409.414C9.62531 407.742 9.91438 406.5 10.4925 405.688C11.0706 404.875 11.9769 404.469 13.2113 404.469C14.4352 404.469 15.3363 404.862 15.9144 405.648C16.4925 406.43 16.7894 407.638 16.805 409.273V411.148ZM15.3597 409.172C15.3597 407.948 15.1878 407.057 14.8441 406.5C14.5003 405.938 13.956 405.656 13.2113 405.656C12.4717 405.656 11.9326 405.935 11.5941 406.492C11.2555 407.049 11.081 407.906 11.0706 409.062V411.375C11.0706 412.604 11.2477 413.513 11.6019 414.102C11.9613 414.685 12.5029 414.977 13.2269 414.977C13.9404 414.977 14.4691 414.701 14.8128 414.148C15.1618 413.596 15.3441 412.727 15.3597 411.539V409.172ZM23.8466 416H22.3934V406.367L19.4794 407.438V406.125L23.62 404.57H23.8466V416ZM34.6225 412.18H36.2006V413.359H34.6225V416H33.1694V413.359H27.9897V412.508L33.0834 404.625H34.6225V412.18ZM29.6303 412.18H33.1694V406.602L32.9975 406.914L29.6303 412.18Z" fill="#607D8B"/>
<path d="M433.398 416H425.945V414.961L429.883 410.586C430.466 409.924 430.867 409.388 431.086 408.977C431.31 408.56 431.422 408.13 431.422 407.688C431.422 407.094 431.242 406.607 430.883 406.227C430.523 405.846 430.044 405.656 429.445 405.656C428.727 405.656 428.167 405.862 427.766 406.273C427.37 406.68 427.172 407.247 427.172 407.977H425.727C425.727 406.93 426.062 406.083 426.734 405.438C427.411 404.792 428.315 404.469 429.445 404.469C430.503 404.469 431.339 404.747 431.953 405.305C432.568 405.857 432.875 406.594 432.875 407.516C432.875 408.635 432.161 409.969 430.734 411.516L427.688 414.82H433.398V416ZM442.502 411.148C442.502 412.841 442.213 414.099 441.635 414.922C441.057 415.745 440.154 416.156 438.924 416.156C437.711 416.156 436.812 415.755 436.229 414.953C435.646 414.146 435.344 412.943 435.323 411.344V409.414C435.323 407.742 435.612 406.5 436.19 405.688C436.768 404.875 437.674 404.469 438.909 404.469C440.133 404.469 441.034 404.862 441.612 405.648C442.19 406.43 442.487 407.638 442.502 409.273V411.148ZM441.057 409.172C441.057 407.948 440.885 407.057 440.542 406.5C440.198 405.938 439.654 405.656 438.909 405.656C438.169 405.656 437.63 405.935 437.292 406.492C436.953 407.049 436.779 407.906 436.768 409.062V411.375C436.768 412.604 436.945 413.513 437.299 414.102C437.659 414.685 438.2 414.977 438.924 414.977C439.638 414.977 440.167 414.701 440.51 414.148C440.859 413.596 441.042 412.727 441.057 411.539V409.172ZM449.544 416H448.091V406.367L445.177 407.438V406.125L449.317 404.57H449.544V416ZM459.89 404.617V405.844H459.625C458.5 405.865 457.604 406.198 456.937 406.844C456.271 407.49 455.885 408.398 455.781 409.57C456.38 408.883 457.198 408.539 458.234 408.539C459.224 408.539 460.013 408.888 460.601 409.586C461.195 410.284 461.492 411.185 461.492 412.289C461.492 413.461 461.172 414.398 460.531 415.102C459.896 415.805 459.041 416.156 457.968 416.156C456.88 416.156 455.997 415.74 455.32 414.906C454.643 414.068 454.304 412.99 454.304 411.672V411.117C454.304 409.023 454.75 407.424 455.64 406.32C456.536 405.211 457.867 404.643 459.632 404.617H459.89ZM457.992 409.742C457.497 409.742 457.041 409.891 456.625 410.188C456.208 410.484 455.919 410.857 455.757 411.305V411.836C455.757 412.773 455.968 413.529 456.39 414.102C456.812 414.674 457.338 414.961 457.968 414.961C458.619 414.961 459.13 414.721 459.5 414.242C459.875 413.763 460.062 413.135 460.062 412.359C460.062 411.578 459.872 410.948 459.492 410.469C459.117 409.984 458.617 409.742 457.992 409.742Z" fill="#607D8B"/>
<g filter="url(#filter13_d)">
<rect x="397" y="337" width="8" height="8" rx="1" transform="rotate(45 397 337)" fill="white"/>
<rect x="363" y="303" width="68" height="40" rx="3" fill="white"/>
<path d="M371.732 322.449L372.504 315.281H380.141V317.332H374.477L374.086 320.73C374.743 320.353 375.486 320.164 376.312 320.164C377.667 320.164 378.718 320.597 379.467 321.463C380.222 322.329 380.6 323.494 380.6 324.959C380.6 326.404 380.183 327.557 379.35 328.416C378.516 329.269 377.374 329.695 375.922 329.695C374.62 329.695 373.539 329.327 372.68 328.592C371.827 327.85 371.365 326.873 371.293 325.662H373.588C373.679 326.352 373.926 326.883 374.33 327.254C374.734 327.618 375.261 327.801 375.912 327.801C376.641 327.801 377.208 327.54 377.611 327.02C378.021 326.499 378.227 325.789 378.227 324.891C378.227 324.025 378.002 323.341 377.553 322.84C377.104 322.332 376.485 322.078 375.697 322.078C375.268 322.078 374.903 322.137 374.604 322.254C374.304 322.365 373.979 322.586 373.627 322.918L371.732 322.449ZM392.175 329.5H382.615V327.869L387.351 322.703C388.035 321.941 388.52 321.307 388.806 320.799C389.099 320.285 389.246 319.77 389.246 319.256C389.246 318.579 389.054 318.032 388.67 317.615C388.292 317.199 387.781 316.99 387.136 316.99C386.368 316.99 385.772 317.225 385.349 317.693C384.926 318.162 384.714 318.803 384.714 319.617H382.341C382.341 318.751 382.537 317.973 382.927 317.283C383.324 316.587 383.888 316.046 384.617 315.662C385.352 315.278 386.199 315.086 387.156 315.086C388.536 315.086 389.623 315.434 390.418 316.131C391.218 316.821 391.619 317.778 391.619 319.002C391.619 319.712 391.417 320.457 391.013 321.238C390.616 322.013 389.962 322.895 389.05 323.885L385.574 327.605H392.175V329.5ZM394.62 332.703L393.341 331.941C393.719 331.349 393.976 330.831 394.112 330.389C394.256 329.952 394.331 329.507 394.337 329.051V327.205H396.476L396.466 328.914C396.46 329.604 396.284 330.294 395.939 330.984C395.6 331.681 395.161 332.254 394.62 332.703ZM406.059 315.213V317.176H405.766C404.438 317.195 403.377 317.56 402.583 318.27C401.789 318.979 401.317 319.985 401.167 321.287C401.929 320.486 402.902 320.086 404.087 320.086C405.343 320.086 406.333 320.529 407.055 321.414C407.785 322.299 408.149 323.442 408.149 324.842C408.149 326.287 407.723 327.459 406.87 328.357C406.024 329.249 404.91 329.695 403.53 329.695C402.111 329.695 400.958 329.171 400.073 328.123C399.194 327.075 398.755 325.701 398.755 324.002V323.191C398.755 320.698 399.36 318.745 400.571 317.332C401.789 315.919 403.537 315.213 405.815 315.213H406.059ZM403.511 322C402.99 322 402.511 322.146 402.075 322.439C401.645 322.732 401.33 323.123 401.128 323.611V324.334C401.128 325.389 401.349 326.229 401.792 326.854C402.235 327.472 402.807 327.781 403.511 327.781C404.214 327.781 404.77 327.518 405.18 326.99C405.591 326.463 405.796 325.77 405.796 324.91C405.796 324.051 405.587 323.351 405.171 322.811C404.754 322.27 404.201 322 403.511 322ZM410.096 318.016C410.096 317.156 410.373 316.453 410.926 315.906C411.48 315.353 412.205 315.076 413.104 315.076C414.015 315.076 414.745 315.353 415.291 315.906C415.845 316.453 416.121 317.173 416.121 318.064V318.768C416.121 319.62 415.845 320.32 415.291 320.867C414.745 321.414 414.022 321.688 413.123 321.688C412.245 321.688 411.519 321.421 410.946 320.887C410.379 320.346 410.096 319.62 410.096 318.709V318.016ZM411.756 318.768C411.756 319.217 411.88 319.581 412.127 319.861C412.381 320.135 412.713 320.271 413.123 320.271C413.527 320.271 413.853 320.135 414.1 319.861C414.347 319.581 414.471 319.204 414.471 318.729V318.016C414.471 317.566 414.344 317.202 414.09 316.922C413.843 316.642 413.514 316.502 413.104 316.502C412.694 316.502 412.365 316.645 412.118 316.932C411.877 317.212 411.756 317.583 411.756 318.045V318.768ZM416.932 326.014C416.932 325.141 417.215 324.435 417.782 323.895C418.348 323.354 419.071 323.084 419.95 323.084C420.835 323.084 421.558 323.354 422.118 323.895C422.684 324.435 422.967 325.164 422.967 326.082V326.775C422.967 327.622 422.694 328.322 422.147 328.875C421.607 329.422 420.881 329.695 419.969 329.695C419.058 329.695 418.322 329.425 417.762 328.885C417.209 328.338 416.932 327.618 416.932 326.727V326.014ZM418.592 326.775C418.592 327.218 418.719 327.583 418.973 327.869C419.233 328.149 419.565 328.289 419.969 328.289C420.386 328.289 420.711 328.156 420.946 327.889C421.187 327.615 421.307 327.234 421.307 326.746V326.014C421.307 325.558 421.18 325.193 420.926 324.92C420.672 324.646 420.347 324.51 419.95 324.51C419.546 324.51 419.217 324.646 418.963 324.92C418.716 325.193 418.592 325.571 418.592 326.053V326.775ZM413.612 328.436L412.391 327.732L419.334 316.619L420.555 317.322L413.612 328.436Z" fill="#607D8B"/>
</g>
<defs>
<filter id="filter0_d" x="211" y="223" width="40" height="32" filterUnits="userSpaceOnUse" color-interpolation-filters="sRGB">
<feFlood flood-opacity="0" result="BackgroundImageFix"/>
<feColorMatrix in="SourceAlpha" type="matrix" values="0 0 0 0 0 0 0 0 0 0 0 0 0 0 0 0 0 0 127 0"/>
<feOffset dy="4"/>
<feGaussianBlur stdDeviation="4"/>
<feColorMatrix type="matrix" values="0 0 0 0 0.329412 0 0 0 0 0.431373 0 0 0 0 0.478431 0 0 0 0.24 0"/>
<feBlend mode="multiply" in2="BackgroundImageFix" result="effect1_dropShadow"/>
<feBlend mode="normal" in="SourceGraphic" in2="effect1_dropShadow" result="shape"/>
</filter>
<filter id="filter1_d" x="211" y="191" width="40" height="32" filterUnits="userSpaceOnUse" color-interpolation-filters="sRGB">
<feFlood flood-opacity="0" result="BackgroundImageFix"/>
<feColorMatrix in="SourceAlpha" type="matrix" values="0 0 0 0 0 0 0 0 0 0 0 0 0 0 0 0 0 0 127 0"/>
<feOffset dy="4"/>
<feGaussianBlur stdDeviation="4"/>
<feColorMatrix type="matrix" values="0 0 0 0 0.329412 0 0 0 0 0.431373 0 0 0 0 0.478431 0 0 0 0.24 0"/>
<feBlend mode="multiply" in2="BackgroundImageFix" result="effect1_dropShadow"/>
<feBlend mode="normal" in="SourceGraphic" in2="effect1_dropShadow" result="shape"/>
</filter>
<filter id="filter2_d" x="211" y="159" width="40" height="32" filterUnits="userSpaceOnUse" color-interpolation-filters="sRGB">
<feFlood flood-opacity="0" result="BackgroundImageFix"/>
<feColorMatrix in="SourceAlpha" type="matrix" values="0 0 0 0 0 0 0 0 0 0 0 0 0 0 0 0 0 0 127 0"/>
<feOffset dy="4"/>
<feGaussianBlur stdDeviation="4"/>
<feColorMatrix type="matrix" values="0 0 0 0 0.329412 0 0 0 0 0.431373 0 0 0 0 0.478431 0 0 0 0.24 0"/>
<feBlend mode="multiply" in2="BackgroundImageFix" result="effect1_dropShadow"/>
<feBlend mode="normal" in="SourceGraphic" in2="effect1_dropShadow" result="shape"/>
</filter>
<filter id="filter3_d" x="211" y="127" width="40" height="32" filterUnits="userSpaceOnUse" color-interpolation-filters="sRGB">
<feFlood flood-opacity="0" result="BackgroundImageFix"/>
<feColorMatrix in="SourceAlpha" type="matrix" values="0 0 0 0 0 0 0 0 0 0 0 0 0 0 0 0 0 0 127 0"/>
<feOffset dy="4"/>
<feGaussianBlur stdDeviation="4"/>
<feColorMatrix type="matrix" values="0 0 0 0 0.329412 0 0 0 0 0.431373 0 0 0 0 0.478431 0 0 0 0.24 0"/>
<feBlend mode="multiply" in2="BackgroundImageFix" result="effect1_dropShadow"/>
<feBlend mode="normal" in="SourceGraphic" in2="effect1_dropShadow" result="shape"/>
</filter>
<filter id="filter4_d" x="211" y="95" width="40" height="32" filterUnits="userSpaceOnUse" color-interpolation-filters="sRGB">
<feFlood flood-opacity="0" result="BackgroundImageFix"/>
<feColorMatrix in="SourceAlpha" type="matrix" values="0 0 0 0 0 0 0 0 0 0 0 0 0 0 0 0 0 0 127 0"/>
<feOffset dy="4"/>
<feGaussianBlur stdDeviation="4"/>
<feColorMatrix type="matrix" values="0 0 0 0 0.329412 0 0 0 0 0.431373 0 0 0 0 0.478431 0 0 0 0.24 0"/>
<feBlend mode="multiply" in2="BackgroundImageFix" result="effect1_dropShadow"/>
<feBlend mode="normal" in="SourceGraphic" in2="effect1_dropShadow" result="shape"/>
</filter>
<filter id="filter5_d" x="211" y="63" width="40" height="32" filterUnits="userSpaceOnUse" color-interpolation-filters="sRGB">
<feFlood flood-opacity="0" result="BackgroundImageFix"/>
<feColorMatrix in="SourceAlpha" type="matrix" values="0 0 0 0 0 0 0 0 0 0 0 0 0 0 0 0 0 0 127 0"/>
<feOffset dy="4"/>
<feGaussianBlur stdDeviation="4"/>
<feColorMatrix type="matrix" values="0 0 0 0 0.329412 0 0 0 0 0.431373 0 0 0 0 0.478431 0 0 0 0.24 0"/>
<feBlend mode="multiply" in2="BackgroundImageFix" result="effect1_dropShadow"/>
<feBlend mode="normal" in="SourceGraphic" in2="effect1_dropShadow" result="shape"/>
</filter>
<filter id="filter6_d" x="211" y="31" width="40" height="32" filterUnits="userSpaceOnUse" color-interpolation-filters="sRGB">
<feFlood flood-opacity="0" result="BackgroundImageFix"/>
<feColorMatrix in="SourceAlpha" type="matrix" values="0 0 0 0 0 0 0 0 0 0 0 0 0 0 0 0 0 0 127 0"/>
<feOffset dy="4"/>
<feGaussianBlur stdDeviation="4"/>
<feColorMatrix type="matrix" values="0 0 0 0 0.329412 0 0 0 0 0.431373 0 0 0 0 0.478431 0 0 0 0.24 0"/>
<feBlend mode="multiply" in2="BackgroundImageFix" result="effect1_dropShadow"/>
<feBlend mode="normal" in="SourceGraphic" in2="effect1_dropShadow" result="shape"/>
</filter>
<filter id="filter7_d" x="405" y="134" width="40" height="40" filterUnits="userSpaceOnUse" color-interpolation-filters="sRGB">
<feFlood flood-opacity="0" result="BackgroundImageFix"/>
<feColorMatrix in="SourceAlpha" type="matrix" values="0 0 0 0 0 0 0 0 0 0 0 0 0 0 0 0 0 0 127 0"/>
<feOffset dy="4"/>
<feGaussianBlur stdDeviation="4"/>
<feColorMatrix type="matrix" values="0 0 0 0 0.486275 0 0 0 0 0.301961 0 0 0 0 1 0 0 0 0.16 0"/>
<feBlend mode="multiply" in2="BackgroundImageFix" result="effect1_dropShadow"/>
<feBlend mode="normal" in="SourceGraphic" in2="effect1_dropShadow" result="shape"/>
</filter>
<filter id="filter8_d" x="405" y="362" width="40" height="40" filterUnits="userSpaceOnUse" color-interpolation-filters="sRGB">
<feFlood flood-opacity="0" result="BackgroundImageFix"/>
<feColorMatrix in="SourceAlpha" type="matrix" values="0 0 0 0 0 0 0 0 0 0 0 0 0 0 0 0 0 0 127 0"/>
<feOffset dy="4"/>
<feGaussianBlur stdDeviation="4"/>
<feColorMatrix type="matrix" values="0 0 0 0 0.486275 0 0 0 0 0.301961 0 0 0 0 1 0 0 0 0.16 0"/>
<feBlend mode="multiply" in2="BackgroundImageFix" result="effect1_dropShadow"/>
<feBlend mode="normal" in="SourceGraphic" in2="effect1_dropShadow" result="shape"/>
</filter>
<filter id="filter9_d" x="17" y="362" width="40" height="40" filterUnits="userSpaceOnUse" color-interpolation-filters="sRGB">
<feFlood flood-opacity="0" result="BackgroundImageFix"/>
<feColorMatrix in="SourceAlpha" type="matrix" values="0 0 0 0 0 0 0 0 0 0 0 0 0 0 0 0 0 0 127 0"/>
<feOffset dy="4"/>
<feGaussianBlur stdDeviation="4"/>
<feColorMatrix type="matrix" values="0 0 0 0 0.486275 0 0 0 0 0.301961 0 0 0 0 1 0 0 0 0.16 0"/>
<feBlend mode="multiply" in2="BackgroundImageFix" result="effect1_dropShadow"/>
<feBlend mode="normal" in="SourceGraphic" in2="effect1_dropShadow" result="shape"/>
</filter>
<filter id="filter10_d" x="17" y="134" width="40" height="40" filterUnits="userSpaceOnUse" color-interpolation-filters="sRGB">
<feFlood flood-opacity="0" result="BackgroundImageFix"/>
<feColorMatrix in="SourceAlpha" type="matrix" values="0 0 0 0 0 0 0 0 0 0 0 0 0 0 0 0 0 0 127 0"/>
<feOffset dy="4"/>
<feGaussianBlur stdDeviation="4"/>
<feColorMatrix type="matrix" values="0 0 0 0 0.486275 0 0 0 0 0.301961 0 0 0 0 1 0 0 0 0.16 0"/>
<feBlend mode="multiply" in2="BackgroundImageFix" result="effect1_dropShadow"/>
<feBlend mode="normal" in="SourceGraphic" in2="effect1_dropShadow" result="shape"/>
</filter>
<filter id="filter11_d" x="211" y="469" width="40" height="40" filterUnits="userSpaceOnUse" color-interpolation-filters="sRGB">
<feFlood flood-opacity="0" result="BackgroundImageFix"/>
<feColorMatrix in="SourceAlpha" type="matrix" values="0 0 0 0 0 0 0 0 0 0 0 0 0 0 0 0 0 0 127 0"/>
<feOffset dy="4"/>
<feGaussianBlur stdDeviation="4"/>
<feColorMatrix type="matrix" values="0 0 0 0 0.486275 0 0 0 0 0.301961 0 0 0 0 1 0 0 0 0.16 0"/>
<feBlend mode="multiply" in2="BackgroundImageFix" result="effect1_dropShadow"/>
<feBlend mode="normal" in="SourceGraphic" in2="effect1_dropShadow" result="shape"/>
</filter>
<filter id="filter12_d" x="377" y="344" width="40" height="40" filterUnits="userSpaceOnUse" color-interpolation-filters="sRGB">
<feFlood flood-opacity="0" result="BackgroundImageFix"/>
<feColorMatrix in="SourceAlpha" type="matrix" values="0 0 0 0 0 0 0 0 0 0 0 0 0 0 0 0 0 0 127 0"/>
<feOffset dy="4"/>
<feGaussianBlur stdDeviation="4"/>
<feColorMatrix type="matrix" values="0 0 0 0 0.329412 0 0 0 0 0.431373 0 0 0 0 0.478431 0 0 0 0.24 0"/>
<feBlend mode="multiply" in2="BackgroundImageFix" result="effect1_dropShadow"/>
<feBlend mode="normal" in="SourceGraphic" in2="effect1_dropShadow" result="shape"/>
</filter>
<filter id="filter13_d" x="355" y="299" width="84" height="61.3137" filterUnits="userSpaceOnUse" color-interpolation-filters="sRGB">
<feFlood flood-opacity="0" result="BackgroundImageFix"/>
<feColorMatrix in="SourceAlpha" type="matrix" values="0 0 0 0 0 0 0 0 0 0 0 0 0 0 0 0 0 0 127 0"/>
<feOffset dy="4"/>
<feGaussianBlur stdDeviation="4"/>
<feColorMatrix type="matrix" values="0 0 0 0 0.329412 0 0 0 0 0.431373 0 0 0 0 0.478431 0 0 0 0.24 0"/>
<feBlend mode="multiply" in2="BackgroundImageFix" result="effect1_dropShadow"/>
<feBlend mode="normal" in="SourceGraphic" in2="effect1_dropShadow" result="shape"/>
</filter>
</defs>
</svg>
