<svg width="276" height="139" viewBox="0 0 276 139" fill="none" xmlns="http://www.w3.org/2000/svg">
<g opacity="0.16">
<rect y="66.9998" width="24" height="71" fill="#263238"/>
</g>
<path d="M5.01236 127.274C5.15636 128.942 6.18836 129.926 7.97636 129.926C9.80036 129.926 10.9884 128.834 10.9884 127.274C10.9884 126.086 10.3284 125.342 9.17636 125.054C10.0044 124.73 10.5444 124.118 10.5444 123.134C10.5444 121.85 9.54836 121.01 8.01236 121.01C6.40436 121.01 5.45636 121.946 5.42036 123.326H6.68036C6.74036 122.57 7.22036 122.126 7.97636 122.126C8.62436 122.126 9.20036 122.498 9.20036 123.302C9.20036 124.274 8.45636 124.61 7.44836 124.61V125.654H7.72436C8.78036 125.654 9.58436 126.098 9.58436 127.226C9.58436 128.114 8.98436 128.834 8.00036 128.834C7.01636 128.834 6.42836 128.258 6.33236 127.274H5.01236ZM17.805 129.758V128.678H13.713C14.001 128.402 14.589 127.946 14.925 127.67L15.597 127.106C16.737 126.146 17.769 125.018 17.769 123.602C17.769 122.102 16.773 121.01 14.961 121.01C13.149 121.01 12.129 122.198 12.105 123.926H13.377C13.413 122.762 13.953 122.138 14.961 122.138C15.873 122.138 16.413 122.726 16.413 123.602C16.413 124.526 15.909 125.27 14.817 126.254L12.825 128.054C12.453 128.39 12.201 128.642 12.201 128.678V129.758H17.805Z" fill="#323946"/>
<g opacity="0.16">
<rect x="28" width="24" height="138" fill="#263238"/>
</g>
<path d="M35.7464 130V128.92H31.6544C31.9424 128.644 32.5304 128.188 32.8664 127.912L33.5384 127.348C34.6784 126.388 35.7104 125.26 35.7104 123.844C35.7104 122.344 34.7144 121.252 32.9024 121.252C31.0904 121.252 30.0704 122.44 30.0464 124.168H31.3184C31.3544 123.004 31.8944 122.38 32.9024 122.38C33.8144 122.38 34.3544 122.968 34.3544 123.844C34.3544 124.768 33.8504 125.512 32.7584 126.496L30.7664 128.296C30.3944 128.632 30.1424 128.884 30.1424 128.92V130H35.7464ZM37.129 126.076L38.329 126.268C38.533 125.86 38.977 125.428 39.793 125.428C40.813 125.428 41.413 126.244 41.413 127.24C41.413 128.332 40.813 129.1 39.745 129.1C38.617 129.1 38.233 128.308 38.137 127.648H36.805C37.021 129.28 38.113 130.18 39.781 130.18C41.569 130.18 42.757 128.908 42.757 127.192C42.757 125.512 41.677 124.36 40.069 124.36C39.337 124.36 38.773 124.6 38.389 124.9L38.677 122.524H42.157V121.42H37.645C37.465 122.98 37.297 124.528 37.129 126.076ZM49.8285 123.628C49.6125 122.224 48.7365 121.252 47.0565 121.252C44.8725 121.252 43.8405 123.016 43.8405 126.064C43.8405 128.788 44.8725 130.168 46.9485 130.168C48.7125 130.168 49.9245 129.028 49.9245 127.252C49.9245 125.572 48.8445 124.468 47.2365 124.468C45.9645 124.468 45.3525 125.14 45.0885 125.548C45.1005 125.2 45.1245 124.864 45.1845 124.552C45.3885 123.22 46.0005 122.272 47.0445 122.272C48.0765 122.272 48.3765 123.028 48.4845 123.628H49.8285ZM46.8765 125.464C47.9565 125.464 48.5685 126.244 48.5685 127.336C48.5685 128.404 47.9565 129.172 46.8885 129.172C45.8085 129.172 45.1845 128.428 45.1845 127.312C45.1845 126.208 45.8205 125.464 46.8765 125.464Z" fill="#323946"/>
<g opacity="0.16">
<rect x="55.9995" y="32" width="24" height="106" fill="#263238"/>
</g>
<path d="M60.8192 130H62.0672V121.42H61.0112C60.8792 122.38 60.2432 122.752 58.7672 122.788V123.7H59.8352C60.1712 123.7 60.4832 123.7 60.8192 123.688C60.8072 123.988 60.8192 124.276 60.8192 124.564V130ZM69.991 127.108H68.791V121.42H67.555C67.507 121.48 66.715 122.668 66.235 123.364L63.583 127.18V128.104H67.591V130H68.791V128.104H69.991V127.108ZM67.591 127.108H64.891C64.867 127.108 65.251 126.556 65.611 126.04L66.451 124.828L67.615 122.98H67.639C67.639 123.316 67.591 123.916 67.591 124.792C67.579 126.016 67.591 127.108 67.591 127.108ZM77.1394 127.108H75.9394V121.42H74.7034C74.6554 121.48 73.8634 122.668 73.3834 123.364L70.7314 127.18V128.104H74.7394V130H75.9394V128.104H77.1394V127.108ZM74.7394 127.108H72.0394C72.0154 127.108 72.3994 126.556 72.7594 126.04L73.5994 124.828L74.7634 122.98H74.7874C74.7874 123.316 74.7394 123.916 74.7394 124.792C74.7274 126.016 74.7394 127.108 74.7394 127.108Z" fill="#323946"/>
<g opacity="0.16">
<rect x="84.0005" y="11" width="24" height="127" fill="#263238"/>
</g>
<path d="M88.7557 130H90.0037V121.42H88.9477C88.8157 122.38 88.1797 122.752 86.7037 122.788V123.7H87.7717C88.1077 123.7 88.4197 123.7 88.7557 123.688C88.7437 123.988 88.7557 124.276 88.7557 124.564V130ZM97.8075 123.628C97.5915 122.224 96.7155 121.252 95.0355 121.252C92.8515 121.252 91.8195 123.016 91.8195 126.064C91.8195 128.788 92.8515 130.168 94.9275 130.168C96.6915 130.168 97.9035 129.028 97.9035 127.252C97.9035 125.572 96.8235 124.468 95.2155 124.468C93.9435 124.468 93.3315 125.14 93.0675 125.548C93.0795 125.2 93.1035 124.864 93.1635 124.552C93.3675 123.22 93.9795 122.272 95.0235 122.272C96.0555 122.272 96.3555 123.028 96.4635 123.628H97.8075ZM94.8555 125.464C95.9355 125.464 96.5475 126.244 96.5475 127.336C96.5475 128.404 95.9355 129.172 94.8675 129.172C93.7875 129.172 93.1635 128.428 93.1635 127.312C93.1635 126.208 93.7995 125.464 94.8555 125.464ZM100.729 125.368C99.6606 125.764 99.0606 126.484 99.0606 127.648C99.0606 129.172 100.189 130.18 102.073 130.18C103.957 130.18 105.073 129.172 105.073 127.66C105.073 126.496 104.509 125.8 103.417 125.368V125.344C103.981 125.128 104.713 124.564 104.713 123.424C104.713 122.2 103.777 121.252 102.073 121.252C100.369 121.252 99.4326 122.2 99.4326 123.424C99.4326 124.564 100.165 125.128 100.729 125.344V125.368ZM102.073 125.968C103.141 125.968 103.789 126.592 103.789 127.552C103.789 128.464 103.153 129.124 102.073 129.124C100.957 129.124 100.345 128.464 100.345 127.552C100.345 126.592 100.993 125.968 102.073 125.968ZM102.073 122.368C102.937 122.368 103.489 122.884 103.489 123.604C103.489 124.348 102.937 124.864 102.073 124.864C101.209 124.864 100.669 124.348 100.669 123.616C100.669 122.872 101.197 122.368 102.073 122.368Z" fill="#323946"/>
<g opacity="0.16">
<rect x="112" y="4" width="24" height="134" fill="#263238"/>
</g>
<path d="M119.677 130V128.92H115.585C115.873 128.644 116.461 128.188 116.797 127.912L117.469 127.348C118.609 126.388 119.641 125.26 119.641 123.844C119.641 122.344 118.645 121.252 116.833 121.252C115.021 121.252 114.001 122.44 113.977 124.168H115.249C115.285 123.004 115.825 122.38 116.833 122.38C117.745 122.38 118.285 122.968 118.285 123.844C118.285 124.768 117.781 125.512 116.689 126.496L114.697 128.296C114.325 128.632 114.073 128.884 114.073 128.92V130H119.677ZM127.023 127.108H125.823V121.42H124.587C124.539 121.48 123.747 122.668 123.267 123.364L120.615 127.18V128.104H124.623V130H125.823V128.104H127.023V127.108ZM124.623 127.108H121.923C121.899 127.108 122.283 126.556 122.643 126.04L123.483 124.828L124.647 122.98H124.671C124.671 123.316 124.623 123.916 124.623 124.792C124.611 126.016 124.623 127.108 124.623 127.108ZM129.684 125.368C128.616 125.764 128.016 126.484 128.016 127.648C128.016 129.172 129.144 130.18 131.028 130.18C132.912 130.18 134.028 129.172 134.028 127.66C134.028 126.496 133.464 125.8 132.372 125.368V125.344C132.936 125.128 133.668 124.564 133.668 123.424C133.668 122.2 132.732 121.252 131.028 121.252C129.324 121.252 128.388 122.2 128.388 123.424C128.388 124.564 129.12 125.128 129.684 125.344V125.368ZM131.028 125.968C132.096 125.968 132.744 126.592 132.744 127.552C132.744 128.464 132.108 129.124 131.028 129.124C129.912 129.124 129.3 128.464 129.3 127.552C129.3 126.592 129.948 125.968 131.028 125.968ZM131.028 122.368C131.892 122.368 132.444 122.884 132.444 123.604C132.444 124.348 131.892 124.864 131.028 124.864C130.164 124.864 129.624 124.348 129.624 123.616C129.624 122.872 130.152 122.368 131.028 122.368Z" fill="#323946"/>
<g opacity="0.16">
<rect x="140" y="48" width="24" height="90" fill="#263238"/>
</g>
<path d="M145.389 127.792C145.617 129.208 146.481 130.168 148.161 130.168C150.357 130.168 151.377 128.416 151.377 125.356C151.377 122.644 150.345 121.252 148.281 121.252C146.493 121.252 145.305 122.404 145.305 124.144C145.305 125.824 146.373 126.904 147.981 126.904C149.205 126.904 149.853 126.304 150.117 125.884H150.129C150.105 126.232 150.081 126.568 150.033 126.88C149.817 128.2 149.217 129.148 148.173 129.148C147.153 129.148 146.805 128.404 146.733 127.792H145.389ZM148.341 122.248C149.385 122.248 150.045 122.992 150.045 124.084C150.045 125.188 149.373 125.908 148.341 125.908C147.309 125.908 146.649 125.152 146.649 124.06C146.649 122.992 147.309 122.248 148.341 122.248ZM158.594 123.628C158.378 122.224 157.502 121.252 155.822 121.252C153.638 121.252 152.606 123.016 152.606 126.064C152.606 128.788 153.638 130.168 155.714 130.168C157.478 130.168 158.69 129.028 158.69 127.252C158.69 125.572 157.61 124.468 156.002 124.468C154.73 124.468 154.118 125.14 153.854 125.548C153.866 125.2 153.89 124.864 153.95 124.552C154.154 123.22 154.766 122.272 155.81 122.272C156.842 122.272 157.142 123.028 157.25 123.628H158.594ZM155.642 125.464C156.722 125.464 157.334 126.244 157.334 127.336C157.334 128.404 156.722 129.172 155.654 129.172C154.574 129.172 153.95 128.428 153.95 127.312C153.95 126.208 154.586 125.464 155.642 125.464Z" fill="#323946"/>
<g opacity="0.16">
<rect x="168" y="26" width="24" height="112" fill="#263238"/>
</g>
<path d="M172.82 130H174.068V121.42H173.012C172.88 122.38 172.244 122.752 170.768 122.788V123.7H171.836C172.172 123.7 172.484 123.7 172.82 123.688C172.808 123.988 172.82 124.276 172.82 124.564V130ZM181.991 127.108H180.791V121.42H179.555C179.507 121.48 178.715 122.668 178.235 123.364L175.583 127.18V128.104H179.591V130H180.791V128.104H181.991V127.108ZM179.591 127.108H176.891C176.867 127.108 177.251 126.556 177.611 126.04L178.451 124.828L179.615 122.98H179.639C179.639 123.316 179.591 123.916 179.591 124.792C179.579 126.016 179.591 127.108 179.591 127.108ZM189.14 127.108H187.94V121.42H186.704C186.656 121.48 185.864 122.668 185.384 123.364L182.732 127.18V128.104H186.74V130H187.94V128.104H189.14V127.108ZM186.74 127.108H184.04C184.016 127.108 184.4 126.556 184.76 126.04L185.6 124.828L186.764 122.98H186.788C186.788 123.316 186.74 123.916 186.74 124.792C186.728 126.016 186.74 127.108 186.74 127.108Z" fill="#323946"/>
<rect x="196" y="15" width="24" height="123" fill="#DCDEDF"/>
<path d="M200.755 130H202.003V121.42H200.947C200.815 122.38 200.179 122.752 198.703 122.788V123.7H199.771C200.107 123.7 200.419 123.7 200.755 123.688C200.743 123.988 200.755 124.276 200.755 124.564V130ZM209.807 123.628C209.591 122.224 208.715 121.252 207.035 121.252C204.851 121.252 203.819 123.016 203.819 126.064C203.819 128.788 204.851 130.168 206.927 130.168C208.691 130.168 209.903 129.028 209.903 127.252C209.903 125.572 208.823 124.468 207.215 124.468C205.943 124.468 205.331 125.14 205.067 125.548C205.079 125.2 205.103 124.864 205.163 124.552C205.367 123.22 205.979 122.272 207.023 122.272C208.055 122.272 208.355 123.028 208.463 123.628H209.807ZM206.855 125.464C207.935 125.464 208.547 126.244 208.547 127.336C208.547 128.404 207.935 129.172 206.867 129.172C205.787 129.172 205.163 128.428 205.163 127.312C205.163 126.208 205.799 125.464 206.855 125.464ZM212.728 125.368C211.66 125.764 211.06 126.484 211.06 127.648C211.06 129.172 212.188 130.18 214.072 130.18C215.956 130.18 217.072 129.172 217.072 127.66C217.072 126.496 216.508 125.8 215.416 125.368V125.344C215.98 125.128 216.712 124.564 216.712 123.424C216.712 122.2 215.776 121.252 214.072 121.252C212.368 121.252 211.432 122.2 211.432 123.424C211.432 124.564 212.164 125.128 212.728 125.344V125.368ZM214.072 125.968C215.14 125.968 215.788 126.592 215.788 127.552C215.788 128.464 215.152 129.124 214.072 129.124C212.956 129.124 212.344 128.464 212.344 127.552C212.344 126.592 212.992 125.968 214.072 125.968ZM214.072 122.368C214.936 122.368 215.488 122.884 215.488 123.604C215.488 124.348 214.936 124.864 214.072 124.864C213.208 124.864 212.668 124.348 212.668 123.616C212.668 122.872 213.196 122.368 214.072 122.368Z" fill="#323946"/>
<rect x="252" y="15" width="24" height="123" fill="#DCDEDF"/>
<path d="M256.755 130H258.003V121.42H256.947C256.815 122.38 256.179 122.752 254.703 122.788V123.7H255.771C256.107 123.7 256.419 123.7 256.755 123.688C256.743 123.988 256.755 124.276 256.755 124.564V130ZM265.807 123.628C265.591 122.224 264.715 121.252 263.035 121.252C260.851 121.252 259.819 123.016 259.819 126.064C259.819 128.788 260.851 130.168 262.927 130.168C264.691 130.168 265.903 129.028 265.903 127.252C265.903 125.572 264.823 124.468 263.215 124.468C261.943 124.468 261.331 125.14 261.067 125.548C261.079 125.2 261.103 124.864 261.163 124.552C261.367 123.22 261.979 122.272 263.023 122.272C264.055 122.272 264.355 123.028 264.463 123.628H265.807ZM262.855 125.464C263.935 125.464 264.547 126.244 264.547 127.336C264.547 128.404 263.935 129.172 262.867 129.172C261.787 129.172 261.163 128.428 261.163 127.312C261.163 126.208 261.799 125.464 262.855 125.464ZM268.728 125.368C267.66 125.764 267.06 126.484 267.06 127.648C267.06 129.172 268.188 130.18 270.072 130.18C271.956 130.18 273.072 129.172 273.072 127.66C273.072 126.496 272.508 125.8 271.416 125.368V125.344C271.98 125.128 272.712 124.564 272.712 123.424C272.712 122.2 271.776 121.252 270.072 121.252C268.368 121.252 267.432 122.2 267.432 123.424C267.432 124.564 268.164 125.128 268.728 125.344V125.368ZM270.072 125.968C271.14 125.968 271.788 126.592 271.788 127.552C271.788 128.464 271.152 129.124 270.072 129.124C268.956 129.124 268.344 128.464 268.344 127.552C268.344 126.592 268.992 125.968 270.072 125.968ZM270.072 122.368C270.936 122.368 271.488 122.884 271.488 123.604C271.488 124.348 270.936 124.864 270.072 124.864C269.208 124.864 268.668 124.348 268.668 123.616C268.668 122.872 269.196 122.368 270.072 122.368Z" fill="#323946"/>
<rect x="224" y="46" width="24" height="92" fill="#06BF7F"/>
<path d="M235.477 126.108H234.277V120.42H233.041C232.993 120.48 232.201 121.668 231.721 122.364L229.069 126.18V127.104H233.077V129H234.277V127.104H235.477V126.108ZM233.077 126.108H230.377C230.353 126.108 230.737 125.556 231.097 125.04L231.937 123.828L233.101 121.98H233.125C233.125 122.316 233.077 122.916 233.077 123.792C233.065 125.016 233.077 126.108 233.077 126.108ZM239.566 120.252C237.094 120.252 236.542 122.424 236.542 124.728C236.542 127.272 237.166 129.18 239.566 129.18C241.966 129.18 242.602 127.272 242.602 124.728C242.602 122.424 242.038 120.252 239.566 120.252ZM239.566 121.272C240.958 121.272 241.234 122.844 241.234 124.728C241.234 126.744 240.91 128.172 239.566 128.172C238.234 128.172 237.898 126.744 237.898 124.728C237.898 122.856 238.186 121.272 239.566 121.272Z" fill="white"/>
</svg>
