<svg width="290" height="152" viewBox="0 0 290 152" fill="none" xmlns="http://www.w3.org/2000/svg">
<g opacity="0.24">
<rect y="45" width="7" height="107" fill="#56D3A8"/>
</g>
<g opacity="0.64">
<rect y="41" width="7" height="2" fill="#049160"/>
</g>
<g opacity="0.24">
<rect x="8.08057" y="19" width="7" height="133" fill="#56D3A8"/>
</g>
<g opacity="0.64">
<rect x="8.08057" y="15" width="7" height="2" fill="#049160"/>
</g>
<g opacity="0.24">
<rect x="16.1611" y="59" width="7" height="93" fill="#56D3A8"/>
</g>
<g opacity="0.64">
<rect x="16.1611" y="55" width="7" height="2" fill="#049160"/>
</g>
<g opacity="0.24">
<rect x="24.2415" y="39" width="7" height="113" fill="#56D3A8"/>
</g>
<g opacity="0.64">
<rect x="24.2415" y="35" width="7" height="2" fill="#049160"/>
</g>
<g opacity="0.24">
<rect x="32.322" y="35" width="7" height="117" fill="#56D3A8"/>
</g>
<g opacity="0.64">
<rect x="32.322" y="31" width="7" height="2" fill="#049160"/>
</g>
<g opacity="0.24">
<rect x="40.4026" y="4" width="7" height="148" fill="#56D3A8"/>
</g>
<g opacity="0.64">
<rect x="40.4026" width="7" height="2" fill="#049160"/>
</g>
<g opacity="0.24">
<rect x="48.4832" y="23" width="7" height="129" fill="#56D3A8"/>
</g>
<g opacity="0.64">
<rect x="48.4832" y="19" width="7" height="2" fill="#049160"/>
</g>
<g opacity="0.24">
<rect x="56.5635" y="39" width="7" height="113" fill="#56D3A8"/>
</g>
<g opacity="0.64">
<rect x="56.5635" y="35" width="7" height="2" fill="#049160"/>
</g>
<g opacity="0.24">
<rect x="64.644" y="30" width="7" height="122" fill="#56D3A8"/>
</g>
<g opacity="0.64">
<rect x="64.644" y="26" width="7" height="2" fill="#049160"/>
</g>
<g opacity="0.24">
<rect x="72.7246" y="45" width="7" height="107" fill="#56D3A8"/>
</g>
<g opacity="0.64">
<rect x="72.7246" y="41" width="7" height="2" fill="#049160"/>
</g>
<g opacity="0.24">
<rect x="80.8049" y="19" width="7" height="133" fill="#56D3A8"/>
</g>
<g opacity="0.64">
<rect x="80.8049" y="15" width="7" height="2" fill="#049160"/>
</g>
<g opacity="0.24">
<rect x="88.8853" y="59" width="7" height="93" fill="#56D3A8"/>
</g>
<g opacity="0.64">
<rect x="88.8853" y="55" width="7" height="2" fill="#049160"/>
</g>
<g opacity="0.24">
<rect x="96.9658" y="39" width="7" height="113" fill="#56D3A8"/>
</g>
<g opacity="0.64">
<rect x="96.9658" y="35" width="7" height="2" fill="#049160"/>
</g>
<g opacity="0.24">
<rect x="105.046" y="35" width="7" height="117" fill="#56D3A8"/>
</g>
<g opacity="0.64">
<rect x="105.046" y="31" width="7" height="2" fill="#049160"/>
</g>
<g opacity="0.24">
<rect x="113.127" y="4" width="7" height="148" fill="#56D3A8"/>
</g>
<g opacity="0.64">
<rect x="113.127" width="7" height="2" fill="#049160"/>
</g>
<g opacity="0.24">
<rect x="121.207" y="23" width="7" height="129" fill="#56D3A8"/>
</g>
<g opacity="0.64">
<rect x="121.207" y="19" width="7" height="2" fill="#049160"/>
</g>
<g opacity="0.24">
<rect x="129.288" y="39" width="7" height="113" fill="#56D3A8"/>
</g>
<g opacity="0.64">
<rect x="129.288" y="35" width="7" height="2" fill="#049160"/>
</g>
<g opacity="0.24">
<rect x="137.368" y="30" width="7" height="122" fill="#56D3A8"/>
</g>
<g opacity="0.64">
<rect x="137.368" y="26" width="7" height="2" fill="#049160"/>
</g>
<g opacity="0.24">
<rect x="145.449" y="45" width="7" height="107" fill="#56D3A8"/>
</g>
<g opacity="0.64">
<rect x="145.449" y="41" width="7" height="2" fill="#049160"/>
</g>
<g opacity="0.24">
<rect x="153.529" y="19" width="7" height="133" fill="#56D3A8"/>
</g>
<g opacity="0.64">
<rect x="153.529" y="15" width="7" height="2" fill="#049160"/>
</g>
<g opacity="0.24">
<rect x="161.61" y="59" width="7" height="93" fill="#56D3A8"/>
</g>
<g opacity="0.64">
<rect x="161.61" y="55" width="7" height="2" fill="#049160"/>
</g>
<g opacity="0.24">
<rect x="169.69" y="39" width="7" height="113" fill="#56D3A8"/>
</g>
<g opacity="0.64">
<rect x="169.69" y="35" width="7" height="2" fill="#049160"/>
</g>
<g opacity="0.24">
<rect x="177.771" y="35" width="7" height="117" fill="#56D3A8"/>
</g>
<g opacity="0.64">
<rect x="177.771" y="31" width="7" height="2" fill="#049160"/>
</g>
<g opacity="0.24">
<rect x="185.852" y="4" width="7" height="148" fill="#56D3A8"/>
</g>
<g opacity="0.64">
<rect x="185.852" width="7" height="2" fill="#049160"/>
</g>
<g opacity="0.24">
<rect x="193.932" y="23" width="7" height="129" fill="#56D3A8"/>
</g>
<g opacity="0.64">
<rect x="193.932" y="19" width="7" height="2" fill="#049160"/>
</g>
<g opacity="0.24">
<rect x="202.012" y="39" width="7" height="113" fill="#56D3A8"/>
</g>
<g opacity="0.64">
<rect x="202.012" y="35" width="7" height="2" fill="#049160"/>
</g>
<g opacity="0.24">
<rect x="210.093" y="30" width="7" height="122" fill="#56D3A8"/>
</g>
<g opacity="0.64">
<rect x="210.093" y="26" width="7" height="2" fill="#049160"/>
</g>
<g opacity="0.24">
<rect x="218.174" y="45" width="7" height="107" fill="#56D3A8"/>
</g>
<g opacity="0.64">
<rect x="218.174" y="41" width="7" height="2" fill="#049160"/>
</g>
<g opacity="0.24">
<rect x="226.254" y="19" width="7" height="133" fill="#56D3A8"/>
</g>
<g opacity="0.64">
<rect x="226.254" y="15" width="7" height="2" fill="#049160"/>
</g>
<g opacity="0.24">
<rect x="234.334" y="59" width="7" height="93" fill="#56D3A8"/>
</g>
<g opacity="0.64">
<rect x="234.334" y="55" width="7" height="2" fill="#049160"/>
</g>
<g opacity="0.24">
<rect x="242.415" y="39" width="7" height="113" fill="#56D3A8"/>
</g>
<g opacity="0.64">
<rect x="242.415" y="35" width="7" height="2" fill="#049160"/>
</g>
<g opacity="0.24">
<rect x="250.496" y="35" width="7" height="117" fill="#56D3A8"/>
</g>
<g opacity="0.64">
<rect x="250.496" y="31" width="7" height="2" fill="#049160"/>
</g>
<g opacity="0.24">
<rect x="258.576" y="4" width="7" height="148" fill="#56D3A8"/>
</g>
<g opacity="0.64">
<rect x="258.576" width="7" height="2" fill="#049160"/>
</g>
<g opacity="0.24">
<rect x="266.656" y="23" width="7" height="129" fill="#56D3A8"/>
</g>
<g opacity="0.64">
<rect x="266.656" y="19" width="7" height="2" fill="#049160"/>
</g>
<g opacity="0.24">
<rect x="274.737" y="39" width="7" height="113" fill="#56D3A8"/>
</g>
<g opacity="0.64">
<rect x="274.737" y="35" width="7" height="2" fill="#049160"/>
</g>
<g opacity="0.24">
<rect x="282.817" y="30" width="7" height="122" fill="#56D3A8"/>
</g>
<g opacity="0.64">
<rect x="282.817" y="26" width="7" height="2" fill="#049160"/>
</g>
</svg>
