<svg width="12" height="12" viewBox="0 0 12 12" fill="none" xmlns="http://www.w3.org/2000/svg">
<mask id="mask0" mask-type="alpha" maskUnits="userSpaceOnUse" x="0" y="0" width="12" height="12">
<path d="M10.266 10.1484V7.06699H11.3327V10.2669C11.3327 10.8561 10.8551 11.3336 10.266 11.3336H1.73268C1.14358 11.3336 0.666016 10.8561 0.666016 10.2669V1.73365C0.666016 1.14455 1.14358 0.666992 1.73268 0.666992H4.93268V1.73365H1.73268V10.1484H10.266Z" fill="white"/>
<path d="M4.9319 8.13365L3.86523 7.06699L9.19857 1.73365H7.06523V0.666992H11.3319V4.93365H10.2652V2.80032L4.9319 8.13365Z" fill="white"/>
</mask>
<g mask="url(#mask0)">
<path d="M10.266 10.1482V12.1482H12.266V10.1482H10.266ZM10.266 7.06678V5.06678H8.26602V7.06678H10.266ZM11.3327 7.06678H13.3327V5.06678H11.3327V7.06678ZM4.93269 0.666778H6.93269V-1.33322H4.93269V0.666778ZM4.93269 1.73344V3.73344H6.93269V1.73344H4.93269ZM1.73269 1.73344V-0.266555H-0.267313V1.73344H1.73269ZM1.73269 10.1482H-0.267313V12.1482H1.73269V10.1482ZM3.86602 7.06678L2.45181 5.65256L1.03759 7.06678L2.45181 8.48099L3.86602 7.06678ZM4.93269 8.13344L3.51848 9.54766L4.93269 10.9618L6.3469 9.54766L4.93269 8.13344ZM9.19936 1.73344L10.6135 3.14766L14.0278 -0.266555H9.19936V1.73344ZM7.06602 1.73344H5.06602V3.73344H7.06602V1.73344ZM7.06602 0.666778V-1.33322H5.06602V0.666778H7.06602ZM11.3327 0.666778H13.3327V-1.33322H11.3327V0.666778ZM11.3327 4.93344V6.93344H13.3327V4.93344H11.3327ZM10.266 4.93344H8.26602V6.93344H10.266V4.93344ZM10.266 2.80011H12.266V-2.02832L8.85181 1.3859L10.266 2.80011ZM11.3327 5.06678H10.266V9.06678H11.3327V5.06678ZM10.266 13.3334C11.9597 13.3334 13.3327 11.9604 13.3327 10.2667H9.33269C9.33269 9.75131 9.75056 9.33344 10.266 9.33344V13.3334ZM1.73269 13.3334H10.266V9.33344H1.73269V13.3334ZM-1.33398 10.2667C-1.33398 11.9604 0.0390129 13.3334 1.73269 13.3334V9.33344C2.24816 9.33344 2.66602 9.75131 2.66602 10.2667H-1.33398ZM1.73269 -1.33322C0.0390141 -1.33322 -1.33398 0.0397716 -1.33398 1.73344H2.66602C2.66602 2.24891 2.24815 2.66678 1.73269 2.66678V-1.33322ZM6.93269 1.73344V0.666778H2.93269V1.73344H6.93269ZM2.45181 8.48099L3.51848 9.54766L6.3469 6.71923L5.28024 5.65256L2.45181 8.48099ZM10.266 8.14826H1.73269V12.1482H10.266V8.14826ZM8.26602 7.06678V10.1482H12.266V7.06678H8.26602ZM13.3327 10.2667V7.06678H9.33269V10.2667H13.3327ZM-1.33398 1.73344V10.2667H2.66602V1.73344H-1.33398ZM4.93269 -1.33322H1.73269V2.66678H4.93269V-1.33322ZM1.73269 3.73344H4.93269V-0.266555H1.73269V3.73344ZM3.73269 10.1482V1.73344H-0.267313V10.1482H3.73269ZM7.78514 0.319231L2.45181 5.65256L5.28024 8.48099L10.6135 3.14766L7.78514 0.319231ZM7.06602 3.73344H9.19936V-0.266555H7.06602V3.73344ZM5.06602 0.666778V1.73344H9.06602V0.666778H5.06602ZM11.3327 -1.33322H7.06602V2.66678H11.3327V-1.33322ZM13.3327 4.93344V0.666778H9.33269V4.93344H13.3327ZM10.266 6.93344H11.3327V2.93344H10.266V6.93344ZM8.26602 2.80011V4.93344H12.266V2.80011H8.26602ZM6.3469 9.54766L11.6802 4.21432L8.85181 1.3859L3.51848 6.71923L6.3469 9.54766Z" fill="#1C2330"/>
</g>
</svg>
