<svg width="73" height="20" viewBox="0 0 73 20" fill="none" xmlns="http://www.w3.org/2000/svg">
<path d="M24.1738 10C24.1738 4.47715 28.651 0 34.1738 0V0C39.6967 0 44.1738 4.47715 44.1738 10V10C44.1738 15.5228 39.6967 20 34.1738 20V20C28.651 20 24.1738 15.5228 24.1738 10V10Z" fill="#EAEDF2"/>
<path d="M32.3536 7.99963L33.471 5.14873C33.7227 4.50641 34.6243 4.50641 34.876 5.14873L35.9934 7.99963L39.1218 8.15936C39.8193 8.19497 40.0994 9.08405 39.5502 9.51908L37.1326 11.4342L37.9362 14.3664C38.12 15.0372 37.3889 15.5848 36.8051 15.2136L34.1735 13.5401L31.5419 15.2136C30.9581 15.5848 30.227 15.0372 30.4108 14.3664L31.2144 11.4342L28.7968 9.51908C28.2476 9.08405 28.5277 8.19497 29.2252 8.15936L32.3536 7.99963Z" fill="black"/>
<path d="M52.1738 10C52.1738 4.47715 56.651 0 62.1738 0C67.6967 0 72.1738 4.47715 72.1738 10C72.1738 15.5228 67.6967 20 62.1738 20C56.651 20 52.1738 15.5228 52.1738 10Z" fill="#EAEDF2"/>
<path d="M66.0732 5.13764C65.8129 4.8773 65.3908 4.8773 65.1304 5.13764L64.659 5.60905L66.5446 7.49467L67.016 7.02326C67.2764 6.76291 67.2764 6.3408 67.016 6.08045L66.0732 5.13764Z" fill="black"/>
<path d="M66.0732 7.96607L64.1876 6.08045L58.2546 12.0135L57.7832 14.3705L60.1402 13.8991L66.0732 7.96607Z" fill="black"/>
<path fill-rule="evenodd" clip-rule="evenodd" d="M3.10059 8.85083L4.35766 7.59375L8.17357 11.4097L11.9895 7.59375L13.2466 8.85083L8.17357 13.9238L3.10059 8.85083Z" fill="black"/>
</svg>
